METRIC,LZ
M48
T1F00S00C0.600
T2F00S00C0.700
T3F00S00C0.850
T4F00S00C0.950
T5F00S00C1.000
T6F00S00C1.100
T7F00S00C1.300
T8F00S00C1.800
T9F00S00C2.000
T10F00S00C2.500
T11F00S00C3.000
T12F00S00C3.500
T13F00S00C1.000
%
T01
X005745Y00025
X006475Y00021
X00631Y000575
X00766Y000565
X00799Y000535
X008075Y00018
X00863Y000185
X00921
X00752Y000195
X00979Y000185
X01037
X01095
X01153
X01211
X01269Y00019
X01327Y000185
X013985Y00022
X01506Y00021
X0157299Y000185
X0162999
X0168899
X017465Y00018
X018045
X018625
X019205
X019785
X020365
X020945
X0215199Y000185
X021605Y00075
X022Y001225
X02213Y00112
X022465Y00132
X0223Y001515
X022245Y001715
X02215Y00183
X02211Y002165
X021375Y00207
X02149Y00187
X021665Y001705
X02179Y001455
X02135Y002745
X021575Y00332
X021565Y00354
X02163Y00384
X021645Y0042
X0220099Y004195
X022755Y004345
X0226Y00275
X022Y003195
X02179Y0032
X02177Y003365
X02101Y003325
X020945Y0035
X020765Y003105
X020555Y00322
X020275Y0035
X020105Y0039
X019885Y003725
X019725Y00359
X0194999Y003375
X01932Y003295
X019475Y00293
X019355Y00275
X018925Y00264
X018505Y002615
X018375Y0028
X01819Y00274
X0182Y00303
X018385Y003425
X0185299Y003585
X018125Y00404
X01797Y0039
X01782Y00414
X017465Y00406
X017375Y003795
X0175099Y003485
X01764Y003125
X017615Y00287
X01738
X01748Y003
X01797Y00249
X01806Y00236
X0179Y0022
X0183499Y00232
X01831Y00177
X01836Y0014
X0188799Y00134
X0187499Y001655
X019215Y00157
X0197499Y001495
X0202499Y001415
X0205Y000835
X0199323Y000825
X01935Y00083
X01877
X01819Y000825
X017605Y00083
X0177399Y00135
X017775Y00163
X017475Y00143
X0173299Y001685
X0195Y00234
X020085Y00227
X020105Y002495
X01993Y00263
X01988Y00287
X020445Y002365
X02067Y002245
X020795Y00243
X02108Y00263
X0212499Y002595
X02126Y00287
X021185Y003
X0211499Y002225
X02109Y00083
X020945Y00413
X020635Y00412
X02045Y00404
X017005Y004005
X016735
X016855Y0042
X01708Y00421
X0171999Y003475
X017005Y003
X016735Y003125
X016445Y00329
X0160899Y003105
X01609Y0035
X0157499Y003495
X015855Y002895
X0157199Y00269
X015435Y0027
X0154299Y00309
X0145Y003035
X01448Y00272
X014275Y00249
X01447Y00224
X01448Y00192
X014285Y00168
X014465Y00143
X0145Y00125
X01393Y001345
X01371Y00137
X014Y001
X01341Y000815
X013395Y00251
X01339Y002765
X013365Y00302
X01336Y003305
X01426Y003275
X01448Y0035
X013715Y00429
X01555Y004375
X016095Y00266
Y0023
X01608Y002065
X01621Y00188
X01634Y001685
X0161499Y001375
X015955Y001185
X01587Y000825
X015295
X015Y001
X015165Y00131
X01558Y00134
X0157299Y001425
X015715Y00214
X015425Y00209
X01667Y00223
Y00193
X0170399Y00182
X01726Y001855
X017005Y001425
X0167499Y0015
X01654Y00118
X01645Y00082
X01703Y00083
X01712Y001165
X0169999Y002465
X016855Y00275
X016445Y00262
X016555Y00249
X01324Y00265
X013115Y002355
X012975Y00246
Y00196
X012735Y00209
X01225Y00203
X012245Y00224
X012365Y002365
X01211Y002485
X01182Y00203
X011335Y00204
X011545Y001625
X01155Y00136
X011965Y001375
X012415Y00135
X01268Y001355
X01284Y001375
X013115Y0015
X01324Y00185
X013115Y00316
X012705Y003165
X012725Y003005
X01225Y003385
X01211Y003255
Y0039
X011425
X01147Y004195
X01168Y004185
X01177Y00443
X01197Y00448
X01125Y004545
X01102Y004325
X010995Y004075
X011135Y004155
X010245Y004215
X010125Y00307
X0106Y00313
X01071Y003255
X010955Y00295
Y00262
X01066Y002745
X01047Y002855
X010315Y00268
X010055Y0024
X009875Y00187
X00973Y0019
X009655Y00175
X009935Y001735
X00981Y00135
X009515Y001385
X010205Y00137
X01068Y001345
X01094Y001335
X011105Y00137
X010955Y00164
X01081Y000825
X01168Y00082
X01255
X00994
X009435Y00206
Y00269
X00968Y0035
X011545Y003135
X01143Y00287
X01255Y00421
X01288Y004365
X00935Y00421
X009085Y004515
X00874Y00453
X008595Y00441
X008755Y004225
X00873Y00338
X0091Y0034
X0092Y00326
X00909Y003105
X00917Y002445
X00915Y002
X00907Y001615
X00919Y00151
X00935Y00132
X00878Y00135
X00844Y00145
X008Y001365
X0078447Y0012353
X0075Y001
X00699Y001165
X00675Y001505
X00675Y001835
X00712Y001845
X00706Y002745
X00685Y00292
X00661Y002595
X006325Y00249
X00625Y002
X00575
X00575Y00164
Y00125
X00625
X006475Y00134
X0065Y001
X008495Y000805
X00907Y00082
X00866Y002135
X008675Y002365
X008705Y002565
X008715Y00273
X008575Y002765
X00799Y00272
X00747Y00261
X007245Y003545
X00787Y0035
X00786Y00438
X00689Y004355
X007Y00422
X00682Y00453
X00636Y004215
X00641Y00408
X00648Y003935
X00645Y003735
X006595Y00382
X00672Y00369
X005925Y003645
X0058Y004
X00613Y004045
X006195Y003125
X006Y003
X005745Y002755
X002965Y00273
X00322Y0024
X001855Y00257
X00222Y003615
X00123Y00772
X001765Y00795
X001985Y0075
X002175Y00679
X00222Y0056
X00255Y005665
X00288Y00549
X002385Y004735
X003215Y006495
X00416Y006545
X0042Y008065
X004035Y00818
X002965Y008145
X00281Y00817
X00283Y00832
X006195Y00809
X006345Y00821
X00646Y008045
X007155Y00786
X007575Y007775
X00755Y00754
X0075Y00738
X00718Y00725
X007365Y006505
X007045Y0062
X0069Y006135
X00709Y005415
X0069Y005195
X007085Y00497
X00739Y005025
X007545Y004825
X0075Y005325
X008Y00532
X00842Y00534
X00875Y00525
X00889Y00533
X00904Y005375
X009185Y00539
X009375Y00552
X00936Y00605
X0088Y00627
X00882Y006655
X0086Y006875
X00835Y006305
X00802Y005985
X00818Y00567
X008585Y00573
X00769Y005675
X0082Y004995
X008315Y004675
X008865Y00469
X009365Y0049
X009295Y00757
X008885Y00801
X00845Y00773
X0080779Y007345
X00795Y008205
X00783Y00846
X007715Y0080407
X007075Y008415
X00842Y008465
X00617Y00728
X005815Y007175
X00573Y00755
X00644Y006885
X006365Y006775
X00941Y007265
X00988Y007375
X010085Y00739
X01014Y007175
X01039Y007
X010515Y00678
X010865Y00679
X011125Y00674
X01136Y006865
Y007185
X01089
X010895Y007495
X01105Y007555
X011065Y00774
X01108Y00795
X01139Y00792
X01137Y00772
X01219Y007705
X01215Y007535
X012595Y00739
X01278Y007225
X01313Y007175
X013175Y00686
X01312Y00618
X01277Y00591
X012135Y006165
X011735Y005905
X011355Y005855
X01136Y00621
X010885
Y00586
X010565Y005925
X01048Y005725
X010285Y00564
X01015Y005725
X00987Y005835
X009855Y005545
X00976Y00542
X009545
X009635Y00554
X00954Y004715
X01037Y005015
X01039Y00625
X0105652Y0064102
X010115Y006405
X010075Y00663
X00978Y006925
X010005Y00758
X01013Y007885
X01024Y0082
X010205Y00839
X010345Y00837
X01046Y008125
X010465Y00768
X01052Y00725
X011015Y00699
X01215Y006865
X0127Y007705
X013135Y00775
X01305Y0085
X01253
X00969Y0079
X01157Y005465
X01225Y00508
X012385Y00497
X01339Y00521
X013375Y006035
X013725Y006165
X01425Y00625
X01475
X01525Y006245
X01575Y00625
X01625
X01675
X01725
X016555Y005235
X016445Y005335
X01634Y005165
X014885Y005355
X01464Y00562
X01514
X014125Y005625
X014375Y005365
X01338Y0074
X01358Y008495
X0175Y00825
X017745Y008
X0174999Y00775
X0177499Y0075
X0182499
X018375Y007135
X0187499Y0075
X0185Y00775
X0189999Y00775
X01875Y008
Y0085
X0192499Y0085
X019Y00825
X01925Y008
X0195Y00825
X0199999Y00825
X01975Y0085
X0202499Y0085
X02025Y008
X0204999Y00775
X0199999
X01975Y008
Y0075
X0202499Y0075
X020725Y00741
X0207499Y008
X0205Y00825
X0209999Y00825
X02075Y0085
X0195Y00775
X0192499Y0075
X01825Y008
X0184999Y00825
X0179999
X0182499Y0085
X0177499
X01764Y006995
X017835Y00625
X01817Y006095
X01853Y00625
X019
X01897Y006015
X0195Y00625
X02
X020495
X021
X01933Y005395
X01813Y005505
X01825Y005635
X01782Y00557
X021655Y00559
X021705Y005825
X021845Y00582
X022125Y006115
X02212Y006605
X022375Y006365
X022655Y006235
X022565Y00598
X022745Y00573
X02275Y005475
X02272Y00497
Y00471
X022625Y006605
X02277Y00685
X02265Y007105
X02275Y007385
Y00776
X022745Y008015
X02273Y008255
X0226399Y008505
X0222499
X021755Y0085
X021715Y008265
X02183Y008155
X02231Y008805
X022635Y00887
X022715Y00932
X0227Y0095
X02253Y009825
X022505Y010295
X022735
X022325Y00932
X02174Y011665
X02158Y011675
X021205Y00962
Y00934
Y00907
Y0088
X0204999Y00875
X02025Y009
X0204999Y00925
X020255Y0095
X0205Y00975
X0204999Y010245
X0202499Y010005
X0199999Y01025
X0194999
X019Y01025
X0192499Y01
X01875Y01
X0189999Y00975
X0184999
X01825Y01
X018Y00975
X0182499Y0095
X018Y00925
X0182499Y009
X018Y00875
X0185
X0189999Y00875
X0194999
X01925Y009
X0194999Y00925
X0192499Y0095
X0197499
X0195Y00975
X0199999Y00975
X0197499Y01
Y0105
X02025Y0105
X02075Y01
X02Y00925
X01975Y009
X0199999Y00875
X0174999
X0177499Y009
X0174999Y00925
Y00975
X0177499Y01
X0174999Y01025
X0179999
X0181999Y0105
X0177499
X01775Y0095
X0185Y01025
X01875Y0105
X0192499Y010505
X017165Y012035
X015125Y012
Y0115
X01484Y01118
X014Y011325
X0135Y01133
X01376Y01175
X014245Y01162
X01417Y012
X0145Y01231
X01356Y01042
X0135Y00975
X0135Y009255
X012705Y009555
X01263Y00992
X01205Y009925
X011585Y00992
X010745Y009875
Y0096
Y00934
X010905Y00917
X011345Y00865
X01218Y00878
X01253Y009055
X0128Y00876
X01275Y01075
X01225
X01225Y011245
X012Y011
X011755Y01125
X012Y0115
X012Y01199
X01175Y01175
Y01225
X01091Y01218
X01091Y012445
X010255Y01207
X01015Y01194
X009925Y01193
X00976Y0118
X00959Y012165
X009495Y0113119
X009505Y010965
X00975Y01081
X00962Y010655
Y010025
X009485Y01003
X009695Y00983
X009715Y00967
X00965Y00942
X00948Y009355
X0096Y00892
X009715Y008825
X009815Y008735
X009945Y0088
X01007Y00872
X010065Y00857
X010205Y008535
X01055Y01011
X01056Y010375
X010405Y010275
X010335Y010415
X01026Y010965
X01028Y011275
X01018Y01162
X010745Y011105
X01054Y010895
X0107443Y0106493
X01175Y01075
X0125Y011
Y0115
Y011985
X01275Y011745
X01225
X012755Y01125
X01309Y01133
X01334Y010815
X01325Y01199
X00933Y01209
X009105Y01188
X00877Y011855
X008725Y011505
X00873Y010975
X0089759Y01111
X009355Y011205
X009005Y01048
X0087577Y0105877
X00856Y01047
X00854Y01019
X008285Y010155
X008075Y01011
X008155Y01028
X00812Y010535
X00767Y010525
X007485Y0105
X007325Y01052
X00756Y01063
X00749Y010915
X00748Y01132
X007665Y011705
X00756Y012025
X007885Y01207
X007775Y01219
X007945Y012295
X008185Y012285
X00834Y012265
X008505Y01202
X00816Y01181
X00817Y01155
X008175Y01127
X008125Y011135
X00825Y00991
X007965Y00971
X007865Y009605
X00767Y009445
X007355Y009385
X00725Y00925
X007Y00936
X00655Y00936
X0065Y00968
X00674Y009655
X006695Y009945
X006545Y01
X00623Y01
X00625Y009555
X00574Y009295
X005885Y01022
X005725Y01038
X00609Y010385
X006285Y01055
X0064Y01084
X006665Y0107
X00662Y010365
X007245Y01023
X007495Y00977
X00875Y009955
X009135Y0099
X009315Y010035
X009195Y01019
X009325Y00925
X00924Y0088
X00889Y00869
X00805Y00882
X00693Y008885
X00675Y00872
X006605Y00871
X006505Y008815
X00636Y0087
X006215Y00856
X006045Y01094
X005835Y01105
X005765Y010825
X005425Y01117
X0055Y01175
X005425Y01219
X00576Y012455
X006195Y012265
X00642Y012215
X00641Y01158
X0048
X003615Y009855
X0035035Y0091235
X00354Y008945
X002975Y00914
X002835Y0092
X00278Y00935
X00284Y009665
X002305Y00978
X00249Y010275
X00232Y008925
X0028261Y0088961
X002845Y00864
X0027112Y0086762
X0017908Y0085492
X001785Y008805
X00177Y00932
X00045Y00985
X00043Y01326
X005575Y01265
X007995Y01309
X01048Y012825
X010745Y01273
X01175Y01271
X01223Y012705
X01259Y012965
X011705Y0132
X011335Y01324
X01387Y01325
X013865Y01284
X014005Y0125
X01512Y012755
Y013255
X01743Y013035
T02
X0036575Y005601
Y005727
X0036575Y005854
X0036575Y005981
Y006108
Y006235
Y006362
X0036575Y006489
X0036575Y006616
Y006743
Y00687
Y006997
Y007124
Y007251
Y007378
Y007505
X0036575Y007632
X0036575Y007759
T03
X0069794Y003511
X0072294Y004261
X0082294
X0084794Y003511
X0075305Y0082999
X0133792Y0082489
Y0079989
X0208189Y0102108
X0210689
X0131792Y0091589
Y0089089
X0118188Y0090909
X0115688
X0122991Y0122488
X0075305Y0085499
X0111387Y01308
X0113887
X0122908Y0131962
Y0129462
X0122991Y0124988
X0153989Y0129908
X0156489
T04
X0037001Y0004591
X0042001
Y0010591
X0037001
X0157284Y0115983
X0157284Y0118523
X0157284Y0121063
X0157284Y0123603
X0164904
Y0121063
Y0118523
Y0115983
X00603Y0117035
Y0119575
X005775Y0118305
Y0115765
Y0113225
X00603Y0111955
X00603Y0114495
X005775Y0120845
X004802Y012017
X00465Y012271
Y01126
X004802Y011009
T05
X0014989Y0004991
X006Y0005
Y000754
Y001008
Y001492
Y001746
Y002
Y00425
Y004504
X0015
Y00425
X0014989Y0010071
Y0007531
X0015Y004758
Y005012
Y005266
Y00552
Y005774
Y006028
Y006282
Y006536
Y00679
Y007044
Y007298
Y007552
Y007806
Y00806
Y008314
X006
Y00806
Y007806
Y007552
Y007298
Y007044
Y00679
Y006536
Y006282
Y006028
Y005774
Y00552
Y005266
Y005012
Y004758
X00721Y0075592
X00721Y0080592
X016745Y008
X017Y0075
X017495
X0199293Y0112801
Y0117801
Y0124701
X01951Y012145
X01886Y01236
X016755Y01074
Y010245
Y009755
Y00925
X0131593Y0097001
Y0102001
X006Y009076
Y008822
Y008568
X0041489Y0107391
Y0109931
Y0112471
X0033184Y0111101
Y0113871
Y0116641
Y0119411
X0033184Y0122181
X0030344Y0120796
Y0118026
Y0115256
Y0112486
X0015Y009076
Y008822
Y008568
X0014988Y0129995
Y0132535
X006Y013254
Y013
X0199293Y0129701
T06
X0017309Y0006303
Y0011303
X0021003Y0014891
X0026083
X0029809Y0011383
X0029809Y0006303
X0033703Y0014891
X0038783Y0014891
X0038703Y0027391
X0033703
X0029809Y0031103
X0029809Y0036183
X0017309Y0036103
Y0031103
X0021003Y0027391
X0026003
X0013603
X0008603
Y0014891
X0013683Y0014891
T07
X0189697Y0056512
X0204697
T08
X00544Y01085
Y01243
T09
X0158305Y0054291
X01875Y00925
T10
X0031764Y0104146
Y0129136
T11
X007Y0005
X0145
X02225Y000505
X004Y0036
X0137305Y0054291
X004Y012
X007Y013
X0145
X02225Y012995
T12
X00514Y01107
Y01221
T13
X016745Y008505
M30
