METRIC,LZ
M48
T1F00S00C0.600
T2F00S00C0.700
T3F00S00C0.850
T4F00S00C0.900
T5F00S00C0.950
T6F00S00C1.000
T7F00S00C1.100
T8F00S00C1.110
T9F00S00C1.300
T10F00S00C1.800
T11F00S00C2.000
T12F00S00C3.000
T13F00S00C3.200
T14F00S00C3.500
T15F00S00C1.000
%
T01
X-007445Y-000205
X-0079499
X-00795Y0003
X-00745Y0003
X-00595Y-0002
X-00545
X-004435Y00042
X-0034955Y0004
X-002605Y00036
X-002385Y000185
X-00224Y00026
X-00063Y00003
X-00058Y00053
X0041755Y-000215
X00919Y-00006
X00988Y-000205
X009845Y000275
X009605Y00042
X011Y000285
X01085Y00013
X010965Y-000025
X01114Y0001
X011185Y-00021
X01126Y0005
X011885Y000525
X01218Y00043
X01241Y00053
X012455Y000245
X012305Y00014
X012Y000245
X01162Y00015
X01175Y000735
X0119Y000805
X012005Y00058
X0123Y00063
X01242Y000745
X012455Y00116
X01227Y00121
X011775Y00129
X011465Y001355
X01135Y00183
X01076Y001825
X01066Y002085
X010165
X009425Y001875
X009435Y002435
X00956Y00298
X00962Y003545
X00986Y00349
X01015Y00303
X01038Y00304
X010685Y003295
X0106Y003665
X0109048Y0036698
X01103Y003465
X01107Y003965
X011095Y00419
X0115Y004185
X01184Y004
X01196Y00384
X012065Y004385
X01273Y00436
X01297Y003795
X012535Y0037
X01218Y00314
X01167Y002855
X011225Y002865
X010705Y002785
X011095Y002235
X011015Y001145
X010895Y00074
X010605Y000685
X01029Y001225
X009865Y001225
X00977Y001345
X009625Y00089
X00975Y000635
X009455Y00063
X012245Y001845
X012455Y002055
X0107Y003995
X009185Y003065
X009185Y00108
X00938Y00104
X0057255Y00087
X0054005Y00073
X0052705
X0051405
X0045855Y000935
X0050105Y002585
X000375Y00289
X000085Y00313
X00008Y00362
X000365Y003445
X00037Y003945
X0002Y004015
X-00047Y00437
X-0006Y00431
X-00075Y0043
X-000885Y00418
X-00116Y00453
X-00219Y004455
X-00241Y00422
X-00242Y00404
X-002485Y00385
X-00204Y00134
X-000985Y001045
X-00073Y000825
X-000705Y000645
Y001365
X-000325Y00123
X-0003Y00106
X000055Y000825
X-000035Y000715
X-003485Y000595
X-00359Y000815
X-00356Y00121
X-003775Y00122
X-00389Y001035
X-00395Y00147
X-00351Y00143
X-00282Y0016
X-002905Y00197
X-003075Y001975
X-003285Y002365
Y002595
X-003415Y0028
X-003495Y002955
X-003315Y00308
X-003305Y003615
X-00369Y003685
X-003385Y004135
X-00341Y00434
X-004385Y004295
X-00454Y00439
X-004705Y0044
X-0052Y004235
X-005195Y00407
X-0053Y003875
Y003725
X-00558Y003615
X-00584Y00384
X-00624Y003885
X-00622Y00369
X-006485Y003675
X-006255Y0034297
X-00633Y00315
X-006265Y0028897
X-00631Y00262
X-0062547Y00237
X-00626Y0018297
X-00575Y001705
X-005435Y00176
Y0021
X-00575Y00224
X-00574Y0025
X-00544Y00262
X-00513Y00255
X-005205Y00279
X-0052Y00302
X-00543Y00315
X-004795Y00326
X-0049Y003395
X-004645Y00358
X-005005Y003955
X-005435Y003995
Y00439
X-00577Y00446
X-0060299Y004245
X-004945Y0028
Y0023
X-004805Y002375
X-00452Y00237
X-0042Y0022
X-00363
X-003695Y002795
X-003945Y002545
X-004205Y0028
X-004295Y00296
X-00458Y001545
X-004805Y00174
X-00511Y001735
X-005135Y00119
X-004695Y001045
X-0044Y000805
X-00524Y000595
X-006305Y00065
X-0063099Y001235
X-002645Y002865
X-00265Y003025
X-006615Y003155
X-006815Y002885
Y002625
X-00681Y002355
X-0071Y00256
X-00718Y0021
X-00704Y001855
X-00682Y001745
X-006825Y001485
X-00683Y00096
X-007055Y001145
X-00731Y00067
X-0080699Y00124
X-007895Y002875
Y003635
X-008075Y004155
X-00761Y00416
X-007345Y00389
X-007235Y003455
X-00678Y00346
X-00684Y00422
X-0072Y004315
X-007245Y004885
X-007455Y004785
X-007535Y00494
X-007465Y00506
X-007765Y00503
X-008075Y00494
X-007665Y00467
X-007745Y00552
X-00744Y005725
X-00723Y00583
X-00709Y00583
X-007255Y00559
X-00717Y00538
X-00719Y005175
X-006835Y00505
X-006615Y004945
X-00657Y00551
X-00678Y005485
X-006875Y00534
X-00693Y00612
X-007045Y006235
X-007155Y00632
X-006805Y006315
X-00682Y00677
X-007155Y006745
X-007275Y00658
X-00773Y00659
X-00781Y00643
X-007615Y006135
X-00754Y006015
X-006495Y00599
X-00715Y007175
X-007165Y00768
X-007275Y008375
X-007545Y00845
X-00795Y008305
X-007815Y00804
X-006345Y008185
X-00643Y00834
X-006025
Y0082
X-006205Y00805
X-006195Y00755
X-005945Y007795
X-005975Y00726
X-005635Y00716
X-00563Y006935
X-00554Y006825
X-00543Y006715
X-005395Y0064
X-005295Y0063
X-00514Y006215
X-0051Y00606
X-00496Y00603
X-00469Y006005
X-0047Y00587
X-00458Y005795
X-004455Y00572
X-00426Y005755
X-00435Y00594
X-00425Y006295
X-004355Y00639
X-004905Y006295
X-004995Y00663
X-00486Y00702
X-00489Y007345
X-004375Y007335
X-00445Y007005
X-00435Y00795
X-00488Y007955
X-005125Y007835
X-00477Y00824
X-00398Y008325
X-00378Y008295
X-00345Y00805
X-003195Y007805
Y008295
X-002755Y008215
X-002835Y007325
X-002945Y0074
X-00309Y00732
X-00322Y007205
X-00313Y00703
X-00304Y00693
X-00313Y00683
X-00324Y006735
Y006525
X-003135Y006625
X-00313Y00642
X-003215Y006195
X-00312Y006085
X-002905Y006065
X-00278Y00619
X-002725Y00564
X-003045Y005635
X-00303Y005795
X-00327Y00558
X-003405Y00568
X-00353Y005445
X-00364Y005355
X-0036Y0052
X-003765Y005435
X-00396Y0057
X-004185Y005325
X-004895Y00539
X-00558Y005195
X-005585Y00507
X-005985
X-006105Y00485
X-00606Y00465
X-005905Y00464
X-005725Y0047
X-00616Y005595
X-0063699Y005515
X-006235Y00622
X-005995Y00623
X-005925Y00635
X-006015Y006465
X-006365Y00643
X-00639Y00658
X-00586Y006695
X-00574Y006145
X-00601Y00601
X-0053Y006015
X-00426Y0046007
X-003125Y004605
X-002615Y00467
X-00255Y004905
X-002645Y005065
X-002575Y00525
X-00296Y005325
X-00323Y005325
X-00357Y007175
X-00355Y0076
X-00335Y00745
X-00238Y00754
X-002245Y00726
X-002255Y007025
X-002365Y00693
X-00215Y00691
X-001755Y006765
X-00179Y006625
X-001885Y006515
X-001795Y006315
X-001275Y00632
X-001225Y00589
X-001275Y00555
X-00127Y005275
X-000995Y00529
X-001105Y0051279
X-001245Y004985
X-00158Y0047
X-00198Y004745
X-001975Y0049
X-001965Y005045
X-002235Y00504
X-002335Y00491
X-00243Y00477
X-00183Y00525
X-00157Y0053
X-001445Y00541
X-001885Y0056
X-00202Y00571
X-000795Y0059
X-00069Y00607
X-000555Y006205
X-000505Y00635
X000035Y00631
X00037Y00646
X000375Y006895
X00037Y007415
X000185Y00744
X-000225Y00766
X-00036Y00756
X-00049Y007335
X-000615Y00744
X-00085Y007235
X-000795Y00691
X-001075
X-00103Y006555
X-001435Y00695
X-001935Y00725
X-00192Y00765
X-00204Y007945
X-002255Y007915
X-00214Y008215
X-002255Y008415
X-001645Y008395
X-001075Y008415
X-000705Y008385
X-00048Y008065
X-00022Y00791
X00036Y00793
X-00099Y008015
X-002485Y007165
X-000315Y00576
X-000535Y00547
X-000705Y00526
X-000315Y00493
X000335Y004685
X000365Y0053
X00036Y005775
X0034505Y00813
X0059605Y00762
X0061055Y007755
X0065255Y007815
X0060555Y00712
X0062655Y0067
X0065205Y00662
X0068105Y0069
X0070805Y006045
X009305Y004595
X009795
X010395Y00859
X010685
X01106Y00954
X01
X01054Y010435
X011845Y010355
X0064205Y00854
X0049705Y00853
X000395Y008955
X000165Y00918
X000395Y00942
X00016Y009655
X-000295
X-000085Y00941
X-00036Y008875
X-00108Y008695
X-00104Y00924
X-001235Y00929
X-001295Y009725
X-00116Y009855
X-001425Y01002
X-0019093Y0100888
X-002095Y010205
X-00221Y009935
X-002515Y009915
X-00247Y01029
X-00231Y00941
X-002475Y00914
X-00217Y008845
X-002215Y00861
X-001555Y00908
X-00062Y00984
X-00078Y01001
X-00054Y01044
X-00296Y01048
X-003165Y010315
X-00316Y01016
X-003185Y01
X-00303Y00931
X-003175Y009155
X-003315Y009195
X-003415Y009095
X-003335Y00887
X-00312Y00884
X-003095Y008615
X-00281Y0086
X-00256
X-002745Y00915
X-003495Y00872
X-003935Y0088
X-004035Y00867
X-00403Y010055
X-004025Y01031
X-00424Y01047
X-00446Y01031
X-00441Y01
X-00459Y00992
X-00493Y009925
X-004845Y01004
X-004835Y00981
X-00508Y009855
X-0051Y00971
X-005215Y01032
X-00537Y01048
X-00467Y010475
X-006295Y010425
Y009845
X-00631Y009375
X-006215Y00926
X-00608Y009185
X-005935Y009125
X-0058Y00906
X-005675Y00899
X-00555Y00893
X-00542Y00888
X-00603Y008645
X-00627Y008955
X-00603Y009615
X-0059Y00972
X-00578Y0096
X-00653Y00956
X-00687Y00951
X-0068Y009685
X-007155Y00975
X-0076099Y00976
X-00784Y00954
X-00795Y009305
X-007195Y0093
X-00714Y008955
X-00697Y009055
X-006935Y008835
X-00703Y008725
X-00726Y00879
X-00738Y008605
X-00756Y010455
X-007975Y01046
T02
X0079352Y0022557
X0079355Y0024157
X0079368Y002585
X00108Y007435
Y007905
Y00837
X0058255Y008
X0059105Y005485
X0071405Y005795
X00108Y008835
Y009285
Y009745
T03
X0068216Y0005142
X0070716
X0048593Y0015558
X0046093
X0044816Y0030792
X0042316
X0033974Y0032704
X0033974Y0035204
X0017843Y0028658
X0015343
X-0031644Y002959
X-0034144Y002209
X-0044144
X-0046644Y002959
X0047293Y0078358
X0049793
X0065266Y0050992
X0067766
X-00172Y00905
X-00197
T04
X0092Y00352
Y003774
Y004028
T05
X0125791Y0040299
X0125791Y0045299
X0131791Y0045299
Y0040299
X00885Y00311
Y00298
Y000885
Y00075
X000735
Y000885
X-00783Y0075
X-00808
X008845Y00628
Y006145
X0102375Y009045
X0104915
X0107455
X0109995
X0108725Y0093
X0106185
X0103645
X0101105
X010178Y010273
X009924Y010425
X010935
X011186Y010273
X00885Y009355
Y009225
X000735Y009255
Y009385
T06
X-003964Y00005
Y-000204
X-004218
Y00005
X-004472
X-004726
Y-000204
X-00498
Y00005
X-004472Y-000204
X-00418Y00035
X-005592Y0005
X-005846Y0005
X-0061Y0005
X-0019609Y-0000711
X-0017069
X-0014529
X-00145Y0003
X-0012
X0053895Y000105
X0053895Y-000149
X0056435
X0056435Y000105
X0058975
X0061515
X0064055
X0064055Y-000149
X0061515
X0058975
X010105Y-00021
X010105Y00004
X010105Y00029
Y00054
X011517Y-000055
X011771
X012025
X010105Y00079
Y00104
X010175Y004345
X009925Y004345
X009675Y004345
X009425Y004345
X010425Y004345
X010675Y004345
X012365Y004346
Y004092
Y003838
Y003584
Y00333
X009175Y004345
X00763Y0039286
X00713
X00714Y0028886
X00764
X0061455Y0036
X0066897Y0016051
Y0011051
X0048955Y0036
X0043955
X0053911Y0040961
X0018955Y00385
X0013955
X00021Y00268
X-00004
Y002005
X00021Y002005
X00005Y0016
X-0002
X-0022
X-00245
X-00237Y002005
Y00268
X-00262
Y002005
X-00418Y0016
X-00418Y00135
Y0011
Y00085
Y0006
X-00644Y00389
Y004144
Y004398
X-007488Y0040165
Y0037625
X-007742
X-0077425Y004015
X-007742Y0035085
Y0032545
X-007488
X-007488Y0030005
Y0027465
Y0024925
X-007742
Y0022385
X-007488
X-007488Y0019845
X-007488Y0017305
Y0014765
X-007742Y0014765
X-007742Y0012225
X-007488
Y0009685
X-007742Y0009685
X-007742Y0017305
Y0019845
X-007742Y0027465
X-0077425Y003
X-007488Y0035085
X-00783Y005315
X-00783Y00573
X-00644Y004906
Y004652
X-00475Y00491
X-0045
X-00425
X-004
X-00375
X-0035
X-00325
X00012Y00531
Y005725
X0024455Y00824
X0029455
X0053955Y004605
X009335Y00556
X009585
X0099951Y0059716
X0102721
X0105491
X0108261
X0111031Y0059716
X0109646Y0062556
X0106876Y0062556
X0104106
X0101336
X010335Y00686
X010585
X011585Y00556
X011835
X011725Y00968
X011965
Y00996
X011725
X009395Y00996
X009395Y00968
X009145
Y00996
X0041708Y0104093
X0036555Y009235
X0036455Y008715
X0041708Y0086313
X0026955Y00864
X-0006523Y0095631
X-0009063
X-0011603
X-0014143
X-0016683
X-0019223
X-0021763
X-0024303
X-0026843
X-0029383
X-0031923
X-0034463
X-0037003
X-0039543
X-0042083
X-0044623
X-0047163
X-0049703
X-0052243
X-0054783
X-00383Y01021
X-00333
T07
X00465Y01039
T08
X00465Y00889
T09
X010435Y00049
X011685Y00049
X011685Y000998
X01169Y001905
Y002413
X012222Y002795
X012722
X01273Y001545
X012222Y001545
X01044Y001905
Y002405
X009895Y002785
X009395
X009395Y001535
X009903Y001535
X010435Y00099
Y00334
Y00384
X011685Y003848
X011685Y00334
X-00707Y00804
X0079949Y0073704
Y0068704
X0058951Y00959
Y0101
X005105Y01
X0051Y010255
Y009505
X-00707Y00954
T10
X009765Y009635
X011345
T11
X0030246Y0001795
X0027555Y005835
T12
X0030245Y0022795
T13
X-0068Y0
X0
X00147
X00827
X0092996Y0061136
X0117986
X00827Y0102
X00147
X0
X-0068
T14
X009985Y009935
X011125
T15
X0056455Y0036
M30
