%FSLAX43Y43*%
%MOMM*%
G71*
G01*
G75*
%ADD10C,0.300*%
%ADD11C,0.200*%
%ADD12R,1.600X1.800*%
%ADD13R,0.550X1.450*%
%ADD14R,0.550X1.450*%
%ADD15R,0.850X1.300*%
%ADD16C,0.063*%
%ADD17R,10.200X7.300*%
%ADD18R,3.500X2.150*%
%ADD19R,1.100X2.150*%
%ADD20R,1.100X2.150*%
%ADD21R,0.600X2.200*%
%ADD22R,0.600X2.200*%
%ADD23R,2.200X0.600*%
%ADD24R,2.200X0.600*%
%ADD25R,1.800X1.600*%
%ADD26R,1.300X0.850*%
%ADD27R,1.000X2.600*%
%ADD28R,8.000X3.500*%
%ADD29R,6.000X6.000*%
%ADD30R,4.000X3.000*%
%ADD31R,3.000X4.000*%
%ADD32O,5.000X0.600*%
%ADD33R,0.600X1.550*%
%ADD34R,0.600X1.550*%
%ADD35R,1.700X0.600*%
%ADD36R,1.700X0.600*%
%ADD37R,2.700X2.500*%
%ADD38C,1.000*%
%ADD39C,0.400*%
%ADD40C,0.250*%
%ADD41C,0.500*%
%ADD42C,0.800*%
%ADD43C,0.700*%
%ADD44C,1.500*%
%ADD45C,0.600*%
%ADD46C,2.000*%
%ADD47C,0.254*%
%ADD48R,3.000X3.000*%
%ADD49C,1.500*%
%ADD50R,1.500X1.500*%
%ADD51C,5.000*%
%ADD52C,2.400*%
%ADD53C,4.000*%
%ADD54C,2.000*%
%ADD55R,2.000X2.000*%
%ADD56C,1.300*%
%ADD57C,1.400*%
%ADD58C,5.500*%
%ADD59C,3.000*%
%ADD60C,1.800*%
%ADD61R,1.800X1.800*%
%ADD62C,3.500*%
%ADD63C,2.500*%
%ADD64C,1.690*%
%ADD65R,1.690X1.690*%
%ADD66O,1.500X2.000*%
%ADD67R,1.500X2.000*%
%ADD68C,1.200*%
%ADD69C,1.100*%
%ADD70C,0.180*%
%ADD71C,0.150*%
%ADD72C,0.480*%
D10*
X97450Y88550D02*
X105550Y88550D01*
X97450Y99350D02*
X97450Y88550D01*
X105550Y88550D02*
X113650Y88550D01*
X113650Y99350D01*
X97450Y110150D02*
X105550D01*
X97450Y99350D02*
Y110150D01*
X105550D02*
X113650D01*
Y99350D02*
Y110150D01*
D11*
X-50397Y79297D02*
X-48497D01*
X-50397Y81897D02*
X-48497D01*
X-53697Y79297D02*
X-51797D01*
X-53697Y81897D02*
X-51797D01*
X-53697Y79297D02*
Y81897D01*
X-48497Y79297D02*
Y81897D01*
X-81903Y44703D02*
X-80003D01*
X-81903Y42103D02*
X-80003D01*
X-78603Y44703D02*
X-76703D01*
X-78603Y42103D02*
X-76703D01*
Y44703D01*
X-81903Y42103D02*
Y44703D01*
X-21703Y87503D02*
X-19803D01*
X-21703Y84903D02*
X-19803D01*
X-18403Y87503D02*
X-16503D01*
X-18403Y84903D02*
X-16503D01*
Y87503D01*
X-21703Y84903D02*
Y87503D01*
X-43803Y81803D02*
X-41903D01*
X-43803Y79203D02*
X-41903D01*
X-40503Y81803D02*
X-38603D01*
X-40503Y79203D02*
X-38603D01*
Y81803D01*
X-43803Y79203D02*
Y81803D01*
X-43903Y73603D02*
X-42003D01*
X-43903Y71003D02*
X-42003D01*
X-40603Y73603D02*
X-38703D01*
X-40603Y71003D02*
X-38703D01*
Y73603D01*
X-43903Y71003D02*
Y73603D01*
X-50597Y71097D02*
X-48697D01*
X-50597Y73697D02*
X-48697D01*
X-53897Y71097D02*
X-51997D01*
X-53897Y73697D02*
X-51997D01*
X-53897Y71097D02*
Y73697D01*
X-48697Y71097D02*
Y73697D01*
X-19103Y48197D02*
Y50097D01*
X-16503Y48197D02*
Y50097D01*
X-19103Y51497D02*
Y53397D01*
X-16503Y51497D02*
Y53397D01*
X-19103D02*
X-16503D01*
X-19103Y48197D02*
X-16503D01*
X-11397Y54903D02*
Y56803D01*
X-13997Y54903D02*
Y56803D01*
X-11397Y51603D02*
Y53503D01*
X-13997Y51603D02*
Y53503D01*
Y51603D02*
X-11397D01*
X-13997Y56803D02*
X-11397D01*
X-4897Y51297D02*
X-2997D01*
X-4897Y53897D02*
X-2997D01*
X-8197Y51297D02*
X-6297D01*
X-8197Y53897D02*
X-6297D01*
X-8197Y51297D02*
Y53897D01*
X-2997Y51297D02*
Y53897D01*
X3Y87397D02*
X1903D01*
X3Y89997D02*
X1903D01*
X-3297Y87397D02*
X-1397D01*
X-3297Y89997D02*
X-1397D01*
X-3297Y87397D02*
Y89997D01*
X1903Y87397D02*
Y89997D01*
X-82005Y88212D02*
X-82005Y85612D01*
X-76805Y85612D02*
Y88212D01*
X-78705Y85612D02*
X-76805Y85612D01*
X-78705Y88212D02*
X-76805Y88212D01*
X-82005Y85612D02*
X-80105Y85612D01*
X-82005Y88212D02*
X-80105Y88212D01*
X-82003Y88503D02*
Y91103D01*
X-76803Y88503D02*
X-76803Y91103D01*
X-78703Y88503D02*
X-76803D01*
X-78703Y91103D02*
X-76803D01*
X-82003Y88503D02*
X-80103Y88503D01*
X-82003Y91103D02*
X-80103D01*
X-66097Y38597D02*
Y41197D01*
X-71297Y38597D02*
Y41197D01*
X-69397Y41197D01*
X-71297Y38597D02*
X-69397D01*
X-67997Y41197D02*
X-66097Y41197D01*
X-67997Y38597D02*
X-66097D01*
X-34097Y58097D02*
Y60697D01*
X-39297Y58097D02*
Y60697D01*
X-37397Y60697D01*
X-39297Y58097D02*
X-37397D01*
X-35997Y60697D02*
X-34097Y60697D01*
X-35997Y58097D02*
X-34097D01*
X-39797D02*
Y60697D01*
X-44997Y58097D02*
Y60697D01*
X-43097Y60697D01*
X-44997Y58097D02*
X-43097D01*
X-41697Y60697D02*
X-39797Y60697D01*
X-41697Y58097D02*
X-39797D01*
X-24800Y18650D02*
Y21450D01*
X-27600Y18650D02*
X-24800D01*
X-27600D02*
Y21450D01*
X-27600Y21450D02*
X-24800D01*
X-25100D02*
X-22300D01*
X-25100Y18650D02*
Y21450D01*
Y18650D02*
X-22300D01*
X-22300Y18650D02*
Y21450D01*
X3500Y25400D02*
Y28200D01*
X700Y25400D02*
X3500D01*
X700D02*
Y28200D01*
X700Y28200D02*
X3500D01*
X-73497Y42097D02*
X-71597D01*
X-73497Y44697D02*
X-71597Y44697D01*
X-76797Y42097D02*
X-74897D01*
X-76797Y44697D02*
X-74897Y44697D01*
X-76797Y42097D02*
Y44697D01*
X-71597Y42097D02*
Y44697D01*
X-78597Y49297D02*
X-76697D01*
X-78597Y51897D02*
X-76697Y51897D01*
X-81897Y49297D02*
X-79997D01*
X-81897Y51897D02*
X-79997Y51897D01*
X-81897Y49297D02*
Y51897D01*
X-76697Y49297D02*
Y51897D01*
X-81905Y47012D02*
X-80005Y47012D01*
X-81905Y44412D02*
X-80005Y44412D01*
X-78605Y47012D02*
X-76705Y47012D01*
X-78605Y44412D02*
X-76705Y44412D01*
Y47012D01*
X-81905Y47012D02*
X-81905Y44412D01*
X-78597Y46697D02*
X-76697Y46697D01*
X-78597Y49297D02*
X-76697Y49297D01*
X-81897Y46697D02*
X-79997Y46697D01*
X-81897Y49297D02*
X-79997Y49297D01*
X-81897Y46697D02*
Y49297D01*
X-76697Y46697D02*
Y49297D01*
X-47997Y105703D02*
X-45397D01*
X-47997Y100503D02*
X-45397D01*
X-47997Y102403D02*
X-47997Y100503D01*
X-45397D02*
Y102403D01*
X-47997Y103803D02*
X-47997Y105703D01*
X-45397Y103803D02*
Y105703D01*
X-62270Y6270D02*
X-54650D01*
Y3730D02*
Y6270D01*
X-62270Y3730D02*
X-54650D01*
X-62270D02*
Y6270D01*
X1000Y25400D02*
Y28200D01*
X-1800Y25400D02*
X1000D01*
X-1800D02*
Y28200D01*
X-1800Y28200D02*
X1000D01*
Y18650D02*
Y21450D01*
X-1800Y18650D02*
X1000D01*
X-1800D02*
Y21450D01*
X-1800Y21450D02*
X1000D01*
X1900Y14600D02*
Y17400D01*
X-900Y14600D02*
X1900D01*
X-900D02*
Y17400D01*
X-900Y17400D02*
X1900D01*
X3500Y18650D02*
Y21450D01*
X700Y18650D02*
X3500D01*
X700D02*
Y21450D01*
X700Y21450D02*
X3500D01*
X-24800Y25400D02*
Y28200D01*
X-27600Y25400D02*
X-24800D01*
X-27600D02*
Y28200D01*
X-27600Y28200D02*
X-24800D01*
X-22300Y25400D02*
Y28200D01*
X-25100Y25400D02*
X-22300D01*
X-25100D02*
Y28200D01*
X-25100Y28200D02*
X-22300D01*
X-23100Y14600D02*
Y17400D01*
X-25900Y14600D02*
X-23100D01*
X-25900D02*
Y17400D01*
X-25900Y17400D02*
X-23100D01*
X-23400D02*
X-20600D01*
X-23400Y14600D02*
Y17400D01*
Y14600D02*
X-20600D01*
X-20600Y14600D02*
Y17400D01*
X-20879Y559D02*
X-13259Y559D01*
Y-1981D02*
Y559D01*
X-20879Y-1981D02*
X-13259Y-1981D01*
X-20879Y-1981D02*
Y559D01*
X-13100Y1600D02*
Y4400D01*
X-15900Y1600D02*
X-13100D01*
X-15900D02*
Y4400D01*
X-15900Y4400D02*
X-13100D01*
X-13400D02*
X-10600D01*
X-13400Y1600D02*
Y4400D01*
Y1600D02*
X-10600D01*
X-10600Y1600D02*
Y4400D01*
X-3400Y17400D02*
X-600D01*
X-3400Y14600D02*
Y17400D01*
Y14600D02*
X-600D01*
X-600Y14600D02*
Y17400D01*
X-46400Y47700D02*
X-43600D01*
X-46400Y47700D02*
Y50500D01*
X-43600D01*
X-43600Y47700D02*
Y50500D01*
X-48900Y47700D02*
X-46100D01*
X-48900Y47700D02*
Y50500D01*
X-46100D01*
X-46100Y47700D02*
Y50500D01*
X-65670Y50330D02*
X-63130D01*
X-65670Y37630D02*
Y50330D01*
X-63130Y37630D02*
Y50330D01*
X-65670Y37630D02*
X-63130D01*
X-43200Y14600D02*
X-40400D01*
X-43200Y14600D02*
Y17400D01*
X-40400D01*
X-40400Y14600D02*
Y17400D01*
X-43200Y12100D02*
X-40400D01*
X-43200Y12100D02*
Y14900D01*
X-40400D01*
X-40400Y12100D02*
Y14900D01*
X-43200Y9600D02*
X-40400D01*
X-43200Y9600D02*
Y12400D01*
X-40400D01*
X-40400Y9600D02*
Y12400D01*
X-43200Y7100D02*
X-40400D01*
X-43200Y7100D02*
Y9900D01*
X-40400D01*
X-40400Y7100D02*
Y9900D01*
X-43200Y4600D02*
X-40400D01*
X-43200Y4600D02*
Y7400D01*
X-40400D01*
X-40400Y4600D02*
Y7400D01*
X-43200Y2100D02*
X-40400D01*
X-43200Y2100D02*
Y4900D01*
X-40400D01*
X-40400Y2100D02*
Y4900D01*
X-41100Y47700D02*
Y50500D01*
X-43900Y50500D02*
X-41100D01*
X-43900Y47700D02*
Y50500D01*
X-43900Y47700D02*
X-41100D01*
X-41400D02*
X-38600D01*
X-41400Y47700D02*
Y50500D01*
X-38600D01*
X-38600Y47700D02*
Y50500D01*
X-51070Y1770D02*
X-38370D01*
X-51070Y-3310D02*
X-38370D01*
X-51070D02*
Y1770D01*
X-38370Y-3310D02*
Y1770D01*
X-38900Y47700D02*
X-36100D01*
X-38900Y47700D02*
Y50500D01*
X-36100D01*
X-36100Y47700D02*
Y50500D01*
X-36400Y47700D02*
X-33600D01*
X-36400Y47700D02*
Y50500D01*
X-33600D01*
X-33600Y47700D02*
Y50500D01*
X-33900Y47700D02*
X-31100D01*
X-33900Y47700D02*
Y50500D01*
X-31100D01*
X-31100Y47700D02*
Y50500D01*
X-81700Y29600D02*
Y31500D01*
X-79100Y29600D02*
Y31500D01*
X-81700Y32900D02*
Y34800D01*
X-79100Y32900D02*
Y34800D01*
X-81700D02*
X-79100D01*
X-81700Y29600D02*
X-79100D01*
X103238Y85257D02*
X105138Y85257D01*
X103238Y87857D02*
X105138D01*
X99938Y85257D02*
X101838Y85257D01*
X99938Y87857D02*
X101838Y87857D01*
X99938Y85257D02*
Y87857D01*
X105138Y85257D02*
Y87857D01*
X105663Y85143D02*
X107563D01*
X105663Y82543D02*
X107563Y82543D01*
X108963Y85143D02*
X110863Y85143D01*
X108963Y82543D02*
X110863D01*
X110863Y85143D01*
X105663Y82543D02*
Y85143D01*
X108938Y85257D02*
X110838D01*
X108938Y87857D02*
X110838Y87857D01*
X105638Y85257D02*
X107538D01*
X105638Y87857D02*
X107538Y87857D01*
X105638Y87857D02*
X105638Y85257D01*
X110838D02*
Y87857D01*
X99963Y85143D02*
X101863Y85143D01*
X99963Y82543D02*
X101863D01*
X103263Y85143D02*
X105163Y85143D01*
X103263Y82543D02*
X105163Y82543D01*
Y85143D01*
X99963Y82543D02*
Y85143D01*
X125950Y35350D02*
X128550D01*
X125950Y30150D02*
X128550D01*
X125950D02*
Y32050D01*
X128550Y30150D02*
Y32050D01*
X125950Y33450D02*
Y35350D01*
X128550Y33450D02*
Y35350D01*
X119850Y40550D02*
X121750D01*
X119850Y43150D02*
X121750D01*
X116550Y40550D02*
X118450D01*
X116550Y43150D02*
X118450D01*
X116550Y40550D02*
Y43150D01*
X121750Y40550D02*
Y43150D01*
X112350Y34450D02*
Y36350D01*
X114950Y34450D02*
Y36350D01*
X112350Y37750D02*
Y39650D01*
X114950Y37750D02*
Y39650D01*
X112350D02*
X114950D01*
X112350Y34450D02*
X114950D01*
X120750Y12250D02*
Y14150D01*
X118150Y12250D02*
Y14150D01*
X120750Y8950D02*
Y10850D01*
X118150Y8950D02*
Y10850D01*
Y8950D02*
X120750D01*
X118150Y14150D02*
X120750D01*
X105798Y33448D02*
X109798D01*
Y37748D01*
X105798D02*
X109798D01*
X105798Y33448D02*
Y37748D01*
X109192Y29107D02*
X109192Y31707D01*
X103992Y29107D02*
Y31707D01*
X105892D01*
X103992Y29107D02*
X105892D01*
X107292Y31707D02*
X109192Y31707D01*
X107292Y29107D02*
X109192D01*
X123350Y27450D02*
X125950D01*
X123350Y22250D02*
X125950D01*
X123350D02*
Y24150D01*
X125950Y22250D02*
Y24150D01*
X123350Y25550D02*
Y27450D01*
X125950Y25550D02*
Y27450D01*
D40*
X-26075Y22100D02*
G03*
X-26075Y22100I-125J0D01*
G01*
X-23575D02*
G03*
X-23575Y22100I-125J0D01*
G01*
X2225Y28850D02*
G03*
X2225Y28850I-125J0D01*
G01*
X-275D02*
G03*
X-275Y28850I-125J0D01*
G01*
Y22100D02*
G03*
X-275Y22100I-125J0D01*
G01*
X625Y18050D02*
G03*
X625Y18050I-125J0D01*
G01*
X2225Y22100D02*
G03*
X2225Y22100I-125J0D01*
G01*
X-26075Y28850D02*
G03*
X-26075Y28850I-125J0D01*
G01*
X-23575D02*
G03*
X-23575Y28850I-125J0D01*
G01*
X-24375Y18050D02*
G03*
X-24375Y18050I-125J0D01*
G01*
X-21875D02*
G03*
X-21875Y18050I-125J0D01*
G01*
X-14375Y5050D02*
G03*
X-14375Y5050I-125J0D01*
G01*
X-11875D02*
G03*
X-11875Y5050I-125J0D01*
G01*
X-1875Y18050D02*
G03*
X-1875Y18050I-125J0D01*
G01*
X-42825Y49100D02*
G03*
X-42825Y49100I-125J0D01*
G01*
X-45325D02*
G03*
X-45325Y49100I-125J0D01*
G01*
X-39625Y16000D02*
G03*
X-39625Y16000I-125J0D01*
G01*
Y13500D02*
G03*
X-39625Y13500I-125J0D01*
G01*
Y11000D02*
G03*
X-39625Y11000I-125J0D01*
G01*
Y8500D02*
G03*
X-39625Y8500I-125J0D01*
G01*
Y6000D02*
G03*
X-39625Y6000I-125J0D01*
G01*
Y3500D02*
G03*
X-39625Y3500I-125J0D01*
G01*
X-40325Y49100D02*
G03*
X-40325Y49100I-125J0D01*
G01*
X-37825D02*
G03*
X-37825Y49100I-125J0D01*
G01*
X-35325D02*
G03*
X-35325Y49100I-125J0D01*
G01*
X-32825D02*
G03*
X-32825Y49100I-125J0D01*
G01*
X-30325D02*
G03*
X-30325Y49100I-125J0D01*
G01*
X110573Y34498D02*
G03*
X110573Y34498I-125J0D01*
G01*
D41*
X-66340Y85217D02*
G03*
X-68499Y83185I-64J-2095D01*
G01*
X-8301D02*
G03*
X-10460Y85217I-2095J-64D01*
G01*
X-68499Y69215D02*
G03*
X-66340Y67183I2095J64D01*
G01*
X-10460D02*
G03*
X-10460Y67183I0J0D01*
G01*
G03*
X-8301Y69215I64J2095D01*
G01*
X-80363Y69850D02*
X-71420D01*
X-80363Y82550D02*
X-71420D01*
Y76200D02*
Y90170D01*
X-38400D01*
X-5380Y76200D02*
Y90170D01*
X-38400D02*
X-5380D01*
X-71420Y62230D02*
Y76200D01*
Y62230D02*
X-38400D01*
X-5380D02*
Y76200D01*
X-38400Y62230D02*
X-5380D01*
X-68499Y76200D02*
Y83185D01*
X-66340Y85217D02*
X-38400D01*
X-8301Y76200D02*
Y83185D01*
X-38400Y85217D02*
X-10460D01*
X-68499Y69215D02*
Y76200D01*
X-66340Y67183D02*
X-38400D01*
X-8301Y69215D02*
Y76200D01*
X-38400Y67183D02*
X-10460D01*
X-80363Y59690D02*
Y98171D01*
Y54102D02*
Y56642D01*
X-77847D01*
X-80339Y59666D02*
X-77823D01*
X3637Y59690D02*
Y98171D01*
Y54102D02*
Y56642D01*
X3613Y56666D02*
X3637Y56642D01*
X1121D02*
X3637D01*
X3613Y59666D02*
X3637Y59690D01*
X1097Y59666D02*
X3613D01*
X-80310Y98171D02*
X3637D01*
X-80363Y98118D02*
X-80310Y98171D01*
X-80363Y54102D02*
X3637D01*
D47*
X-74873Y94107D02*
G03*
X-74873Y94107I-1500J0D01*
G01*
X1073D02*
G03*
X1073Y94107I-1500J0D01*
G01*
X-77600Y85600D02*
Y88200D01*
X-77453Y44400D02*
Y47000D01*
X-65234Y38745D02*
X-63710D01*
Y39506D01*
X-63964Y39760D01*
X-64472D01*
X-64726Y39506D01*
Y38745D01*
Y39252D02*
X-65234Y39760D01*
X-63710Y40268D02*
Y41284D01*
X-63964D01*
X-64980Y40268D01*
X-65234D01*
Y41792D02*
Y42299D01*
Y42046D01*
X-63710D01*
X-63964Y41792D01*
X-85423Y85450D02*
X-83900D01*
Y84688D01*
X-84154Y84434D01*
X-85169D01*
X-85423Y84688D01*
Y85450D01*
Y83926D02*
Y82911D01*
X-85169D01*
X-84154Y83926D01*
X-83900D01*
X-84119Y89934D02*
X-84373Y90188D01*
Y90696D01*
X-84119Y90950D01*
X-83104D01*
X-82850Y90696D01*
Y90188D01*
X-83104Y89934D01*
X-82850Y88665D02*
X-84373D01*
X-83612Y89426D01*
Y88411D01*
X-82850Y86887D02*
Y87903D01*
X-83865Y86887D01*
X-84119D01*
X-84373Y87141D01*
Y87649D01*
X-84119Y87903D01*
X-33234Y58243D02*
X-31710D01*
Y59005D01*
X-31964Y59259D01*
X-32472D01*
X-32726Y59005D01*
Y58243D01*
Y58751D02*
X-33234Y59259D01*
X-31710Y59767D02*
Y60782D01*
X-31964D01*
X-32980Y59767D01*
X-33234D01*
X-31964Y61290D02*
X-31710Y61544D01*
Y62052D01*
X-31964Y62306D01*
X-32980D01*
X-33234Y62052D01*
Y61544D01*
X-32980Y61290D01*
X-31964D01*
X-38934Y58251D02*
X-37410D01*
Y59013D01*
X-37664Y59267D01*
X-38172D01*
X-38426Y59013D01*
Y58251D01*
Y58759D02*
X-38934Y59267D01*
X-37410Y60790D02*
X-37664Y60283D01*
X-38172Y59775D01*
X-38680D01*
X-38934Y60029D01*
Y60536D01*
X-38680Y60790D01*
X-38426D01*
X-38172Y60536D01*
Y59775D01*
X-38680Y61298D02*
X-38934Y61552D01*
Y62060D01*
X-38680Y62314D01*
X-37664D01*
X-37410Y62060D01*
Y61552D01*
X-37664Y61298D01*
X-37918D01*
X-38172Y61552D01*
Y62314D01*
X108024Y33840D02*
X108278Y34094D01*
X108786D01*
X109039Y33840D01*
Y32825D01*
X108786Y32571D01*
X108278D01*
X108024Y32825D01*
X106754Y32571D02*
Y34094D01*
X107516Y33333D01*
X106500D01*
X105231Y32571D02*
Y34094D01*
X105992Y33333D01*
X104977D01*
X109429Y38857D02*
Y39872D01*
X109683Y40126D01*
X110191D01*
X110445Y39872D01*
Y38857D01*
X110191Y38603D01*
X109683D01*
X109937Y39110D02*
X109429Y38603D01*
X109683D02*
X109429Y38857D01*
X108921Y40126D02*
X107906D01*
Y39872D01*
X108921Y38857D01*
Y38603D01*
D70*
X-47196Y101761D02*
X-46196D01*
Y102261D01*
X-46363Y102428D01*
X-46696D01*
X-46862Y102261D01*
Y101761D01*
Y102095D02*
X-47196Y102428D01*
X-46196Y103428D02*
X-46363Y103094D01*
X-46696Y102761D01*
X-47029D01*
X-47196Y102928D01*
Y103261D01*
X-47029Y103428D01*
X-46862D01*
X-46696Y103261D01*
Y102761D01*
X-46363Y103761D02*
X-46196Y103927D01*
Y104261D01*
X-46363Y104427D01*
X-46529D01*
X-46696Y104261D01*
X-46862Y104427D01*
X-47029D01*
X-47196Y104261D01*
Y103927D01*
X-47029Y103761D01*
X-46862D01*
X-46696Y103927D01*
X-46529Y103761D01*
X-46363D01*
X-46696Y103927D02*
Y104261D01*
X126743Y31911D02*
X127743D01*
Y32411D01*
X127577Y32578D01*
X127243D01*
X127077Y32411D01*
Y31911D01*
Y32245D02*
X126743Y32578D01*
X127743Y33578D02*
Y32911D01*
X127243D01*
X127410Y33244D01*
Y33411D01*
X127243Y33578D01*
X126910D01*
X126743Y33411D01*
Y33078D01*
X126910Y32911D01*
X119987Y41360D02*
Y42360D01*
X119487D01*
X119321Y42193D01*
Y41860D01*
X119487Y41693D01*
X119987D01*
X119654D02*
X119321Y41360D01*
X118488D02*
Y42360D01*
X118987Y41860D01*
X118321D01*
X118946Y10728D02*
X119945D01*
Y11228D01*
X119779Y11394D01*
X119446D01*
X119279Y11228D01*
Y10728D01*
Y11061D02*
X118946Y11394D01*
X119779Y11727D02*
X119945Y11894D01*
Y12227D01*
X119779Y12394D01*
X119612D01*
X119446Y12227D01*
Y12061D01*
Y12227D01*
X119279Y12394D01*
X119112D01*
X118946Y12227D01*
Y11894D01*
X119112Y11727D01*
X113155Y36229D02*
X114154D01*
Y36729D01*
X113988Y36896D01*
X113654D01*
X113488Y36729D01*
Y36229D01*
Y36563D02*
X113155Y36896D01*
Y37896D02*
Y37229D01*
X113821Y37896D01*
X113988D01*
X114154Y37729D01*
Y37396D01*
X113988Y37229D01*
X124153Y24190D02*
X125152D01*
Y24690D01*
X124986Y24856D01*
X124653D01*
X124486Y24690D01*
Y24190D01*
Y24523D02*
X124153Y24856D01*
Y25189D02*
Y25523D01*
Y25356D01*
X125152D01*
X124986Y25189D01*
X110081Y86064D02*
Y87064D01*
X109581D01*
X109415Y86897D01*
Y86564D01*
X109581Y86397D01*
X110081D01*
X109748D02*
X109415Y86064D01*
X109081Y86897D02*
X108915Y87064D01*
X108582D01*
X108415Y86897D01*
Y86731D01*
X108582Y86564D01*
X108748D01*
X108582D01*
X108415Y86397D01*
Y86231D01*
X108582Y86064D01*
X108915D01*
X109081Y86231D01*
X108082Y86897D02*
X107915Y87064D01*
X107582D01*
X107415Y86897D01*
Y86231D01*
X107582Y86064D01*
X107915D01*
X108082Y86231D01*
Y86897D01*
X106582Y86064D02*
Y87064D01*
X107082Y86564D01*
X106416D01*
X110106Y83346D02*
Y84346D01*
X109607D01*
X109440Y84179D01*
Y83846D01*
X109607Y83680D01*
X110106D01*
X109773D02*
X109440Y83346D01*
X109107Y84179D02*
X108940Y84346D01*
X108607D01*
X108440Y84179D01*
Y84013D01*
X108607Y83846D01*
X108774D01*
X108607D01*
X108440Y83680D01*
Y83513D01*
X108607Y83346D01*
X108940D01*
X109107Y83513D01*
X108107Y84179D02*
X107941Y84346D01*
X107607D01*
X107441Y84179D01*
Y83513D01*
X107607Y83346D01*
X107941D01*
X108107Y83513D01*
Y84179D01*
X107107D02*
X106941Y84346D01*
X106608D01*
X106441Y84179D01*
Y84013D01*
X106608Y83846D01*
X106774D01*
X106608D01*
X106441Y83680D01*
Y83513D01*
X106608Y83346D01*
X106941D01*
X107107Y83513D01*
X104392Y83346D02*
Y84346D01*
X103892D01*
X103725Y84179D01*
Y83846D01*
X103892Y83680D01*
X104392D01*
X104058D02*
X103725Y83346D01*
X103392Y84179D02*
X103225Y84346D01*
X102892D01*
X102725Y84179D01*
Y84013D01*
X102892Y83846D01*
X103059D01*
X102892D01*
X102725Y83680D01*
Y83513D01*
X102892Y83346D01*
X103225D01*
X103392Y83513D01*
X102392Y84179D02*
X102226Y84346D01*
X101892D01*
X101726Y84179D01*
Y83513D01*
X101892Y83346D01*
X102226D01*
X102392Y83513D01*
Y84179D01*
X100726Y83346D02*
X101392D01*
X100726Y84013D01*
Y84179D01*
X100893Y84346D01*
X101226D01*
X101392Y84179D01*
X104214Y86064D02*
Y87064D01*
X103714D01*
X103547Y86897D01*
Y86564D01*
X103714Y86397D01*
X104214D01*
X103880D02*
X103547Y86064D01*
X103214Y86897D02*
X103047Y87064D01*
X102714D01*
X102548Y86897D01*
Y86731D01*
X102714Y86564D01*
X102881D01*
X102714D01*
X102548Y86397D01*
Y86231D01*
X102714Y86064D01*
X103047D01*
X103214Y86231D01*
X102214Y86897D02*
X102048Y87064D01*
X101715D01*
X101548Y86897D01*
Y86231D01*
X101715Y86064D01*
X102048D01*
X102214Y86231D01*
Y86897D01*
X101215Y86064D02*
X100881D01*
X101048D01*
Y87064D01*
X101215Y86897D01*
X106544Y99840D02*
X106878D01*
X106711D01*
Y99007D01*
X106878Y98840D01*
X107044D01*
X107211Y99007D01*
X106211Y99673D02*
X106045Y99840D01*
X105711D01*
X105545Y99673D01*
Y99507D01*
X105711Y99340D01*
X105878D01*
X105711D01*
X105545Y99174D01*
Y99007D01*
X105711Y98840D01*
X106045D01*
X106211Y99007D01*
X105212Y99673D02*
X105045Y99840D01*
X104712D01*
X104545Y99673D01*
Y99007D01*
X104712Y98840D01*
X105045D01*
X105212Y99007D01*
Y99673D01*
X104212Y98840D02*
X103879D01*
X104045D01*
Y99840D01*
X104212Y99673D01*
X-24869Y24046D02*
X-25536Y23047D01*
Y24046D02*
X-24869Y23047D01*
X-26535D02*
X-25869D01*
X-26535Y23713D01*
Y23880D01*
X-26369Y24046D01*
X-26035D01*
X-25869Y23880D01*
X-26868D02*
X-27035Y24046D01*
X-27368D01*
X-27535Y23880D01*
Y23213D01*
X-27368Y23047D01*
X-27035D01*
X-26868Y23213D01*
Y23880D01*
X-22380Y24046D02*
X-23046Y23047D01*
Y24046D02*
X-22380Y23047D01*
X-23380D02*
X-23713D01*
X-23546D01*
Y24046D01*
X-23380Y23880D01*
X-24213Y23213D02*
X-24379Y23047D01*
X-24712D01*
X-24879Y23213D01*
Y23880D01*
X-24712Y24046D01*
X-24379D01*
X-24213Y23880D01*
Y23713D01*
X-24379Y23547D01*
X-24879D01*
X912Y24046D02*
X245Y23047D01*
Y24046D02*
X912Y23047D01*
X-88D02*
X-421D01*
X-254D01*
Y24046D01*
X-88Y23880D01*
X-921D02*
X-1087Y24046D01*
X-1421D01*
X-1587Y23880D01*
Y23713D01*
X-1421Y23547D01*
X-1587Y23380D01*
Y23213D01*
X-1421Y23047D01*
X-1087D01*
X-921Y23213D01*
Y23380D01*
X-1087Y23547D01*
X-921Y23713D01*
Y23880D01*
X-1087Y23547D02*
X-1421D01*
X3427Y24046D02*
X2760Y23047D01*
Y24046D02*
X3427Y23047D01*
X2427D02*
X2094D01*
X2260D01*
Y24046D01*
X2427Y23880D01*
X1594Y24046D02*
X927D01*
Y23880D01*
X1594Y23213D01*
Y23047D01*
X-24869Y30777D02*
X-25536Y29778D01*
Y30777D02*
X-24869Y29778D01*
X-25869D02*
X-26202D01*
X-26035D01*
Y30777D01*
X-25869Y30611D01*
X-27368Y30777D02*
X-27035Y30611D01*
X-26702Y30278D01*
Y29944D01*
X-26868Y29778D01*
X-27202D01*
X-27368Y29944D01*
Y30111D01*
X-27202Y30278D01*
X-26702D01*
X-22380Y30777D02*
X-23046Y29778D01*
Y30777D02*
X-22380Y29778D01*
X-23380Y30611D02*
X-23546Y30777D01*
X-23879D01*
X-24046Y30611D01*
Y30444D01*
X-23879Y30278D01*
X-23713D01*
X-23879D01*
X-24046Y30111D01*
Y29944D01*
X-23879Y29778D01*
X-23546D01*
X-23380Y29944D01*
X912Y30777D02*
X245Y29778D01*
Y30777D02*
X912Y29778D01*
X-754D02*
X-88D01*
X-754Y30444D01*
Y30611D01*
X-588Y30777D01*
X-254D01*
X-88Y30611D01*
X3427Y30777D02*
X2760Y29778D01*
Y30777D02*
X3427Y29778D01*
X2427D02*
X2094D01*
X2260D01*
Y30777D01*
X2427Y30611D01*
X-43824Y-261D02*
X-43490D01*
X-43657D01*
Y-1094D01*
X-43490Y-1261D01*
X-43324D01*
X-43157Y-1094D01*
X-44157Y-1261D02*
Y-261D01*
X-44657D01*
X-44823Y-428D01*
Y-761D01*
X-44657Y-928D01*
X-44157D01*
X-45823Y-261D02*
X-45490Y-428D01*
X-45156Y-761D01*
Y-1094D01*
X-45323Y-1261D01*
X-45656D01*
X-45823Y-1094D01*
Y-928D01*
X-45656Y-761D01*
X-45156D01*
X-40066Y80783D02*
X-39900Y80950D01*
X-39566D01*
X-39400Y80783D01*
Y80117D01*
X-39566Y79950D01*
X-39900D01*
X-40066Y80117D01*
X-40399Y80783D02*
X-40566Y80950D01*
X-40899D01*
X-41066Y80783D01*
Y80616D01*
X-40899Y80450D01*
X-40733D01*
X-40899D01*
X-41066Y80283D01*
Y80117D01*
X-40899Y79950D01*
X-40566D01*
X-40399Y80117D01*
X-41399Y80783D02*
X-41566Y80950D01*
X-41899D01*
X-42066Y80783D01*
Y80616D01*
X-41899Y80450D01*
X-41732D01*
X-41899D01*
X-42066Y80283D01*
Y80117D01*
X-41899Y79950D01*
X-41566D01*
X-41399Y80117D01*
X-63900Y43322D02*
Y42989D01*
Y43155D01*
X-64733D01*
X-64899Y42989D01*
Y42822D01*
X-64733Y42656D01*
X-64899Y43655D02*
X-63900D01*
Y44155D01*
X-64066Y44322D01*
X-64400D01*
X-64566Y44155D01*
Y43655D01*
X-64899Y45321D02*
Y44655D01*
X-64233Y45321D01*
X-64066D01*
X-63900Y45155D01*
Y44822D01*
X-64066Y44655D01*
X-37518Y76624D02*
Y75791D01*
X-37685Y75625D01*
X-38018D01*
X-38185Y75791D01*
Y76624D01*
X-39184Y75625D02*
X-38518D01*
X-39184Y76291D01*
Y76458D01*
X-39018Y76624D01*
X-38685D01*
X-38518Y76458D01*
X-31591Y51292D02*
X-32591Y51958D01*
X-31591D02*
X-32591Y51292D01*
Y52958D02*
Y52291D01*
X-31924Y52958D01*
X-31758D01*
X-31591Y52791D01*
Y52458D01*
X-31758Y52291D01*
X-32591Y53957D02*
Y53291D01*
X-31924Y53957D01*
X-31758D01*
X-31591Y53791D01*
Y53458D01*
X-31758Y53291D01*
X-43995Y16503D02*
X-44662Y15503D01*
Y16503D02*
X-43995Y15503D01*
X-45661D02*
X-44995D01*
X-45661Y16169D01*
Y16336D01*
X-45495Y16503D01*
X-45162D01*
X-44995Y16336D01*
X-46661Y16503D02*
X-45995D01*
Y16003D01*
X-46328Y16169D01*
X-46494D01*
X-46661Y16003D01*
Y15670D01*
X-46494Y15503D01*
X-46161D01*
X-45995Y15670D01*
X-34106Y51292D02*
X-35105Y51958D01*
X-34106D02*
X-35105Y51292D01*
Y52958D02*
Y52291D01*
X-34439Y52958D01*
X-34272D01*
X-34106Y52791D01*
Y52458D01*
X-34272Y52291D01*
X-34106Y53957D02*
X-34272Y53624D01*
X-34605Y53291D01*
X-34939D01*
X-35105Y53458D01*
Y53791D01*
X-34939Y53957D01*
X-34772D01*
X-34605Y53791D01*
Y53291D01*
X-43995Y13988D02*
X-44662Y12988D01*
Y13988D02*
X-43995Y12988D01*
X-45661D02*
X-44995D01*
X-45661Y13655D01*
Y13821D01*
X-45495Y13988D01*
X-45162D01*
X-44995Y13821D01*
X-45995Y13155D02*
X-46161Y12988D01*
X-46494D01*
X-46661Y13155D01*
Y13821D01*
X-46494Y13988D01*
X-46161D01*
X-45995Y13821D01*
Y13655D01*
X-46161Y13488D01*
X-46661D01*
X-36595Y51292D02*
X-37595Y51958D01*
X-36595D02*
X-37595Y51292D01*
X-36761Y52291D02*
X-36595Y52458D01*
Y52791D01*
X-36761Y52958D01*
X-36928D01*
X-37095Y52791D01*
Y52625D01*
Y52791D01*
X-37261Y52958D01*
X-37428D01*
X-37595Y52791D01*
Y52458D01*
X-37428Y52291D01*
X-36761Y53291D02*
X-36595Y53458D01*
Y53791D01*
X-36761Y53957D01*
X-37428D01*
X-37595Y53791D01*
Y53458D01*
X-37428Y53291D01*
X-36761D01*
X-43995Y11499D02*
X-44662Y10499D01*
Y11499D02*
X-43995Y10499D01*
X-44995Y11332D02*
X-45162Y11499D01*
X-45495D01*
X-45661Y11332D01*
Y11166D01*
X-45495Y10999D01*
X-45328D01*
X-45495D01*
X-45661Y10832D01*
Y10666D01*
X-45495Y10499D01*
X-45162D01*
X-44995Y10666D01*
X-45995Y11332D02*
X-46161Y11499D01*
X-46494D01*
X-46661Y11332D01*
Y11166D01*
X-46494Y10999D01*
X-46328D01*
X-46494D01*
X-46661Y10832D01*
Y10666D01*
X-46494Y10499D01*
X-46161D01*
X-45995Y10666D01*
X-39109Y51292D02*
X-40109Y51958D01*
X-39109D02*
X-40109Y51292D01*
X-39276Y52291D02*
X-39109Y52458D01*
Y52791D01*
X-39276Y52958D01*
X-39443D01*
X-39609Y52791D01*
Y52625D01*
Y52791D01*
X-39776Y52958D01*
X-39942D01*
X-40109Y52791D01*
Y52458D01*
X-39942Y52291D01*
X-40109Y53791D02*
X-39109D01*
X-39609Y53291D01*
Y53957D01*
X-43995Y9010D02*
X-44662Y8010D01*
Y9010D02*
X-43995Y8010D01*
X-44995Y8843D02*
X-45162Y9010D01*
X-45495D01*
X-45661Y8843D01*
Y8676D01*
X-45495Y8510D01*
X-45328D01*
X-45495D01*
X-45661Y8343D01*
Y8177D01*
X-45495Y8010D01*
X-45162D01*
X-44995Y8177D01*
X-45995Y9010D02*
X-46661D01*
Y8843D01*
X-45995Y8177D01*
Y8010D01*
X-41599Y51292D02*
X-42598Y51958D01*
X-41599D02*
X-42598Y51292D01*
X-41765Y52291D02*
X-41599Y52458D01*
Y52791D01*
X-41765Y52958D01*
X-41932D01*
X-42098Y52791D01*
Y52625D01*
Y52791D01*
X-42265Y52958D01*
X-42432D01*
X-42598Y52791D01*
Y52458D01*
X-42432Y52291D01*
X-41765Y53291D02*
X-41599Y53458D01*
Y53791D01*
X-41765Y53957D01*
X-41932D01*
X-42098Y53791D01*
X-42265Y53957D01*
X-42432D01*
X-42598Y53791D01*
Y53458D01*
X-42432Y53291D01*
X-42265D01*
X-42098Y53458D01*
X-41932Y53291D01*
X-41765D01*
X-42098Y53458D02*
Y53791D01*
X-43995Y6495D02*
X-44662Y5495D01*
Y6495D02*
X-43995Y5495D01*
X-45495D02*
Y6495D01*
X-44995Y5995D01*
X-45661D01*
X-45995Y5495D02*
X-46328D01*
X-46161D01*
Y6495D01*
X-45995Y6328D01*
X-44088Y51292D02*
X-45088Y51958D01*
X-44088D02*
X-45088Y51292D01*
Y52791D02*
X-44088D01*
X-44588Y52291D01*
Y52958D01*
X-45088Y53957D02*
Y53291D01*
X-44421Y53957D01*
X-44254D01*
X-44088Y53791D01*
Y53458D01*
X-44254Y53291D01*
X-43995Y4006D02*
X-44662Y3006D01*
Y4006D02*
X-43995Y3006D01*
X-45495D02*
Y4006D01*
X-44995Y3506D01*
X-45661D01*
X-46661Y4006D02*
X-45995D01*
Y3506D01*
X-46328Y3673D01*
X-46494D01*
X-46661Y3506D01*
Y3173D01*
X-46494Y3006D01*
X-46161D01*
X-45995Y3173D01*
X-57794Y5504D02*
X-57460D01*
X-57627D01*
Y4671D01*
X-57460Y4505D01*
X-57294D01*
X-57127Y4671D01*
X-58127Y4505D02*
Y5504D01*
X-58627D01*
X-58793Y5338D01*
Y5005D01*
X-58627Y4838D01*
X-58127D01*
X-59626Y4505D02*
Y5504D01*
X-59126Y5005D01*
X-59793D01*
X-46602Y51292D02*
X-47602Y51958D01*
X-46602D02*
X-47602Y51292D01*
Y52791D02*
X-46602D01*
X-47102Y52291D01*
Y52958D01*
X-46602Y53957D02*
X-46769Y53624D01*
X-47102Y53291D01*
X-47435D01*
X-47602Y53458D01*
Y53791D01*
X-47435Y53957D01*
X-47269D01*
X-47102Y53791D01*
Y53291D01*
X-23996Y18983D02*
X-24996Y19649D01*
X-23996D02*
X-24996Y18983D01*
Y19982D02*
Y20316D01*
Y20149D01*
X-23996D01*
X-24163Y19982D01*
X-24996Y21315D02*
X-23996D01*
X-24496Y20816D01*
Y21482D01*
X-13989Y5978D02*
X-14988Y6644D01*
X-13989D02*
X-14988Y5978D01*
Y6978D02*
Y7311D01*
Y7144D01*
X-13989D01*
X-14155Y6978D01*
X-14988Y8477D02*
Y7811D01*
X-14322Y8477D01*
X-14155D01*
X-13989Y8311D01*
Y7977D01*
X-14155Y7811D01*
X-21507Y18983D02*
X-22507Y19649D01*
X-21507D02*
X-22507Y18983D01*
Y19982D02*
Y20316D01*
Y20149D01*
X-21507D01*
X-21674Y19982D01*
Y20816D02*
X-21507Y20982D01*
Y21315D01*
X-21674Y21482D01*
X-22340D01*
X-22507Y21315D01*
Y20982D01*
X-22340Y20816D01*
X-21674D01*
X-1492Y18983D02*
X-2492Y19649D01*
X-1492D02*
X-2492Y18983D01*
X-1659Y19982D02*
X-1492Y20149D01*
Y20482D01*
X-1659Y20649D01*
X-1825D01*
X-1992Y20482D01*
X-2158Y20649D01*
X-2325D01*
X-2492Y20482D01*
Y20149D01*
X-2325Y19982D01*
X-2158D01*
X-1992Y20149D01*
X-1825Y19982D01*
X-1659D01*
X-1992Y20149D02*
Y20482D01*
X-11500Y5978D02*
X-12499Y6644D01*
X-11500D02*
X-12499Y5978D01*
X-11500Y7644D02*
X-11666Y7311D01*
X-11999Y6978D01*
X-12333D01*
X-12499Y7144D01*
Y7478D01*
X-12333Y7644D01*
X-12166D01*
X-11999Y7478D01*
Y6978D01*
X997Y18983D02*
X-2Y19649D01*
X997D02*
X-2Y18983D01*
Y20482D02*
X997D01*
X497Y19982D01*
Y20649D01*
X-17457Y50231D02*
X-17291Y50064D01*
Y49731D01*
X-17457Y49564D01*
X-18124D01*
X-18291Y49731D01*
Y50064D01*
X-18124Y50231D01*
X-18291Y50564D02*
Y50897D01*
Y50731D01*
X-17291D01*
X-17457Y50564D01*
X-18291Y52064D02*
Y51397D01*
X-17624Y52064D01*
X-17457D01*
X-17291Y51897D01*
Y51564D01*
X-17457Y51397D01*
X-12377Y53609D02*
X-12211Y53442D01*
Y53109D01*
X-12377Y52943D01*
X-13044D01*
X-13210Y53109D01*
Y53442D01*
X-13044Y53609D01*
X-13210Y53942D02*
Y54276D01*
Y54109D01*
X-12211D01*
X-12377Y53942D01*
Y54775D02*
X-12211Y54942D01*
Y55275D01*
X-12377Y55442D01*
X-12544D01*
X-12711Y55275D01*
Y55109D01*
Y55275D01*
X-12877Y55442D01*
X-13044D01*
X-13210Y55275D01*
Y54942D01*
X-13044Y54775D01*
X-5038Y52937D02*
X-4871Y53104D01*
X-4538D01*
X-4371Y52937D01*
Y52271D01*
X-4538Y52104D01*
X-4871D01*
X-5038Y52271D01*
X-5371Y52104D02*
X-5704D01*
X-5538D01*
Y53104D01*
X-5371Y52937D01*
X-6704Y52104D02*
Y53104D01*
X-6204Y52604D01*
X-6870D01*
X-16392Y-211D02*
X-16058D01*
X-16225D01*
Y-1044D01*
X-16058Y-1210D01*
X-15892D01*
X-15725Y-1044D01*
X-16725Y-1210D02*
Y-211D01*
X-17225D01*
X-17391Y-377D01*
Y-710D01*
X-17225Y-877D01*
X-16725D01*
X-17724Y-211D02*
X-18391D01*
Y-377D01*
X-17724Y-1044D01*
Y-1210D01*
X-80901Y30870D02*
X-79902D01*
Y31370D01*
X-80068Y31536D01*
X-80402D01*
X-80568Y31370D01*
Y30870D01*
Y31203D02*
X-80901Y31536D01*
X-79902Y32536D02*
Y31870D01*
X-80402D01*
X-80235Y32203D01*
Y32370D01*
X-80402Y32536D01*
X-80735D01*
X-80901Y32370D01*
Y32036D01*
X-80735Y31870D01*
X-79902Y33536D02*
X-80068Y33203D01*
X-80402Y32869D01*
X-80735D01*
X-80901Y33036D01*
Y33369D01*
X-80735Y33536D01*
X-80568D01*
X-80402Y33369D01*
Y32869D01*
X-18525Y86542D02*
X-18359Y86708D01*
X-18025D01*
X-17859Y86542D01*
Y85875D01*
X-18025Y85709D01*
X-18359D01*
X-18525Y85875D01*
X-18858Y85709D02*
X-19192D01*
X-19025D01*
Y86708D01*
X-18858Y86542D01*
X-19691Y86708D02*
X-20358D01*
Y86542D01*
X-19691Y85875D01*
Y85709D01*
X-136Y89031D02*
X31Y89197D01*
X364D01*
X531Y89031D01*
Y88364D01*
X364Y88198D01*
X31D01*
X-136Y88364D01*
X-469Y88198D02*
X-802D01*
X-635D01*
Y89197D01*
X-469Y89031D01*
X-1302D02*
X-1468Y89197D01*
X-1802D01*
X-1968Y89031D01*
Y88864D01*
X-1802Y88698D01*
X-1968Y88531D01*
Y88364D01*
X-1802Y88198D01*
X-1468D01*
X-1302Y88364D01*
Y88531D01*
X-1468Y88698D01*
X-1302Y88864D01*
Y89031D01*
X-1468Y88698D02*
X-1802D01*
X-50631Y72724D02*
X-50464Y72891D01*
X-50131D01*
X-49964Y72724D01*
Y72058D01*
X-50131Y71891D01*
X-50464D01*
X-50631Y72058D01*
X-50964Y72724D02*
X-51131Y72891D01*
X-51464D01*
X-51630Y72724D01*
Y72557D01*
X-51464Y72391D01*
X-51297D01*
X-51464D01*
X-51630Y72224D01*
Y72058D01*
X-51464Y71891D01*
X-51131D01*
X-50964Y72058D01*
X-51964D02*
X-52130Y71891D01*
X-52463D01*
X-52630Y72058D01*
Y72724D01*
X-52463Y72891D01*
X-52130D01*
X-51964Y72724D01*
Y72557D01*
X-52130Y72391D01*
X-52630D01*
X-50428Y80928D02*
X-50261Y81095D01*
X-49928D01*
X-49761Y80928D01*
Y80262D01*
X-49928Y80095D01*
X-50261D01*
X-50428Y80262D01*
X-50761Y80928D02*
X-50927Y81095D01*
X-51261D01*
X-51427Y80928D01*
Y80762D01*
X-51261Y80595D01*
X-51094D01*
X-51261D01*
X-51427Y80428D01*
Y80262D01*
X-51261Y80095D01*
X-50927D01*
X-50761Y80262D01*
X-51760Y80928D02*
X-51927Y81095D01*
X-52260D01*
X-52427Y80928D01*
Y80762D01*
X-52260Y80595D01*
X-52427Y80428D01*
Y80262D01*
X-52260Y80095D01*
X-51927D01*
X-51760Y80262D01*
Y80428D01*
X-51927Y80595D01*
X-51760Y80762D01*
Y80928D01*
X-51927Y80595D02*
X-52260D01*
X-40623Y72622D02*
X-40457Y72789D01*
X-40123D01*
X-39957Y72622D01*
Y71956D01*
X-40123Y71789D01*
X-40457D01*
X-40623Y71956D01*
X-40956Y72622D02*
X-41123Y72789D01*
X-41456D01*
X-41623Y72622D01*
Y72456D01*
X-41456Y72289D01*
X-41290D01*
X-41456D01*
X-41623Y72123D01*
Y71956D01*
X-41456Y71789D01*
X-41123D01*
X-40956Y71956D01*
X-41956Y72789D02*
X-42623D01*
Y72622D01*
X-41956Y71956D01*
Y71789D01*
X-77955Y47507D02*
Y48507D01*
X-78455D01*
X-78622Y48340D01*
Y48007D01*
X-78455Y47840D01*
X-77955D01*
X-78288D02*
X-78622Y47507D01*
X-79621D02*
X-78955D01*
X-79621Y48173D01*
Y48340D01*
X-79455Y48507D01*
X-79121D01*
X-78955Y48340D01*
X-79954D02*
X-80121Y48507D01*
X-80454D01*
X-80621Y48340D01*
Y48173D01*
X-80454Y48007D01*
X-80621Y47840D01*
Y47674D01*
X-80454Y47507D01*
X-80121D01*
X-79954Y47674D01*
Y47840D01*
X-80121Y48007D01*
X-79954Y48173D01*
Y48340D01*
X-80121Y48007D02*
X-80454D01*
X-77955Y50098D02*
Y51097D01*
X-78455D01*
X-78622Y50931D01*
Y50598D01*
X-78455Y50431D01*
X-77955D01*
X-78288D02*
X-78622Y50098D01*
X-79621D02*
X-78955D01*
X-79621Y50764D01*
Y50931D01*
X-79455Y51097D01*
X-79121D01*
X-78955Y50931D01*
X-79954Y51097D02*
X-80621D01*
Y50931D01*
X-79954Y50264D01*
Y50098D01*
X-73104Y42884D02*
Y43884D01*
X-73604D01*
X-73770Y43717D01*
Y43384D01*
X-73604Y43217D01*
X-73104D01*
X-73437D02*
X-73770Y42884D01*
X-74103D02*
X-74437D01*
X-74270D01*
Y43884D01*
X-74103Y43717D01*
X-74936Y42884D02*
X-75270D01*
X-75103D01*
Y43884D01*
X-74936Y43717D01*
X-78463Y46221D02*
Y45221D01*
X-78963D01*
X-79130Y45388D01*
Y46054D01*
X-78963Y46221D01*
X-78463D01*
X-80129D02*
X-79463D01*
Y45721D01*
X-79796Y45887D01*
X-79963D01*
X-80129Y45721D01*
Y45388D01*
X-79963Y45221D01*
X-79629D01*
X-79463Y45388D01*
X-79130Y43743D02*
X-78963Y43909D01*
X-78630D01*
X-78463Y43743D01*
Y43076D01*
X-78630Y42910D01*
X-78963D01*
X-79130Y43076D01*
X-79463Y43743D02*
X-79629Y43909D01*
X-79963D01*
X-80129Y43743D01*
Y43576D01*
X-79963Y43409D01*
X-80129Y43243D01*
Y43076D01*
X-79963Y42910D01*
X-79629D01*
X-79463Y43076D01*
Y43243D01*
X-79629Y43409D01*
X-79463Y43576D01*
Y43743D01*
X-79629Y43409D02*
X-79963D01*
X-38116Y-1532D02*
X-37783D01*
X-37949D01*
Y-2532D01*
X-38116Y-2365D01*
X-37283D02*
X-37116Y-2532D01*
X-36783D01*
X-36616Y-2365D01*
Y-1699D01*
X-36783Y-1532D01*
X-37116D01*
X-37283Y-1699D01*
Y-2365D01*
X-38116Y841D02*
X-37949Y1008D01*
X-37616D01*
X-37449Y841D01*
Y175D01*
X-37616Y8D01*
X-37949D01*
X-38116Y175D01*
Y342D01*
X-37949Y508D01*
X-37449D01*
X-51832Y1008D02*
X-51499D01*
X-51665D01*
Y8D01*
X-51832Y175D01*
X-51673Y-1532D02*
X-52340D01*
X-51673Y-2198D01*
Y-2365D01*
X-51840Y-2532D01*
X-52173D01*
X-52340Y-2365D01*
D72*
X-77823Y56666D02*
G03*
X-77823Y59666I0J1500D01*
G01*
X1097D02*
G03*
X1097Y56666I0J-1500D01*
G01*
M02*
