%FSLAX43Y43*%
%MOMM*%
G71*
G01*
G75*
%ADD10C,0.300*%
%ADD11C,0.200*%
%ADD12R,1.600X1.800*%
%ADD13R,0.550X1.450*%
%ADD14R,0.550X1.450*%
%ADD15R,0.850X1.300*%
%ADD16C,0.063*%
%ADD17R,10.200X7.300*%
%ADD18R,3.500X2.150*%
%ADD19R,1.100X2.150*%
%ADD20R,1.100X2.150*%
%ADD21R,0.600X2.200*%
%ADD22R,0.600X2.200*%
%ADD23R,2.200X0.600*%
%ADD24R,2.200X0.600*%
%ADD25R,1.800X1.600*%
%ADD26R,1.300X0.850*%
%ADD27R,1.000X2.600*%
%ADD28R,8.000X3.500*%
%ADD29R,6.000X6.000*%
%ADD30R,4.000X3.000*%
%ADD31R,3.000X4.000*%
%ADD32O,5.000X0.600*%
%ADD33R,0.600X1.550*%
%ADD34R,0.600X1.550*%
%ADD35R,1.700X0.600*%
%ADD36R,1.700X0.600*%
%ADD37R,2.700X2.500*%
%ADD38C,1.000*%
%ADD39C,0.400*%
%ADD40C,0.250*%
%ADD41C,0.500*%
%ADD42C,0.800*%
%ADD43C,0.700*%
%ADD44C,1.500*%
%ADD45C,0.600*%
%ADD46C,2.000*%
%ADD47C,0.254*%
%ADD48R,3.000X3.000*%
%ADD49C,1.500*%
%ADD50R,1.500X1.500*%
%ADD51C,5.000*%
%ADD52C,2.400*%
%ADD53C,4.000*%
%ADD54C,2.000*%
%ADD55R,2.000X2.000*%
%ADD56C,1.300*%
%ADD57C,1.400*%
%ADD58C,5.500*%
%ADD59C,3.000*%
%ADD60C,1.800*%
%ADD61R,1.800X1.800*%
%ADD62C,3.500*%
%ADD63C,2.500*%
%ADD64C,1.690*%
%ADD65R,1.690X1.690*%
%ADD66O,1.500X2.000*%
%ADD67R,1.500X2.000*%
%ADD68C,1.200*%
%ADD69C,1.100*%
%ADD70C,0.180*%
%ADD71C,0.150*%
D10*
X-17160Y89000D02*
G03*
X-17160Y92000I-40J1500D01*
G01*
X-19740D02*
G03*
X-19740Y89000I40J-1500D01*
G01*
X59634Y17230D02*
G03*
X59634Y17230I-3821J0D01*
G01*
X-100Y82600D02*
X3400D01*
Y85100D01*
X-3600Y87600D02*
X-100D01*
X-3600Y85100D02*
Y87600D01*
X-100D02*
X3400D01*
Y85100D02*
Y87600D01*
X-3600Y82600D02*
X-100D01*
X-3600D02*
Y85100D01*
X-19740Y92000D02*
X-17160D01*
X-19740Y89000D02*
X-17160D01*
X-78700Y75000D02*
X-77900Y75000D01*
X-78300Y75400D02*
X-78300Y74600D01*
X-80450Y-1235D02*
Y51085D01*
X-71850Y-1235D02*
Y51085D01*
X-72850Y27425D02*
X-71850D01*
X-72850Y22425D02*
Y27425D01*
Y22425D02*
X-71850D01*
X-80450Y51085D02*
X-71850D01*
X-80450Y-1235D02*
X-76150D01*
X-71850D01*
X-46547Y66454D02*
X-46052Y66454D01*
X-46035Y66472D02*
X-41403Y71103D01*
X-51197D02*
X-46618Y66525D01*
X-55846Y75753D02*
Y76247D01*
X-55828Y75735D02*
X-51197Y71103D01*
X-55775Y76318D02*
X-51197Y80897D01*
X-46547Y85546D02*
X-46052D01*
X-51197Y80897D02*
X-46565Y85528D01*
X-45982Y85475D02*
X-41403Y80897D01*
X-36860Y75646D02*
X-36754Y75753D01*
Y76247D01*
X-36772Y76265D02*
X-36754Y76247D01*
X-41403Y80897D02*
X-36772Y76265D01*
X-41403Y71103D02*
X-36825Y75682D01*
X17443Y28658D02*
X18243D01*
X17843Y28258D02*
Y29058D01*
X33574Y32704D02*
X34374D01*
X33974Y32304D02*
Y33104D01*
X64866Y50992D02*
X65666D01*
X65266Y50592D02*
Y51392D01*
X49393Y78358D02*
X50193D01*
X49793Y77958D02*
Y78758D01*
X41916Y30792D02*
X42716D01*
X42316Y30392D02*
Y31192D01*
X48193Y15558D02*
X48993D01*
X48593Y15158D02*
Y15958D01*
X48500Y88900D02*
Y103900D01*
X44500Y88900D02*
Y103900D01*
X67816Y5142D02*
X68616D01*
X68216Y4742D02*
Y5542D01*
X10585Y12676D02*
X13125D01*
X73958Y44841D02*
X85958D01*
Y65161D01*
X73958D02*
X85958D01*
X73958Y44841D02*
Y65161D01*
X51496Y12912D02*
X60005D01*
X51496D02*
Y13039D01*
Y14436D01*
Y21548D01*
X51750D01*
X51877D01*
X59878D01*
X60005Y21421D01*
Y12912D02*
Y21421D01*
X67129Y64938D02*
Y67478D01*
X70174Y62072D02*
Y64612D01*
X78949Y67704D02*
Y74704D01*
X80949Y67624D02*
Y74624D01*
D11*
X-52566Y99850D02*
G03*
X-53633Y99850I-533J0D01*
G01*
X-17700Y10433D02*
G03*
X-17700Y11167I0J367D01*
G01*
X-24400Y86817D02*
G03*
X-24400Y86083I0J-367D01*
G01*
X-59300Y55683D02*
G03*
X-59300Y54517I0J-583D01*
G01*
X-77050Y75000D02*
G03*
X-77050Y75000I-2500J0D01*
G01*
X-41910Y39613D02*
G03*
X-41910Y40346I0J367D01*
G01*
X-30233Y10700D02*
G03*
X-30966Y10700I-367J0D01*
G01*
X-30966Y4600D02*
G03*
X-30233Y4600I367J0D01*
G01*
X-30233Y5100D02*
G03*
X-30966Y5100I-367J0D01*
G01*
X19093Y28658D02*
G03*
X19093Y28658I-2500J0D01*
G01*
X36474Y33954D02*
G03*
X36474Y33954I-2500J0D01*
G01*
X71897Y13551D02*
G03*
X71897Y13551I-5000J0D01*
G01*
X69016Y50992D02*
G03*
X69016Y50992I-2500J0D01*
G01*
X51043Y78358D02*
G03*
X51043Y78358I-2500J0D01*
G01*
X46066Y30792D02*
G03*
X46066Y30792I-2500J0D01*
G01*
X49843Y15558D02*
G03*
X49843Y15558I-2500J0D01*
G01*
X78900Y28886D02*
G03*
X78900Y28886I-5000J0D01*
G01*
X78800Y39286D02*
G03*
X78800Y39286I-5000J0D01*
G01*
X71966Y5142D02*
G03*
X71966Y5142I-2500J0D01*
G01*
X43757Y22873D02*
G03*
X43757Y23606I0J367D01*
G01*
X53857Y73173D02*
G03*
X53857Y73906I0J367D01*
G01*
X27159Y33048D02*
G03*
X26425Y33048I-367J0D01*
G01*
X113900Y720D02*
X121520Y720D01*
X113900Y-1820D02*
Y720D01*
Y-1820D02*
X121520Y-1820D01*
Y720D01*
X122380Y32030D02*
X124920D01*
X122380D02*
Y44730D01*
X124920Y32030D02*
Y44730D01*
X122380D02*
X124920D01*
X121050Y95400D02*
Y98200D01*
X118250Y98200D02*
X121050D01*
X118250Y95400D02*
Y98200D01*
X118250Y95400D02*
X121050D01*
X-12711Y56830D02*
X-8469Y52587D01*
X-16954D02*
X-12711Y48344D01*
X-16954Y52587D02*
X-12711Y56830D01*
X-12711Y48344D02*
X-8469Y52587D01*
X-52566Y99850D02*
X-51500D01*
X-54700D02*
X-53633D01*
X-54700Y104850D02*
X-51500D01*
Y99850D02*
Y104850D01*
X-54700Y99850D02*
Y104850D01*
X-17700Y11900D02*
X-7700D01*
X-17700Y9700D02*
X-7700D01*
Y11900D01*
X-17700Y11167D02*
X-17700Y11900D01*
X-17700Y10433D02*
X-17700Y9700D01*
X-24400Y86817D02*
Y87550D01*
Y85350D02*
Y86083D01*
X-29400Y85350D02*
Y87550D01*
X-24400D01*
X-29400Y85350D02*
X-24400D01*
X-69300Y53350D02*
X-59300D01*
X-69300Y56850D02*
X-59300D01*
X-69300D02*
X-69300Y53350D01*
X-59300D02*
Y54517D01*
Y55683D02*
Y56850D01*
X-14445Y41596D02*
X-14445Y45596D01*
X-10145Y45596D01*
Y41596D02*
Y45596D01*
X-14445Y41596D02*
X-10145Y41596D01*
X-81905Y61388D02*
X-80005Y61388D01*
X-81905Y63988D02*
X-80005Y63988D01*
X-78605Y61388D02*
X-76705Y61388D01*
X-78605Y63988D02*
X-76705Y63988D01*
X-76705Y61388D02*
X-76705Y63988D01*
X-81905Y61388D02*
X-81905Y63988D01*
X-17750Y82400D02*
Y86800D01*
X-21050Y82400D02*
Y86800D01*
Y82400D02*
X-17750D01*
X-21050Y86800D02*
X-17750D01*
X-43706Y103798D02*
X-43706Y105698D01*
X-41106Y103798D02*
Y105698D01*
X-43706Y100498D02*
Y102398D01*
X-41106Y100498D02*
Y102398D01*
X-43706Y100498D02*
X-41106D01*
X-43706Y105698D02*
X-41106D01*
X-30900Y104500D02*
X-28300D01*
X-30900Y99300D02*
X-28300D01*
Y101200D01*
X-30900Y99300D02*
Y101200D01*
X-28300Y102600D02*
Y104500D01*
X-30900Y102600D02*
Y104500D01*
X-28100Y99300D02*
X-25500D01*
X-28100Y104500D02*
X-25500D01*
X-28100Y102600D02*
Y104500D01*
X-25500Y102600D02*
Y104500D01*
X-28100Y99300D02*
Y101200D01*
X-25500Y99300D02*
Y101200D01*
X-25100Y99850D02*
X-21100D01*
X-25100D02*
Y104150D01*
X-21100D01*
X-21100D02*
X-21100Y99850D01*
X-20393Y104888D02*
X-17793D01*
X-20393Y99688D02*
X-17793D01*
Y101588D01*
X-20393Y99688D02*
Y101588D01*
X-17793Y104888D02*
X-17793Y102988D01*
X-20393D02*
Y104888D01*
X-17552Y100098D02*
Y104098D01*
X-13252D01*
Y100098D02*
Y104098D01*
X-17552Y100098D02*
X-13252D01*
X-13093Y105088D02*
X-10493D01*
X-13093Y99888D02*
X-10493D01*
Y101788D01*
X-13093Y99888D02*
Y101788D01*
X-10493Y105088D02*
X-10493Y103188D01*
X-13093D02*
Y105088D01*
X-10248Y105202D02*
X-5948D01*
X-10248Y101202D02*
Y105202D01*
Y101202D02*
X-5948D01*
Y105202D01*
X-30403Y81203D02*
X-27803D01*
X-30403Y76003D02*
X-27803D01*
X-27803Y77903D01*
X-30403Y76003D02*
Y77903D01*
X-27803Y81203D02*
X-27803Y79303D01*
X-30403D02*
Y81203D01*
X-27603D02*
X-25003D01*
X-27603Y76003D02*
X-25003D01*
X-25003Y77903D01*
X-27603Y76003D02*
Y77903D01*
X-25003Y81203D02*
X-25003Y79303D01*
X-27603D02*
Y81203D01*
X-42591Y50704D02*
X-42591Y53304D01*
X-37391Y50704D02*
Y53304D01*
X-39291D02*
X-37391D01*
X-39291Y50704D02*
X-37391Y50704D01*
X-42591Y53304D02*
X-40691Y53304D01*
X-42591Y50704D02*
X-40691D01*
X-36291D02*
Y53304D01*
X-31091Y50704D02*
Y53304D01*
X-32991D02*
X-31091D01*
X-32991Y50704D02*
X-31091D01*
X-36291Y53304D02*
X-34391Y53304D01*
X-36291Y50704D02*
X-34391D01*
X-16796Y68491D02*
X-14196D01*
X-16796Y63291D02*
X-14196D01*
Y65191D01*
X-16796Y63291D02*
Y65191D01*
X-14196Y68491D02*
X-14196Y66591D01*
X-16796D02*
Y68491D01*
X-13897Y68488D02*
X-13897Y66588D01*
X-11297D02*
Y68488D01*
X-13897Y63288D02*
Y65188D01*
X-11297Y63288D02*
Y65188D01*
X-13897Y63288D02*
X-11297D01*
X-13897Y68488D02*
X-11297D01*
X-1304Y71509D02*
X1296Y71509D01*
X-1304Y76709D02*
X1296D01*
X-1304Y74809D02*
Y76709D01*
X1296D02*
X1296Y74809D01*
X-1304Y73409D02*
X-1304Y71509D01*
X1296Y71509D02*
Y73409D01*
X-1196Y70891D02*
X1404Y70891D01*
X-1196Y65691D02*
X1404D01*
Y67591D01*
X-1196D02*
X-1196Y65691D01*
X1404Y70891D02*
X1404Y68991D01*
X-1196D02*
Y70891D01*
X2689Y51798D02*
X4589Y51798D01*
X2689Y49198D02*
X4589D01*
X-611Y51798D02*
X1289D01*
X-611Y49198D02*
X1289D01*
X-611D02*
Y51798D01*
X4589Y49198D02*
X4589Y51798D01*
X-4496Y94091D02*
X-1896Y94091D01*
X-4496Y88891D02*
X-1896D01*
Y90791D01*
X-4496D02*
X-4496Y88891D01*
X-1896Y94091D02*
X-1896Y92191D01*
X-4496D02*
Y94091D01*
X-3996Y70891D02*
X-1396D01*
X-3996Y65691D02*
X-1396D01*
Y67591D01*
X-3996Y65691D02*
Y67591D01*
X-1396Y70891D02*
X-1396Y68991D01*
X-3996D02*
Y70891D01*
X-4504Y51109D02*
X-1904Y51109D01*
X-4504Y56309D02*
X-1904D01*
X-4504Y54409D02*
Y56309D01*
X-1904D02*
X-1904Y54409D01*
X-4504Y53009D02*
X-4504Y51109D01*
X-1904Y51109D02*
Y53009D01*
X-77700Y103900D02*
X-75800D01*
X-77700Y101300D02*
X-75800D01*
X-81000Y103900D02*
X-79100D01*
X-81000Y101300D02*
X-79100D01*
X-81000D02*
Y103900D01*
X-75800Y101300D02*
Y103900D01*
X-75400Y102000D02*
Y103900D01*
X-72800Y102000D02*
Y103900D01*
X-75400Y98700D02*
Y100600D01*
X-72800Y98700D02*
Y100600D01*
X-75400Y98700D02*
X-72800D01*
X-75400Y103900D02*
X-72800D01*
X-80500Y97050D02*
Y101350D01*
X-80500Y97050D02*
X-76500D01*
Y101350D01*
X-80500D02*
X-76500D01*
X-60000Y103800D02*
X-57400D01*
X-60000Y98600D02*
X-57400D01*
Y100500D01*
X-60000Y98600D02*
Y100500D01*
X-57400Y101900D02*
Y103800D01*
X-60000Y101900D02*
Y103800D01*
X-48000D02*
Y105700D01*
X-45400Y103800D02*
Y105700D01*
X-48000Y100500D02*
Y102400D01*
X-45400Y100500D02*
Y102400D01*
X-48000Y100500D02*
X-45400D01*
X-48000Y105700D02*
X-45400D01*
X-76700Y76700D02*
Y79300D01*
X-81900Y76700D02*
Y79300D01*
Y76700D02*
X-80000D01*
X-81900Y79300D02*
X-80000D01*
X-78600Y76700D02*
X-76700D01*
X-78600Y79300D02*
X-76700D01*
X-76697Y70703D02*
Y73303D01*
X-81897D02*
X-81897Y70703D01*
X-79997Y70703D01*
X-81897Y73303D02*
X-79997D01*
X-78597Y70703D02*
X-76697D01*
X-78597Y73303D02*
X-76697D01*
X-81905Y68088D02*
X-81905Y70688D01*
X-76705Y68088D02*
X-76705Y70688D01*
X-78605Y70688D02*
X-76705Y70688D01*
X-78605Y68088D02*
X-76705Y68088D01*
X-81905Y70688D02*
X-80005Y70688D01*
X-81905Y68088D02*
X-80005Y68088D01*
X-76503Y72703D02*
Y74603D01*
X-73903D02*
X-73903Y72703D01*
X-76503Y69403D02*
Y71303D01*
X-73903Y69403D02*
X-73903Y71303D01*
X-76503Y69403D02*
X-73903D01*
X-76503Y74603D02*
X-73903D01*
X-81900Y65400D02*
X-81900Y68000D01*
X-76700Y65400D02*
Y68000D01*
X-78600D02*
X-76700D01*
X-78600Y65400D02*
X-76700D01*
X-81900Y68000D02*
X-80000Y68000D01*
X-81900Y65400D02*
X-80000Y65400D01*
X-81900Y58600D02*
Y61200D01*
X-76700Y58600D02*
Y61200D01*
X-78600D02*
X-76700D01*
X-78600Y58600D02*
X-76700D01*
X-81900Y61200D02*
X-80000D01*
X-81900Y58600D02*
X-80000D01*
X-71097Y42897D02*
X-68497D01*
X-71097Y48097D02*
X-68497D01*
X-71097Y46197D02*
X-71097Y48097D01*
X-68497Y46197D02*
Y48097D01*
X-71097Y44797D02*
X-71097Y42897D01*
X-68497D02*
Y44797D01*
X-68497Y42897D02*
X-65897D01*
X-68497Y48097D02*
X-65897D01*
X-68497Y46197D02*
X-68497Y48097D01*
X-65897Y46197D02*
Y48097D01*
X-68497Y44797D02*
X-68497Y42897D01*
X-65897D02*
Y44797D01*
X-68103Y32997D02*
X-66203D01*
X-68103Y35597D02*
X-66203Y35597D01*
X-64803Y32997D02*
X-62903D01*
X-64803Y35597D02*
X-62903Y35597D01*
Y32997D02*
Y35597D01*
X-68103Y32997D02*
Y35597D01*
X-62897Y30203D02*
Y32803D01*
X-68097Y30203D02*
Y32803D01*
Y30203D02*
X-66197Y30203D01*
X-68097Y32803D02*
X-66197D01*
X-64797Y30203D02*
X-62897Y30203D01*
X-64797Y32803D02*
X-62897D01*
X-68103Y27597D02*
X-66203D01*
X-68103Y30197D02*
X-66203Y30197D01*
X-64803Y27597D02*
X-62903D01*
X-64803Y30197D02*
X-62903Y30197D01*
Y27597D02*
Y30197D01*
X-68103Y27597D02*
Y30197D01*
X-62897Y24903D02*
Y27503D01*
X-68097Y24903D02*
Y27503D01*
Y24903D02*
X-66197Y24903D01*
X-68097Y27503D02*
X-66197D01*
X-64797Y24903D02*
X-62897Y24903D01*
X-64797Y27503D02*
X-62897D01*
X-68103Y22297D02*
X-66203D01*
X-68103Y24897D02*
X-66203Y24897D01*
X-64803Y22297D02*
X-62903D01*
X-64803Y24897D02*
X-62903Y24897D01*
Y22297D02*
Y24897D01*
X-68103Y22297D02*
Y24897D01*
Y16997D02*
X-66203D01*
X-68103Y19597D02*
X-66203Y19597D01*
X-64803Y16997D02*
X-62903D01*
X-64803Y19597D02*
X-62903Y19597D01*
Y16997D02*
Y19597D01*
X-68103Y16997D02*
Y19597D01*
Y14397D02*
X-66203D01*
X-68103Y16997D02*
X-66203Y16997D01*
X-64803Y14397D02*
X-62903D01*
X-64803Y16997D02*
X-62903Y16997D01*
Y14397D02*
Y16997D01*
X-68103Y14397D02*
Y16997D01*
Y9197D02*
X-66203D01*
X-68103Y11797D02*
X-66203Y11797D01*
X-64803Y9197D02*
X-62903D01*
X-64803Y11797D02*
X-62903Y11797D01*
Y9197D02*
Y11797D01*
X-68103Y9197D02*
Y11797D01*
X-57197Y35603D02*
Y38203D01*
X-62397Y35603D02*
Y38203D01*
Y35603D02*
X-60497Y35603D01*
X-62397Y38203D02*
X-60497D01*
X-59097Y35603D02*
X-57197Y35603D01*
X-59097Y38203D02*
X-57197D01*
X-59097Y35603D02*
X-57197D01*
X-59097Y33003D02*
X-57197Y33003D01*
X-62397Y35603D02*
X-60497D01*
X-62397Y33003D02*
X-60497Y33003D01*
X-62397Y33003D02*
Y35603D01*
X-57197Y33003D02*
Y35603D01*
X-57200Y30300D02*
Y32900D01*
X-62400Y30300D02*
Y32900D01*
Y30300D02*
X-60500D01*
X-62400Y32900D02*
X-60500D01*
X-59100Y30300D02*
X-57200D01*
X-59100Y32900D02*
X-57200D01*
X-57197Y27603D02*
Y30203D01*
X-62397Y27603D02*
Y30203D01*
Y27603D02*
X-60497Y27603D01*
X-62397Y30203D02*
X-60497D01*
X-59097Y27603D02*
X-57197Y27603D01*
X-59097Y30203D02*
X-57197D01*
X-47946Y40591D02*
Y42491D01*
X-45346Y42491D02*
X-45346Y40591D01*
X-47946Y37291D02*
Y39191D01*
X-45346Y37291D02*
Y39191D01*
X-47946Y37291D02*
X-45346D01*
X-47946Y42491D02*
X-45346Y42491D01*
X-59100Y27500D02*
X-57200D01*
X-59100Y24900D02*
X-57200D01*
X-62400Y27500D02*
X-60500D01*
X-62400Y24900D02*
X-60500D01*
X-62400D02*
Y27500D01*
X-57200Y24900D02*
Y27500D01*
X-62403Y22297D02*
X-60503D01*
X-62403Y24897D02*
X-60503Y24897D01*
X-59103Y22297D02*
X-57203D01*
X-59103Y24897D02*
X-57203Y24897D01*
Y22297D02*
Y24897D01*
X-62403Y22297D02*
Y24897D01*
X-59100Y22200D02*
X-57200D01*
X-59100Y19600D02*
X-57200D01*
X-62400Y22200D02*
X-60500D01*
X-62400Y19600D02*
X-60500D01*
X-62400D02*
Y22200D01*
X-57200Y19600D02*
Y22200D01*
X-62403Y16997D02*
X-60503D01*
X-62403Y19597D02*
X-60503Y19597D01*
X-59103Y16997D02*
X-57203D01*
X-59103Y19597D02*
X-57203Y19597D01*
Y16997D02*
Y19597D01*
X-62403Y16997D02*
Y19597D01*
X-59097Y17003D02*
X-57197D01*
X-59097Y14403D02*
X-57197Y14403D01*
X-62397Y17003D02*
X-60497D01*
X-62397Y14403D02*
X-60497Y14403D01*
X-62397Y14403D02*
Y17003D01*
X-57197Y14403D02*
Y17003D01*
X-59100Y14400D02*
X-57200D01*
X-59100Y11800D02*
X-57200D01*
X-62400Y14400D02*
X-60500D01*
X-62400Y11800D02*
X-60500D01*
X-62400D02*
Y14400D01*
X-57200Y11800D02*
Y14400D01*
X-59097Y11803D02*
X-57197D01*
X-59097Y9203D02*
X-57197Y9203D01*
X-62397Y11803D02*
X-60497D01*
X-62397Y9203D02*
X-60497Y9203D01*
X-62397Y9203D02*
Y11803D01*
X-57197Y9203D02*
Y11803D01*
X-59100Y9200D02*
X-57200D01*
X-59100Y6600D02*
X-57200D01*
X-62400Y9200D02*
X-60500D01*
X-62400Y6600D02*
X-60500D01*
X-62400D02*
Y9200D01*
X-57200Y6600D02*
Y9200D01*
X4591Y44196D02*
X4591Y46796D01*
X-609Y44196D02*
Y46796D01*
Y44196D02*
X1291D01*
X-609Y46796D02*
X1291Y46796D01*
X2691Y44196D02*
X4591Y44196D01*
X2691Y46796D02*
X4591D01*
X2689Y44098D02*
X4589Y44098D01*
X2689Y41498D02*
X4589D01*
X-611Y44098D02*
X1289D01*
X-611Y41498D02*
X1289D01*
X-611D02*
Y44098D01*
X4589Y41498D02*
Y44098D01*
X-44709Y47296D02*
X-42809D01*
X-44709Y44696D02*
X-42809Y44696D01*
X-48009Y47296D02*
X-46109Y47296D01*
X-48009Y44696D02*
X-46109D01*
X-48009D02*
Y47296D01*
X-42809Y44696D02*
X-42809Y47296D01*
X-42703Y37309D02*
Y39209D01*
X-45303D02*
X-45303Y37309D01*
X-42703Y40609D02*
X-42703Y42509D01*
X-45303Y40609D02*
X-45303Y42509D01*
X-42703D01*
X-45303Y37309D02*
X-42703D01*
X-42387Y44707D02*
Y47307D01*
X-37187Y44707D02*
Y47307D01*
X-39087D02*
X-37187D01*
X-39087Y44707D02*
X-37187D01*
X-42387Y47307D02*
X-40487Y47307D01*
X-42387Y44707D02*
X-40487D01*
X-41910Y38880D02*
Y39613D01*
Y40346D02*
Y41080D01*
X-36910Y38880D02*
Y41080D01*
X-41910Y38880D02*
X-36910D01*
X-41910Y41080D02*
X-36910D01*
X-36497Y40591D02*
Y42491D01*
X-33897D02*
X-33897Y40591D01*
X-36497Y37291D02*
Y39191D01*
X-33897Y37291D02*
Y39191D01*
X-36497Y37291D02*
X-33897D01*
X-36497Y42491D02*
X-33897D01*
X-40859Y35696D02*
X-38959D01*
X-40859Y33096D02*
X-38959Y33096D01*
X-44159Y35696D02*
X-42259Y35696D01*
X-44159Y33096D02*
X-42259D01*
X-44159D02*
Y35696D01*
X-38959Y33096D02*
X-38959Y35696D01*
X-44141Y30304D02*
X-42241D01*
X-44141Y32904D02*
X-42241Y32904D01*
X-40841Y30304D02*
X-38941Y30304D01*
X-40841Y32904D02*
X-38941D01*
Y30304D02*
Y32904D01*
X-44141Y30304D02*
X-44141Y32904D01*
X-36791Y44704D02*
X-34891Y44704D01*
X-36791Y47304D02*
X-34891Y47304D01*
X-33491Y44704D02*
X-31591D01*
X-33491Y47304D02*
X-31591D01*
Y44704D02*
Y47304D01*
X-36791Y44704D02*
X-36791Y47304D01*
X-31254Y37309D02*
Y39209D01*
X-33854D02*
X-33854Y37309D01*
X-31254Y42509D02*
X-31254Y40609D01*
X-33854D02*
Y42509D01*
X-31254D01*
X-33854Y37309D02*
X-31254Y37309D01*
X-38941Y33104D02*
X-37041D01*
X-38941Y35704D02*
X-37041Y35704D01*
X-35641Y33104D02*
X-33741Y33104D01*
X-35641Y35704D02*
X-33741D01*
Y33104D02*
Y35704D01*
X-38941Y33104D02*
X-38941Y35704D01*
X-38941Y30304D02*
X-37041D01*
X-38941Y32904D02*
X-37041Y32904D01*
X-35641Y30304D02*
X-33741Y30304D01*
X-35641Y32904D02*
X-33741D01*
Y30304D02*
Y32904D01*
X-38941Y30304D02*
X-38941Y32904D01*
X-33200Y36100D02*
X-30600D01*
X-33200Y30900D02*
X-30600D01*
Y32800D01*
X-33200Y30900D02*
Y32800D01*
X-30600Y34200D02*
Y36100D01*
X-33200Y34200D02*
Y36100D01*
X-44509Y21296D02*
X-42609D01*
X-44509Y18696D02*
X-42609Y18696D01*
X-47809Y21296D02*
X-45909Y21296D01*
X-47809Y18696D02*
X-45909D01*
X-47809D02*
Y21296D01*
X-42609Y18696D02*
X-42609Y21296D01*
X-41700Y18704D02*
X-39800D01*
X-41700Y21304D02*
X-39800Y21304D01*
X-38400Y18704D02*
X-36500Y18704D01*
X-38400Y21304D02*
X-36500D01*
Y18704D02*
Y21304D01*
X-41700Y18704D02*
X-41700Y21304D01*
X-52287Y14907D02*
Y17507D01*
X-47087Y14907D02*
Y17507D01*
X-48987D02*
X-47087D01*
X-48987Y14907D02*
X-47087D01*
X-52287Y17507D02*
X-50387Y17507D01*
X-52287Y14907D02*
X-50387D01*
X-36491Y18704D02*
X-34591D01*
X-36491Y21304D02*
X-34591Y21304D01*
X-33191Y18704D02*
X-31291Y18704D01*
X-33191Y21304D02*
X-31291D01*
Y18704D02*
Y21304D01*
X-36491Y18704D02*
X-36491Y21304D01*
X-25604Y40209D02*
Y42109D01*
X-28204D02*
X-28204Y40209D01*
X-25604Y45409D02*
X-25604Y43509D01*
X-28204D02*
Y45409D01*
X-25604D01*
X-28204Y40209D02*
X-25604Y40209D01*
X-28196Y38291D02*
Y40191D01*
X-25596Y40191D02*
X-25596Y38291D01*
X-28196Y36891D02*
X-28196Y34991D01*
X-25596D02*
Y36891D01*
X-28196Y34991D02*
X-25596D01*
X-28196Y40191D02*
X-25596Y40191D01*
X-28304Y34746D02*
X-24304Y34746D01*
X-24304Y30446D02*
X-24304Y34746D01*
X-28304Y30446D02*
X-24304D01*
X-28304Y34746D02*
X-28304Y30446D01*
X-22991Y43304D02*
X-22991Y45904D01*
X-17791Y43304D02*
Y45904D01*
X-19691D02*
X-17791D01*
X-19691Y43304D02*
X-17791Y43304D01*
X-22991Y45904D02*
X-21091Y45904D01*
X-22991Y43304D02*
X-21091D01*
X-17809Y40996D02*
X-17809Y43596D01*
X-23009Y40996D02*
Y43596D01*
Y40996D02*
X-21109D01*
X-23009Y43596D02*
X-21109Y43596D01*
X-19709Y40996D02*
X-17809Y40996D01*
X-19709Y43596D02*
X-17809D01*
X-17404Y41009D02*
X-14804Y41009D01*
X-17404Y46209D02*
X-14804D01*
X-17404Y44309D02*
Y46209D01*
X-14804D02*
X-14804Y44309D01*
X-17404Y42909D02*
X-17404Y41009D01*
X-14804Y41009D02*
Y42909D01*
X-25500Y11900D02*
X-23600Y11900D01*
X-25500Y14500D02*
X-23600Y14500D01*
X-22200Y11900D02*
X-20300Y11900D01*
X-22200Y14500D02*
X-20300Y14500D01*
X-20300Y11900D02*
X-20300Y14500D01*
X-25500D02*
X-25500Y11900D01*
X-30233Y10700D02*
X-29500D01*
X-31700D02*
X-30966Y10700D01*
X-31700Y15700D02*
X-29500Y15700D01*
X-29500Y10700D01*
X-31700D02*
Y15700D01*
X-20500Y12500D02*
Y14400D01*
X-17900Y12500D02*
Y14400D01*
X-20500Y9200D02*
Y11100D01*
X-17900Y9200D02*
Y11100D01*
X-20500Y9200D02*
X-17900D01*
X-20500Y14400D02*
X-17900D01*
X-6350Y16300D02*
X-3750D01*
X-6350Y11100D02*
X-3750D01*
Y13000D01*
X-6350Y11100D02*
Y13000D01*
X-3750Y14400D02*
Y16300D01*
X-6350Y14400D02*
X-6350Y16300D01*
X-29500Y-400D02*
Y4600D01*
X-31700Y-400D02*
Y4600D01*
Y-400D02*
X-29500D01*
X-30233Y4600D02*
X-29500D01*
X-31700D02*
X-30966D01*
X-5300Y1700D02*
Y4300D01*
X-10500Y1700D02*
Y4300D01*
Y1700D02*
X-8600D01*
X-10500Y4300D02*
X-8600D01*
X-7200Y1700D02*
X-5300D01*
X-7200Y4300D02*
X-5300D01*
X-21200Y-2000D02*
Y600D01*
X-26400Y-2000D02*
Y600D01*
Y-2000D02*
X-24500D01*
X-26400Y600D02*
X-24500D01*
X-23100Y-2000D02*
X-21200D01*
X-23100Y600D02*
X-21200D01*
X-12200Y-1400D02*
Y1200D01*
X-7000Y-1400D02*
Y1200D01*
X-8900D02*
X-7000D01*
X-8900Y-1400D02*
X-7000D01*
X-12200Y1200D02*
X-10300D01*
X-12200Y-1400D02*
X-10300D01*
X-39900Y2200D02*
X-37300D01*
X-39900Y7400D02*
X-37300D01*
X-39900Y5500D02*
Y7400D01*
X-37300Y5500D02*
Y7400D01*
X-39900Y2200D02*
Y4100D01*
X-37300Y2200D02*
Y4100D01*
X-30233Y5100D02*
X-29500D01*
X-31700D02*
X-30966Y5100D01*
X-31700Y10100D02*
X-29500Y10100D01*
X-29500Y5100D01*
X-31700D02*
Y10100D01*
X-23700Y2900D02*
X-21100D01*
X-23700Y8100D02*
X-21100D01*
X-23700Y6200D02*
Y8100D01*
X-21100Y6200D02*
Y8100D01*
X-23700Y2900D02*
Y4800D01*
X-21100Y2900D02*
Y4800D01*
X-18600Y4200D02*
Y6800D01*
X-13400Y4200D02*
Y6800D01*
X-15300D02*
X-13400D01*
X-15300Y4200D02*
X-13400D01*
X-18600Y6800D02*
X-16700D01*
X-18600Y4200D02*
X-16700Y4200D01*
X-4200Y5300D02*
X-1600D01*
X-4200Y10500D02*
X-1600D01*
X-4200D02*
X-4200Y8600D01*
X-1600D02*
Y10500D01*
X-4200Y5300D02*
Y7200D01*
X-1600Y5300D02*
Y7200D01*
X-47393Y35888D02*
X-44793D01*
X-47393Y30688D02*
X-44793D01*
Y32588D01*
X-47393Y30688D02*
Y32588D01*
X-44793Y33988D02*
Y35888D01*
X-47393Y33988D02*
Y35888D01*
X-48491Y50704D02*
X-48491Y53304D01*
X-43291Y50704D02*
Y53304D01*
X-45191D02*
X-43291D01*
X-45191Y50704D02*
X-43291Y50704D01*
X-48491Y53304D02*
X-46591Y53304D01*
X-48491Y50704D02*
X-46591D01*
X4591Y46896D02*
X4591Y49496D01*
X-609Y46896D02*
Y49496D01*
Y46896D02*
X1291D01*
X-609Y49496D02*
X1291Y49496D01*
X2691Y46896D02*
X4591Y46896D01*
X2691Y49496D02*
X4591D01*
X93450Y700D02*
X97750Y700D01*
Y700D02*
Y4700D01*
X93450D02*
X97750D01*
X93450Y700D02*
Y4700D01*
X105650Y83950D02*
X107550D01*
X105650Y86550D02*
X107550D01*
X108950Y83950D02*
X110850D01*
X108950Y86550D02*
X110850D01*
Y83950D02*
Y86550D01*
X105650Y83950D02*
Y86550D01*
X108344Y98262D02*
Y100162D01*
X105744D02*
X105744Y98262D01*
X108344Y101562D02*
Y103462D01*
X105744Y101562D02*
Y103462D01*
X108344D01*
X105744Y98262D02*
X108344D01*
X102644D02*
X105244D01*
X102644Y103462D02*
X105244D01*
X102644Y101562D02*
Y103462D01*
X105244Y101562D02*
Y103462D01*
X102644Y100162D02*
X102644Y98262D01*
X105244D02*
Y100162D01*
X92550Y95400D02*
X95350D01*
X92550Y95400D02*
Y98200D01*
X95350D01*
X95350Y95400D02*
Y98200D01*
X92550Y101000D02*
X95350D01*
X95350Y98200D02*
Y101000D01*
X92550Y98200D02*
X95350D01*
X92550Y98200D02*
Y101000D01*
X105150Y94350D02*
Y96950D01*
X99950Y94350D02*
Y96950D01*
Y94350D02*
X101850D01*
X99950Y96950D02*
X101850D01*
X103250Y94350D02*
X105150D01*
X103250Y96950D02*
X105150D01*
X105450Y94350D02*
Y96950D01*
X110650Y94350D02*
Y96950D01*
X108750D02*
X110650D01*
X108750Y94350D02*
X110650D01*
X105450Y96950D02*
X107350D01*
X105450Y94350D02*
X107350D01*
X90050Y101000D02*
X92850D01*
X92850Y98200D02*
Y101000D01*
X90050Y98200D02*
X92850D01*
X90050Y98200D02*
Y101000D01*
X115850D02*
X118650D01*
X118650Y98200D02*
Y101000D01*
X115850Y98200D02*
X118650D01*
X115850Y98200D02*
Y101000D01*
X105150Y83950D02*
Y86550D01*
X99950Y83950D02*
Y86550D01*
Y83950D02*
X101850D01*
X99950Y86550D02*
X101850D01*
X103250Y83950D02*
X105150D01*
X103250Y86550D02*
X105150D01*
X118250Y101000D02*
X121050D01*
X121050Y98200D02*
Y101000D01*
X118250Y98200D02*
X121050D01*
X118250Y98200D02*
Y101000D01*
X90050Y95400D02*
X92850D01*
X90050Y95400D02*
Y98200D01*
X92850D01*
X92850Y95400D02*
Y98200D01*
X115850Y95400D02*
X118650D01*
X115850Y95400D02*
Y98200D01*
X118650D01*
X118650Y95400D02*
Y98200D01*
X116950Y54200D02*
X119750D01*
X116950D02*
X116950Y57000D01*
X119750D01*
X119750Y54200D02*
Y57000D01*
X117250Y54200D02*
Y57000D01*
X114450Y57000D02*
X117250Y57000D01*
X114450Y54200D02*
Y57000D01*
X114450Y54200D02*
X117250D01*
X104450Y67200D02*
X107250D01*
X104450Y67200D02*
Y70000D01*
X107250D01*
X107250Y67200D02*
Y70000D01*
X101950Y67200D02*
X104750D01*
X101950D02*
X101950Y70000D01*
X104750D01*
X104750Y67200D02*
Y70000D01*
X97250Y54200D02*
Y57000D01*
X94450Y57000D02*
X97250D01*
X94450Y54200D02*
Y57000D01*
X94450Y54200D02*
X97250D01*
X91950D02*
X94750D01*
X91950Y54200D02*
Y57000D01*
X94750D01*
X94750Y54200D02*
Y57000D01*
X105350Y42050D02*
X108150D01*
X108150Y42050D02*
Y44850D01*
X105350D02*
X108150D01*
X105350Y42050D02*
Y44850D01*
X99650Y1500D02*
X102450D01*
X102450Y1500D02*
Y4300D01*
X99650D02*
X102450D01*
X99650Y1500D02*
Y4300D01*
Y-1000D02*
X102450D01*
X102450Y-1000D02*
Y1800D01*
X99650D02*
X102450D01*
X99650Y-1000D02*
Y1800D01*
Y9000D02*
X102450D01*
X102450Y9000D02*
Y11800D01*
X99650D02*
X102450D01*
X99650Y9000D02*
Y11800D01*
Y-3500D02*
X102450D01*
X102450Y-3500D02*
Y-700D01*
X99650D02*
X102450D01*
X99650Y-3500D02*
Y-700D01*
Y6500D02*
X102450D01*
X102450Y6500D02*
Y9300D01*
X99650D02*
X102450D01*
X99650Y6500D02*
Y9300D01*
Y4000D02*
X102450D01*
X102450Y4000D02*
Y6800D01*
X99650D02*
X102450D01*
X99650Y4000D02*
Y6800D01*
X90350Y42050D02*
X93150D01*
X93150Y42050D02*
Y44850D01*
X90350D02*
X93150D01*
X90350Y42050D02*
Y44850D01*
X92850Y42050D02*
X95650D01*
X95650Y42050D02*
Y44850D01*
X92850D02*
X95650D01*
X92850Y42050D02*
Y44850D01*
X95350Y42050D02*
X98150D01*
X98150Y42050D02*
Y44850D01*
X95350D02*
X98150D01*
X95350Y42050D02*
Y44850D01*
X97850Y42050D02*
X100650D01*
X100650Y42050D02*
Y44850D01*
X97850D02*
X100650D01*
X97850Y42050D02*
Y44850D01*
X100350Y42050D02*
X103150D01*
X103150Y42050D02*
Y44850D01*
X100350D02*
X103150D01*
X100350Y42050D02*
Y44850D01*
X102850Y42050D02*
X105650D01*
X105650Y42050D02*
Y44850D01*
X102850D02*
X105650D01*
X102850Y42050D02*
Y44850D01*
X96200Y31300D02*
Y33900D01*
X91000Y31300D02*
Y33900D01*
Y31300D02*
X92900D01*
X91000Y33900D02*
X92900D01*
X94300Y31300D02*
X96200D01*
X94300Y33900D02*
X96200D01*
X96600Y30900D02*
X98500D01*
X96600Y33500D02*
X98500D01*
X99900Y30900D02*
X101800D01*
X99900Y33500D02*
X101800D01*
Y30900D02*
Y33500D01*
X96600Y30900D02*
Y33500D01*
X96100Y11200D02*
Y13800D01*
X90900Y11200D02*
Y13800D01*
Y11200D02*
X92800D01*
X90900Y13800D02*
X92800D01*
X94200Y11200D02*
X96100D01*
X94200Y13800D02*
X96100D01*
X90900Y5800D02*
X93500D01*
X90900Y600D02*
X93500D01*
Y2500D01*
X90900Y600D02*
Y2500D01*
X93500Y3900D02*
Y5800D01*
X90900Y3900D02*
Y5800D01*
X95950Y550D02*
X97850D01*
X95950Y-2050D02*
X97850D01*
X92650Y550D02*
X94550D01*
X92650Y-2050D02*
X94550D01*
X92650D02*
Y550D01*
X97850Y-2050D02*
Y550D01*
X108550Y-1850D02*
Y750D01*
X103350Y-1850D02*
Y750D01*
Y-1850D02*
X105250D01*
X103350Y750D02*
X105250D01*
X106650Y-1850D02*
X108550D01*
X106650Y750D02*
X108550D01*
X90900Y10400D02*
X93500D01*
X90900Y5200D02*
X93500D01*
Y7100D01*
X90900Y5200D02*
Y7100D01*
X93500Y8500D02*
Y10400D01*
X90900Y8500D02*
Y10400D01*
X98579Y4994D02*
Y7594D01*
X93379Y4994D02*
Y7594D01*
Y4994D02*
X95279D01*
X93379Y7594D02*
X95279D01*
X96679Y4994D02*
X98579D01*
X96679Y7594D02*
X98579D01*
X-17403Y87903D02*
Y89803D01*
X-14803Y87903D02*
Y89803D01*
X-17403Y84603D02*
Y86503D01*
X-14803Y84603D02*
Y86503D01*
X-17403Y84603D02*
X-14803D01*
X-17403Y89803D02*
X-14803D01*
X-19603Y91297D02*
X-17703D01*
X-19603Y93897D02*
X-17703Y93897D01*
X-16303Y91297D02*
X-14403D01*
X-16303Y93897D02*
X-14403Y93897D01*
Y91297D02*
Y93897D01*
X-19603Y91297D02*
Y93897D01*
X-38297Y100497D02*
X-35697D01*
X-38297Y105697D02*
X-35697D01*
X-38297Y103797D02*
Y105697D01*
X-35697Y103797D02*
Y105697D01*
X-38297Y100497D02*
Y102397D01*
X-35697Y100497D02*
Y102397D01*
X-35997Y100497D02*
X-33397D01*
X-35997Y105697D02*
X-33397D01*
X-35997Y103797D02*
Y105697D01*
X-33397Y103797D02*
Y105697D01*
X-35997Y100497D02*
Y102397D01*
X-33397Y100497D02*
Y102397D01*
X64397Y16051D02*
X65413D01*
X64897Y15535D02*
Y16551D01*
X70900Y26886D02*
X71916D01*
X71400Y26386D02*
Y27402D01*
X70800Y37286D02*
X71816D01*
X71300Y36786D02*
Y37802D01*
X55043Y94524D02*
Y95540D01*
X54543Y95024D02*
X55559D01*
X54592Y65343D02*
X56492D01*
X54592Y62743D02*
X56492D01*
X51292Y65343D02*
X53192D01*
X51292Y62743D02*
X53192D01*
X51292D02*
Y65343D01*
X56492Y62743D02*
Y65343D01*
X64092Y70293D02*
X65992D01*
X64092Y67693D02*
X65992D01*
X60792Y70293D02*
X62692D01*
X60792Y67693D02*
X62692D01*
X60792D02*
Y70293D01*
X65992Y67693D02*
Y70293D01*
X10564Y14895D02*
Y16795D01*
X13164Y14895D02*
Y16795D01*
X10564Y11595D02*
Y13495D01*
X13164Y11595D02*
Y13495D01*
X10564Y11595D02*
X13164D01*
X10564Y16795D02*
X13164D01*
X52625Y-2760D02*
Y2320D01*
X65325Y-2760D02*
Y2320D01*
X52625Y-2760D02*
X65325D01*
X52625Y2320D02*
X65325D01*
X66523Y76799D02*
Y79399D01*
X71723Y76799D02*
Y79399D01*
X69823D02*
X71723D01*
X69823Y76799D02*
X71723D01*
X66523Y79399D02*
X68423Y79399D01*
X66523Y76799D02*
X68423D01*
X39676Y89361D02*
Y101045D01*
X43740D01*
Y89361D02*
Y101045D01*
X39676Y89361D02*
X43740D01*
X41708Y87583D02*
Y89361D01*
Y101045D02*
Y102823D01*
X54642Y56093D02*
X56542D01*
X54642Y53493D02*
X56542D01*
X51342Y56093D02*
X53242D01*
X51342Y53493D02*
X53242D01*
X51342D02*
Y56093D01*
X56542Y53493D02*
Y56093D01*
X51267Y59657D02*
X53167D01*
X51267Y62257D02*
X53167D01*
X54567Y59657D02*
X56467D01*
X54567Y62257D02*
X56467D01*
Y59657D02*
Y62257D01*
X51267Y59657D02*
Y62257D01*
X54992Y82543D02*
X56892D01*
X54992Y79943D02*
X56892D01*
X51692Y82543D02*
X53592D01*
X51692Y79943D02*
X53592D01*
X51692D02*
Y82543D01*
X56892Y79943D02*
Y82543D01*
X65792Y75143D02*
X67692D01*
X65792Y72543D02*
X67692D01*
X62492Y75143D02*
X64392D01*
X62492Y72543D02*
X64392D01*
X62492D02*
Y75143D01*
X67692Y72543D02*
Y75143D01*
X51267Y56607D02*
X53167D01*
X51267Y59207D02*
X53167D01*
X54567Y56607D02*
X56467D01*
X54567Y59207D02*
X56467D01*
Y56607D02*
Y59207D01*
X51267Y56607D02*
Y59207D01*
X49442Y71593D02*
X51342D01*
X49442Y68993D02*
X51342D01*
X46142Y71593D02*
X48042D01*
X46142Y68993D02*
X48042D01*
X46142D02*
Y71593D01*
X51342Y68993D02*
Y71593D01*
X62348Y78412D02*
Y80312D01*
X59748Y78412D02*
Y80312D01*
X62348Y81712D02*
Y83612D01*
X59748Y81712D02*
Y83612D01*
X62348D01*
X59748Y78412D02*
X62348D01*
X49492Y74843D02*
X51392D01*
X49492Y72243D02*
X51392D01*
X46192Y74843D02*
X48092D01*
X46192Y72243D02*
X48092D01*
X46192D02*
Y74843D01*
X51392Y72243D02*
Y74843D01*
X11717Y74253D02*
X13617D01*
X11717Y76853D02*
X13617D01*
X15017Y74253D02*
X16917D01*
X15017Y76853D02*
X16917D01*
Y74253D02*
Y76853D01*
X11717Y74253D02*
Y76853D01*
Y77561D02*
X13617D01*
X11717Y80161D02*
X13617D01*
X15017Y77561D02*
X16917D01*
X15017Y80161D02*
X16917D01*
Y77561D02*
Y80161D01*
X11717Y77561D02*
Y80161D01*
Y80869D02*
X13617D01*
X11717Y83469D02*
X13617D01*
X15017Y80869D02*
X16917D01*
X15017Y83469D02*
X16917D01*
Y80869D02*
Y83469D01*
X11717Y80869D02*
Y83469D01*
Y84177D02*
X13617D01*
X11717Y86777D02*
X13617D01*
X15017Y84177D02*
X16917D01*
X15017Y86777D02*
X16917D01*
Y84177D02*
Y86777D01*
X11717Y84177D02*
Y86777D01*
Y87485D02*
X13617D01*
X11717Y90085D02*
X13617D01*
X15017Y87485D02*
X16917D01*
X15017Y90085D02*
X16917D01*
Y87485D02*
Y90085D01*
X11717Y87485D02*
Y90085D01*
X43757Y24339D02*
X48757D01*
X43757Y22139D02*
X48757D01*
Y24339D01*
X43757Y23606D02*
Y24339D01*
Y22139D02*
Y22873D01*
X53857Y74639D02*
X58857D01*
X53857Y72439D02*
X58857D01*
Y74639D01*
X53857Y73906D02*
Y74639D01*
Y72439D02*
Y73173D01*
X73555Y12650D02*
X80555D01*
X73555D02*
Y21850D01*
X80555D01*
X80555Y12650D02*
Y21850D01*
X20443Y83079D02*
Y100079D01*
Y83079D02*
X33443D01*
Y100079D01*
X20443D02*
X33443D01*
X27159Y33048D02*
X27892D01*
X25692D02*
X26425D01*
X25692Y38048D02*
X27892D01*
Y33048D02*
Y38048D01*
X25692Y33048D02*
Y38048D01*
X11717Y90793D02*
X13617D01*
X11717Y93393D02*
X13617Y93393D01*
X15017Y90793D02*
X16917D01*
X15017Y93393D02*
X16917D01*
Y90793D02*
Y93393D01*
X11717Y90793D02*
Y93393D01*
Y94101D02*
X13617D01*
X11717Y96701D02*
X13617Y96701D01*
X15017Y94101D02*
X16917D01*
X15017Y96701D02*
X16917D01*
Y94101D02*
Y96701D01*
X11717Y94101D02*
Y96701D01*
X61847Y61542D02*
X63747D01*
X61847Y58942D02*
X63747Y58942D01*
X58547Y61542D02*
X60447D01*
X58547Y58942D02*
X60447D01*
X58547D02*
Y61542D01*
X63747Y58942D02*
Y61542D01*
X69349Y67499D02*
X71249D01*
X69349Y64899D02*
X71249D01*
X66049Y67499D02*
X67949Y67499D01*
X66049Y64899D02*
X67949Y64899D01*
X66049Y64899D02*
X66049Y67499D01*
X71249Y64899D02*
Y67499D01*
X66055Y62051D02*
X67955D01*
X66055Y64651D02*
X67955D01*
X69355Y62051D02*
X71255Y62051D01*
X69355Y64651D02*
X71255Y64651D01*
X71255Y62051D02*
X71255Y64651D01*
X66055Y62051D02*
Y64651D01*
X59404Y66352D02*
X63704D01*
X59404Y62352D02*
Y66352D01*
Y62352D02*
X63704D01*
Y66352D01*
X64159Y58907D02*
Y61507D01*
X69359Y58907D02*
Y61507D01*
X67459D02*
X69359D01*
X67459Y58907D02*
X69359D01*
X64159Y61507D02*
X66059Y61507D01*
X64159Y58907D02*
X66059D01*
X93270Y33930D02*
Y41550D01*
X90730D02*
X93270D01*
X90730Y33930D02*
Y41550D01*
Y33930D02*
X93270D01*
X93608Y41507D02*
X93608Y38907D01*
X98808D02*
Y41507D01*
X96908D02*
X98808D01*
X96908Y38907D02*
X98808D01*
X93608Y41507D02*
X95508Y41507D01*
X93608Y38907D02*
X95508D01*
X99350Y35100D02*
X102650D01*
X99350Y39500D02*
X102650D01*
Y35100D02*
Y39500D01*
X99350Y35100D02*
Y39500D01*
X93608Y38707D02*
X93608Y36107D01*
X98808D02*
Y38707D01*
X96908D02*
X98808D01*
X96908Y36107D02*
X98808D01*
X93608Y38707D02*
X95508Y38707D01*
X93608Y36107D02*
X95508D01*
D39*
X-3210Y61306D02*
Y63211D01*
X3140D01*
Y59401D02*
Y63211D01*
X-3210Y59401D02*
X3140D01*
X-3210D02*
Y61306D01*
X-1940Y59401D02*
Y63211D01*
X19864Y32189D02*
Y34094D01*
X13514Y32189D02*
X19864D01*
X13514D02*
Y35999D01*
X19864D01*
Y34094D02*
Y35999D01*
X18594Y32189D02*
Y35999D01*
X59064Y49089D02*
Y50994D01*
X52714Y49089D02*
X59064D01*
X52714D02*
Y52899D01*
X59064D01*
Y50994D02*
Y52899D01*
X57794Y49089D02*
Y52899D01*
X55664Y28989D02*
Y30894D01*
X49314Y28989D02*
X55664D01*
X49314D02*
Y32799D01*
X55664D01*
Y30894D02*
Y32799D01*
X54394Y28989D02*
Y32799D01*
X36606Y103709D02*
X38511D01*
Y97359D02*
Y103709D01*
X34701Y97359D02*
X38511D01*
X34701D02*
Y103709D01*
X36606D01*
X34701Y102439D02*
X38511D01*
X60055Y24450D02*
X66055D01*
X60055Y31450D02*
X66055D01*
X60055Y25450D02*
X66055D01*
X60055Y24450D02*
Y31450D01*
X66055Y24450D02*
Y31450D01*
D40*
X119775Y94750D02*
G03*
X119775Y94750I-125J0D01*
G01*
X-17978Y52074D02*
G03*
X-17978Y52074I-125J0D01*
G01*
X-50125Y99595D02*
G03*
X-50125Y99595I-125J0D01*
G01*
X-17870Y8200D02*
G03*
X-17870Y8200I-125J0D01*
G01*
X-24020Y89050D02*
G03*
X-24020Y89050I-125J0D01*
G01*
X-58905Y58025D02*
G03*
X-58905Y58025I-125J0D01*
G01*
X-13270Y46246D02*
G03*
X-13270Y46246I-125J0D01*
G01*
X-21575Y83525D02*
G03*
X-21575Y83525I-125J0D01*
G01*
X-25625Y100900D02*
G03*
X-25625Y100900I-125J0D01*
G01*
X-16377Y104748D02*
G03*
X-16377Y104748I-125J0D01*
G01*
X-6873Y100552D02*
G03*
X-6873Y100552I-125J0D01*
G01*
X-75725Y100300D02*
G03*
X-75725Y100300I-125J0D01*
G01*
X-42040Y37380D02*
G03*
X-42040Y37380I-125J0D01*
G01*
X-23529Y33696D02*
G03*
X-23529Y33696I-125J0D01*
G01*
X-27875Y10445D02*
G03*
X-27875Y10445I-125J0D01*
G01*
X-33075Y4855D02*
G03*
X-33075Y4855I-125J0D01*
G01*
X-27875Y4845D02*
G03*
X-27875Y4845I-125J0D01*
G01*
X94625Y5350D02*
G03*
X94625Y5350I-125J0D01*
G01*
X94075Y94750D02*
G03*
X94075Y94750I-125J0D01*
G01*
Y101650D02*
G03*
X94075Y101650I-125J0D01*
G01*
X91575D02*
G03*
X91575Y101650I-125J0D01*
G01*
X117375D02*
G03*
X117375Y101650I-125J0D01*
G01*
X119775D02*
G03*
X119775Y101650I-125J0D01*
G01*
X91575Y94750D02*
G03*
X91575Y94750I-125J0D01*
G01*
X117375D02*
G03*
X117375Y94750I-125J0D01*
G01*
X118475Y53550D02*
G03*
X118475Y53550I-125J0D01*
G01*
X115975Y53550D02*
G03*
X115975Y53550I-125J0D01*
G01*
X105975Y66550D02*
G03*
X105975Y66550I-125J0D01*
G01*
X103475D02*
G03*
X103475Y66550I-125J0D01*
G01*
X95975Y53550D02*
G03*
X95975Y53550I-125J0D01*
G01*
X93475D02*
G03*
X93475Y53550I-125J0D01*
G01*
X104825Y43450D02*
G03*
X104825Y43450I-125J0D01*
G01*
X99125Y2900D02*
G03*
X99125Y2900I-125J0D01*
G01*
Y400D02*
G03*
X99125Y400I-125J0D01*
G01*
Y10400D02*
G03*
X99125Y10400I-125J0D01*
G01*
Y-2100D02*
G03*
X99125Y-2100I-125J0D01*
G01*
Y7900D02*
G03*
X99125Y7900I-125J0D01*
G01*
Y5400D02*
G03*
X99125Y5400I-125J0D01*
G01*
X89825Y43450D02*
G03*
X89825Y43450I-125J0D01*
G01*
X92325D02*
G03*
X92325Y43450I-125J0D01*
G01*
X94825D02*
G03*
X94825Y43450I-125J0D01*
G01*
X97325D02*
G03*
X97325Y43450I-125J0D01*
G01*
X99825D02*
G03*
X99825Y43450I-125J0D01*
G01*
X102325D02*
G03*
X102325Y43450I-125J0D01*
G01*
X43627Y20639D02*
G03*
X43627Y20639I-125J0D01*
G01*
X53727Y70939D02*
G03*
X53727Y70939I-125J0D01*
G01*
X81330Y20350D02*
G03*
X81330Y20350I-125J0D01*
G01*
X24528Y82429D02*
G03*
X24528Y82429I-125J0D01*
G01*
X29517Y32793D02*
G03*
X29517Y32793I-125J0D01*
G01*
X62779Y61702D02*
G03*
X62779Y61702I-125J0D01*
G01*
X103425Y38375D02*
G03*
X103425Y38375I-125J0D01*
G01*
X51000Y95050D02*
X53000D01*
X51000Y102550D02*
X53000D01*
Y106300D02*
X78000D01*
Y91300D02*
Y106300D01*
X53000Y91300D02*
X78000D01*
X53000D02*
Y106300D01*
X26955Y105400D02*
X30505D01*
X31955Y103950D01*
Y90400D02*
Y103950D01*
X26955Y90400D02*
X31955D01*
X23405Y105400D02*
X26955D01*
X21955Y103950D02*
X23405Y105400D01*
X21955Y90400D02*
Y103950D01*
Y90400D02*
X26955D01*
X21980Y99225D02*
X31930D01*
X31955Y99250D01*
D41*
X35506Y58240D02*
G03*
X35506Y58240I-8001J0D01*
G01*
X42745D02*
G03*
X42745Y58240I-15240J0D01*
G01*
D47*
X-47990Y24656D02*
G03*
X-47944Y27090I-854J1233D01*
G01*
X-33300Y100600D02*
G03*
X-33300Y103600I0J1500D01*
G01*
X-38300D02*
G03*
X-38200Y100603I0J-1500D01*
G01*
X-60687Y87900D02*
G03*
X-60687Y87900I-10012J0D01*
G01*
X-38003Y75859D02*
G03*
X-38003Y75859I-236J0D01*
G01*
X48478Y103900D02*
G03*
X44523Y103875I-1977J0D01*
G01*
X44522Y88900D02*
G03*
X48477Y88925I1977J0D01*
G01*
X28804Y102625D02*
G03*
X28804Y102625I-1874J0D01*
G01*
X80934Y74720D02*
G03*
X78933Y74720I-1000J0D01*
G01*
X78965Y67608D02*
G03*
X80965Y67608I1000J0D01*
G01*
X43345Y9795D02*
G03*
X43345Y9795I-13100J0D01*
G01*
X91800Y31300D02*
Y33900D01*
X-77500Y68050D02*
Y70650D01*
X-77455Y61388D02*
Y63988D01*
X91450Y16350D02*
Y26850D01*
X101450D01*
Y16350D02*
Y26850D01*
X91450Y16350D02*
X101450D01*
X90040Y55112D02*
X105540D01*
X90040D02*
X90040Y67112D01*
X90140Y67112D01*
X121040Y67112D01*
Y55112D02*
Y67112D01*
X105540Y55112D02*
X121040Y55112D01*
X-46644Y22090D02*
X-31644D01*
X-46644Y29590D02*
X-31644D01*
X-47944D02*
X-46644D01*
X-47944D02*
X-47944Y27090D01*
X-47944Y22090D02*
X-46644D01*
X-47944D02*
X-47944Y24590D01*
X-31644Y22090D02*
X-30444D01*
Y29590D01*
X-31644D02*
X-30444D01*
X-38300Y103600D02*
X-33300Y103600D01*
X-38300Y100600D02*
X-33300D01*
X125791Y39799D02*
X125791Y45799D01*
X125791Y39799D02*
X131791Y39799D01*
Y45799D01*
X125791D02*
X131791D01*
X105400Y16550D02*
X115900D01*
X105400D02*
Y26550D01*
X115900D01*
Y16550D02*
Y26550D01*
X115850Y30900D02*
Y40900D01*
X105350D02*
X115850D01*
X105350Y30900D02*
Y40900D01*
Y30900D02*
X115850D01*
Y2400D02*
Y12400D01*
X105350D02*
X115850D01*
X105350Y2400D02*
Y12400D01*
Y2400D02*
X115850D01*
X119720Y16450D02*
X129720D01*
Y26950D01*
X119720D02*
X129720D01*
X119720Y16450D02*
Y26950D01*
X50955Y24681D02*
Y23158D01*
X51971D01*
X52479Y24681D02*
X53494D01*
Y24427D01*
X52479Y23412D01*
Y23158D01*
X54002Y24427D02*
X54256Y24681D01*
X54764D01*
X55018Y24427D01*
Y23412D01*
X54764Y23158D01*
X54256D01*
X54002Y23412D01*
Y24427D01*
X55526Y23158D02*
X56034D01*
X55780D01*
Y24681D01*
X55526Y24427D01*
X79033Y76609D02*
Y78133D01*
X79795D01*
X80049Y77879D01*
Y77371D01*
X79795Y77117D01*
X79033D01*
X79541D02*
X80049Y76609D01*
X80556Y78133D02*
X81572D01*
Y77879D01*
X80556Y76863D01*
Y76609D01*
X82080D02*
X82588D01*
X82334D01*
Y78133D01*
X82080Y77879D01*
X83349D02*
X83603Y78133D01*
X84111D01*
X84365Y77879D01*
Y77625D01*
X84111Y77371D01*
X84365Y77117D01*
Y76863D01*
X84111Y76609D01*
X83603D01*
X83349Y76863D01*
Y77117D01*
X83603Y77371D01*
X83349Y77625D01*
Y77879D01*
X83603Y77371D02*
X84111D01*
X95016Y37920D02*
X94762Y38174D01*
X94254D01*
X94000Y37920D01*
Y36904D01*
X94254Y36650D01*
X94762D01*
X95016Y36904D01*
X96285Y36650D02*
Y38174D01*
X95524Y37412D01*
X96539D01*
X97047Y37920D02*
X97301Y38174D01*
X97809D01*
X98063Y37920D01*
Y37666D01*
X97809Y37412D01*
X97555D01*
X97809D01*
X98063Y37158D01*
Y36904D01*
X97809Y36650D01*
X97301D01*
X97047Y36904D01*
X91326Y36566D02*
Y36058D01*
Y36312D01*
X92596D01*
X92850Y36058D01*
Y35804D01*
X92596Y35550D01*
X92850Y37074D02*
X91326D01*
Y37835D01*
X91580Y38089D01*
X92088D01*
X92342Y37835D01*
Y37074D01*
X91580Y38597D02*
X91326Y38851D01*
Y39359D01*
X91580Y39613D01*
X91834D01*
X92088Y39359D01*
X92342Y39613D01*
X92596D01*
X92850Y39359D01*
Y38851D01*
X92596Y38597D01*
X92342D01*
X92088Y38851D01*
X91834Y38597D01*
X91580D01*
X92088Y38851D02*
Y39359D01*
X94500Y39550D02*
Y41074D01*
X95262D01*
X95516Y40820D01*
Y40312D01*
X95262Y40058D01*
X94500D01*
X95008D02*
X95516Y39550D01*
X96024Y41074D02*
X97039D01*
Y40820D01*
X96024Y39804D01*
Y39550D01*
X98309D02*
Y41074D01*
X97547Y40312D01*
X98563D01*
X99493Y41877D02*
Y40608D01*
X99746Y40354D01*
X100254D01*
X100508Y40608D01*
Y41877D01*
X101016Y40354D02*
X101524D01*
X101270D01*
Y41877D01*
X101016Y41623D01*
X102286D02*
X102540Y41877D01*
X103047D01*
X103301Y41623D01*
Y40608D01*
X103047Y40354D01*
X102540D01*
X102286Y40608D01*
Y41623D01*
D70*
X128629Y43133D02*
X128463Y43300D01*
X128129D01*
X127963Y43133D01*
Y42966D01*
X128129Y42800D01*
X128463D01*
X128629Y42633D01*
Y42467D01*
X128463Y42300D01*
X128129D01*
X127963Y42467D01*
X129629Y43300D02*
X129296Y43133D01*
X128962Y42800D01*
Y42467D01*
X129129Y42300D01*
X129462D01*
X129629Y42467D01*
Y42633D01*
X129462Y42800D01*
X128962D01*
X-42746Y102504D02*
X-42912Y102337D01*
Y102004D01*
X-42746Y101838D01*
X-42079D01*
X-41912Y102004D01*
Y102337D01*
X-42079Y102504D01*
X-41912Y102837D02*
Y103171D01*
Y103004D01*
X-42912D01*
X-42746Y102837D01*
X-42912Y104337D02*
Y103670D01*
X-42412D01*
X-42579Y104004D01*
Y104170D01*
X-42412Y104337D01*
X-42079D01*
X-41912Y104170D01*
Y103837D01*
X-42079Y103670D01*
X-21745Y41792D02*
Y42792D01*
X-21245D01*
X-21078Y42625D01*
Y42292D01*
X-21245Y42125D01*
X-21745D01*
X-21412D02*
X-21078Y41792D01*
X-20245D02*
Y42792D01*
X-20745Y42292D01*
X-20079D01*
X-19079Y42792D02*
X-19746D01*
Y42292D01*
X-19412Y42458D01*
X-19246D01*
X-19079Y42292D01*
Y41959D01*
X-19246Y41792D01*
X-19579D01*
X-19746Y41959D01*
X-21059Y85108D02*
Y84275D01*
X-20892Y84108D01*
X-20559D01*
X-20393Y84275D01*
Y85108D01*
X-20059Y84108D02*
X-19726D01*
X-19893D01*
Y85108D01*
X-20059Y84941D01*
X-19226Y84275D02*
X-19060Y84108D01*
X-18727D01*
X-18560Y84275D01*
Y84941D01*
X-18727Y85108D01*
X-19060D01*
X-19226Y84941D01*
Y84775D01*
X-19060Y84608D01*
X-18560D01*
X-74707Y70676D02*
X-75707D01*
Y71176D01*
X-75540Y71342D01*
X-75207D01*
X-75040Y71176D01*
Y70676D01*
Y71009D02*
X-74707Y71342D01*
X-75707Y72342D02*
X-75540Y72009D01*
X-75207Y71675D01*
X-74874D01*
X-74707Y71842D01*
Y72175D01*
X-74874Y72342D01*
X-75040D01*
X-75207Y72175D01*
Y71675D01*
X-75707Y72675D02*
Y73342D01*
X-75540D01*
X-74874Y72675D01*
X-74707D01*
X-80622Y71510D02*
Y72510D01*
X-80122D01*
X-79956Y72343D01*
Y72010D01*
X-80122Y71843D01*
X-80622D01*
X-80289D02*
X-79956Y71510D01*
X-78956D02*
X-79622D01*
X-78956Y72176D01*
Y72343D01*
X-79123Y72510D01*
X-79456D01*
X-79622Y72343D01*
X-77956Y72510D02*
X-78290Y72343D01*
X-78623Y72010D01*
Y71677D01*
X-78456Y71510D01*
X-78123D01*
X-77956Y71677D01*
Y71843D01*
X-78123Y72010D01*
X-78623D01*
X-66754Y25714D02*
Y26713D01*
X-66254D01*
X-66087Y26547D01*
Y26214D01*
X-66254Y26047D01*
X-66754D01*
X-66420D02*
X-66087Y25714D01*
X-65754D02*
X-65421D01*
X-65587D01*
Y26713D01*
X-65754Y26547D01*
X-64921Y25880D02*
X-64754Y25714D01*
X-64421D01*
X-64255Y25880D01*
Y26547D01*
X-64421Y26713D01*
X-64754D01*
X-64921Y26547D01*
Y26380D01*
X-64754Y26214D01*
X-64255D01*
X-66754Y30997D02*
Y31997D01*
X-66254D01*
X-66087Y31830D01*
Y31497D01*
X-66254Y31330D01*
X-66754D01*
X-66420D02*
X-66087Y30997D01*
X-65754D02*
X-65421D01*
X-65587D01*
Y31997D01*
X-65754Y31830D01*
X-64921D02*
X-64754Y31997D01*
X-64421D01*
X-64255Y31830D01*
Y31663D01*
X-64421Y31497D01*
X-64255Y31330D01*
Y31164D01*
X-64421Y30997D01*
X-64754D01*
X-64921Y31164D01*
Y31330D01*
X-64754Y31497D01*
X-64921Y31663D01*
Y31830D01*
X-64754Y31497D02*
X-64421D01*
X-61039Y36407D02*
Y37407D01*
X-60539D01*
X-60372Y37240D01*
Y36907D01*
X-60539Y36740D01*
X-61039D01*
X-60705D02*
X-60372Y36407D01*
X-60039D02*
X-59706D01*
X-59872D01*
Y37407D01*
X-60039Y37240D01*
X-59206Y37407D02*
X-58540D01*
Y37240D01*
X-59206Y36574D01*
Y36407D01*
X-69294Y44662D02*
X-70293D01*
Y45162D01*
X-70127Y45329D01*
X-69794D01*
X-69627Y45162D01*
Y44662D01*
Y44995D02*
X-69294Y45329D01*
X-69460Y45662D02*
X-69294Y45828D01*
Y46162D01*
X-69460Y46328D01*
X-70127D01*
X-70293Y46162D01*
Y45828D01*
X-70127Y45662D01*
X-69960D01*
X-69794Y45828D01*
Y46328D01*
X-66703Y44662D02*
X-67703D01*
Y45162D01*
X-67536Y45329D01*
X-67203D01*
X-67036Y45162D01*
Y44662D01*
Y44995D02*
X-66703Y45329D01*
X-67536Y45662D02*
X-67703Y45828D01*
Y46162D01*
X-67536Y46328D01*
X-67369D01*
X-67203Y46162D01*
X-67036Y46328D01*
X-66870D01*
X-66703Y46162D01*
Y45828D01*
X-66870Y45662D01*
X-67036D01*
X-67203Y45828D01*
X-67369Y45662D01*
X-67536D01*
X-67203Y45828D02*
Y46162D01*
X-80140Y63188D02*
Y62188D01*
X-79640D01*
X-79473Y62355D01*
Y63021D01*
X-79640Y63188D01*
X-80140D01*
X-78640Y62188D02*
Y63188D01*
X-79140Y62688D01*
X-78473D01*
X-80140Y69893D02*
Y68894D01*
X-79640D01*
X-79473Y69060D01*
Y69727D01*
X-79640Y69893D01*
X-80140D01*
X-79140Y69727D02*
X-78973Y69893D01*
X-78640D01*
X-78473Y69727D01*
Y69560D01*
X-78640Y69394D01*
X-78807D01*
X-78640D01*
X-78473Y69227D01*
Y69060D01*
X-78640Y68894D01*
X-78973D01*
X-79140Y69060D01*
X-79473Y60227D02*
X-79640Y60394D01*
X-79973D01*
X-80140Y60227D01*
Y59561D01*
X-79973Y59394D01*
X-79640D01*
X-79473Y59561D01*
X-79140Y60394D02*
X-78473D01*
Y60227D01*
X-79140Y59561D01*
Y59394D01*
X-79473Y67034D02*
X-79640Y67201D01*
X-79973D01*
X-80140Y67034D01*
Y66368D01*
X-79973Y66201D01*
X-79640D01*
X-79473Y66368D01*
X-78473Y67201D02*
X-78807Y67034D01*
X-79140Y66701D01*
Y66368D01*
X-78973Y66201D01*
X-78640D01*
X-78473Y66368D01*
Y66535D01*
X-78640Y66701D01*
X-79140D01*
X-28603Y77428D02*
X-29603D01*
Y77928D01*
X-29436Y78095D01*
X-29103D01*
X-28936Y77928D01*
Y77428D01*
Y77761D02*
X-28603Y78095D01*
Y78928D02*
X-29603D01*
X-29103Y78428D01*
Y79094D01*
X-28603Y79428D02*
Y79761D01*
Y79594D01*
X-29603D01*
X-29436Y79428D01*
X-25809Y77276D02*
X-26809D01*
Y77776D01*
X-26642Y77942D01*
X-26309D01*
X-26142Y77776D01*
Y77276D01*
Y77609D02*
X-25809Y77942D01*
Y78775D02*
X-26809D01*
X-26309Y78275D01*
Y78942D01*
X-26642Y79275D02*
X-26809Y79442D01*
Y79775D01*
X-26642Y79942D01*
X-25976D01*
X-25809Y79775D01*
Y79442D01*
X-25976Y79275D01*
X-26642D01*
X-12468Y43660D02*
Y44327D01*
X-12634Y44493D01*
X-12968D01*
X-13134Y44327D01*
Y43660D01*
X-12968Y43494D01*
X-12634D01*
X-12801Y43827D02*
X-12468Y43494D01*
X-12634D02*
X-12468Y43660D01*
X-11468Y44493D02*
X-12135D01*
Y43994D01*
X-11801Y44160D01*
X-11635D01*
X-11468Y43994D01*
Y43660D01*
X-11635Y43494D01*
X-11968D01*
X-12135Y43660D01*
X-21567Y44103D02*
Y45103D01*
X-21067D01*
X-20901Y44936D01*
Y44603D01*
X-21067Y44437D01*
X-21567D01*
X-21234D02*
X-20901Y44103D01*
X-20567Y44936D02*
X-20401Y45103D01*
X-20068D01*
X-19901Y44936D01*
Y44770D01*
X-20068Y44603D01*
X-20234D01*
X-20068D01*
X-19901Y44437D01*
Y44270D01*
X-20068Y44103D01*
X-20401D01*
X-20567Y44270D01*
X-19568Y44103D02*
X-19235D01*
X-19401D01*
Y45103D01*
X-19568Y44936D01*
X-15598Y42275D02*
X-16598D01*
Y42774D01*
X-16431Y42941D01*
X-16098D01*
X-15931Y42774D01*
Y42275D01*
Y42608D02*
X-15598Y42941D01*
X-16431Y43274D02*
X-16598Y43441D01*
Y43774D01*
X-16431Y43941D01*
X-16265D01*
X-16098Y43774D01*
Y43607D01*
Y43774D01*
X-15931Y43941D01*
X-15765D01*
X-15598Y43774D01*
Y43441D01*
X-15765Y43274D01*
X-15598Y44940D02*
Y44274D01*
X-16265Y44940D01*
X-16431D01*
X-16598Y44774D01*
Y44441D01*
X-16431Y44274D01*
X607Y66963D02*
X-393D01*
Y67463D01*
X-226Y67630D01*
X107D01*
X274Y67463D01*
Y66963D01*
Y67297D02*
X607Y67630D01*
X-226Y67963D02*
X-393Y68130D01*
Y68463D01*
X-226Y68630D01*
X-59D01*
X107Y68463D01*
Y68296D01*
Y68463D01*
X274Y68630D01*
X440D01*
X607Y68463D01*
Y68130D01*
X440Y67963D01*
X-393Y68963D02*
Y69629D01*
X-226D01*
X440Y68963D01*
X607D01*
X-35350Y51450D02*
Y52450D01*
X-34850D01*
X-34683Y52283D01*
Y51950D01*
X-34850Y51783D01*
X-35350D01*
X-35017D02*
X-34683Y51450D01*
X-34350Y52283D02*
X-34184Y52450D01*
X-33850D01*
X-33684Y52283D01*
Y52116D01*
X-33850Y51950D01*
X-34017D01*
X-33850D01*
X-33684Y51783D01*
Y51617D01*
X-33850Y51450D01*
X-34184D01*
X-34350Y51617D01*
X-33350Y52283D02*
X-33184Y52450D01*
X-32851D01*
X-32684Y52283D01*
Y52116D01*
X-32851Y51950D01*
X-32684Y51783D01*
Y51617D01*
X-32851Y51450D01*
X-33184D01*
X-33350Y51617D01*
Y51783D01*
X-33184Y51950D01*
X-33350Y52116D01*
Y52283D01*
X-33184Y51950D02*
X-32851D01*
X-2187Y66963D02*
X-3187D01*
Y67463D01*
X-3020Y67630D01*
X-2687D01*
X-2520Y67463D01*
Y66963D01*
Y67297D02*
X-2187Y67630D01*
X-3020Y67963D02*
X-3187Y68130D01*
Y68463D01*
X-3020Y68630D01*
X-2853D01*
X-2687Y68463D01*
Y68296D01*
Y68463D01*
X-2520Y68630D01*
X-2354D01*
X-2187Y68463D01*
Y68130D01*
X-2354Y67963D01*
Y68963D02*
X-2187Y69129D01*
Y69463D01*
X-2354Y69629D01*
X-3020D01*
X-3187Y69463D01*
Y69129D01*
X-3020Y68963D01*
X-2853D01*
X-2687Y69129D01*
Y69629D01*
X-2695Y90154D02*
X-3695D01*
Y90653D01*
X-3528Y90820D01*
X-3195D01*
X-3028Y90653D01*
Y90154D01*
Y90487D02*
X-2695Y90820D01*
X-3695Y91820D02*
Y91153D01*
X-3195D01*
X-3361Y91487D01*
Y91653D01*
X-3195Y91820D01*
X-2862D01*
X-2695Y91653D01*
Y91320D01*
X-2862Y91153D01*
X-3528Y92153D02*
X-3695Y92320D01*
Y92653D01*
X-3528Y92819D01*
X-2862D01*
X-2695Y92653D01*
Y92320D01*
X-2862Y92153D01*
X-3528D01*
X506Y72932D02*
X-494D01*
Y73432D01*
X-328Y73599D01*
X6D01*
X172Y73432D01*
Y72932D01*
Y73266D02*
X506Y73599D01*
X-494Y74599D02*
Y73932D01*
X6D01*
X-161Y74265D01*
Y74432D01*
X6Y74599D01*
X339D01*
X506Y74432D01*
Y74099D01*
X339Y73932D01*
X506Y74932D02*
Y75265D01*
Y75098D01*
X-494D01*
X-328Y74932D01*
X-41450Y51550D02*
Y52550D01*
X-40950D01*
X-40783Y52383D01*
Y52050D01*
X-40950Y51883D01*
X-41450D01*
X-41117D02*
X-40783Y51550D01*
X-39784Y52550D02*
X-40450D01*
Y52050D01*
X-40117Y52216D01*
X-39950D01*
X-39784Y52050D01*
Y51717D01*
X-39950Y51550D01*
X-40284D01*
X-40450Y51717D01*
X-38951Y51550D02*
Y52550D01*
X-39450Y52050D01*
X-38784D01*
X-47221Y51495D02*
Y52494D01*
X-46721D01*
X-46555Y52328D01*
Y51995D01*
X-46721Y51828D01*
X-47221D01*
X-46888D02*
X-46555Y51495D01*
X-45555Y52494D02*
X-46221D01*
Y51995D01*
X-45888Y52161D01*
X-45722D01*
X-45555Y51995D01*
Y51661D01*
X-45722Y51495D01*
X-46055D01*
X-46221Y51661D01*
X-44555Y52494D02*
X-45222D01*
Y51995D01*
X-44889Y52161D01*
X-44722D01*
X-44555Y51995D01*
Y51661D01*
X-44722Y51495D01*
X-45055D01*
X-45222Y51661D01*
X-51031Y15706D02*
Y16706D01*
X-50531D01*
X-50365Y16539D01*
Y16206D01*
X-50531Y16039D01*
X-51031D01*
X-50698D02*
X-50365Y15706D01*
X-50031Y16539D02*
X-49865Y16706D01*
X-49532D01*
X-49365Y16539D01*
Y16373D01*
X-49532Y16206D01*
X-49698D01*
X-49532D01*
X-49365Y16039D01*
Y15873D01*
X-49532Y15706D01*
X-49865D01*
X-50031Y15873D01*
X-49032Y16539D02*
X-48865Y16706D01*
X-48532D01*
X-48365Y16539D01*
Y15873D01*
X-48532Y15706D01*
X-48865D01*
X-49032Y15873D01*
Y16539D01*
X-45596Y31962D02*
X-46595D01*
Y32462D01*
X-46429Y32629D01*
X-46095D01*
X-45929Y32462D01*
Y31962D01*
Y32295D02*
X-45596Y32629D01*
Y33628D02*
Y32962D01*
X-46262Y33628D01*
X-46429D01*
X-46595Y33462D01*
Y33128D01*
X-46429Y32962D01*
X-45762Y33962D02*
X-45596Y34128D01*
Y34461D01*
X-45762Y34628D01*
X-46429D01*
X-46595Y34461D01*
Y34128D01*
X-46429Y33962D01*
X-46262D01*
X-46095Y34128D01*
Y34628D01*
X1832Y50829D02*
X1666Y50996D01*
X1333D01*
X1166Y50829D01*
Y50163D01*
X1333Y49996D01*
X1666D01*
X1832Y50163D01*
X2166D02*
X2332Y49996D01*
X2665D01*
X2832Y50163D01*
Y50829D01*
X2665Y50996D01*
X2332D01*
X2166Y50829D01*
Y50663D01*
X2332Y50496D01*
X2832D01*
X1401Y43133D02*
X1234Y43300D01*
X901D01*
X734Y43133D01*
Y42467D01*
X901Y42300D01*
X1234D01*
X1401Y42467D01*
X1734Y42300D02*
X2067D01*
X1900D01*
Y43300D01*
X1734Y43133D01*
X2567D02*
X2733Y43300D01*
X3067D01*
X3233Y43133D01*
Y42467D01*
X3067Y42300D01*
X2733D01*
X2567Y42467D01*
Y43133D01*
X-12926Y65471D02*
X-13093Y65304D01*
Y64971D01*
X-12926Y64804D01*
X-12260D01*
X-12093Y64971D01*
Y65304D01*
X-12260Y65471D01*
X-12093Y65804D02*
Y66137D01*
Y65971D01*
X-13093D01*
X-12926Y65804D01*
X-12093Y66637D02*
Y66970D01*
Y66804D01*
X-13093D01*
X-12926Y66637D01*
X-708Y61650D02*
X-874Y61816D01*
X-1207D01*
X-1374Y61650D01*
Y60983D01*
X-1207Y60817D01*
X-874D01*
X-708Y60983D01*
X292Y60817D02*
X-374D01*
X292Y61483D01*
Y61650D01*
X125Y61816D01*
X-208D01*
X-374Y61650D01*
X625D02*
X792Y61816D01*
X1125D01*
X1292Y61650D01*
Y60983D01*
X1125Y60817D01*
X792D01*
X625Y60983D01*
Y61650D01*
X-14988Y64550D02*
X-15988D01*
Y65050D01*
X-15822Y65217D01*
X-15488D01*
X-15322Y65050D01*
Y64550D01*
Y64884D02*
X-14988Y65217D01*
X-15822Y65550D02*
X-15988Y65717D01*
Y66050D01*
X-15822Y66217D01*
X-15655D01*
X-15488Y66050D01*
Y65883D01*
Y66050D01*
X-15322Y66217D01*
X-15155D01*
X-14988Y66050D01*
Y65717D01*
X-15155Y65550D01*
X-15822Y66550D02*
X-15988Y66716D01*
Y67050D01*
X-15822Y67216D01*
X-15655D01*
X-15488Y67050D01*
Y66883D01*
Y67050D01*
X-15322Y67216D01*
X-15155D01*
X-14988Y67050D01*
Y66716D01*
X-15155Y66550D01*
X658Y47685D02*
Y48684D01*
X1158D01*
X1324Y48518D01*
Y48185D01*
X1158Y48018D01*
X658D01*
X991D02*
X1324Y47685D01*
X2157D02*
Y48684D01*
X1658Y48185D01*
X2324D01*
X3324Y47685D02*
X2657D01*
X3324Y48351D01*
Y48518D01*
X3157Y48684D01*
X2824D01*
X2657Y48518D01*
X658Y44992D02*
Y45992D01*
X1158D01*
X1324Y45825D01*
Y45492D01*
X1158Y45326D01*
X658D01*
X991D02*
X1324Y44992D01*
X2157D02*
Y45992D01*
X1658Y45492D01*
X2324D01*
X3157Y44992D02*
Y45992D01*
X2657Y45492D01*
X3324D01*
X-2695Y52384D02*
X-3695D01*
Y52884D01*
X-3528Y53050D01*
X-3195D01*
X-3028Y52884D01*
Y52384D01*
Y52717D02*
X-2695Y53050D01*
Y53883D02*
X-3695D01*
X-3195Y53383D01*
Y54050D01*
X-2862Y54383D02*
X-2695Y54550D01*
Y54883D01*
X-2862Y55050D01*
X-3528D01*
X-3695Y54883D01*
Y54550D01*
X-3528Y54383D01*
X-3361D01*
X-3195Y54550D01*
Y55050D01*
X-32383Y32866D02*
X-32549Y32700D01*
Y32367D01*
X-32383Y32200D01*
X-31716D01*
X-31550Y32367D01*
Y32700D01*
X-31716Y32866D01*
X-31550Y33200D02*
Y33533D01*
Y33366D01*
X-32549D01*
X-32383Y33200D01*
X-32549Y34699D02*
X-32383Y34366D01*
X-32050Y34033D01*
X-31716D01*
X-31550Y34199D01*
Y34533D01*
X-31716Y34699D01*
X-31883D01*
X-32050Y34533D01*
Y34033D01*
X-46967Y76497D02*
Y75664D01*
X-46800Y75498D01*
X-46467D01*
X-46301Y75664D01*
Y76497D01*
X-45967Y75498D02*
X-45634D01*
X-45801D01*
Y76497D01*
X-45967Y76331D01*
X-61039Y28406D02*
Y29406D01*
X-60539D01*
X-60372Y29239D01*
Y28906D01*
X-60539Y28739D01*
X-61039D01*
X-60705D02*
X-60372Y28406D01*
X-60039D02*
X-59706D01*
X-59872D01*
Y29406D01*
X-60039Y29239D01*
X-59206D02*
X-59039Y29406D01*
X-58706D01*
X-58540Y29239D01*
Y29073D01*
X-58706Y28906D01*
X-58873D01*
X-58706D01*
X-58540Y28739D01*
Y28573D01*
X-58706Y28406D01*
X-59039D01*
X-59206Y28573D01*
X-59966Y31932D02*
X-60132Y32098D01*
X-60466D01*
X-60632Y31932D01*
Y31265D01*
X-60466Y31099D01*
X-60132D01*
X-59966Y31265D01*
X-58966Y31099D02*
X-59633D01*
X-58966Y31765D01*
Y31932D01*
X-59133Y32098D01*
X-59466D01*
X-59633Y31932D01*
X-66830Y33791D02*
Y34791D01*
X-66330D01*
X-66163Y34624D01*
Y34291D01*
X-66330Y34124D01*
X-66830D01*
X-66497D02*
X-66163Y33791D01*
X-65164D02*
X-65830D01*
X-65164Y34457D01*
Y34624D01*
X-65330Y34791D01*
X-65664D01*
X-65830Y34624D01*
X-64164Y34791D02*
X-64831D01*
Y34291D01*
X-64497Y34457D01*
X-64331D01*
X-64164Y34291D01*
Y33958D01*
X-64331Y33791D01*
X-64664D01*
X-64831Y33958D01*
X-61140Y17789D02*
Y18789D01*
X-60640D01*
X-60474Y18622D01*
Y18289D01*
X-60640Y18122D01*
X-61140D01*
X-60807D02*
X-60474Y17789D01*
X-59474D02*
X-60141D01*
X-59474Y18455D01*
Y18622D01*
X-59641Y18789D01*
X-59974D01*
X-60141Y18622D01*
X-58641Y17789D02*
Y18789D01*
X-59141Y18289D01*
X-58474D01*
X-61140Y23098D02*
Y24097D01*
X-60640D01*
X-60474Y23931D01*
Y23597D01*
X-60640Y23431D01*
X-61140D01*
X-60807D02*
X-60474Y23098D01*
X-59474D02*
X-60141D01*
X-59474Y23764D01*
Y23931D01*
X-59641Y24097D01*
X-59974D01*
X-60141Y23931D01*
X-59141D02*
X-58974Y24097D01*
X-58641D01*
X-58474Y23931D01*
Y23764D01*
X-58641Y23597D01*
X-58808D01*
X-58641D01*
X-58474Y23431D01*
Y23264D01*
X-58641Y23098D01*
X-58974D01*
X-59141Y23264D01*
X-66830Y15198D02*
Y16198D01*
X-66330D01*
X-66163Y16031D01*
Y15698D01*
X-66330Y15531D01*
X-66830D01*
X-66497D02*
X-66163Y15198D01*
X-65164D02*
X-65830D01*
X-65164Y15865D01*
Y16031D01*
X-65330Y16198D01*
X-65664D01*
X-65830Y16031D01*
X-64164Y15198D02*
X-64831D01*
X-64164Y15865D01*
Y16031D01*
X-64331Y16198D01*
X-64664D01*
X-64831Y16031D01*
X-66677Y28406D02*
Y29406D01*
X-66178D01*
X-66011Y29239D01*
Y28906D01*
X-66178Y28739D01*
X-66677D01*
X-66344D02*
X-66011Y28406D01*
X-65011D02*
X-65678D01*
X-65011Y29073D01*
Y29239D01*
X-65178Y29406D01*
X-65511D01*
X-65678Y29239D01*
X-64678Y28406D02*
X-64345D01*
X-64512D01*
Y29406D01*
X-64678Y29239D01*
X-66830Y9991D02*
Y10991D01*
X-66330D01*
X-66163Y10824D01*
Y10491D01*
X-66330Y10324D01*
X-66830D01*
X-66497D02*
X-66163Y9991D01*
X-65164D02*
X-65830D01*
X-65164Y10658D01*
Y10824D01*
X-65330Y10991D01*
X-65664D01*
X-65830Y10824D01*
X-64831D02*
X-64664Y10991D01*
X-64331D01*
X-64164Y10824D01*
Y10158D01*
X-64331Y9991D01*
X-64664D01*
X-64831Y10158D01*
Y10824D01*
X-61039Y33791D02*
Y34791D01*
X-60539D01*
X-60372Y34624D01*
Y34291D01*
X-60539Y34124D01*
X-61039D01*
X-60705D02*
X-60372Y33791D01*
X-60039D02*
X-59706D01*
X-59872D01*
Y34791D01*
X-60039Y34624D01*
X-58540Y34791D02*
X-58873Y34624D01*
X-59206Y34291D01*
Y33958D01*
X-59039Y33791D01*
X-58706D01*
X-58540Y33958D01*
Y34124D01*
X-58706Y34291D01*
X-59206D01*
X-61039Y15198D02*
Y16198D01*
X-60539D01*
X-60372Y16031D01*
Y15698D01*
X-60539Y15531D01*
X-61039D01*
X-60705D02*
X-60372Y15198D01*
X-60039D02*
X-59706D01*
X-59872D01*
Y16198D01*
X-60039Y16031D01*
X-58540Y16198D02*
X-59206D01*
Y15698D01*
X-58873Y15865D01*
X-58706D01*
X-58540Y15698D01*
Y15365D01*
X-58706Y15198D01*
X-59039D01*
X-59206Y15365D01*
X-61039Y9991D02*
Y10991D01*
X-60539D01*
X-60372Y10824D01*
Y10491D01*
X-60539Y10324D01*
X-61039D01*
X-60705D02*
X-60372Y9991D01*
X-60039D02*
X-59706D01*
X-59872D01*
Y10991D01*
X-60039Y10824D01*
X-58540Y9991D02*
X-59206D01*
X-58540Y10658D01*
Y10824D01*
X-58706Y10991D01*
X-59039D01*
X-59206Y10824D01*
X-66347Y17789D02*
Y18789D01*
X-65847D01*
X-65681Y18622D01*
Y18289D01*
X-65847Y18122D01*
X-66347D01*
X-66014D02*
X-65681Y17789D01*
X-65348Y18789D02*
X-64681D01*
Y18622D01*
X-65348Y17956D01*
Y17789D01*
X-66347Y23098D02*
Y24097D01*
X-65847D01*
X-65681Y23931D01*
Y23597D01*
X-65847Y23431D01*
X-66347D01*
X-66014D02*
X-65681Y23098D01*
X-64681Y24097D02*
X-65014Y23931D01*
X-65348Y23597D01*
Y23264D01*
X-65181Y23098D01*
X-64848D01*
X-64681Y23264D01*
Y23431D01*
X-64848Y23597D01*
X-65348D01*
X-59966Y21238D02*
X-60132Y21405D01*
X-60466D01*
X-60632Y21238D01*
Y20572D01*
X-60466Y20405D01*
X-60132D01*
X-59966Y20572D01*
X-58966Y21405D02*
X-59633D01*
Y20905D01*
X-59299Y21072D01*
X-59133D01*
X-58966Y20905D01*
Y20572D01*
X-59133Y20405D01*
X-59466D01*
X-59633Y20572D01*
X-59966Y26521D02*
X-60132Y26688D01*
X-60466D01*
X-60632Y26521D01*
Y25855D01*
X-60466Y25688D01*
X-60132D01*
X-59966Y25855D01*
X-59133Y25688D02*
Y26688D01*
X-59633Y26188D01*
X-58966D01*
X-59966Y13440D02*
X-60132Y13607D01*
X-60466D01*
X-60632Y13440D01*
Y12774D01*
X-60466Y12607D01*
X-60132D01*
X-59966Y12774D01*
X-59633Y13440D02*
X-59466Y13607D01*
X-59133D01*
X-58966Y13440D01*
Y13274D01*
X-59133Y13107D01*
X-59299D01*
X-59133D01*
X-58966Y12941D01*
Y12774D01*
X-59133Y12607D01*
X-59466D01*
X-59633Y12774D01*
X-59788Y8233D02*
X-59955Y8400D01*
X-60288D01*
X-60454Y8233D01*
Y7567D01*
X-60288Y7400D01*
X-59955D01*
X-59788Y7567D01*
X-59455Y7400D02*
X-59122D01*
X-59288D01*
Y8400D01*
X-59455Y8233D01*
X-76643Y24424D02*
Y24091D01*
Y24258D01*
X-75810D01*
X-75644Y24091D01*
Y23925D01*
X-75810Y23758D01*
X-75644Y24758D02*
X-76643D01*
Y25258D01*
X-76477Y25424D01*
X-76144D01*
X-75977Y25258D01*
Y24758D01*
X-75644Y25757D02*
Y26091D01*
Y25924D01*
X-76643D01*
X-76477Y25757D01*
X-26292Y100568D02*
X-27291D01*
Y101067D01*
X-27125Y101234D01*
X-26791D01*
X-26625Y101067D01*
Y100568D01*
Y100901D02*
X-26292Y101234D01*
X-26458Y101567D02*
X-26292Y101734D01*
Y102067D01*
X-26458Y102234D01*
X-27125D01*
X-27291Y102067D01*
Y101734D01*
X-27125Y101567D01*
X-26958D01*
X-26791Y101734D01*
Y102234D01*
X-27125Y102567D02*
X-27291Y102734D01*
Y103067D01*
X-27125Y103233D01*
X-26458D01*
X-26292Y103067D01*
Y102734D01*
X-26458Y102567D01*
X-27125D01*
X-29111Y100568D02*
X-30111D01*
Y101067D01*
X-29944Y101234D01*
X-29611D01*
X-29444Y101067D01*
Y100568D01*
Y100901D02*
X-29111Y101234D01*
X-29944Y101567D02*
X-30111Y101734D01*
Y102067D01*
X-29944Y102234D01*
X-29777D01*
X-29611Y102067D01*
X-29444Y102234D01*
X-29278D01*
X-29111Y102067D01*
Y101734D01*
X-29278Y101567D01*
X-29444D01*
X-29611Y101734D01*
X-29777Y101567D01*
X-29944D01*
X-29611Y101734D02*
Y102067D01*
X-29278Y102567D02*
X-29111Y102734D01*
Y103067D01*
X-29278Y103233D01*
X-29944D01*
X-30111Y103067D01*
Y102734D01*
X-29944Y102567D01*
X-29777D01*
X-29611Y102734D01*
Y103233D01*
X-23669Y101674D02*
Y102340D01*
X-23836Y102507D01*
X-24169D01*
X-24336Y102340D01*
Y101674D01*
X-24169Y101507D01*
X-23836D01*
X-24002Y101841D02*
X-23669Y101507D01*
X-23836D02*
X-23669Y101674D01*
X-22836Y101507D02*
Y102507D01*
X-23336Y102007D01*
X-22670D01*
X-80622Y77504D02*
Y78504D01*
X-80122D01*
X-79956Y78337D01*
Y78004D01*
X-80122Y77838D01*
X-80622D01*
X-80289D02*
X-79956Y77504D01*
X-78956Y78504D02*
X-79622D01*
Y78004D01*
X-79289Y78171D01*
X-79123D01*
X-78956Y78004D01*
Y77671D01*
X-79123Y77504D01*
X-79456D01*
X-79622Y77671D01*
X-78623Y78504D02*
X-77956D01*
Y78337D01*
X-78623Y77671D01*
Y77504D01*
X-75483Y75033D02*
X-75650Y75200D01*
X-75983D01*
X-76150Y75033D01*
Y74367D01*
X-75983Y74200D01*
X-75650D01*
X-75483Y74367D01*
X-75150Y74200D02*
X-74817D01*
X-74984D01*
Y75200D01*
X-75150Y75033D01*
X-74317Y74367D02*
X-74150Y74200D01*
X-73817D01*
X-73651Y74367D01*
Y75033D01*
X-73817Y75200D01*
X-74150D01*
X-74317Y75033D01*
Y74866D01*
X-74150Y74700D01*
X-73651D01*
X-71377Y87410D02*
Y88077D01*
X-71043Y88410D01*
X-70710Y88077D01*
Y87410D01*
Y87910D01*
X-71377D01*
X-70377Y87410D02*
X-70044D01*
X-70210D01*
Y88410D01*
X-70377Y88243D01*
X-64925Y55593D02*
Y54760D01*
X-64758Y54594D01*
X-64425D01*
X-64258Y54760D01*
Y55593D01*
X-63425Y54594D02*
Y55593D01*
X-63925Y55093D01*
X-63259D01*
X-73612Y99958D02*
X-74611D01*
Y100458D01*
X-74445Y100624D01*
X-74112D01*
X-73945Y100458D01*
Y99958D01*
Y100291D02*
X-73612Y100624D01*
X-74445Y100958D02*
X-74611Y101124D01*
Y101458D01*
X-74445Y101624D01*
X-74278D01*
X-74112Y101458D01*
Y101291D01*
Y101458D01*
X-73945Y101624D01*
X-73778D01*
X-73612Y101458D01*
Y101124D01*
X-73778Y100958D01*
X-73612Y102457D02*
X-74611D01*
X-74112Y101957D01*
Y102624D01*
X-79733Y102092D02*
Y103091D01*
X-79233D01*
X-79067Y102925D01*
Y102591D01*
X-79233Y102425D01*
X-79733D01*
X-79400D02*
X-79067Y102092D01*
X-78733Y102925D02*
X-78567Y103091D01*
X-78234D01*
X-78067Y102925D01*
Y102758D01*
X-78234Y102591D01*
X-78400D01*
X-78234D01*
X-78067Y102425D01*
Y102258D01*
X-78234Y102092D01*
X-78567D01*
X-78733Y102258D01*
X-77067Y103091D02*
X-77401Y102925D01*
X-77734Y102591D01*
Y102258D01*
X-77567Y102092D01*
X-77234D01*
X-77067Y102258D01*
Y102425D01*
X-77234Y102591D01*
X-77734D01*
X-78101Y98855D02*
Y99521D01*
X-78268Y99688D01*
X-78601D01*
X-78768Y99521D01*
Y98855D01*
X-78601Y98688D01*
X-78268D01*
X-78435Y99021D02*
X-78101Y98688D01*
X-78268D02*
X-78101Y98855D01*
X-77768Y98688D02*
X-77435D01*
X-77602D01*
Y99688D01*
X-77768Y99521D01*
X-27536Y86962D02*
Y86129D01*
X-27369Y85963D01*
X-27036D01*
X-26870Y86129D01*
Y86962D01*
X-26536D02*
X-25870D01*
Y86796D01*
X-26536Y86129D01*
Y85963D01*
X-36250Y100000D02*
Y99833D01*
X-35917Y99500D01*
X-35583Y99833D01*
Y100000D01*
X-35917Y99500D02*
Y99000D01*
X-35250D02*
X-34917D01*
X-35084D01*
Y100000D01*
X-35250Y99833D01*
X-19350Y91000D02*
Y90833D01*
X-19017Y90500D01*
X-18683Y90833D01*
Y91000D01*
X-19017Y90500D02*
Y90000D01*
X-17684D02*
X-18350D01*
X-17684Y90666D01*
Y90833D01*
X-17850Y91000D01*
X-18184D01*
X-18350Y90833D01*
X-35024Y102606D02*
X-35191Y102439D01*
Y102106D01*
X-35024Y101939D01*
X-34358D01*
X-34191Y102106D01*
Y102439D01*
X-34358Y102606D01*
X-34191Y103605D02*
Y102939D01*
X-34857Y103605D01*
X-35024D01*
X-35191Y103439D01*
Y103105D01*
X-35024Y102939D01*
X-34191Y103939D02*
Y104272D01*
Y104105D01*
X-35191D01*
X-35024Y103939D01*
X-37335Y102606D02*
X-37502Y102439D01*
Y102106D01*
X-37335Y101939D01*
X-36669D01*
X-36502Y102106D01*
Y102439D01*
X-36669Y102606D01*
X-37335Y102939D02*
X-37502Y103105D01*
Y103439D01*
X-37335Y103605D01*
X-37169D01*
X-37002Y103439D01*
Y103272D01*
Y103439D01*
X-36836Y103605D01*
X-36669D01*
X-36502Y103439D01*
Y103105D01*
X-36669Y102939D01*
X-36502Y103939D02*
Y104272D01*
Y104105D01*
X-37502D01*
X-37335Y103939D01*
X-38103Y3463D02*
X-39102D01*
Y3963D01*
X-38936Y4130D01*
X-38602D01*
X-38436Y3963D01*
Y3463D01*
Y3797D02*
X-38103Y4130D01*
Y4963D02*
X-39102D01*
X-38602Y4463D01*
Y5130D01*
X-38936Y5463D02*
X-39102Y5629D01*
Y5963D01*
X-38936Y6129D01*
X-38769D01*
X-38602Y5963D01*
Y5796D01*
Y5963D01*
X-38436Y6129D01*
X-38269D01*
X-38103Y5963D01*
Y5629D01*
X-38269Y5463D01*
X-8277Y102461D02*
Y103128D01*
X-8443Y103294D01*
X-8777D01*
X-8943Y103128D01*
Y102461D01*
X-8777Y102295D01*
X-8443D01*
X-8610Y102628D02*
X-8277Y102295D01*
X-8443D02*
X-8277Y102461D01*
X-7277Y102295D02*
X-7944D01*
X-7277Y102961D01*
Y103128D01*
X-7444Y103294D01*
X-7777D01*
X-7944Y103128D01*
X-15567Y102157D02*
Y102823D01*
X-15733Y102990D01*
X-16066D01*
X-16233Y102823D01*
Y102157D01*
X-16066Y101990D01*
X-15733D01*
X-15900Y102323D02*
X-15567Y101990D01*
X-15733D02*
X-15567Y102157D01*
X-15233Y102823D02*
X-15067Y102990D01*
X-14734D01*
X-14567Y102823D01*
Y102656D01*
X-14734Y102490D01*
X-14900D01*
X-14734D01*
X-14567Y102323D01*
Y102157D01*
X-14734Y101990D01*
X-15067D01*
X-15233Y102157D01*
X-11306Y101228D02*
X-12305D01*
Y101728D01*
X-12139Y101894D01*
X-11805D01*
X-11639Y101728D01*
Y101228D01*
Y101561D02*
X-11306Y101894D01*
Y102228D02*
Y102561D01*
Y102394D01*
X-12305D01*
X-12139Y102228D01*
Y103061D02*
X-12305Y103227D01*
Y103561D01*
X-12139Y103727D01*
X-11472D01*
X-11306Y103561D01*
Y103227D01*
X-11472Y103061D01*
X-12139D01*
X-18595Y101050D02*
X-19595D01*
Y101550D01*
X-19428Y101717D01*
X-19095D01*
X-18929Y101550D01*
Y101050D01*
Y101383D02*
X-18595Y101717D01*
Y102050D02*
Y102383D01*
Y102216D01*
X-19595D01*
X-19428Y102050D01*
X-18595Y103383D02*
X-19595D01*
X-19095Y102883D01*
Y103549D01*
X-31101Y11744D02*
X-30268D01*
X-30101Y11910D01*
Y12244D01*
X-30268Y12410D01*
X-31101D01*
X-30101Y12743D02*
Y13077D01*
Y12910D01*
X-31101D01*
X-30935Y12743D01*
X-31101Y14243D02*
X-30935Y13910D01*
X-30601Y13577D01*
X-30268D01*
X-30101Y13743D01*
Y14076D01*
X-30268Y14243D01*
X-30435D01*
X-30601Y14076D01*
Y13577D01*
X-31101Y1050D02*
X-30268D01*
X-30101Y1217D01*
Y1550D01*
X-30268Y1717D01*
X-31101D01*
X-30101Y2050D02*
Y2383D01*
Y2217D01*
X-31101D01*
X-30935Y2050D01*
X-31101Y3550D02*
Y2883D01*
X-30601D01*
X-30768Y3216D01*
Y3383D01*
X-30601Y3550D01*
X-30268D01*
X-30101Y3383D01*
Y3050D01*
X-30268Y2883D01*
X-14176Y11296D02*
Y10463D01*
X-14009Y10296D01*
X-13676D01*
X-13509Y10463D01*
Y11296D01*
X-13176Y10296D02*
X-12843D01*
X-13009D01*
Y11296D01*
X-13176Y11129D01*
X-11843Y10296D02*
Y11296D01*
X-12343Y10796D01*
X-11677D01*
X-31101Y6562D02*
X-30268D01*
X-30101Y6729D01*
Y7062D01*
X-30268Y7229D01*
X-31101D01*
X-30935Y7562D02*
X-31101Y7728D01*
Y8062D01*
X-30935Y8228D01*
X-30768D01*
X-30601Y8062D01*
X-30435Y8228D01*
X-30268D01*
X-30101Y8062D01*
Y7728D01*
X-30268Y7562D01*
X-30435D01*
X-30601Y7728D01*
X-30768Y7562D01*
X-30935D01*
X-30601Y7728D02*
Y8062D01*
X-53606Y101304D02*
X-52773D01*
X-52606Y101471D01*
Y101804D01*
X-52773Y101971D01*
X-53606D01*
Y102970D02*
Y102304D01*
X-53106D01*
X-53272Y102637D01*
Y102804D01*
X-53106Y102970D01*
X-52773D01*
X-52606Y102804D01*
Y102470D01*
X-52773Y102304D01*
X-58200Y99850D02*
X-59199D01*
Y100350D01*
X-59033Y100516D01*
X-58700D01*
X-58533Y100350D01*
Y99850D01*
Y100183D02*
X-58200Y100516D01*
X-59199Y100850D02*
Y101516D01*
X-59033D01*
X-58366Y100850D01*
X-58200D01*
X-59033Y101849D02*
X-59199Y102016D01*
Y102349D01*
X-59033Y102516D01*
X-58866D01*
X-58700Y102349D01*
Y102183D01*
Y102349D01*
X-58533Y102516D01*
X-58366D01*
X-58200Y102349D01*
Y102016D01*
X-58366Y101849D01*
X-47200Y104400D02*
X-46200D01*
Y103900D01*
X-46367Y103734D01*
X-46700D01*
X-46867Y103900D01*
Y104400D01*
Y104067D02*
X-47200Y103734D01*
X-46200Y103400D02*
Y102734D01*
X-46367D01*
X-47033Y103400D01*
X-47200D01*
Y101734D02*
Y102401D01*
X-46533Y101734D01*
X-46367D01*
X-46200Y101901D01*
Y102234D01*
X-46367Y102401D01*
X-25123Y-1210D02*
Y-211D01*
X-24623D01*
X-24457Y-377D01*
Y-710D01*
X-24623Y-877D01*
X-25123D01*
X-24790D02*
X-24457Y-1210D01*
X-23457Y-211D02*
X-24123D01*
Y-710D01*
X-23790Y-544D01*
X-23624D01*
X-23457Y-710D01*
Y-1044D01*
X-23624Y-1210D01*
X-23957D01*
X-24123Y-1044D01*
X-23124Y-377D02*
X-22957Y-211D01*
X-22624D01*
X-22457Y-377D01*
Y-544D01*
X-22624Y-710D01*
X-22791D01*
X-22624D01*
X-22457Y-877D01*
Y-1044D01*
X-22624Y-1210D01*
X-22957D01*
X-23124Y-1044D01*
X-10925Y-601D02*
Y399D01*
X-10425D01*
X-10258Y232D01*
Y-101D01*
X-10425Y-267D01*
X-10925D01*
X-10591D02*
X-10258Y-601D01*
X-9258Y399D02*
X-9925D01*
Y-101D01*
X-9592Y66D01*
X-9425D01*
X-9258Y-101D01*
Y-434D01*
X-9425Y-601D01*
X-9758D01*
X-9925Y-434D01*
X-8259Y-601D02*
X-8925D01*
X-8259Y66D01*
Y232D01*
X-8425Y399D01*
X-8759D01*
X-8925Y232D01*
X-21897Y4175D02*
X-22897D01*
Y4674D01*
X-22730Y4841D01*
X-22397D01*
X-22231Y4674D01*
Y4175D01*
Y4508D02*
X-21897Y4841D01*
Y5674D02*
X-22897D01*
X-22397Y5174D01*
Y5841D01*
X-22730Y6174D02*
X-22897Y6341D01*
Y6674D01*
X-22730Y6840D01*
X-22564D01*
X-22397Y6674D01*
X-22231Y6840D01*
X-22064D01*
X-21897Y6674D01*
Y6341D01*
X-22064Y6174D01*
X-22231D01*
X-22397Y6341D01*
X-22564Y6174D01*
X-22730D01*
X-22397Y6341D02*
Y6674D01*
X-4549Y12379D02*
X-5549D01*
Y12879D01*
X-5382Y13045D01*
X-5049D01*
X-4882Y12879D01*
Y12379D01*
Y12712D02*
X-4549Y13045D01*
Y13878D02*
X-5549D01*
X-5049Y13378D01*
Y14045D01*
X-5549Y14378D02*
Y15045D01*
X-5382D01*
X-4716Y14378D01*
X-4549D01*
X-3223Y7229D02*
X-3390Y7062D01*
Y6729D01*
X-3223Y6562D01*
X-2557D01*
X-2390Y6729D01*
Y7062D01*
X-2557Y7229D01*
X-3223Y7562D02*
X-3390Y7728D01*
Y8062D01*
X-3223Y8228D01*
X-3057D01*
X-2890Y8062D01*
Y7895D01*
Y8062D01*
X-2723Y8228D01*
X-2557D01*
X-2390Y8062D01*
Y7728D01*
X-2557Y7562D01*
X-3223Y8562D02*
X-3390Y8728D01*
Y9061D01*
X-3223Y9228D01*
X-2557D01*
X-2390Y9061D01*
Y8728D01*
X-2557Y8562D01*
X-3223D01*
X-8556Y3331D02*
X-8723Y3498D01*
X-9056D01*
X-9223Y3331D01*
Y2665D01*
X-9056Y2498D01*
X-8723D01*
X-8556Y2665D01*
X-7557Y2498D02*
X-8223D01*
X-7557Y3165D01*
Y3331D01*
X-7723Y3498D01*
X-8056D01*
X-8223Y3331D01*
X-7223Y2665D02*
X-7057Y2498D01*
X-6723D01*
X-6557Y2665D01*
Y3331D01*
X-6723Y3498D01*
X-7057D01*
X-7223Y3331D01*
Y3165D01*
X-7057Y2998D01*
X-6557D01*
X-23568Y13542D02*
X-23734Y13709D01*
X-24067D01*
X-24234Y13542D01*
Y12876D01*
X-24067Y12709D01*
X-23734D01*
X-23568Y12876D01*
X-22568Y12709D02*
X-23234D01*
X-22568Y13375D01*
Y13542D01*
X-22735Y13709D01*
X-23068D01*
X-23234Y13542D01*
X-22235D02*
X-22068Y13709D01*
X-21735D01*
X-21568Y13542D01*
Y13375D01*
X-21735Y13209D01*
X-21568Y13042D01*
Y12876D01*
X-21735Y12709D01*
X-22068D01*
X-22235Y12876D01*
Y13042D01*
X-22068Y13209D01*
X-22235Y13375D01*
Y13542D01*
X-22068Y13209D02*
X-21735D01*
X-19530Y11140D02*
X-19697Y10974D01*
Y10640D01*
X-19530Y10474D01*
X-18864D01*
X-18697Y10640D01*
Y10974D01*
X-18864Y11140D01*
X-18697Y12140D02*
Y11473D01*
X-19363Y12140D01*
X-19530D01*
X-19697Y11973D01*
Y11640D01*
X-19530Y11473D01*
X-19697Y12473D02*
Y13140D01*
X-19530D01*
X-18864Y12473D01*
X-18697D01*
X-16659Y5846D02*
X-16825Y6012D01*
X-17159D01*
X-17325Y5846D01*
Y5179D01*
X-17159Y5013D01*
X-16825D01*
X-16659Y5179D01*
X-15659Y5013D02*
X-16326D01*
X-15659Y5679D01*
Y5846D01*
X-15826Y6012D01*
X-16159D01*
X-16326Y5846D01*
X-14659Y6012D02*
X-14993Y5846D01*
X-15326Y5513D01*
Y5179D01*
X-15159Y5013D01*
X-14826D01*
X-14659Y5179D01*
Y5346D01*
X-14826Y5513D01*
X-15326D01*
X-13541Y53079D02*
Y52246D01*
X-13374Y52079D01*
X-13041D01*
X-12874Y52246D01*
Y53079D01*
X-12541Y52912D02*
X-12374Y53079D01*
X-12041D01*
X-11875Y52912D01*
Y52745D01*
X-12041Y52579D01*
X-12208D01*
X-12041D01*
X-11875Y52412D01*
Y52246D01*
X-12041Y52079D01*
X-12374D01*
X-12541Y52246D01*
X-942Y85591D02*
Y84758D01*
X-776Y84591D01*
X-442D01*
X-276Y84758D01*
Y85591D01*
X724D02*
X391Y85424D01*
X57Y85091D01*
Y84758D01*
X224Y84591D01*
X557D01*
X724Y84758D01*
Y84924D01*
X557Y85091D01*
X57D01*
X-42233Y32033D02*
X-42400Y32200D01*
X-42733D01*
X-42900Y32033D01*
Y31367D01*
X-42733Y31200D01*
X-42400D01*
X-42233Y31367D01*
X-41234Y31200D02*
X-41900D01*
X-41234Y31866D01*
Y32033D01*
X-41400Y32200D01*
X-41734D01*
X-41900Y32033D01*
X-40234Y31200D02*
X-40900D01*
X-40234Y31866D01*
Y32033D01*
X-40401Y32200D01*
X-40734D01*
X-40900Y32033D01*
X-36883Y32083D02*
X-37050Y32250D01*
X-37383D01*
X-37550Y32083D01*
Y31417D01*
X-37383Y31250D01*
X-37050D01*
X-36883Y31417D01*
X-35884Y31250D02*
X-36550D01*
X-35884Y31916D01*
Y32083D01*
X-36050Y32250D01*
X-36384D01*
X-36550Y32083D01*
X-35550D02*
X-35384Y32250D01*
X-35051D01*
X-34884Y32083D01*
Y31916D01*
X-35051Y31750D01*
X-35217D01*
X-35051D01*
X-34884Y31583D01*
Y31417D01*
X-35051Y31250D01*
X-35384D01*
X-35550Y31417D01*
X-34845Y46333D02*
X-35012Y46500D01*
X-35345D01*
X-35512Y46333D01*
Y45667D01*
X-35345Y45500D01*
X-35012D01*
X-34845Y45667D01*
X-33846Y45500D02*
X-34512D01*
X-33846Y46167D01*
Y46333D01*
X-34012Y46500D01*
X-34345D01*
X-34512Y46333D01*
X-33013Y45500D02*
Y46500D01*
X-33512Y46000D01*
X-32846D01*
X-46072Y46333D02*
X-46239Y46500D01*
X-46572D01*
X-46738Y46333D01*
Y45667D01*
X-46572Y45500D01*
X-46239D01*
X-46072Y45667D01*
X-45072Y45500D02*
X-45739D01*
X-45072Y46167D01*
Y46333D01*
X-45239Y46500D01*
X-45572D01*
X-45739Y46333D01*
X-44073Y46500D02*
X-44739D01*
Y46000D01*
X-44406Y46167D01*
X-44239D01*
X-44073Y46000D01*
Y45667D01*
X-44239Y45500D01*
X-44573D01*
X-44739Y45667D01*
X-46987Y39233D02*
X-47154Y39066D01*
Y38733D01*
X-46987Y38566D01*
X-46321D01*
X-46154Y38733D01*
Y39066D01*
X-46321Y39233D01*
X-46987Y39566D02*
X-47154Y39732D01*
Y40066D01*
X-46987Y40232D01*
X-46821D01*
X-46654Y40066D01*
Y39899D01*
Y40066D01*
X-46488Y40232D01*
X-46321D01*
X-46154Y40066D01*
Y39732D01*
X-46321Y39566D01*
X-46154Y41232D02*
Y40566D01*
X-46821Y41232D01*
X-46987D01*
X-47154Y41065D01*
Y40732D01*
X-46987Y40566D01*
X-35532Y39233D02*
X-35699Y39066D01*
Y38733D01*
X-35532Y38566D01*
X-34866D01*
X-34699Y38733D01*
Y39066D01*
X-34866Y39233D01*
X-35532Y39566D02*
X-35699Y39732D01*
Y40066D01*
X-35532Y40232D01*
X-35365D01*
X-35199Y40066D01*
Y39899D01*
Y40066D01*
X-35032Y40232D01*
X-34866D01*
X-34699Y40066D01*
Y39732D01*
X-34866Y39566D01*
X-35699Y41232D02*
Y40566D01*
X-35199D01*
X-35365Y40899D01*
Y41065D01*
X-35199Y41232D01*
X-34866D01*
X-34699Y41065D01*
Y40732D01*
X-34866Y40566D01*
X-39881Y26332D02*
Y25333D01*
Y25666D01*
X-39214Y26332D01*
X-39714Y25833D01*
X-39214Y25333D01*
X-38881D02*
X-38548D01*
X-38714D01*
Y26332D01*
X-38881Y26166D01*
X-26393Y41487D02*
X-27393D01*
Y41987D01*
X-27226Y42154D01*
X-26893D01*
X-26726Y41987D01*
Y41487D01*
Y41820D02*
X-26393Y42154D01*
X-27226Y42487D02*
X-27393Y42653D01*
Y42987D01*
X-27226Y43153D01*
X-27060D01*
X-26893Y42987D01*
Y42820D01*
Y42987D01*
X-26726Y43153D01*
X-26560D01*
X-26393Y42987D01*
Y42653D01*
X-26560Y42487D01*
X-27393Y44153D02*
Y43487D01*
X-26893D01*
X-27060Y43820D01*
Y43986D01*
X-26893Y44153D01*
X-26560D01*
X-26393Y43986D01*
Y43653D01*
X-26560Y43487D01*
X-26393Y36255D02*
X-27393D01*
Y36755D01*
X-27226Y36921D01*
X-26893D01*
X-26726Y36755D01*
Y36255D01*
Y36588D02*
X-26393Y36921D01*
X-27393Y37921D02*
Y37254D01*
X-26893D01*
X-27060Y37588D01*
Y37754D01*
X-26893Y37921D01*
X-26560D01*
X-26393Y37754D01*
Y37421D01*
X-26560Y37254D01*
X-27226Y38254D02*
X-27393Y38421D01*
Y38754D01*
X-27226Y38921D01*
X-27060D01*
X-26893Y38754D01*
X-26726Y38921D01*
X-26560D01*
X-26393Y38754D01*
Y38421D01*
X-26560Y38254D01*
X-26726D01*
X-26893Y38421D01*
X-27060Y38254D01*
X-27226D01*
X-26893Y38421D02*
Y38754D01*
X-43513Y38566D02*
X-44512D01*
Y39066D01*
X-44346Y39233D01*
X-44013D01*
X-43846Y39066D01*
Y38566D01*
Y38899D02*
X-43513Y39233D01*
X-44512Y40232D02*
Y39566D01*
X-44013D01*
X-44179Y39899D01*
Y40066D01*
X-44013Y40232D01*
X-43679D01*
X-43513Y40066D01*
Y39732D01*
X-43679Y39566D01*
Y40566D02*
X-43513Y40732D01*
Y41065D01*
X-43679Y41232D01*
X-44346D01*
X-44512Y41065D01*
Y40732D01*
X-44346Y40566D01*
X-44179D01*
X-44013Y40732D01*
Y41232D01*
X-32057Y38566D02*
X-33057D01*
Y39066D01*
X-32890Y39233D01*
X-32557D01*
X-32391Y39066D01*
Y38566D01*
Y38899D02*
X-32057Y39233D01*
X-33057Y40232D02*
X-32890Y39899D01*
X-32557Y39566D01*
X-32224D01*
X-32057Y39732D01*
Y40066D01*
X-32224Y40232D01*
X-32391D01*
X-32557Y40066D01*
Y39566D01*
X-32890Y40566D02*
X-33057Y40732D01*
Y41065D01*
X-32890Y41232D01*
X-32224D01*
X-32057Y41065D01*
Y40732D01*
X-32224Y40566D01*
X-32890D01*
X-46383Y19491D02*
Y20490D01*
X-45883D01*
X-45716Y20324D01*
Y19991D01*
X-45883Y19824D01*
X-46383D01*
X-46050D02*
X-45716Y19491D01*
X-44717Y20490D02*
X-45050Y20324D01*
X-45383Y19991D01*
Y19657D01*
X-45217Y19491D01*
X-44883D01*
X-44717Y19657D01*
Y19824D01*
X-44883Y19991D01*
X-45383D01*
X-44384Y19491D02*
X-44050D01*
X-44217D01*
Y20490D01*
X-44384Y20324D01*
X-40439Y19516D02*
Y20516D01*
X-39939D01*
X-39773Y20349D01*
Y20016D01*
X-39939Y19849D01*
X-40439D01*
X-40106D02*
X-39773Y19516D01*
X-38773Y20516D02*
X-39106Y20349D01*
X-39440Y20016D01*
Y19683D01*
X-39273Y19516D01*
X-38940D01*
X-38773Y19683D01*
Y19849D01*
X-38940Y20016D01*
X-39440D01*
X-37773Y19516D02*
X-38440D01*
X-37773Y20183D01*
Y20349D01*
X-37940Y20516D01*
X-38273D01*
X-38440Y20349D01*
X-35232Y19516D02*
Y20516D01*
X-34732D01*
X-34566Y20349D01*
Y20016D01*
X-34732Y19849D01*
X-35232D01*
X-34899D02*
X-34566Y19516D01*
X-33566Y20516D02*
X-33899Y20349D01*
X-34233Y20016D01*
Y19683D01*
X-34066Y19516D01*
X-33733D01*
X-33566Y19683D01*
Y19849D01*
X-33733Y20016D01*
X-34233D01*
X-33233Y20349D02*
X-33066Y20516D01*
X-32733D01*
X-32566Y20349D01*
Y20183D01*
X-32733Y20016D01*
X-32900D01*
X-32733D01*
X-32566Y19849D01*
Y19683D01*
X-32733Y19516D01*
X-33066D01*
X-33233Y19683D01*
X-42750Y33950D02*
Y34950D01*
X-42250D01*
X-42083Y34783D01*
Y34450D01*
X-42250Y34283D01*
X-42750D01*
X-42417D02*
X-42083Y33950D01*
X-41084Y34950D02*
X-41417Y34783D01*
X-41750Y34450D01*
Y34117D01*
X-41584Y33950D01*
X-41250D01*
X-41084Y34117D01*
Y34283D01*
X-41250Y34450D01*
X-41750D01*
X-40251Y33950D02*
Y34950D01*
X-40750Y34450D01*
X-40084D01*
X-37800Y34000D02*
Y35000D01*
X-37300D01*
X-37133Y34833D01*
Y34500D01*
X-37300Y34333D01*
X-37800D01*
X-37467D02*
X-37133Y34000D01*
X-36134Y35000D02*
X-36467Y34833D01*
X-36800Y34500D01*
Y34167D01*
X-36634Y34000D01*
X-36300D01*
X-36134Y34167D01*
Y34333D01*
X-36300Y34500D01*
X-36800D01*
X-35134Y35000D02*
X-35800D01*
Y34500D01*
X-35467Y34666D01*
X-35301D01*
X-35134Y34500D01*
Y34167D01*
X-35301Y34000D01*
X-35634D01*
X-35800Y34167D01*
X-40439Y40480D02*
Y39647D01*
X-40273Y39481D01*
X-39939D01*
X-39773Y39647D01*
Y40480D01*
X-39440Y39647D02*
X-39273Y39481D01*
X-38940D01*
X-38773Y39647D01*
Y40314D01*
X-38940Y40480D01*
X-39273D01*
X-39440Y40314D01*
Y40147D01*
X-39273Y39980D01*
X-38773D01*
X-26082Y32256D02*
Y32922D01*
X-26249Y33089D01*
X-26582D01*
X-26749Y32922D01*
Y32256D01*
X-26582Y32089D01*
X-26249D01*
X-26415Y32422D02*
X-26082Y32089D01*
X-26249D02*
X-26082Y32256D01*
X-25083Y33089D02*
X-25416Y32922D01*
X-25749Y32589D01*
Y32256D01*
X-25582Y32089D01*
X-25249D01*
X-25083Y32256D01*
Y32422D01*
X-25249Y32589D01*
X-25749D01*
X-41125Y45500D02*
Y46500D01*
X-40625D01*
X-40459Y46333D01*
Y46000D01*
X-40625Y45834D01*
X-41125D01*
X-40792D02*
X-40459Y45500D01*
X-39459Y46500D02*
X-39792Y46333D01*
X-40125Y46000D01*
Y45667D01*
X-39959Y45500D01*
X-39626D01*
X-39459Y45667D01*
Y45834D01*
X-39626Y46000D01*
X-40125D01*
X-38459Y46500D02*
X-38793Y46333D01*
X-39126Y46000D01*
Y45667D01*
X-38959Y45500D01*
X-38626D01*
X-38459Y45667D01*
Y45834D01*
X-38626Y46000D01*
X-39126D01*
X107450Y99100D02*
X106451D01*
Y99600D01*
X106617Y99766D01*
X106950D01*
X107117Y99600D01*
Y99100D01*
Y99433D02*
X107450Y99766D01*
X106617Y100100D02*
X106451Y100266D01*
Y100600D01*
X106617Y100766D01*
X106784D01*
X106950Y100600D01*
Y100433D01*
Y100600D01*
X107117Y100766D01*
X107284D01*
X107450Y100600D01*
Y100266D01*
X107284Y100100D01*
X106617Y101099D02*
X106451Y101266D01*
Y101599D01*
X106617Y101766D01*
X107284D01*
X107450Y101599D01*
Y101266D01*
X107284Y101099D01*
X106617D01*
X106451Y102765D02*
X106617Y102432D01*
X106950Y102099D01*
X107284D01*
X107450Y102266D01*
Y102599D01*
X107284Y102765D01*
X107117D01*
X106950Y102599D01*
Y102099D01*
X104400Y99050D02*
X103401D01*
Y99550D01*
X103567Y99716D01*
X103900D01*
X104067Y99550D01*
Y99050D01*
Y99383D02*
X104400Y99716D01*
X103567Y100050D02*
X103401Y100216D01*
Y100550D01*
X103567Y100716D01*
X103734D01*
X103900Y100550D01*
Y100383D01*
Y100550D01*
X104067Y100716D01*
X104234D01*
X104400Y100550D01*
Y100216D01*
X104234Y100050D01*
X103567Y101049D02*
X103401Y101216D01*
Y101549D01*
X103567Y101716D01*
X104234D01*
X104400Y101549D01*
Y101216D01*
X104234Y101049D01*
X103567D01*
X103401Y102715D02*
Y102049D01*
X103900D01*
X103734Y102382D01*
Y102549D01*
X103900Y102715D01*
X104234D01*
X104400Y102549D01*
Y102216D01*
X104234Y102049D01*
X119101Y90100D02*
X120100Y90766D01*
X119101D02*
X120100Y90100D01*
X119267Y91100D02*
X119101Y91266D01*
Y91600D01*
X119267Y91766D01*
X119434D01*
X119600Y91600D01*
Y91433D01*
Y91600D01*
X119767Y91766D01*
X119934D01*
X120100Y91600D01*
Y91266D01*
X119934Y91100D01*
X119267Y92099D02*
X119101Y92266D01*
Y92599D01*
X119267Y92766D01*
X119934D01*
X120100Y92599D01*
Y92266D01*
X119934Y92099D01*
X119267D01*
Y93099D02*
X119101Y93266D01*
Y93599D01*
X119267Y93765D01*
X119434D01*
X119600Y93599D01*
X119767Y93765D01*
X119934D01*
X120100Y93599D01*
Y93266D01*
X119934Y93099D01*
X119767D01*
X119600Y93266D01*
X119434Y93099D01*
X119267D01*
X119600Y93266D02*
Y93599D01*
X116701Y90150D02*
X117700Y90816D01*
X116701D02*
X117700Y90150D01*
X116867Y91150D02*
X116701Y91316D01*
Y91650D01*
X116867Y91816D01*
X117034D01*
X117200Y91650D01*
Y91483D01*
Y91650D01*
X117367Y91816D01*
X117534D01*
X117700Y91650D01*
Y91316D01*
X117534Y91150D01*
X116867Y92149D02*
X116701Y92316D01*
Y92649D01*
X116867Y92816D01*
X117534D01*
X117700Y92649D01*
Y92316D01*
X117534Y92149D01*
X116867D01*
X116701Y93149D02*
Y93815D01*
X116867D01*
X117534Y93149D01*
X117700D01*
X90951Y90450D02*
X91950Y91116D01*
X90951D02*
X91950Y90450D01*
X91117Y91450D02*
X90951Y91616D01*
Y91950D01*
X91117Y92116D01*
X91284D01*
X91450Y91950D01*
Y91783D01*
Y91950D01*
X91617Y92116D01*
X91784D01*
X91950Y91950D01*
Y91616D01*
X91784Y91450D01*
X91117Y92449D02*
X90951Y92616D01*
Y92949D01*
X91117Y93116D01*
X91784D01*
X91950Y92949D01*
Y92616D01*
X91784Y92449D01*
X91117D01*
X90951Y94115D02*
X91117Y93782D01*
X91450Y93449D01*
X91784D01*
X91950Y93616D01*
Y93949D01*
X91784Y94115D01*
X91617D01*
X91450Y93949D01*
Y93449D01*
X119101Y101950D02*
X120100Y102616D01*
X119101D02*
X120100Y101950D01*
X119267Y102950D02*
X119101Y103116D01*
Y103450D01*
X119267Y103616D01*
X119434D01*
X119600Y103450D01*
Y103283D01*
Y103450D01*
X119767Y103616D01*
X119934D01*
X120100Y103450D01*
Y103116D01*
X119934Y102950D01*
X119267Y103949D02*
X119101Y104116D01*
Y104449D01*
X119267Y104616D01*
X119934D01*
X120100Y104449D01*
Y104116D01*
X119934Y103949D01*
X119267D01*
X119101Y105615D02*
Y104949D01*
X119600D01*
X119434Y105282D01*
Y105449D01*
X119600Y105615D01*
X119934D01*
X120100Y105449D01*
Y105116D01*
X119934Y104949D01*
X116651Y102050D02*
X117650Y102716D01*
X116651D02*
X117650Y102050D01*
X116817Y103050D02*
X116651Y103216D01*
Y103550D01*
X116817Y103716D01*
X116984D01*
X117150Y103550D01*
Y103383D01*
Y103550D01*
X117317Y103716D01*
X117484D01*
X117650Y103550D01*
Y103216D01*
X117484Y103050D01*
X116817Y104049D02*
X116651Y104216D01*
Y104549D01*
X116817Y104716D01*
X117484D01*
X117650Y104549D01*
Y104216D01*
X117484Y104049D01*
X116817D01*
X117650Y105549D02*
X116651D01*
X117150Y105049D01*
Y105715D01*
X90901Y102400D02*
X91900Y103066D01*
X90901D02*
X91900Y102400D01*
X91067Y103400D02*
X90901Y103566D01*
Y103900D01*
X91067Y104066D01*
X91234D01*
X91400Y103900D01*
Y103733D01*
Y103900D01*
X91567Y104066D01*
X91734D01*
X91900Y103900D01*
Y103566D01*
X91734Y103400D01*
X91067Y104399D02*
X90901Y104566D01*
Y104899D01*
X91067Y105066D01*
X91734D01*
X91900Y104899D01*
Y104566D01*
X91734Y104399D01*
X91067D01*
Y105399D02*
X90901Y105566D01*
Y105899D01*
X91067Y106065D01*
X91234D01*
X91400Y105899D01*
Y105732D01*
Y105899D01*
X91567Y106065D01*
X91734D01*
X91900Y105899D01*
Y105566D01*
X91734Y105399D01*
X93401Y102350D02*
X94400Y103016D01*
X93401D02*
X94400Y102350D01*
X93567Y103350D02*
X93401Y103516D01*
Y103850D01*
X93567Y104016D01*
X93734D01*
X93900Y103850D01*
Y103683D01*
Y103850D01*
X94067Y104016D01*
X94234D01*
X94400Y103850D01*
Y103516D01*
X94234Y103350D01*
X93567Y104349D02*
X93401Y104516D01*
Y104849D01*
X93567Y105016D01*
X94234D01*
X94400Y104849D01*
Y104516D01*
X94234Y104349D01*
X93567D01*
X94400Y106015D02*
Y105349D01*
X93734Y106015D01*
X93567D01*
X93401Y105849D01*
Y105516D01*
X93567Y105349D01*
X93401Y90400D02*
X94400Y91066D01*
X93401D02*
X94400Y90400D01*
X93567Y91400D02*
X93401Y91566D01*
Y91900D01*
X93567Y92066D01*
X93734D01*
X93900Y91900D01*
Y91733D01*
Y91900D01*
X94067Y92066D01*
X94234D01*
X94400Y91900D01*
Y91566D01*
X94234Y91400D01*
X93567Y92399D02*
X93401Y92566D01*
Y92899D01*
X93567Y93066D01*
X94234D01*
X94400Y92899D01*
Y92566D01*
X94234Y92399D01*
X93567D01*
X94400Y93399D02*
Y93732D01*
Y93566D01*
X93401D01*
X93567Y93399D01*
X107090Y85576D02*
X106923Y85743D01*
X106590D01*
X106424Y85576D01*
Y84910D01*
X106590Y84743D01*
X106923D01*
X107090Y84910D01*
X107423Y85576D02*
X107590Y85743D01*
X107923D01*
X108090Y85576D01*
Y85410D01*
X107923Y85243D01*
X107756D01*
X107923D01*
X108090Y85077D01*
Y84910D01*
X107923Y84743D01*
X107590D01*
X107423Y84910D01*
X108423Y85576D02*
X108589Y85743D01*
X108923D01*
X109089Y85576D01*
Y84910D01*
X108923Y84743D01*
X108589D01*
X108423Y84910D01*
Y85576D01*
X109922Y84743D02*
Y85743D01*
X109423Y85243D01*
X110089D01*
X101375Y85576D02*
X101208Y85743D01*
X100875D01*
X100709Y85576D01*
Y84910D01*
X100875Y84743D01*
X101208D01*
X101375Y84910D01*
X101708Y85576D02*
X101875Y85743D01*
X102208D01*
X102375Y85576D01*
Y85410D01*
X102208Y85243D01*
X102041D01*
X102208D01*
X102375Y85077D01*
Y84910D01*
X102208Y84743D01*
X101875D01*
X101708Y84910D01*
X102708Y85576D02*
X102874Y85743D01*
X103208D01*
X103374Y85576D01*
Y84910D01*
X103208Y84743D01*
X102874D01*
X102708Y84910D01*
Y85576D01*
X103708D02*
X103874Y85743D01*
X104207D01*
X104374Y85576D01*
Y85410D01*
X104207Y85243D01*
X104041D01*
X104207D01*
X104374Y85077D01*
Y84910D01*
X104207Y84743D01*
X103874D01*
X103708Y84910D01*
X101367Y95933D02*
X101200Y96100D01*
X100867D01*
X100700Y95933D01*
Y95267D01*
X100867Y95100D01*
X101200D01*
X101367Y95267D01*
X101700Y95933D02*
X101866Y96100D01*
X102200D01*
X102366Y95933D01*
Y95766D01*
X102200Y95600D01*
X102033D01*
X102200D01*
X102366Y95433D01*
Y95267D01*
X102200Y95100D01*
X101866D01*
X101700Y95267D01*
X102700Y95933D02*
X102866Y96100D01*
X103199D01*
X103366Y95933D01*
Y95267D01*
X103199Y95100D01*
X102866D01*
X102700Y95267D01*
Y95933D01*
X104366Y95100D02*
X103699D01*
X104366Y95766D01*
Y95933D01*
X104199Y96100D01*
X103866D01*
X103699Y95933D01*
X106967D02*
X106800Y96100D01*
X106467D01*
X106300Y95933D01*
Y95267D01*
X106467Y95100D01*
X106800D01*
X106967Y95267D01*
X107300Y95933D02*
X107466Y96100D01*
X107800D01*
X107966Y95933D01*
Y95766D01*
X107800Y95600D01*
X107633D01*
X107800D01*
X107966Y95433D01*
Y95267D01*
X107800Y95100D01*
X107466D01*
X107300Y95267D01*
X108300Y95933D02*
X108466Y96100D01*
X108799D01*
X108966Y95933D01*
Y95267D01*
X108799Y95100D01*
X108466D01*
X108300Y95267D01*
Y95933D01*
X109299Y95100D02*
X109632D01*
X109466D01*
Y96100D01*
X109299Y95933D01*
X105363Y61613D02*
X105030D01*
X105196D01*
Y60780D01*
X105030Y60613D01*
X104863D01*
X104696Y60780D01*
X106362Y60613D02*
X105696D01*
X106362Y61280D01*
Y61446D01*
X106196Y61613D01*
X105863D01*
X105696Y61446D01*
X104772Y-1058D02*
Y-58D01*
X105272D01*
X105439Y-225D01*
Y-558D01*
X105272Y-725D01*
X104772D01*
X105106D02*
X105439Y-1058D01*
X105772Y-225D02*
X105939Y-58D01*
X106272D01*
X106439Y-225D01*
Y-391D01*
X106272Y-558D01*
X106439Y-725D01*
Y-891D01*
X106272Y-1058D01*
X105939D01*
X105772Y-891D01*
Y-725D01*
X105939Y-558D01*
X105772Y-391D01*
Y-225D01*
X105939Y-558D02*
X106272D01*
X106772Y-1058D02*
X107105D01*
X106938D01*
Y-58D01*
X106772Y-225D01*
X92707Y6461D02*
X91708D01*
Y6960D01*
X91874Y7127D01*
X92208D01*
X92374Y6960D01*
Y6461D01*
Y6794D02*
X92707Y7127D01*
X91874Y7460D02*
X91708Y7627D01*
Y7960D01*
X91874Y8127D01*
X92041D01*
X92208Y7960D01*
X92374Y8127D01*
X92541D01*
X92707Y7960D01*
Y7627D01*
X92541Y7460D01*
X92374D01*
X92208Y7627D01*
X92041Y7460D01*
X91874D01*
X92208Y7627D02*
Y7960D01*
X91874Y8460D02*
X91708Y8627D01*
Y8960D01*
X91874Y9126D01*
X92541D01*
X92707Y8960D01*
Y8627D01*
X92541Y8460D01*
X91874D01*
X92707Y1863D02*
X91708D01*
Y2363D01*
X91874Y2530D01*
X92208D01*
X92374Y2363D01*
Y1863D01*
Y2196D02*
X92707Y2530D01*
X91708Y2863D02*
Y3529D01*
X91874D01*
X92541Y2863D01*
X92707D01*
X92541Y3863D02*
X92707Y4029D01*
Y4362D01*
X92541Y4529D01*
X91874D01*
X91708Y4362D01*
Y4029D01*
X91874Y3863D01*
X92041D01*
X92208Y4029D01*
Y4529D01*
X95067Y2217D02*
Y2883D01*
X94900Y3050D01*
X94567D01*
X94400Y2883D01*
Y2217D01*
X94567Y2050D01*
X94900D01*
X94733Y2383D02*
X95067Y2050D01*
X94900D02*
X95067Y2217D01*
X95400Y2050D02*
X95733D01*
X95566D01*
Y3050D01*
X95400Y2883D01*
X96233Y2050D02*
X96566D01*
X96400D01*
Y3050D01*
X96233Y2883D01*
X92758Y33089D02*
Y32089D01*
X93258D01*
X93425Y32256D01*
Y32922D01*
X93258Y33089D01*
X92758D01*
X94424Y32089D02*
X93758D01*
X94424Y32756D01*
Y32922D01*
X94258Y33089D01*
X93925D01*
X93758Y32922D01*
X92841Y12831D02*
X92674Y12997D01*
X92341D01*
X92174Y12831D01*
Y12164D01*
X92341Y11998D01*
X92674D01*
X92841Y12164D01*
X93174Y12831D02*
X93340Y12997D01*
X93674D01*
X93840Y12831D01*
Y12664D01*
X93674Y12498D01*
X93507D01*
X93674D01*
X93840Y12331D01*
Y12164D01*
X93674Y11998D01*
X93340D01*
X93174Y12164D01*
X94840Y12997D02*
X94507Y12831D01*
X94173Y12498D01*
Y12164D01*
X94340Y11998D01*
X94673D01*
X94840Y12164D01*
Y12331D01*
X94673Y12498D01*
X94173D01*
X123153Y37709D02*
Y37375D01*
Y37542D01*
X123986D01*
X124153Y37375D01*
Y37209D01*
X123986Y37042D01*
X124153Y38042D02*
X123153D01*
Y38542D01*
X123320Y38708D01*
X123653D01*
X123819Y38542D01*
Y38042D01*
X123320Y39042D02*
X123153Y39208D01*
Y39541D01*
X123320Y39708D01*
X123486D01*
X123653Y39541D01*
Y39375D01*
Y39541D01*
X123819Y39708D01*
X123986D01*
X124153Y39541D01*
Y39208D01*
X123986Y39042D01*
X95567Y21983D02*
X95400Y22150D01*
X95067D01*
X94900Y21983D01*
Y21816D01*
X95067Y21650D01*
X95400D01*
X95567Y21483D01*
Y21317D01*
X95400Y21150D01*
X95067D01*
X94900Y21317D01*
X96400Y21150D02*
Y22150D01*
X95900Y21650D01*
X96566D01*
X110717Y22183D02*
X110550Y22350D01*
X110217D01*
X110050Y22183D01*
Y22016D01*
X110217Y21850D01*
X110550D01*
X110717Y21683D01*
Y21517D01*
X110550Y21350D01*
X110217D01*
X110050Y21517D01*
X111050Y21350D02*
X111383D01*
X111217D01*
Y22350D01*
X111050Y22183D01*
X109917Y7433D02*
X109750Y7600D01*
X109417D01*
X109250Y7433D01*
Y7266D01*
X109417Y7100D01*
X109750D01*
X109917Y6933D01*
Y6767D01*
X109750Y6600D01*
X109417D01*
X109250Y6767D01*
X110250Y7433D02*
X110417Y7600D01*
X110750D01*
X110916Y7433D01*
Y7266D01*
X110750Y7100D01*
X110583D01*
X110750D01*
X110916Y6933D01*
Y6767D01*
X110750Y6600D01*
X110417D01*
X110250Y6767D01*
X110017Y36233D02*
X109850Y36400D01*
X109517D01*
X109350Y36233D01*
Y36066D01*
X109517Y35900D01*
X109850D01*
X110017Y35733D01*
Y35567D01*
X109850Y35400D01*
X109517D01*
X109350Y35567D01*
X111016Y35400D02*
X110350D01*
X111016Y36066D01*
Y36233D01*
X110850Y36400D01*
X110517D01*
X110350Y36233D01*
X123917Y21883D02*
X123750Y22050D01*
X123417D01*
X123250Y21883D01*
Y21716D01*
X123417Y21550D01*
X123750D01*
X123917Y21383D01*
Y21217D01*
X123750Y21050D01*
X123417D01*
X123250Y21217D01*
X124916Y22050D02*
X124250D01*
Y21550D01*
X124583Y21716D01*
X124750D01*
X124916Y21550D01*
Y21217D01*
X124750Y21050D01*
X124417D01*
X124250Y21217D01*
X91501Y46650D02*
X92500Y47316D01*
X91501D02*
X92500Y46650D01*
Y48316D02*
Y47650D01*
X91834Y48316D01*
X91667D01*
X91501Y48150D01*
Y47816D01*
X91667Y47650D01*
Y48649D02*
X91501Y48816D01*
Y49149D01*
X91667Y49316D01*
X91834D01*
X92000Y49149D01*
Y48983D01*
Y49149D01*
X92167Y49316D01*
X92334D01*
X92500Y49149D01*
Y48816D01*
X92334Y48649D01*
X99200Y-5400D02*
X99867Y-6400D01*
Y-5400D02*
X99200Y-6400D01*
X100866D02*
X100200D01*
X100866Y-5734D01*
Y-5567D01*
X100700Y-5400D01*
X100367D01*
X100200Y-5567D01*
X101699Y-6400D02*
Y-5400D01*
X101200Y-5900D01*
X101866D01*
X94001Y46700D02*
X95000Y47366D01*
X94001D02*
X95000Y46700D01*
Y48366D02*
Y47700D01*
X94334Y48366D01*
X94167D01*
X94001Y48200D01*
Y47866D01*
X94167Y47700D01*
X94001Y48699D02*
Y49366D01*
X94167D01*
X94834Y48699D01*
X95000D01*
X99150Y-7900D02*
X99817Y-8900D01*
Y-7900D02*
X99150Y-8900D01*
X100816D02*
X100150D01*
X100816Y-8234D01*
Y-8067D01*
X100650Y-7900D01*
X100317D01*
X100150Y-8067D01*
X101150D02*
X101316Y-7900D01*
X101649D01*
X101816Y-8067D01*
Y-8234D01*
X101649Y-8400D01*
X101816Y-8567D01*
Y-8733D01*
X101649Y-8900D01*
X101316D01*
X101150Y-8733D01*
Y-8567D01*
X101316Y-8400D01*
X101150Y-8234D01*
Y-8067D01*
X101316Y-8400D02*
X101649D01*
X96501Y46650D02*
X97500Y47316D01*
X96501D02*
X97500Y46650D01*
X96667Y47650D02*
X96501Y47816D01*
Y48150D01*
X96667Y48316D01*
X96834D01*
X97000Y48150D01*
Y47983D01*
Y48150D01*
X97167Y48316D01*
X97334D01*
X97500Y48150D01*
Y47816D01*
X97334Y47650D01*
X97500Y48649D02*
Y48983D01*
Y48816D01*
X96501D01*
X96667Y48649D01*
X99100Y-10200D02*
X99767Y-11200D01*
Y-10200D02*
X99100Y-11200D01*
X100100Y-10367D02*
X100267Y-10200D01*
X100600D01*
X100766Y-10367D01*
Y-10534D01*
X100600Y-10700D01*
X100433D01*
X100600D01*
X100766Y-10867D01*
Y-11033D01*
X100600Y-11200D01*
X100267D01*
X100100Y-11033D01*
X101766Y-11200D02*
X101100D01*
X101766Y-10534D01*
Y-10367D01*
X101599Y-10200D01*
X101266D01*
X101100Y-10367D01*
X99001Y46600D02*
X100000Y47266D01*
X99001D02*
X100000Y46600D01*
X99167Y47600D02*
X99001Y47766D01*
Y48100D01*
X99167Y48266D01*
X99334D01*
X99500Y48100D01*
Y47933D01*
Y48100D01*
X99667Y48266D01*
X99834D01*
X100000Y48100D01*
Y47766D01*
X99834Y47600D01*
X99001Y49266D02*
Y48599D01*
X99500D01*
X99334Y48933D01*
Y49099D01*
X99500Y49266D01*
X99834D01*
X100000Y49099D01*
Y48766D01*
X99834Y48599D01*
X99150Y-12500D02*
X99817Y-13500D01*
Y-12500D02*
X99150Y-13500D01*
X100150Y-12667D02*
X100317Y-12500D01*
X100650D01*
X100816Y-12667D01*
Y-12834D01*
X100650Y-13000D01*
X100483D01*
X100650D01*
X100816Y-13167D01*
Y-13333D01*
X100650Y-13500D01*
X100317D01*
X100150Y-13333D01*
X101816Y-12500D02*
X101483Y-12667D01*
X101150Y-13000D01*
Y-13333D01*
X101316Y-13500D01*
X101649D01*
X101816Y-13333D01*
Y-13167D01*
X101649Y-13000D01*
X101150D01*
X101451Y46500D02*
X102450Y47166D01*
X101451D02*
X102450Y46500D01*
X101617Y47500D02*
X101451Y47666D01*
Y48000D01*
X101617Y48166D01*
X101784D01*
X101950Y48000D01*
Y47833D01*
Y48000D01*
X102117Y48166D01*
X102284D01*
X102450Y48000D01*
Y47666D01*
X102284Y47500D01*
Y48499D02*
X102450Y48666D01*
Y48999D01*
X102284Y49166D01*
X101617D01*
X101451Y48999D01*
Y48666D01*
X101617Y48499D01*
X101784D01*
X101950Y48666D01*
Y49166D01*
X99100Y-14850D02*
X99767Y-15850D01*
Y-14850D02*
X99100Y-15850D01*
X100600D02*
Y-14850D01*
X100100Y-15350D01*
X100766D01*
X101100Y-15017D02*
X101266Y-14850D01*
X101599D01*
X101766Y-15017D01*
Y-15683D01*
X101599Y-15850D01*
X101266D01*
X101100Y-15683D01*
Y-15017D01*
X104001Y46450D02*
X105000Y47116D01*
X104001D02*
X105000Y46450D01*
Y47950D02*
X104001D01*
X104500Y47450D01*
Y48116D01*
X104167Y48449D02*
X104001Y48616D01*
Y48949D01*
X104167Y49116D01*
X104334D01*
X104500Y48949D01*
Y48783D01*
Y48949D01*
X104667Y49116D01*
X104834D01*
X105000Y48949D01*
Y48616D01*
X104834Y48449D01*
X99050Y-17250D02*
X99717Y-18250D01*
Y-17250D02*
X99050Y-18250D01*
X100550D02*
Y-17250D01*
X100050Y-17750D01*
X100716D01*
X101549Y-18250D02*
Y-17250D01*
X101050Y-17750D01*
X101716D01*
X117047Y-58D02*
X116714D01*
X116880D01*
Y-891D01*
X116714Y-1058D01*
X116547D01*
X116380Y-891D01*
X117380Y-1058D02*
Y-58D01*
X117880D01*
X118046Y-225D01*
Y-558D01*
X117880Y-725D01*
X117380D01*
X119046Y-58D02*
X118380D01*
Y-558D01*
X118713Y-391D01*
X118880D01*
X119046Y-558D01*
Y-891D01*
X118880Y-1058D01*
X118546D01*
X118380Y-891D01*
X94593Y-428D02*
X94427Y-261D01*
X94093D01*
X93927Y-428D01*
Y-1094D01*
X94093Y-1261D01*
X94427D01*
X94593Y-1094D01*
X94926Y-428D02*
X95093Y-261D01*
X95426D01*
X95593Y-428D01*
Y-595D01*
X95426Y-761D01*
X95260D01*
X95426D01*
X95593Y-928D01*
Y-1094D01*
X95426Y-1261D01*
X95093D01*
X94926Y-1094D01*
X96426Y-1261D02*
Y-261D01*
X95926Y-761D01*
X96593D01*
X106551Y46250D02*
X107550Y46916D01*
X106551D02*
X107550Y46250D01*
Y47750D02*
X106551D01*
X107050Y47250D01*
Y47916D01*
X106551Y48249D02*
Y48916D01*
X106717D01*
X107384Y48249D01*
X107550D01*
X97864Y31709D02*
Y32709D01*
X98364D01*
X98531Y32542D01*
Y32209D01*
X98364Y32042D01*
X97864D01*
X98197D02*
X98531Y31709D01*
X98864Y32542D02*
X99031Y32709D01*
X99364D01*
X99530Y32542D01*
Y32375D01*
X99364Y32209D01*
X99530Y32042D01*
Y31876D01*
X99364Y31709D01*
X99031D01*
X98864Y31876D01*
Y32042D01*
X99031Y32209D01*
X98864Y32375D01*
Y32542D01*
X99031Y32209D02*
X99364D01*
X100530Y31709D02*
X99864D01*
X100530Y32375D01*
Y32542D01*
X100363Y32709D01*
X100030D01*
X99864Y32542D01*
X94638Y5800D02*
Y6800D01*
X95138D01*
X95304Y6633D01*
Y6300D01*
X95138Y6133D01*
X94638D01*
X94971D02*
X95304Y5800D01*
X96137D02*
Y6800D01*
X95638Y6300D01*
X96304D01*
X97304Y6800D02*
X96970Y6633D01*
X96637Y6300D01*
Y5967D01*
X96804Y5800D01*
X97137D01*
X97304Y5967D01*
Y6133D01*
X97137Y6300D01*
X96637D01*
X92022Y58794D02*
X92688Y57794D01*
Y58794D02*
X92022Y57794D01*
X93021D02*
X93355D01*
X93188D01*
Y58794D01*
X93021Y58627D01*
X94521Y58794D02*
X93854D01*
Y58294D01*
X94188Y58460D01*
X94354D01*
X94521Y58294D01*
Y57961D01*
X94354Y57794D01*
X94021D01*
X93854Y57961D01*
X105200Y65400D02*
X104534Y66400D01*
Y65400D02*
X105200Y66400D01*
X104201D02*
X103867D01*
X104034D01*
Y65400D01*
X104201Y65567D01*
X103367D02*
X103201Y65400D01*
X102868D01*
X102701Y65567D01*
Y65734D01*
X102868Y65900D01*
X103034D01*
X102868D01*
X102701Y66067D01*
Y66233D01*
X102868Y66400D01*
X103201D01*
X103367Y66233D01*
X97950Y51500D02*
X97284Y52500D01*
Y51500D02*
X97950Y52500D01*
X96951D02*
X96617D01*
X96784D01*
Y51500D01*
X96951Y51667D01*
X96117Y52500D02*
X95784D01*
X95951D01*
Y51500D01*
X96117Y51667D01*
X116750Y51700D02*
X116084Y52700D01*
Y51700D02*
X116750Y52700D01*
X115751Y52533D02*
X115584Y52700D01*
X115251D01*
X115084Y52533D01*
Y51867D01*
X115251Y51700D01*
X115584D01*
X115751Y51867D01*
Y52034D01*
X115584Y52200D01*
X115084D01*
X107050Y65500D02*
X106384Y66500D01*
Y65500D02*
X107050Y66500D01*
X106051Y65500D02*
X105384D01*
Y65667D01*
X106051Y66333D01*
Y66500D01*
X119750Y51750D02*
X119084Y52750D01*
Y51750D02*
X119750Y52750D01*
X118084Y51750D02*
X118751D01*
Y52250D01*
X118417Y52084D01*
X118251D01*
X118084Y52250D01*
Y52583D01*
X118251Y52750D01*
X118584D01*
X118751Y52583D01*
X-16431Y86527D02*
X-16598Y86361D01*
Y86028D01*
X-16431Y85861D01*
X-15765D01*
X-15598Y86028D01*
Y86361D01*
X-15765Y86527D01*
X-15598Y87361D02*
X-16598D01*
X-16098Y86861D01*
Y87527D01*
X-16431Y87860D02*
X-16598Y88027D01*
Y88360D01*
X-16431Y88527D01*
X-15765D01*
X-15598Y88360D01*
Y88027D01*
X-15765Y87860D01*
X-16431D01*
X-17497Y92942D02*
X-17664Y93109D01*
X-17997D01*
X-18163Y92942D01*
Y92276D01*
X-17997Y92109D01*
X-17664D01*
X-17497Y92276D01*
X-16664Y92109D02*
Y93109D01*
X-17164Y92609D01*
X-16497D01*
X-16164Y92109D02*
X-15831D01*
X-15998D01*
Y93109D01*
X-16164Y92942D01*
X127928Y6162D02*
Y5829D01*
Y5995D01*
X128761D01*
X128928Y5829D01*
Y5662D01*
X128761Y5495D01*
X128928Y6495D02*
X127928D01*
Y6995D01*
X128095Y7162D01*
X128428D01*
X128595Y6995D01*
Y6495D01*
X128761Y7495D02*
X128928Y7661D01*
Y7995D01*
X128761Y8161D01*
X128095D01*
X127928Y7995D01*
Y7661D01*
X128095Y7495D01*
X128261D01*
X128428Y7661D01*
Y8161D01*
X16421Y30733D02*
X16255Y30900D01*
X15921D01*
X15755Y30733D01*
Y30067D01*
X15921Y29900D01*
X16255D01*
X16421Y30067D01*
X16754Y30900D02*
X17421D01*
Y30733D01*
X16754Y30067D01*
Y29900D01*
X17754Y30733D02*
X17921Y30900D01*
X18254D01*
X18420Y30733D01*
Y30067D01*
X18254Y29900D01*
X17921D01*
X17754Y30067D01*
Y30733D01*
X18754D02*
X18920Y30900D01*
X19254D01*
X19420Y30733D01*
Y30067D01*
X19254Y29900D01*
X18920D01*
X18754Y30067D01*
Y30733D01*
X33786Y36187D02*
X33620Y36353D01*
X33286D01*
X33120Y36187D01*
Y35520D01*
X33286Y35354D01*
X33620D01*
X33786Y35520D01*
X34119Y36353D02*
X34786D01*
Y36187D01*
X34119Y35520D01*
Y35354D01*
X35119Y36187D02*
X35286Y36353D01*
X35619D01*
X35786Y36187D01*
Y35520D01*
X35619Y35354D01*
X35286D01*
X35119Y35520D01*
Y36187D01*
X36119Y35354D02*
X36452D01*
X36285D01*
Y36353D01*
X36119Y36187D01*
X66572Y12388D02*
X66405Y12221D01*
Y11888D01*
X66572Y11722D01*
X67238D01*
X67405Y11888D01*
Y12221D01*
X67238Y12388D01*
X66405Y12721D02*
Y13388D01*
X66572D01*
X67238Y12721D01*
X67405D01*
X66572Y13721D02*
X66405Y13888D01*
Y14221D01*
X66572Y14387D01*
X67238D01*
X67405Y14221D01*
Y13888D01*
X67238Y13721D01*
X66572D01*
X66405Y15387D02*
X66572Y15054D01*
X66905Y14721D01*
X67238D01*
X67405Y14887D01*
Y15220D01*
X67238Y15387D01*
X67072D01*
X66905Y15220D01*
Y14721D01*
X65357Y51324D02*
X65190Y51491D01*
X64857D01*
X64690Y51324D01*
Y50658D01*
X64857Y50491D01*
X65190D01*
X65357Y50658D01*
X65690Y51491D02*
X66356D01*
Y51324D01*
X65690Y50658D01*
Y50491D01*
X66690Y51324D02*
X66856Y51491D01*
X67190D01*
X67356Y51324D01*
Y50658D01*
X67190Y50491D01*
X66856D01*
X66690Y50658D01*
Y51324D01*
X68356Y50491D02*
X67689D01*
X68356Y51157D01*
Y51324D01*
X68189Y51491D01*
X67856D01*
X67689Y51324D01*
X47366Y78683D02*
X47200Y78850D01*
X46866D01*
X46700Y78683D01*
Y78017D01*
X46866Y77850D01*
X47200D01*
X47366Y78017D01*
X47699Y78850D02*
X48366D01*
Y78683D01*
X47699Y78017D01*
Y77850D01*
X48699Y78683D02*
X48866Y78850D01*
X49199D01*
X49366Y78683D01*
Y78017D01*
X49199Y77850D01*
X48866D01*
X48699Y78017D01*
Y78683D01*
X49699D02*
X49865Y78850D01*
X50199D01*
X50365Y78683D01*
Y78516D01*
X50199Y78350D01*
X50032D01*
X50199D01*
X50365Y78183D01*
Y78017D01*
X50199Y77850D01*
X49865D01*
X49699Y78017D01*
X43421Y32683D02*
X43255Y32850D01*
X42921D01*
X42755Y32683D01*
Y32017D01*
X42921Y31850D01*
X43255D01*
X43421Y32017D01*
X43754Y32850D02*
X44421D01*
Y32683D01*
X43754Y32017D01*
Y31850D01*
X44754Y32683D02*
X44921Y32850D01*
X45254D01*
X45420Y32683D01*
Y32017D01*
X45254Y31850D01*
X44921D01*
X44754Y32017D01*
Y32683D01*
X46254Y31850D02*
Y32850D01*
X45754Y32350D01*
X46420D01*
X47121Y17383D02*
X46955Y17550D01*
X46621D01*
X46455Y17383D01*
Y16717D01*
X46621Y16550D01*
X46955D01*
X47121Y16717D01*
X47454Y17550D02*
X48121D01*
Y17383D01*
X47454Y16717D01*
Y16550D01*
X48454Y17383D02*
X48621Y17550D01*
X48954D01*
X49120Y17383D01*
Y16717D01*
X48954Y16550D01*
X48621D01*
X48454Y16717D01*
Y17383D01*
X50120Y17550D02*
X49454D01*
Y17050D01*
X49787Y17216D01*
X49954D01*
X50120Y17050D01*
Y16717D01*
X49954Y16550D01*
X49620D01*
X49454Y16717D01*
X46173Y95812D02*
X46007Y95646D01*
Y95312D01*
X46173Y95146D01*
X46840D01*
X47006Y95312D01*
Y95646D01*
X46840Y95812D01*
X46007Y96145D02*
Y96812D01*
X46173D01*
X46840Y96145D01*
X47006D01*
X46173Y97145D02*
X46007Y97312D01*
Y97645D01*
X46173Y97812D01*
X46840D01*
X47006Y97645D01*
Y97312D01*
X46840Y97145D01*
X46173D01*
X46840Y98145D02*
X47006Y98311D01*
Y98645D01*
X46840Y98811D01*
X46173D01*
X46007Y98645D01*
Y98311D01*
X46173Y98145D01*
X46340D01*
X46507Y98311D01*
Y98811D01*
X72816Y29208D02*
X72649Y29374D01*
X72316D01*
X72150Y29208D01*
Y28541D01*
X72316Y28375D01*
X72649D01*
X72816Y28541D01*
X73149Y29374D02*
X73816D01*
Y29208D01*
X73149Y28541D01*
Y28375D01*
X74149D02*
X74482D01*
X74316D01*
Y29374D01*
X74149Y29208D01*
X74982D02*
X75149Y29374D01*
X75482D01*
X75648Y29208D01*
Y28541D01*
X75482Y28375D01*
X75149D01*
X74982Y28541D01*
Y29208D01*
X72883Y39631D02*
X72716Y39798D01*
X72383D01*
X72216Y39631D01*
Y38965D01*
X72383Y38798D01*
X72716D01*
X72883Y38965D01*
X73216Y39798D02*
X73882D01*
Y39631D01*
X73216Y38965D01*
Y38798D01*
X74216D02*
X74549D01*
X74382D01*
Y39798D01*
X74216Y39631D01*
X75049Y38798D02*
X75382D01*
X75215D01*
Y39798D01*
X75049Y39631D01*
X63473Y99140D02*
X63306Y99307D01*
X62973D01*
X62806Y99140D01*
Y98474D01*
X62973Y98307D01*
X63306D01*
X63473Y98474D01*
X63806Y99307D02*
X64472D01*
Y99140D01*
X63806Y98474D01*
Y98307D01*
X64805D02*
X65139D01*
X64972D01*
Y99307D01*
X64805Y99140D01*
X66305Y98307D02*
X65638D01*
X66305Y98974D01*
Y99140D01*
X66138Y99307D01*
X65805D01*
X65638Y99140D01*
X52809Y64380D02*
X52643Y64546D01*
X52309D01*
X52143Y64380D01*
Y63713D01*
X52309Y63547D01*
X52643D01*
X52809Y63713D01*
X53142Y64546D02*
X53809D01*
Y64380D01*
X53142Y63713D01*
Y63547D01*
X54142D02*
X54475D01*
X54309D01*
Y64546D01*
X54142Y64380D01*
X54975D02*
X55142Y64546D01*
X55475D01*
X55642Y64380D01*
Y64213D01*
X55475Y64046D01*
X55308D01*
X55475D01*
X55642Y63880D01*
Y63713D01*
X55475Y63547D01*
X55142D01*
X54975Y63713D01*
X62309Y69333D02*
X62142Y69499D01*
X61809D01*
X61642Y69333D01*
Y68666D01*
X61809Y68500D01*
X62142D01*
X62309Y68666D01*
X62642Y69499D02*
X63308D01*
Y69333D01*
X62642Y68666D01*
Y68500D01*
X63642D02*
X63975D01*
X63808D01*
Y69499D01*
X63642Y69333D01*
X64975Y68500D02*
Y69499D01*
X64475Y68999D01*
X65141D01*
X68671Y7033D02*
X68505Y7200D01*
X68171D01*
X68005Y7033D01*
Y6367D01*
X68171Y6200D01*
X68505D01*
X68671Y6367D01*
X69004Y7200D02*
X69671D01*
Y7033D01*
X69004Y6367D01*
Y6200D01*
X70004D02*
X70337D01*
X70171D01*
Y7200D01*
X70004Y7033D01*
X71504Y7200D02*
X70837D01*
Y6700D01*
X71170Y6866D01*
X71337D01*
X71504Y6700D01*
Y6367D01*
X71337Y6200D01*
X71004D01*
X70837Y6367D01*
X16205Y34600D02*
Y33600D01*
X16705D01*
X16871Y33767D01*
Y34433D01*
X16705Y34600D01*
X16205D01*
X17204D02*
X17871D01*
Y34433D01*
X17204Y33767D01*
Y33600D01*
X18204Y34433D02*
X18371Y34600D01*
X18704D01*
X18870Y34433D01*
Y33767D01*
X18704Y33600D01*
X18371D01*
X18204Y33767D01*
Y34433D01*
X19204D02*
X19370Y34600D01*
X19704D01*
X19870Y34433D01*
Y33767D01*
X19704Y33600D01*
X19370D01*
X19204Y33767D01*
Y34433D01*
X54226Y51491D02*
Y50491D01*
X54725D01*
X54892Y50658D01*
Y51324D01*
X54725Y51491D01*
X54226D01*
X55225D02*
X55892D01*
Y51324D01*
X55225Y50658D01*
Y50491D01*
X56225Y51324D02*
X56392Y51491D01*
X56725D01*
X56891Y51324D01*
Y50658D01*
X56725Y50491D01*
X56392D01*
X56225Y50658D01*
Y51324D01*
X57225Y50491D02*
X57558D01*
X57391D01*
Y51491D01*
X57225Y51324D01*
X51660Y31399D02*
Y30400D01*
X52160D01*
X52327Y30566D01*
Y31233D01*
X52160Y31399D01*
X51660D01*
X52660D02*
X53326D01*
Y31233D01*
X52660Y30566D01*
Y30400D01*
X53660Y31233D02*
X53826Y31399D01*
X54159D01*
X54326Y31233D01*
Y30566D01*
X54159Y30400D01*
X53826D01*
X53660Y30566D01*
Y31233D01*
X55326Y30400D02*
X54659D01*
X55326Y31066D01*
Y31233D01*
X55159Y31399D01*
X54826D01*
X54659Y31233D01*
X10034Y14690D02*
Y13690D01*
X10533D01*
X10700Y13857D01*
Y14523D01*
X10533Y14690D01*
X10034D01*
X11033D02*
X11700D01*
Y14523D01*
X11033Y13857D01*
Y13690D01*
X12033Y14523D02*
X12200Y14690D01*
X12533D01*
X12699Y14523D01*
Y13857D01*
X12533Y13690D01*
X12200D01*
X12033Y13857D01*
Y14523D01*
X13033D02*
X13199Y14690D01*
X13532D01*
X13699Y14523D01*
Y14356D01*
X13532Y14190D01*
X13366D01*
X13532D01*
X13699Y14023D01*
Y13857D01*
X13532Y13690D01*
X13199D01*
X13033Y13857D01*
X36102Y99700D02*
X37102D01*
Y100199D01*
X36935Y100366D01*
X36269D01*
X36102Y100199D01*
Y99700D01*
Y100699D02*
Y101366D01*
X36269D01*
X36935Y100699D01*
X37102D01*
X36269Y101699D02*
X36102Y101866D01*
Y102199D01*
X36269Y102365D01*
X36935D01*
X37102Y102199D01*
Y101866D01*
X36935Y101699D01*
X36269D01*
X37102Y103198D02*
X36102D01*
X36602Y102699D01*
Y103365D01*
X78285Y55504D02*
X77619D01*
Y55004D01*
X77952D01*
X77619D01*
Y54504D01*
X78619Y55504D02*
Y54671D01*
X78785Y54504D01*
X79118D01*
X79285Y54671D01*
Y55504D01*
X79618D02*
X80285D01*
Y55337D01*
X79618Y54671D01*
Y54504D01*
X80618Y55337D02*
X80785Y55504D01*
X81118D01*
X81284Y55337D01*
Y54671D01*
X81118Y54504D01*
X80785D01*
X80618Y54671D01*
Y55337D01*
X81618D02*
X81784Y55504D01*
X82118D01*
X82284Y55337D01*
Y54671D01*
X82118Y54504D01*
X81784D01*
X81618Y54671D01*
Y55337D01*
X58473Y284D02*
X58140D01*
X58307D01*
Y-549D01*
X58140Y-715D01*
X57974D01*
X57807Y-549D01*
X58807Y-715D02*
Y284D01*
X59306D01*
X59473Y118D01*
Y-216D01*
X59306Y-382D01*
X58807D01*
X59806Y284D02*
X60473D01*
Y118D01*
X59806Y-549D01*
Y-715D01*
X60806Y118D02*
X60973Y284D01*
X61306D01*
X61472Y118D01*
Y-549D01*
X61306Y-715D01*
X60973D01*
X60806Y-549D01*
Y118D01*
X61806D02*
X61972Y284D01*
X62306D01*
X62472Y118D01*
Y-549D01*
X62306Y-715D01*
X61972D01*
X61806Y-549D01*
Y118D01*
X35456Y64686D02*
Y63687D01*
X36122D01*
X36456Y64686D02*
X37122D01*
Y64520D01*
X36456Y63853D01*
Y63687D01*
X37455Y64520D02*
X37622Y64686D01*
X37955D01*
X38122Y64520D01*
Y63853D01*
X37955Y63687D01*
X37622D01*
X37455Y63853D01*
Y64520D01*
X38455D02*
X38622Y64686D01*
X38955D01*
X39121Y64520D01*
Y63853D01*
X38955Y63687D01*
X38622D01*
X38455Y63853D01*
Y64520D01*
X26952Y93076D02*
Y93742D01*
X26785Y93909D01*
X26452D01*
X26286Y93742D01*
Y93076D01*
X26452Y92909D01*
X26785D01*
X26619Y93242D02*
X26952Y92909D01*
X26785D02*
X26952Y93076D01*
X27285Y93909D02*
X27952D01*
Y93742D01*
X27285Y93076D01*
Y92909D01*
X28285Y93742D02*
X28452Y93909D01*
X28785D01*
X28951Y93742D01*
Y93076D01*
X28785Y92909D01*
X28452D01*
X28285Y93076D01*
Y93742D01*
X29285D02*
X29451Y93909D01*
X29784D01*
X29951Y93742D01*
Y93076D01*
X29784Y92909D01*
X29451D01*
X29285Y93076D01*
Y93742D01*
X67281Y77593D02*
Y78592D01*
X67781D01*
X67948Y78426D01*
Y78093D01*
X67781Y77926D01*
X67281D01*
X67614D02*
X67948Y77593D01*
X68281Y78592D02*
X68947D01*
Y78426D01*
X68281Y77759D01*
Y77593D01*
X69281Y78426D02*
X69447Y78592D01*
X69780D01*
X69947Y78426D01*
Y77759D01*
X69780Y77593D01*
X69447D01*
X69281Y77759D01*
Y78426D01*
X70280D02*
X70447Y78592D01*
X70780D01*
X70947Y78426D01*
Y77759D01*
X70780Y77593D01*
X70447D01*
X70280Y77759D01*
Y78426D01*
X42205Y94370D02*
X41205D01*
Y94870D01*
X41372Y95037D01*
X41705D01*
X41872Y94870D01*
Y94370D01*
Y94704D02*
X42205Y95037D01*
X41205Y95370D02*
Y96037D01*
X41372D01*
X42038Y95370D01*
X42205D01*
X41372Y96370D02*
X41205Y96536D01*
Y96870D01*
X41372Y97036D01*
X42038D01*
X42205Y96870D01*
Y96536D01*
X42038Y96370D01*
X41372D01*
X42205Y97369D02*
Y97703D01*
Y97536D01*
X41205D01*
X41372Y97369D01*
X52117Y54301D02*
Y55301D01*
X52617D01*
X52784Y55134D01*
Y54801D01*
X52617Y54634D01*
X52117D01*
X52451D02*
X52784Y54301D01*
X53117Y55301D02*
X53783D01*
Y55134D01*
X53117Y54468D01*
Y54301D01*
X54117Y55134D02*
X54283Y55301D01*
X54617D01*
X54783Y55134D01*
Y54468D01*
X54617Y54301D01*
X54283D01*
X54117Y54468D01*
Y55134D01*
X55783Y54301D02*
X55116D01*
X55783Y54967D01*
Y55134D01*
X55616Y55301D01*
X55283D01*
X55116Y55134D01*
X52041Y60448D02*
Y61447D01*
X52541D01*
X52708Y61281D01*
Y60948D01*
X52541Y60781D01*
X52041D01*
X52374D02*
X52708Y60448D01*
X53041Y61447D02*
X53707D01*
Y61281D01*
X53041Y60614D01*
Y60448D01*
X54041Y61281D02*
X54207Y61447D01*
X54540D01*
X54707Y61281D01*
Y60614D01*
X54540Y60448D01*
X54207D01*
X54041Y60614D01*
Y61281D01*
X55040D02*
X55207Y61447D01*
X55540D01*
X55707Y61281D01*
Y61114D01*
X55540Y60948D01*
X55373D01*
X55540D01*
X55707Y60781D01*
Y60614D01*
X55540Y60448D01*
X55207D01*
X55040Y60614D01*
X52448Y80742D02*
Y81742D01*
X52947D01*
X53114Y81575D01*
Y81242D01*
X52947Y81076D01*
X52448D01*
X52781D02*
X53114Y80742D01*
X53447Y81742D02*
X54114D01*
Y81575D01*
X53447Y80909D01*
Y80742D01*
X54447Y81575D02*
X54614Y81742D01*
X54947D01*
X55113Y81575D01*
Y80909D01*
X54947Y80742D01*
X54614D01*
X54447Y80909D01*
Y81575D01*
X55946Y80742D02*
Y81742D01*
X55447Y81242D01*
X56113D01*
X63268Y73351D02*
Y74351D01*
X63768D01*
X63934Y74184D01*
Y73851D01*
X63768Y73684D01*
X63268D01*
X63601D02*
X63934Y73351D01*
X64268Y74351D02*
X64934D01*
Y74184D01*
X64268Y73518D01*
Y73351D01*
X65267Y74184D02*
X65434Y74351D01*
X65767D01*
X65934Y74184D01*
Y73518D01*
X65767Y73351D01*
X65434D01*
X65267Y73518D01*
Y74184D01*
X66933Y74351D02*
X66267D01*
Y73851D01*
X66600Y74017D01*
X66767D01*
X66933Y73851D01*
Y73518D01*
X66767Y73351D01*
X66434D01*
X66267Y73518D01*
X52041Y57400D02*
Y58399D01*
X52541D01*
X52708Y58233D01*
Y57900D01*
X52541Y57733D01*
X52041D01*
X52374D02*
X52708Y57400D01*
X53041Y58399D02*
X53707D01*
Y58233D01*
X53041Y57566D01*
Y57400D01*
X54041Y58233D02*
X54207Y58399D01*
X54540D01*
X54707Y58233D01*
Y57566D01*
X54540Y57400D01*
X54207D01*
X54041Y57566D01*
Y58233D01*
X55707Y58399D02*
X55373Y58233D01*
X55040Y57900D01*
Y57566D01*
X55207Y57400D01*
X55540D01*
X55707Y57566D01*
Y57733D01*
X55540Y57900D01*
X55040D01*
X46910Y69795D02*
Y70795D01*
X47410D01*
X47577Y70628D01*
Y70295D01*
X47410Y70128D01*
X46910D01*
X47244D02*
X47577Y69795D01*
X47910Y70795D02*
X48576D01*
Y70628D01*
X47910Y69962D01*
Y69795D01*
X48910Y70628D02*
X49076Y70795D01*
X49410D01*
X49576Y70628D01*
Y69962D01*
X49410Y69795D01*
X49076D01*
X48910Y69962D01*
Y70628D01*
X49909Y70795D02*
X50576D01*
Y70628D01*
X49909Y69962D01*
Y69795D01*
X61541Y79168D02*
X60541D01*
Y79667D01*
X60708Y79834D01*
X61041D01*
X61208Y79667D01*
Y79168D01*
Y79501D02*
X61541Y79834D01*
X60541Y80167D02*
Y80834D01*
X60708D01*
X61374Y80167D01*
X61541D01*
X60708Y81167D02*
X60541Y81334D01*
Y81667D01*
X60708Y81833D01*
X61374D01*
X61541Y81667D01*
Y81334D01*
X61374Y81167D01*
X60708D01*
Y82167D02*
X60541Y82333D01*
Y82666D01*
X60708Y82833D01*
X60874D01*
X61041Y82666D01*
X61208Y82833D01*
X61374D01*
X61541Y82666D01*
Y82333D01*
X61374Y82167D01*
X61208D01*
X61041Y82333D01*
X60874Y82167D01*
X60708D01*
X61041Y82333D02*
Y82666D01*
X46961Y73046D02*
Y74046D01*
X47461D01*
X47628Y73879D01*
Y73546D01*
X47461Y73379D01*
X46961D01*
X47294D02*
X47628Y73046D01*
X47961Y74046D02*
X48627D01*
Y73879D01*
X47961Y73213D01*
Y73046D01*
X48961Y73879D02*
X49127Y74046D01*
X49460D01*
X49627Y73879D01*
Y73213D01*
X49460Y73046D01*
X49127D01*
X48961Y73213D01*
Y73879D01*
X49960Y73213D02*
X50127Y73046D01*
X50460D01*
X50627Y73213D01*
Y73879D01*
X50460Y74046D01*
X50127D01*
X49960Y73879D01*
Y73713D01*
X50127Y73546D01*
X50627D01*
X12570Y75053D02*
Y76052D01*
X13069D01*
X13236Y75886D01*
Y75553D01*
X13069Y75386D01*
X12570D01*
X12903D02*
X13236Y75053D01*
X13569Y76052D02*
X14236D01*
Y75886D01*
X13569Y75219D01*
Y75053D01*
X14569D02*
X14902D01*
X14736D01*
Y76052D01*
X14569Y75886D01*
X15402D02*
X15569Y76052D01*
X15902D01*
X16068Y75886D01*
Y75219D01*
X15902Y75053D01*
X15569D01*
X15402Y75219D01*
Y75886D01*
X12722Y78355D02*
Y79354D01*
X13222D01*
X13388Y79188D01*
Y78855D01*
X13222Y78688D01*
X12722D01*
X13055D02*
X13388Y78355D01*
X13722Y79354D02*
X14388D01*
Y79188D01*
X13722Y78521D01*
Y78355D01*
X14721D02*
X15055D01*
X14888D01*
Y79354D01*
X14721Y79188D01*
X15554Y78355D02*
X15888D01*
X15721D01*
Y79354D01*
X15554Y79188D01*
X12570Y81682D02*
Y82682D01*
X13069D01*
X13236Y82515D01*
Y82182D01*
X13069Y82015D01*
X12570D01*
X12903D02*
X13236Y81682D01*
X13569Y82682D02*
X14236D01*
Y82515D01*
X13569Y81849D01*
Y81682D01*
X14569D02*
X14902D01*
X14736D01*
Y82682D01*
X14569Y82515D01*
X16068Y81682D02*
X15402D01*
X16068Y82349D01*
Y82515D01*
X15902Y82682D01*
X15569D01*
X15402Y82515D01*
X12570Y84984D02*
Y85984D01*
X13069D01*
X13236Y85817D01*
Y85484D01*
X13069Y85317D01*
X12570D01*
X12903D02*
X13236Y84984D01*
X13569Y85984D02*
X14236D01*
Y85817D01*
X13569Y85151D01*
Y84984D01*
X14569D02*
X14902D01*
X14736D01*
Y85984D01*
X14569Y85817D01*
X15402D02*
X15569Y85984D01*
X15902D01*
X16068Y85817D01*
Y85651D01*
X15902Y85484D01*
X15735D01*
X15902D01*
X16068Y85317D01*
Y85151D01*
X15902Y84984D01*
X15569D01*
X15402Y85151D01*
X12570Y88286D02*
Y89286D01*
X13069D01*
X13236Y89119D01*
Y88786D01*
X13069Y88619D01*
X12570D01*
X12903D02*
X13236Y88286D01*
X13569Y89286D02*
X14236D01*
Y89119D01*
X13569Y88453D01*
Y88286D01*
X14569D02*
X14902D01*
X14736D01*
Y89286D01*
X14569Y89119D01*
X15902Y88286D02*
Y89286D01*
X15402Y88786D01*
X16068D01*
X45234Y23728D02*
Y22895D01*
X45401Y22729D01*
X45734D01*
X45900Y22895D01*
Y23728D01*
X46234D02*
X46900D01*
Y23562D01*
X46234Y22895D01*
Y22729D01*
X47233Y23562D02*
X47400Y23728D01*
X47733D01*
X47900Y23562D01*
Y22895D01*
X47733Y22729D01*
X47400D01*
X47233Y22895D01*
Y23562D01*
X48233Y22729D02*
X48566D01*
X48400D01*
Y23728D01*
X48233Y23562D01*
X54327Y74046D02*
Y73213D01*
X54494Y73046D01*
X54827D01*
X54994Y73213D01*
Y74046D01*
X55327D02*
X55993D01*
Y73879D01*
X55327Y73213D01*
Y73046D01*
X56327Y73879D02*
X56493Y74046D01*
X56826D01*
X56993Y73879D01*
Y73213D01*
X56826Y73046D01*
X56493D01*
X56327Y73213D01*
Y73879D01*
X57993Y73046D02*
X57326D01*
X57993Y73713D01*
Y73879D01*
X57826Y74046D01*
X57493D01*
X57326Y73879D01*
X76622Y17752D02*
Y16919D01*
X76789Y16752D01*
X77122D01*
X77288Y16919D01*
Y17752D01*
X77622D02*
X78288D01*
Y17585D01*
X77622Y16919D01*
Y16752D01*
X78621Y17585D02*
X78788Y17752D01*
X79121D01*
X79288Y17585D01*
Y16919D01*
X79121Y16752D01*
X78788D01*
X78621Y16919D01*
Y17585D01*
X79621D02*
X79788Y17752D01*
X80121D01*
X80287Y17585D01*
Y17419D01*
X80121Y17252D01*
X79954D01*
X80121D01*
X80287Y17086D01*
Y16919D01*
X80121Y16752D01*
X79788D01*
X79621Y16919D01*
X62226Y28456D02*
Y27456D01*
X62726D01*
X62892Y27623D01*
Y28289D01*
X62726Y28456D01*
X62226D01*
X63225D02*
X63892D01*
Y28289D01*
X63225Y27623D01*
Y27456D01*
X64225Y28289D02*
X64392Y28456D01*
X64725D01*
X64892Y28289D01*
Y27623D01*
X64725Y27456D01*
X64392D01*
X64225Y27623D01*
Y28289D01*
X65891Y28456D02*
X65225D01*
Y27956D01*
X65558Y28123D01*
X65725D01*
X65891Y27956D01*
Y27623D01*
X65725Y27456D01*
X65391D01*
X65225Y27623D01*
X26774Y90840D02*
Y91507D01*
X26608Y91673D01*
X26274D01*
X26108Y91507D01*
Y90840D01*
X26274Y90674D01*
X26608D01*
X26441Y91007D02*
X26774Y90674D01*
X26608D02*
X26774Y90840D01*
X27107Y91673D02*
X27774D01*
Y91507D01*
X27107Y90840D01*
Y90674D01*
X28107Y91507D02*
X28274Y91673D01*
X28607D01*
X28774Y91507D01*
Y90840D01*
X28607Y90674D01*
X28274D01*
X28107Y90840D01*
Y91507D01*
X29107Y90674D02*
X29440D01*
X29273D01*
Y91673D01*
X29107Y91507D01*
X26302Y34692D02*
X27135D01*
X27302Y34858D01*
Y35192D01*
X27135Y35358D01*
X26302D01*
Y35691D02*
Y36358D01*
X26469D01*
X27135Y35691D01*
X27302D01*
X26469Y36691D02*
X26302Y36858D01*
Y37191D01*
X26469Y37358D01*
X27135D01*
X27302Y37191D01*
Y36858D01*
X27135Y36691D01*
X26469D01*
Y37691D02*
X26302Y37857D01*
Y38191D01*
X26469Y38357D01*
X27135D01*
X27302Y38191D01*
Y37857D01*
X27135Y37691D01*
X26469D01*
X12574Y91588D02*
Y92588D01*
X13074D01*
X13240Y92421D01*
Y92088D01*
X13074Y91921D01*
X12574D01*
X12907D02*
X13240Y91588D01*
X13573Y92588D02*
X14240D01*
Y92421D01*
X13573Y91755D01*
Y91588D01*
X14573D02*
X14906D01*
X14740D01*
Y92588D01*
X14573Y92421D01*
X16073Y92588D02*
X15406D01*
Y92088D01*
X15739Y92255D01*
X15906D01*
X16073Y92088D01*
Y91755D01*
X15906Y91588D01*
X15573D01*
X15406Y91755D01*
X12573Y94890D02*
Y95890D01*
X13073D01*
X13240Y95723D01*
Y95390D01*
X13073Y95223D01*
X12573D01*
X12906D02*
X13240Y94890D01*
X13573Y95890D02*
X14239D01*
Y95723D01*
X13573Y95057D01*
Y94890D01*
X14572D02*
X14906D01*
X14739D01*
Y95890D01*
X14572Y95723D01*
X16072Y95890D02*
X15739Y95723D01*
X15405Y95390D01*
Y95057D01*
X15572Y94890D01*
X15905D01*
X16072Y95057D01*
Y95223D01*
X15905Y95390D01*
X15405D01*
X59972Y60570D02*
X59805Y60736D01*
X59472D01*
X59306Y60570D01*
Y59903D01*
X59472Y59737D01*
X59805D01*
X59972Y59903D01*
X60305Y60736D02*
X60972D01*
Y60570D01*
X60305Y59903D01*
Y59737D01*
X61305Y60570D02*
X61472Y60736D01*
X61805D01*
X61971Y60570D01*
Y59903D01*
X61805Y59737D01*
X61472D01*
X61305Y59903D01*
Y60570D01*
X62305Y60736D02*
X62971D01*
Y60570D01*
X62305Y59903D01*
Y59737D01*
X66824Y66705D02*
Y65706D01*
X67324D01*
X67490Y65872D01*
Y66539D01*
X67324Y66705D01*
X66824D01*
X67824D02*
X68490D01*
Y66539D01*
X67824Y65872D01*
Y65706D01*
X68823Y66539D02*
X68990Y66705D01*
X69323D01*
X69490Y66539D01*
Y65872D01*
X69323Y65706D01*
X68990D01*
X68823Y65872D01*
Y66539D01*
X70489Y66705D02*
X70156Y66539D01*
X69823Y66205D01*
Y65872D01*
X69990Y65706D01*
X70323D01*
X70489Y65872D01*
Y66039D01*
X70323Y66205D01*
X69823D01*
X66824Y63835D02*
Y62835D01*
X67324D01*
X67490Y63002D01*
Y63668D01*
X67324Y63835D01*
X66824D01*
X67824D02*
X68490D01*
Y63668D01*
X67824Y63002D01*
Y62835D01*
X68823Y63668D02*
X68990Y63835D01*
X69323D01*
X69490Y63668D01*
Y63002D01*
X69323Y62835D01*
X68990D01*
X68823Y63002D01*
Y63668D01*
X69823Y63835D02*
X70489D01*
Y63668D01*
X69823Y63002D01*
Y62835D01*
X60378Y63612D02*
Y64278D01*
X60212Y64445D01*
X59879D01*
X59712Y64278D01*
Y63612D01*
X59879Y63445D01*
X60212D01*
X60045Y63778D02*
X60378Y63445D01*
X60212D02*
X60378Y63612D01*
X60712Y64445D02*
X61378D01*
Y64278D01*
X60712Y63612D01*
Y63445D01*
X61711Y64278D02*
X61878Y64445D01*
X62211D01*
X62378Y64278D01*
Y63612D01*
X62211Y63445D01*
X61878D01*
X61711Y63612D01*
Y64278D01*
X63377Y63445D02*
X62711D01*
X63377Y64111D01*
Y64278D01*
X63211Y64445D01*
X62878D01*
X62711Y64278D01*
X65021Y59711D02*
Y60711D01*
X65520D01*
X65687Y60544D01*
Y60211D01*
X65520Y60044D01*
X65021D01*
X65354D02*
X65687Y59711D01*
X66020Y60711D02*
X66687D01*
Y60544D01*
X66020Y59878D01*
Y59711D01*
X67020D02*
X67353D01*
X67187D01*
Y60711D01*
X67020Y60544D01*
X67853Y60711D02*
X68519D01*
Y60544D01*
X67853Y59878D01*
Y59711D01*
X29091Y11487D02*
Y10488D01*
X29591D01*
X29757Y10654D01*
Y10821D01*
X29591Y10987D01*
X29091D01*
X29591D01*
X29757Y11154D01*
Y11321D01*
X29591Y11487D01*
X29091D01*
X30090D02*
X30757D01*
X30424D01*
Y10488D01*
X31090Y11487D02*
X31757D01*
Y11321D01*
X31090Y10654D01*
Y10488D01*
X32090Y11321D02*
X32256Y11487D01*
X32590D01*
X32756Y11321D01*
Y10654D01*
X32590Y10488D01*
X32256D01*
X32090Y10654D01*
Y11321D01*
X33089D02*
X33256Y11487D01*
X33589D01*
X33756Y11321D01*
Y10654D01*
X33589Y10488D01*
X33256D01*
X33089Y10654D01*
Y11321D01*
D71*
X24153Y86829D02*
X24653D01*
X24403D01*
Y88329D01*
X24153Y88079D01*
X28975D02*
X29225Y88329D01*
X29725D01*
X29975Y88079D01*
Y87829D01*
X29725Y87579D01*
X29475D01*
X29725D01*
X29975Y87329D01*
Y87079D01*
X29725Y86829D01*
X29225D01*
X28975Y87079D01*
M02*
