%FSLAX43Y43*%
%MOMM*%
G71*
G01*
G75*
%ADD10C,0.300*%
%ADD11C,0.200*%
%ADD12R,1.600X1.800*%
%ADD13R,0.550X1.450*%
%ADD14R,0.550X1.450*%
%ADD15R,0.850X1.300*%
%ADD16C,0.063*%
%ADD17R,10.200X7.300*%
%ADD18R,3.500X2.150*%
%ADD19R,1.100X2.150*%
%ADD20R,1.100X2.150*%
%ADD21R,0.600X2.200*%
%ADD22R,0.600X2.200*%
%ADD23R,2.200X0.600*%
%ADD24R,2.200X0.600*%
%ADD25R,1.800X1.600*%
%ADD26R,1.300X0.850*%
%ADD27R,1.000X2.600*%
%ADD28R,8.000X3.500*%
%ADD29R,6.000X6.000*%
%ADD30R,4.000X3.000*%
%ADD31R,3.000X4.000*%
%ADD32O,5.000X0.600*%
%ADD33R,0.600X1.550*%
%ADD34R,0.600X1.550*%
%ADD35R,1.700X0.600*%
%ADD36R,1.700X0.600*%
%ADD37R,2.700X2.500*%
%ADD38C,1.000*%
%ADD39C,0.400*%
%ADD40C,0.250*%
%ADD41C,0.500*%
%ADD42C,0.800*%
%ADD43C,0.700*%
%ADD44C,1.500*%
%ADD45C,0.600*%
%ADD46C,2.000*%
%ADD47C,0.254*%
%ADD48R,3.000X3.000*%
%ADD49C,1.500*%
%ADD50R,1.500X1.500*%
%ADD51C,5.000*%
%ADD52C,2.400*%
%ADD53C,4.000*%
%ADD54C,2.000*%
%ADD55R,2.000X2.000*%
%ADD56C,1.300*%
%ADD57C,1.400*%
%ADD58C,5.500*%
%ADD59C,3.000*%
%ADD60C,1.800*%
%ADD61R,1.800X1.800*%
%ADD62C,3.500*%
%ADD63C,2.500*%
%ADD64C,1.690*%
%ADD65R,1.690X1.690*%
%ADD66O,1.500X2.000*%
%ADD67R,1.500X2.000*%
%ADD68C,1.200*%
%ADD69C,1.100*%
%ADD70C,0.180*%
%ADD71C,0.150*%
%ADD72C,0.480*%
%ADD73R,1.803X2.003*%
%ADD74R,0.753X1.653*%
%ADD75R,0.753X1.653*%
%ADD76R,1.053X1.503*%
%ADD77R,10.403X7.503*%
%ADD78R,3.703X2.353*%
%ADD79R,1.303X2.353*%
%ADD80R,1.303X2.353*%
%ADD81R,0.803X2.403*%
%ADD82R,0.803X2.403*%
%ADD83R,2.403X0.803*%
%ADD84R,2.403X0.803*%
%ADD85R,2.003X1.803*%
%ADD86R,1.503X1.053*%
%ADD87R,1.203X2.803*%
%ADD88R,8.203X3.703*%
%ADD89R,6.203X6.203*%
%ADD90R,4.203X3.203*%
%ADD91R,3.203X4.203*%
%ADD92O,5.203X0.803*%
%ADD93R,0.803X1.753*%
%ADD94R,0.803X1.753*%
%ADD95R,1.903X0.803*%
%ADD96R,1.903X0.803*%
%ADD97R,2.903X2.703*%
%ADD98R,3.203X3.203*%
%ADD99C,1.703*%
%ADD100R,1.703X1.703*%
%ADD101C,5.203*%
%ADD102C,2.603*%
%ADD103C,4.203*%
%ADD104C,2.203*%
%ADD105R,2.203X2.203*%
%ADD106C,1.503*%
%ADD107C,1.603*%
%ADD108C,5.703*%
%ADD109C,3.203*%
%ADD110C,2.003*%
%ADD111R,2.003X2.003*%
%ADD112C,3.703*%
%ADD113C,2.703*%
%ADD114C,1.893*%
%ADD115R,1.893X1.893*%
%ADD116O,1.703X2.203*%
%ADD117R,1.703X2.203*%
%ADD118C,1.403*%
%ADD119C,1.303*%
D16*
X-36117Y77973D02*
X-35841Y77697D01*
X-37001Y76537D01*
X-37278Y76813D01*
X-36117Y77973D01*
Y77900D02*
X-35915Y77697D01*
X-37001Y76611D01*
X-37204Y76813D01*
X-36117Y77900D01*
Y77826D02*
X-35988Y77697D01*
X-37001Y76684D01*
X-37130Y76813D01*
X-36117Y77826D01*
Y77752D02*
X-36062Y77697D01*
X-37001Y76758D01*
X-37057Y76813D01*
X-36117Y77752D01*
X-36136Y77697D02*
X-36983Y76813D01*
X-9671Y54255D02*
X-9982Y54567D01*
X-8787Y55763D01*
X-8475Y55451D01*
X-9671Y54255D01*
Y54329D02*
X-9909Y54567D01*
X-8787Y55689D01*
X-8549Y55451D01*
X-9671Y54329D01*
Y54403D02*
X-9835Y54567D01*
X-8787Y55615D01*
X-8623Y55451D01*
X-9671Y54403D01*
Y54476D02*
X-9761Y54567D01*
X-8787Y55542D01*
X-8696Y55451D01*
X-9671Y54476D01*
Y54550D02*
X-9688Y54567D01*
X-8787Y55468D01*
X-8770Y55451D01*
X-9671Y54550D01*
X-9633Y54586D02*
X-8824Y55432D01*
X-16854Y53153D02*
X-17166Y52841D01*
X-18362Y54037D01*
X-18050Y54348D01*
X-16854Y53153D01*
X-16928D02*
X-17166Y52915D01*
X-18288Y54037D01*
X-18050Y54275D01*
X-16928Y53153D01*
X-17002D02*
X-17166Y52989D01*
X-18214Y54037D01*
X-18050Y54201D01*
X-17002Y53153D01*
X-17075D02*
X-17166Y53062D01*
X-18141Y54037D01*
X-18050Y54127D01*
X-17075Y53153D01*
X-17149D02*
X-17166Y53136D01*
X-18067Y54037D01*
X-18050Y54054D01*
X-17149Y53153D01*
X-17185Y53190D02*
X-18031Y53999D01*
X-10731Y55316D02*
X-11043Y55628D01*
X-9847Y56823D01*
X-9536Y56512D01*
X-10731Y55316D01*
Y55390D02*
X-10969Y55628D01*
X-9847Y56750D01*
X-9609Y56512D01*
X-10731Y55390D01*
Y55463D02*
X-10896Y55628D01*
X-9847Y56676D01*
X-9683Y56512D01*
X-10731Y55463D01*
Y55537D02*
X-10822Y55628D01*
X-9847Y56602D01*
X-9757Y56512D01*
X-10731Y55537D01*
Y55611D02*
X-10748Y55628D01*
X-9847Y56529D01*
X-9830Y56512D01*
X-10731Y55611D01*
X-10694Y55647D02*
X-9885Y56492D01*
X-10378Y54963D02*
X-10689Y55274D01*
X-9494Y56470D01*
X-9182Y56158D01*
X-10378Y54963D01*
Y55036D02*
X-10616Y55274D01*
X-9494Y56396D01*
X-9256Y56158D01*
X-10378Y55036D01*
Y55110D02*
X-10542Y55274D01*
X-9494Y56322D01*
X-9330Y56158D01*
X-10378Y55110D01*
Y55183D02*
X-10468Y55274D01*
X-9494Y56249D01*
X-9403Y56158D01*
X-10378Y55183D01*
Y55257D02*
X-10395Y55274D01*
X-9494Y56175D01*
X-9477Y56158D01*
X-10378Y55257D01*
X-10341Y55294D02*
X-9531Y56139D01*
X-10024Y54609D02*
X-10336Y54921D01*
X-9140Y56116D01*
X-8829Y55804D01*
X-10024Y54609D01*
Y54683D02*
X-10262Y54921D01*
X-9140Y56042D01*
X-8902Y55804D01*
X-10024Y54683D01*
Y54756D02*
X-10189Y54921D01*
X-9140Y55969D01*
X-8976Y55804D01*
X-10024Y54756D01*
Y54830D02*
X-10115Y54921D01*
X-9140Y55895D01*
X-9050Y55804D01*
X-10024Y54830D01*
Y54904D02*
X-10041Y54921D01*
X-9140Y55821D01*
X-9123Y55804D01*
X-10024Y54904D01*
X-9987Y54940D02*
X-9178Y55785D01*
X-7768Y50430D02*
X-8080Y50119D01*
X-9275Y51314D01*
X-8964Y51626D01*
X-7768Y50430D01*
X-7842D02*
X-8080Y50192D01*
X-9202Y51314D01*
X-8964Y51552D01*
X-7842Y50430D01*
X-7915D02*
X-8080Y50266D01*
X-9128Y51314D01*
X-8964Y51479D01*
X-7915Y50430D01*
X-7989D02*
X-8080Y50340D01*
X-9054Y51314D01*
X-8964Y51405D01*
X-7989Y50430D01*
X-8063D02*
X-8080Y50413D01*
X-8981Y51314D01*
X-8964Y51331D01*
X-8063Y50430D01*
X-8099Y50468D02*
X-8944Y51277D01*
X-11438Y56023D02*
X-11750Y56335D01*
X-10555Y57530D01*
X-10243Y57219D01*
X-11438Y56023D01*
Y56097D02*
X-11676Y56335D01*
X-10555Y57457D01*
X-10317Y57219D01*
X-11438Y56097D01*
Y56170D02*
X-11603Y56335D01*
X-10555Y57383D01*
X-10390Y57219D01*
X-11438Y56170D01*
Y56244D02*
X-11529Y56335D01*
X-10555Y57309D01*
X-10464Y57219D01*
X-11438Y56244D01*
Y56318D02*
X-11455Y56335D01*
X-10555Y57236D01*
X-10538Y57219D01*
X-11438Y56318D01*
X-11401Y56354D02*
X-10592Y57199D01*
X-7061Y51138D02*
X-7373Y50826D01*
X-8568Y52021D01*
X-8256Y52333D01*
X-7061Y51138D01*
X-7135D02*
X-7373Y50900D01*
X-8494Y52021D01*
X-8256Y52259D01*
X-7135Y51138D01*
X-7208D02*
X-7373Y50973D01*
X-8421Y52021D01*
X-8256Y52186D01*
X-7208Y51138D01*
X-7282D02*
X-7373Y51047D01*
X-8347Y52021D01*
X-8256Y52112D01*
X-7282Y51138D01*
X-7356D02*
X-7373Y51121D01*
X-8273Y52021D01*
X-8256Y52038D01*
X-7356Y51138D01*
X-7392Y51175D02*
X-8237Y51984D01*
X-15929Y48705D02*
X-16240Y49016D01*
X-15045Y50212D01*
X-14733Y49900D01*
X-15929Y48705D01*
Y48778D02*
X-16167Y49016D01*
X-15045Y50138D01*
X-14807Y49900D01*
X-15929Y48778D01*
Y48852D02*
X-16093Y49016D01*
X-15045Y50064D01*
X-14880Y49900D01*
X-15929Y48852D01*
Y48926D02*
X-16019Y49016D01*
X-15045Y49991D01*
X-14954Y49900D01*
X-15929Y48926D01*
Y48999D02*
X-15946Y49016D01*
X-15045Y49917D01*
X-15028Y49900D01*
X-15929Y48999D01*
X-15891Y49036D02*
X-15082Y49881D01*
X-8475Y49723D02*
X-8787Y49412D01*
X-9982Y50607D01*
X-9671Y50919D01*
X-8475Y49723D01*
X-8549D02*
X-8787Y49485D01*
X-9909Y50607D01*
X-9671Y50845D01*
X-8549Y49723D01*
X-8622D02*
X-8787Y49559D01*
X-9835Y50607D01*
X-9671Y50772D01*
X-8622Y49723D01*
X-8696D02*
X-8787Y49633D01*
X-9761Y50607D01*
X-9671Y50698D01*
X-8696Y49723D01*
X-8770D02*
X-8787Y49706D01*
X-9688Y50607D01*
X-9671Y50624D01*
X-8770Y49723D01*
X-8806Y49761D02*
X-9651Y50570D01*
X-8122Y50077D02*
X-8433Y49765D01*
X-9629Y50961D01*
X-9317Y51272D01*
X-8122Y50077D01*
X-8195D02*
X-8433Y49839D01*
X-9555Y50961D01*
X-9317Y51199D01*
X-8195Y50077D01*
X-8269D02*
X-8433Y49913D01*
X-9481Y50961D01*
X-9317Y51125D01*
X-8269Y50077D01*
X-8343D02*
X-8433Y49986D01*
X-9408Y50961D01*
X-9317Y51051D01*
X-8343Y50077D01*
X-8416D02*
X-8433Y50060D01*
X-9334Y50961D01*
X-9317Y50978D01*
X-8416Y50077D01*
X-8453Y50114D02*
X-9298Y50923D01*
X-8964Y53548D02*
X-9275Y53860D01*
X-8080Y55055D01*
X-7768Y54744D01*
X-8964Y53548D01*
Y53622D02*
X-9202Y53860D01*
X-8080Y54982D01*
X-7842Y54744D01*
X-8964Y53622D01*
Y53696D02*
X-9128Y53860D01*
X-8080Y54908D01*
X-7915Y54744D01*
X-8964Y53696D01*
Y53769D02*
X-9054Y53860D01*
X-8080Y54834D01*
X-7989Y54744D01*
X-8964Y53769D01*
Y53843D02*
X-8981Y53860D01*
X-8080Y54761D01*
X-8063Y54744D01*
X-8964Y53843D01*
X-8926Y53879D02*
X-8117Y54724D01*
X-13672Y56335D02*
X-13984Y56023D01*
X-15180Y57219D01*
X-14868Y57530D01*
X-13672Y56335D01*
X-13746D02*
X-13984Y56097D01*
X-15106Y57219D01*
X-14868Y57457D01*
X-13746Y56335D01*
X-13820D02*
X-13984Y56170D01*
X-15032Y57219D01*
X-14868Y57383D01*
X-13820Y56335D01*
X-13893D02*
X-13984Y56244D01*
X-14959Y57219D01*
X-14868Y57309D01*
X-13893Y56335D01*
X-13967D02*
X-13984Y56318D01*
X-14885Y57219D01*
X-14868Y57236D01*
X-13967Y56335D01*
X-14003Y56372D02*
X-14849Y57181D01*
X-12965Y57042D02*
X-13277Y56730D01*
X-14472Y57926D01*
X-14161Y58237D01*
X-12965Y57042D01*
X-13039D02*
X-13277Y56804D01*
X-14399Y57926D01*
X-14161Y58164D01*
X-13039Y57042D01*
X-13113D02*
X-13277Y56878D01*
X-14325Y57926D01*
X-14161Y58090D01*
X-13113Y57042D01*
X-13186D02*
X-13277Y56951D01*
X-14252Y57926D01*
X-14161Y58016D01*
X-13186Y57042D01*
X-13260D02*
X-13277Y57025D01*
X-14178Y57926D01*
X-14161Y57943D01*
X-13260Y57042D01*
X-13296Y57079D02*
X-14142Y57888D01*
X-7415Y50784D02*
X-7726Y50472D01*
X-8922Y51668D01*
X-8610Y51979D01*
X-7415Y50784D01*
X-7488D02*
X-7726Y50546D01*
X-8848Y51668D01*
X-8610Y51906D01*
X-7488Y50784D01*
X-7562D02*
X-7726Y50620D01*
X-8774Y51668D01*
X-8610Y51832D01*
X-7562Y50784D01*
X-7635D02*
X-7726Y50693D01*
X-8701Y51668D01*
X-8610Y51758D01*
X-7635Y50784D01*
X-7709D02*
X-7726Y50767D01*
X-8627Y51668D01*
X-8610Y51685D01*
X-7709Y50784D01*
X-7746Y50821D02*
X-8591Y51631D01*
X-9182Y49016D02*
X-9494Y48705D01*
X-10689Y49900D01*
X-10378Y50212D01*
X-9182Y49016D01*
X-9256D02*
X-9494Y48778D01*
X-10616Y49900D01*
X-10378Y50138D01*
X-9256Y49016D01*
X-9330D02*
X-9494Y48852D01*
X-10542Y49900D01*
X-10378Y50064D01*
X-9330Y49016D01*
X-9403D02*
X-9494Y48926D01*
X-10468Y49900D01*
X-10378Y49991D01*
X-9403Y49016D01*
X-9477D02*
X-9494Y48999D01*
X-10395Y49900D01*
X-10378Y49917D01*
X-9477Y49016D01*
X-9513Y49054D02*
X-10358Y49863D01*
X-17696Y50472D02*
X-18008Y50784D01*
X-16812Y51980D01*
X-16501Y51668D01*
X-17696Y50472D01*
Y50546D02*
X-17934Y50784D01*
X-16812Y51906D01*
X-16575Y51668D01*
X-17696Y50546D01*
Y50620D02*
X-17861Y50784D01*
X-16812Y51832D01*
X-16648Y51668D01*
X-17696Y50620D01*
Y50693D02*
X-17787Y50784D01*
X-16812Y51759D01*
X-16722Y51668D01*
X-17696Y50693D01*
Y50767D02*
X-17713Y50784D01*
X-16812Y51685D01*
X-16795Y51668D01*
X-17696Y50767D01*
X-17659Y50803D02*
X-16850Y51649D01*
X-17343Y50119D02*
X-17654Y50430D01*
X-16459Y51626D01*
X-16147Y51314D01*
X-17343Y50119D01*
Y50193D02*
X-17581Y50430D01*
X-16459Y51552D01*
X-16221Y51314D01*
X-17343Y50193D01*
Y50266D02*
X-17507Y50430D01*
X-16459Y51479D01*
X-16295Y51314D01*
X-17343Y50266D01*
Y50340D02*
X-17433Y50430D01*
X-16459Y51405D01*
X-16368Y51314D01*
X-17343Y50340D01*
Y50413D02*
X-17360Y50430D01*
X-16459Y51331D01*
X-16442Y51314D01*
X-17343Y50413D01*
X-17306Y50450D02*
X-16496Y51295D01*
X-16989Y49765D02*
X-17301Y50077D01*
X-16105Y51272D01*
X-15794Y50961D01*
X-16989Y49765D01*
Y49839D02*
X-17227Y50077D01*
X-16105Y51199D01*
X-15867Y50961D01*
X-16989Y49839D01*
Y49913D02*
X-17154Y50077D01*
X-16105Y51125D01*
X-15941Y50961D01*
X-16989Y49913D01*
Y49986D02*
X-17080Y50077D01*
X-16105Y51051D01*
X-16015Y50961D01*
X-16989Y49986D01*
Y50060D02*
X-17006Y50077D01*
X-16105Y50978D01*
X-16088Y50961D01*
X-16989Y50060D01*
X-16952Y50096D02*
X-16143Y50941D01*
X-16636Y49412D02*
X-16947Y49723D01*
X-15752Y50919D01*
X-15440Y50607D01*
X-16636Y49412D01*
Y49485D02*
X-16874Y49723D01*
X-15752Y50845D01*
X-15514Y50607D01*
X-16636Y49485D01*
Y49559D02*
X-16800Y49723D01*
X-15752Y50772D01*
X-15587Y50607D01*
X-16636Y49559D01*
Y49633D02*
X-16726Y49723D01*
X-15752Y50698D01*
X-15661Y50607D01*
X-16636Y49633D01*
Y49706D02*
X-16653Y49723D01*
X-15752Y50624D01*
X-15735Y50607D01*
X-16636Y49706D01*
X-16598Y49743D02*
X-15789Y50588D01*
X-16282Y49058D02*
X-16594Y49370D01*
X-15398Y50565D01*
X-15087Y50254D01*
X-16282Y49058D01*
Y49132D02*
X-16520Y49370D01*
X-15398Y50492D01*
X-15160Y50254D01*
X-16282Y49132D01*
Y49205D02*
X-16446Y49370D01*
X-15398Y50418D01*
X-15234Y50254D01*
X-16282Y49205D01*
Y49279D02*
X-16373Y49370D01*
X-15398Y50344D01*
X-15308Y50254D01*
X-16282Y49279D01*
Y49353D02*
X-16299Y49370D01*
X-15398Y50271D01*
X-15381Y50254D01*
X-16282Y49353D01*
X-16245Y49389D02*
X-15436Y50234D01*
X-15575Y48351D02*
X-15887Y48663D01*
X-14691Y49858D01*
X-14380Y49547D01*
X-15575Y48351D01*
Y48425D02*
X-15813Y48663D01*
X-14691Y49785D01*
X-14453Y49547D01*
X-15575Y48425D01*
Y48498D02*
X-15739Y48663D01*
X-14691Y49711D01*
X-14527Y49547D01*
X-15575Y48498D01*
Y48572D02*
X-15666Y48663D01*
X-14691Y49637D01*
X-14601Y49547D01*
X-15575Y48572D01*
Y48646D02*
X-15592Y48663D01*
X-14691Y49564D01*
X-14674Y49547D01*
X-15575Y48646D01*
X-15538Y48682D02*
X-14728Y49527D01*
X-15221Y47998D02*
X-15533Y48309D01*
X-14338Y49505D01*
X-14026Y49193D01*
X-15221Y47998D01*
Y48071D02*
X-15459Y48309D01*
X-14338Y49431D01*
X-14100Y49193D01*
X-15221Y48071D01*
Y48145D02*
X-15386Y48309D01*
X-14338Y49357D01*
X-14173Y49193D01*
X-15221Y48145D01*
Y48218D02*
X-15312Y48309D01*
X-14338Y49284D01*
X-14247Y49193D01*
X-15221Y48218D01*
Y48292D02*
X-15238Y48309D01*
X-14338Y49210D01*
X-14321Y49193D01*
X-15221Y48292D01*
X-15184Y48328D02*
X-14375Y49174D01*
X-14868Y47644D02*
X-15180Y47956D01*
X-13984Y49151D01*
X-13672Y48839D01*
X-14868Y47644D01*
Y47718D02*
X-15106Y47956D01*
X-13984Y49077D01*
X-13746Y48839D01*
X-14868Y47718D01*
Y47791D02*
X-15032Y47956D01*
X-13984Y49004D01*
X-13820Y48839D01*
X-14868Y47791D01*
Y47865D02*
X-14959Y47956D01*
X-13984Y48930D01*
X-13893Y48839D01*
X-14868Y47865D01*
Y47939D02*
X-14885Y47956D01*
X-13984Y48856D01*
X-13967Y48839D01*
X-14868Y47939D01*
X-14831Y47975D02*
X-14021Y48820D01*
X-14514Y47290D02*
X-14826Y47602D01*
X-13630Y48798D01*
X-13319Y48486D01*
X-14514Y47290D01*
Y47364D02*
X-14752Y47602D01*
X-13630Y48724D01*
X-13393Y48486D01*
X-14514Y47364D01*
Y47438D02*
X-14679Y47602D01*
X-13630Y48650D01*
X-13466Y48486D01*
X-14514Y47438D01*
Y47511D02*
X-14605Y47602D01*
X-13630Y48577D01*
X-13540Y48486D01*
X-14514Y47511D01*
Y47585D02*
X-14531Y47602D01*
X-13630Y48503D01*
X-13613Y48486D01*
X-14514Y47585D01*
X-14477Y47621D02*
X-13668Y48467D01*
X-14161Y46937D02*
X-14472Y47248D01*
X-13277Y48444D01*
X-12965Y48132D01*
X-14161Y46937D01*
Y47011D02*
X-14399Y47248D01*
X-13277Y48370D01*
X-13039Y48132D01*
X-14161Y47011D01*
Y47084D02*
X-14325Y47248D01*
X-13277Y48297D01*
X-13113Y48132D01*
X-14161Y47084D01*
Y47158D02*
X-14251Y47248D01*
X-13277Y48223D01*
X-13186Y48132D01*
X-14161Y47158D01*
Y47231D02*
X-14178Y47248D01*
X-13277Y48149D01*
X-13260Y48132D01*
X-14161Y47231D01*
X-14124Y47268D02*
X-13314Y48113D01*
X-10950Y47248D02*
X-11262Y46937D01*
X-12457Y48132D01*
X-12146Y48444D01*
X-10950Y47248D01*
X-11024D02*
X-11262Y47010D01*
X-12384Y48132D01*
X-12146Y48370D01*
X-11024Y47248D01*
X-11097D02*
X-11262Y47084D01*
X-12310Y48132D01*
X-12146Y48297D01*
X-11097Y47248D01*
X-11171D02*
X-11262Y47158D01*
X-12236Y48132D01*
X-12146Y48223D01*
X-11171Y47248D01*
X-11245D02*
X-11262Y47231D01*
X-12163Y48132D01*
X-12146Y48149D01*
X-11245Y47248D01*
X-11281Y47286D02*
X-12126Y48095D01*
X-10597Y47602D02*
X-10908Y47290D01*
X-12104Y48486D01*
X-11792Y48798D01*
X-10597Y47602D01*
X-10670D02*
X-10908Y47364D01*
X-12030Y48486D01*
X-11792Y48724D01*
X-10670Y47602D01*
X-10744D02*
X-10908Y47438D01*
X-11956Y48486D01*
X-11792Y48650D01*
X-10744Y47602D01*
X-10817D02*
X-10908Y47511D01*
X-11883Y48486D01*
X-11792Y48577D01*
X-10817Y47602D01*
X-10891D02*
X-10908Y47585D01*
X-11809Y48486D01*
X-11792Y48503D01*
X-10891Y47602D01*
X-10927Y47639D02*
X-11773Y48449D01*
X-10243Y47956D02*
X-10555Y47644D01*
X-11750Y48839D01*
X-11438Y49151D01*
X-10243Y47956D01*
X-10317D02*
X-10555Y47718D01*
X-11676Y48839D01*
X-11438Y49077D01*
X-10317Y47956D01*
X-10390D02*
X-10555Y47791D01*
X-11603Y48839D01*
X-11438Y49004D01*
X-10390Y47956D01*
X-10464D02*
X-10555Y47865D01*
X-11529Y48839D01*
X-11438Y48930D01*
X-10464Y47956D01*
X-10538D02*
X-10555Y47939D01*
X-11455Y48839D01*
X-11438Y48856D01*
X-10538Y47956D01*
X-10574Y47993D02*
X-11419Y48802D01*
X-9889Y48309D02*
X-10201Y47998D01*
X-11397Y49193D01*
X-11085Y49505D01*
X-9889Y48309D01*
X-9963D02*
X-10201Y48071D01*
X-11323Y49193D01*
X-11085Y49431D01*
X-9963Y48309D01*
X-10037D02*
X-10201Y48145D01*
X-11249Y49193D01*
X-11085Y49357D01*
X-10037Y48309D01*
X-10110D02*
X-10201Y48218D01*
X-11176Y49193D01*
X-11085Y49284D01*
X-10110Y48309D01*
X-10184D02*
X-10201Y48292D01*
X-11102Y49193D01*
X-11085Y49210D01*
X-10184Y48309D01*
X-10220Y48346D02*
X-11066Y49156D01*
X-9536Y48663D02*
X-9847Y48351D01*
X-11043Y49547D01*
X-10731Y49858D01*
X-9536Y48663D01*
X-9610D02*
X-9847Y48425D01*
X-10969Y49547D01*
X-10731Y49785D01*
X-9610Y48663D01*
X-9683D02*
X-9847Y48498D01*
X-10896Y49547D01*
X-10731Y49711D01*
X-9683Y48663D01*
X-9757D02*
X-9847Y48572D01*
X-10822Y49547D01*
X-10731Y49637D01*
X-9757Y48663D01*
X-9830D02*
X-9847Y48646D01*
X-10748Y49547D01*
X-10731Y49564D01*
X-9830Y48663D01*
X-9867Y48700D02*
X-10712Y49509D01*
X-8829Y49370D02*
X-9140Y49058D01*
X-10336Y50254D01*
X-10024Y50565D01*
X-8829Y49370D01*
X-8902D02*
X-9140Y49132D01*
X-10262Y50254D01*
X-10024Y50492D01*
X-8902Y49370D01*
X-8976D02*
X-9140Y49205D01*
X-10189Y50254D01*
X-10024Y50418D01*
X-8976Y49370D01*
X-9050D02*
X-9140Y49279D01*
X-10115Y50254D01*
X-10024Y50344D01*
X-9050Y49370D01*
X-9123D02*
X-9140Y49353D01*
X-10041Y50254D01*
X-10024Y50271D01*
X-9123Y49370D01*
X-9160Y49407D02*
X-10005Y50216D01*
X-12146Y56730D02*
X-12457Y57042D01*
X-11262Y58237D01*
X-10950Y57926D01*
X-12146Y56730D01*
Y56804D02*
X-12384Y57042D01*
X-11262Y58164D01*
X-11024Y57926D01*
X-12146Y56804D01*
Y56878D02*
X-12310Y57042D01*
X-11262Y58090D01*
X-11097Y57926D01*
X-12146Y56878D01*
Y56951D02*
X-12236Y57042D01*
X-11262Y58016D01*
X-11171Y57926D01*
X-12146Y56951D01*
Y57025D02*
X-12163Y57042D01*
X-11262Y57943D01*
X-11245Y57926D01*
X-12146Y57025D01*
X-12108Y57061D02*
X-11299Y57906D01*
X-11792Y56377D02*
X-12104Y56688D01*
X-10908Y57884D01*
X-10597Y57572D01*
X-11792Y56377D01*
Y56450D02*
X-12030Y56688D01*
X-10908Y57810D01*
X-10670Y57572D01*
X-11792Y56450D01*
Y56524D02*
X-11956Y56688D01*
X-10908Y57737D01*
X-10744Y57572D01*
X-11792Y56524D01*
Y56598D02*
X-11883Y56688D01*
X-10908Y57663D01*
X-10817Y57572D01*
X-11792Y56598D01*
Y56671D02*
X-11809Y56688D01*
X-10908Y57589D01*
X-10891Y57572D01*
X-11792Y56671D01*
X-11755Y56708D02*
X-10945Y57553D01*
X-9317Y53902D02*
X-9629Y54213D01*
X-8433Y55409D01*
X-8122Y55097D01*
X-9317Y53902D01*
Y53975D02*
X-9555Y54213D01*
X-8433Y55335D01*
X-8195Y55097D01*
X-9317Y53975D01*
Y54049D02*
X-9481Y54213D01*
X-8433Y55262D01*
X-8269Y55097D01*
X-9317Y54049D01*
Y54123D02*
X-9408Y54213D01*
X-8433Y55188D01*
X-8343Y55097D01*
X-9317Y54123D01*
Y54196D02*
X-9334Y54213D01*
X-8433Y55114D01*
X-8416Y55097D01*
X-9317Y54196D01*
X-9280Y54233D02*
X-8471Y55078D01*
X-8610Y53195D02*
X-8922Y53506D01*
X-7726Y54702D01*
X-7415Y54390D01*
X-8610Y53195D01*
Y53268D02*
X-8848Y53506D01*
X-7726Y54628D01*
X-7488Y54390D01*
X-8610Y53268D01*
Y53342D02*
X-8774Y53506D01*
X-7726Y54555D01*
X-7562Y54390D01*
X-8610Y53342D01*
Y53416D02*
X-8701Y53506D01*
X-7726Y54481D01*
X-7635Y54390D01*
X-8610Y53416D01*
Y53489D02*
X-8627Y53506D01*
X-7726Y54407D01*
X-7709Y54390D01*
X-8610Y53489D01*
X-8573Y53526D02*
X-7763Y54371D01*
X-8256Y52841D02*
X-8568Y53153D01*
X-7373Y54348D01*
X-7061Y54037D01*
X-8256Y52841D01*
Y52915D02*
X-8494Y53153D01*
X-7373Y54275D01*
X-7135Y54037D01*
X-8256Y52915D01*
Y52988D02*
X-8421Y53153D01*
X-7373Y54201D01*
X-7208Y54037D01*
X-8256Y52988D01*
Y53062D02*
X-8347Y53153D01*
X-7373Y54127D01*
X-7282Y54037D01*
X-8256Y53062D01*
Y53136D02*
X-8273Y53153D01*
X-7373Y54054D01*
X-7356Y54037D01*
X-8256Y53136D01*
X-8219Y53172D02*
X-7410Y54017D01*
X-16501Y53506D02*
X-16812Y53195D01*
X-18008Y54390D01*
X-17696Y54702D01*
X-16501Y53506D01*
X-16575D02*
X-16812Y53268D01*
X-17934Y54390D01*
X-17696Y54628D01*
X-16575Y53506D01*
X-16648D02*
X-16812Y53342D01*
X-17861Y54390D01*
X-17696Y54555D01*
X-16648Y53506D01*
X-16722D02*
X-16812Y53416D01*
X-17787Y54390D01*
X-17696Y54481D01*
X-16722Y53506D01*
X-16795D02*
X-16812Y53489D01*
X-17713Y54390D01*
X-17696Y54407D01*
X-16795Y53506D01*
X-16832Y53544D02*
X-17677Y54353D01*
X-16147Y53860D02*
X-16459Y53548D01*
X-17654Y54744D01*
X-17343Y55055D01*
X-16147Y53860D01*
X-16221D02*
X-16459Y53622D01*
X-17581Y54744D01*
X-17343Y54982D01*
X-16221Y53860D01*
X-16295D02*
X-16459Y53696D01*
X-17507Y54744D01*
X-17343Y54908D01*
X-16295Y53860D01*
X-16368D02*
X-16459Y53769D01*
X-17433Y54744D01*
X-17343Y54834D01*
X-16368Y53860D01*
X-16442D02*
X-16459Y53843D01*
X-17360Y54744D01*
X-17343Y54761D01*
X-16442Y53860D01*
X-16478Y53897D02*
X-17323Y54706D01*
X-15794Y54213D02*
X-16105Y53902D01*
X-17301Y55097D01*
X-16989Y55409D01*
X-15794Y54213D01*
X-15867D02*
X-16105Y53976D01*
X-17227Y55097D01*
X-16989Y55335D01*
X-15867Y54213D01*
X-15941D02*
X-16105Y54049D01*
X-17154Y55097D01*
X-16989Y55262D01*
X-15941Y54213D01*
X-16015D02*
X-16105Y54123D01*
X-17080Y55097D01*
X-16989Y55188D01*
X-16015Y54213D01*
X-16088D02*
X-16105Y54196D01*
X-17006Y55097D01*
X-16989Y55114D01*
X-16088Y54213D01*
X-16125Y54251D02*
X-16970Y55060D01*
X-15440Y54567D02*
X-15752Y54255D01*
X-16947Y55451D01*
X-16636Y55763D01*
X-15440Y54567D01*
X-15514D02*
X-15752Y54329D01*
X-16874Y55451D01*
X-16636Y55689D01*
X-15514Y54567D01*
X-15587D02*
X-15752Y54403D01*
X-16800Y55451D01*
X-16636Y55615D01*
X-15587Y54567D01*
X-15661D02*
X-15752Y54476D01*
X-16726Y55451D01*
X-16636Y55542D01*
X-15661Y54567D01*
X-15735D02*
X-15752Y54550D01*
X-16653Y55451D01*
X-16636Y55468D01*
X-15735Y54567D01*
X-15771Y54604D02*
X-16616Y55414D01*
X-15087Y54921D02*
X-15398Y54609D01*
X-16594Y55804D01*
X-16282Y56116D01*
X-15087Y54921D01*
X-15160D02*
X-15398Y54683D01*
X-16520Y55804D01*
X-16282Y56042D01*
X-15160Y54921D01*
X-15234D02*
X-15398Y54756D01*
X-16446Y55804D01*
X-16282Y55969D01*
X-15234Y54921D01*
X-15308D02*
X-15398Y54830D01*
X-16373Y55804D01*
X-16282Y55895D01*
X-15308Y54921D01*
X-15381D02*
X-15398Y54904D01*
X-16299Y55804D01*
X-16282Y55821D01*
X-15381Y54921D01*
X-15418Y54958D02*
X-16263Y55767D01*
X-14733Y55274D02*
X-15045Y54963D01*
X-16240Y56158D01*
X-15929Y56470D01*
X-14733Y55274D01*
X-14807D02*
X-15045Y55036D01*
X-16167Y56158D01*
X-15929Y56396D01*
X-14807Y55274D01*
X-14880D02*
X-15045Y55110D01*
X-16093Y56158D01*
X-15929Y56322D01*
X-14880Y55274D01*
X-14954D02*
X-15045Y55184D01*
X-16019Y56158D01*
X-15929Y56249D01*
X-14954Y55274D01*
X-15028D02*
X-15045Y55257D01*
X-15946Y56158D01*
X-15929Y56175D01*
X-15028Y55274D01*
X-15064Y55311D02*
X-15909Y56121D01*
X-14380Y55628D02*
X-14691Y55316D01*
X-15887Y56512D01*
X-15575Y56823D01*
X-14380Y55628D01*
X-14453D02*
X-14691Y55390D01*
X-15813Y56512D01*
X-15575Y56750D01*
X-14453Y55628D01*
X-14527D02*
X-14691Y55463D01*
X-15739Y56512D01*
X-15575Y56676D01*
X-14527Y55628D01*
X-14601D02*
X-14691Y55537D01*
X-15666Y56512D01*
X-15575Y56602D01*
X-14601Y55628D01*
X-14674D02*
X-14691Y55611D01*
X-15592Y56512D01*
X-15575Y56529D01*
X-14674Y55628D01*
X-14711Y55665D02*
X-15556Y56474D01*
X-14026Y55981D02*
X-14338Y55670D01*
X-15533Y56865D01*
X-15221Y57177D01*
X-14026Y55981D01*
X-14100D02*
X-14338Y55743D01*
X-15459Y56865D01*
X-15221Y57103D01*
X-14100Y55981D01*
X-14173D02*
X-14338Y55817D01*
X-15386Y56865D01*
X-15221Y57029D01*
X-14173Y55981D01*
X-14247D02*
X-14338Y55891D01*
X-15312Y56865D01*
X-15221Y56956D01*
X-14247Y55981D01*
X-14321D02*
X-14338Y55964D01*
X-15238Y56865D01*
X-15221Y56882D01*
X-14321Y55981D01*
X-14357Y56019D02*
X-15202Y56828D01*
X-13319Y56688D02*
X-13630Y56377D01*
X-14826Y57572D01*
X-14514Y57884D01*
X-13319Y56688D01*
X-13393D02*
X-13630Y56450D01*
X-14752Y57572D01*
X-14514Y57810D01*
X-13393Y56688D01*
X-13466D02*
X-13630Y56524D01*
X-14679Y57572D01*
X-14514Y57737D01*
X-13466Y56688D01*
X-13540D02*
X-13630Y56598D01*
X-14605Y57572D01*
X-14514Y57663D01*
X-13540Y56688D01*
X-13613D02*
X-13630Y56671D01*
X-14531Y57572D01*
X-14514Y57589D01*
X-13613Y56688D01*
X-13650Y56726D02*
X-14495Y57535D01*
X-11085Y55670D02*
X-11397Y55981D01*
X-10201Y57177D01*
X-9889Y56865D01*
X-11085Y55670D01*
Y55743D02*
X-11323Y55981D01*
X-10201Y57103D01*
X-9963Y56865D01*
X-11085Y55743D01*
Y55817D02*
X-11249Y55981D01*
X-10201Y57029D01*
X-10037Y56865D01*
X-11085Y55817D01*
Y55891D02*
X-11176Y55981D01*
X-10201Y56956D01*
X-10110Y56865D01*
X-11085Y55891D01*
Y55964D02*
X-11102Y55981D01*
X-10201Y56882D01*
X-10184Y56865D01*
X-11085Y55964D01*
X-11048Y56001D02*
X-10238Y56846D01*
X-18050Y50826D02*
X-18362Y51138D01*
X-17166Y52333D01*
X-16854Y52021D01*
X-18050Y50826D01*
Y50900D02*
X-18288Y51138D01*
X-17166Y52259D01*
X-16928Y52021D01*
X-18050Y50900D01*
Y50973D02*
X-18214Y51138D01*
X-17166Y52186D01*
X-17002Y52021D01*
X-18050Y50973D01*
Y51047D02*
X-18141Y51138D01*
X-17166Y52112D01*
X-17075Y52021D01*
X-18050Y51047D01*
Y51121D02*
X-18067Y51138D01*
X-17166Y52038D01*
X-17149Y52021D01*
X-18050Y51121D01*
X-18013Y51157D02*
X-17203Y52002D01*
D39*
X-38098Y77875D02*
X-37215Y78759D01*
X-37177Y78721D02*
G03*
X-37215Y78759I-19J19D01*
G01*
X-38061Y77837D02*
X-37177Y78721D01*
X-38098Y77875D02*
G03*
X-38061Y77837I19J-19D01*
G01*
X-40220Y79996D02*
X-39336Y80880D01*
X-39298Y80843D02*
G03*
X-39336Y80880I-19J19D01*
G01*
X-40182Y79959D02*
X-39298Y80843D01*
X-40220Y79996D02*
G03*
X-40182Y79959I19J-19D01*
G01*
X-38806Y78582D02*
X-37922Y79466D01*
X-37884Y79428D02*
G03*
X-37922Y79466I-19J19D01*
G01*
X-38768Y78544D02*
X-37884Y79428D01*
X-38806Y78582D02*
G03*
X-38768Y78544I19J-19D01*
G01*
X-42695Y82471D02*
X-41811Y83355D01*
X-41773Y83317D02*
G03*
X-41811Y83355I-19J19D01*
G01*
X-42657Y82434D02*
X-41773Y83317D01*
X-42695Y82471D02*
G03*
X-42657Y82434I19J-19D01*
G01*
X-37354Y74870D02*
X-36470Y73986D01*
X-36507Y73948D02*
G03*
X-36470Y73986I19J19D01*
G01*
X-37391Y74832D02*
X-36507Y73948D01*
X-37354Y74870D02*
G03*
X-37391Y74832I-19J-19D01*
G01*
X-55031Y79112D02*
X-54148Y78229D01*
X-54185Y78191D02*
G03*
X-54148Y78229I19J19D01*
G01*
X-55069Y79075D02*
X-54185Y78191D01*
X-55031Y79112D02*
G03*
X-55069Y79075I-19J-19D01*
G01*
X-45485Y66738D02*
X-44602Y65854D01*
X-44639Y65817D02*
G03*
X-44602Y65854I19J19D01*
G01*
X-45523Y66700D02*
X-44639Y65817D01*
X-45485Y66738D02*
G03*
X-45523Y66700I-19J-19D01*
G01*
X-45132Y67092D02*
X-44248Y66208D01*
X-44286Y66170D02*
G03*
X-44248Y66208I19J19D01*
G01*
X-45170Y67054D02*
X-44286Y66170D01*
X-45132Y67092D02*
G03*
X-45170Y67054I-19J-19D01*
G01*
X-44778Y67445D02*
X-43895Y66561D01*
X-43932Y66524D02*
G03*
X-43895Y66561I19J19D01*
G01*
X-44816Y67408D02*
X-43932Y66524D01*
X-44778Y67445D02*
G03*
X-44816Y67408I-19J-19D01*
G01*
X-44389Y67799D02*
X-43506Y66915D01*
X-43543Y66877D02*
G03*
X-43506Y66915I19J19D01*
G01*
X-44427Y67761D02*
X-43543Y66877D01*
X-44389Y67799D02*
G03*
X-44427Y67761I-19J-19D01*
G01*
X-44071Y68152D02*
X-43187Y67268D01*
X-43225Y67231D02*
G03*
X-43187Y67268I19J19D01*
G01*
X-44109Y68115D02*
X-43225Y67231D01*
X-44071Y68152D02*
G03*
X-44109Y68115I-19J-19D01*
G01*
X-43718Y68506D02*
X-42834Y67622D01*
X-42871Y67584D02*
G03*
X-42834Y67622I19J19D01*
G01*
X-43755Y68468D02*
X-42871Y67584D01*
X-43718Y68506D02*
G03*
X-43755Y68468I-19J-19D01*
G01*
X-43364Y68859D02*
X-42480Y67975D01*
X-42518Y67938D02*
G03*
X-42480Y67975I19J19D01*
G01*
X-43402Y68822D02*
X-42518Y67938D01*
X-43364Y68859D02*
G03*
X-43402Y68822I-19J-19D01*
G01*
X-43011Y69213D02*
X-42127Y68329D01*
X-42164Y68291D02*
G03*
X-42127Y68329I19J19D01*
G01*
X-43048Y69175D02*
X-42164Y68291D01*
X-43011Y69213D02*
G03*
X-43048Y69175I-19J-19D01*
G01*
X-42657Y69566D02*
X-41773Y68683D01*
X-41811Y68645D02*
G03*
X-41773Y68683I19J19D01*
G01*
X-42695Y69529D02*
X-41811Y68645D01*
X-42657Y69566D02*
G03*
X-42695Y69529I-19J-19D01*
G01*
X-42304Y69920D02*
X-41420Y69036D01*
X-41457Y68999D02*
G03*
X-41420Y69036I19J19D01*
G01*
X-42341Y69882D02*
X-41457Y68999D01*
X-42304Y69920D02*
G03*
X-42341Y69882I-19J-19D01*
G01*
X-41950Y70274D02*
X-41066Y69390D01*
X-41104Y69352D02*
G03*
X-41066Y69390I19J19D01*
G01*
X-41988Y70236D02*
X-41104Y69352D01*
X-41950Y70274D02*
G03*
X-41988Y70236I-19J-19D01*
G01*
X-41596Y70627D02*
X-40713Y69743D01*
X-40750Y69706D02*
G03*
X-40713Y69743I19J19D01*
G01*
X-41634Y70590D02*
X-40750Y69706D01*
X-41596Y70627D02*
G03*
X-41634Y70590I-19J-19D01*
G01*
X-41243Y70981D02*
X-40359Y70097D01*
X-40397Y70059D02*
G03*
X-40359Y70097I19J19D01*
G01*
X-41280Y70943D02*
X-40397Y70059D01*
X-41243Y70981D02*
G03*
X-41280Y70943I-19J-19D01*
G01*
X-40889Y71334D02*
X-40005Y70450D01*
X-40043Y70413D02*
G03*
X-40005Y70450I19J19D01*
G01*
X-40927Y71297D02*
X-40043Y70413D01*
X-40889Y71334D02*
G03*
X-40927Y71297I-19J-19D01*
G01*
X-40536Y71688D02*
X-39652Y70804D01*
X-39689Y70766D02*
G03*
X-39652Y70804I19J19D01*
G01*
X-40573Y71650D02*
X-39689Y70766D01*
X-40536Y71688D02*
G03*
X-40573Y71650I-19J-19D01*
G01*
X-40182Y72041D02*
X-39298Y71157D01*
X-39336Y71120D02*
G03*
X-39298Y71157I19J19D01*
G01*
X-40220Y72004D02*
X-39336Y71120D01*
X-40182Y72041D02*
G03*
X-40220Y72004I-19J-19D01*
G01*
X-39829Y72395D02*
X-38945Y71511D01*
X-38982Y71473D02*
G03*
X-38945Y71511I19J19D01*
G01*
X-39866Y72357D02*
X-38982Y71473D01*
X-39829Y72395D02*
G03*
X-39866Y72357I-19J-19D01*
G01*
X-39475Y72748D02*
X-38591Y71865D01*
X-38629Y71827D02*
G03*
X-38591Y71865I19J19D01*
G01*
X-39513Y72711D02*
X-38629Y71827D01*
X-39475Y72748D02*
G03*
X-39513Y72711I-19J-19D01*
G01*
X-39086Y73102D02*
X-38202Y72218D01*
X-38240Y72180D02*
G03*
X-38202Y72218I19J19D01*
G01*
X-39124Y73064D02*
X-38240Y72180D01*
X-39086Y73102D02*
G03*
X-39124Y73064I-19J-19D01*
G01*
X-38768Y73456D02*
X-37884Y72572D01*
X-37922Y72534D02*
G03*
X-37884Y72572I19J19D01*
G01*
X-38806Y73418D02*
X-37922Y72534D01*
X-38768Y73456D02*
G03*
X-38806Y73418I-19J-19D01*
G01*
X-38414Y73809D02*
X-37531Y72925D01*
X-37568Y72888D02*
G03*
X-37531Y72925I19J19D01*
G01*
X-38452Y73772D02*
X-37568Y72888D01*
X-38414Y73809D02*
G03*
X-38452Y73772I-19J-19D01*
G01*
X-38061Y74163D02*
X-37177Y73279D01*
X-37215Y73241D02*
G03*
X-37177Y73279I19J19D01*
G01*
X-38098Y74125D02*
X-37215Y73241D01*
X-38061Y74163D02*
G03*
X-38098Y74125I-19J-19D01*
G01*
X-37707Y74516D02*
X-36823Y73632D01*
X-36861Y73595D02*
G03*
X-36823Y73632I19J19D01*
G01*
X-37745Y74479D02*
X-36861Y73595D01*
X-37707Y74516D02*
G03*
X-37745Y74479I-19J-19D01*
G01*
X-37000Y75223D02*
X-36116Y74339D01*
X-36154Y74302D02*
G03*
X-36116Y74339I19J19D01*
G01*
X-37038Y75186D02*
X-36154Y74302D01*
X-37000Y75223D02*
G03*
X-37038Y75186I-19J-19D01*
G01*
X-56483Y74339D02*
X-55599Y75223D01*
X-55562Y75186D02*
G03*
X-55599Y75223I-19J19D01*
G01*
X-56446Y74302D02*
X-55562Y75186D01*
X-56483Y74339D02*
G03*
X-56446Y74302I19J-19D01*
G01*
X-56130Y73986D02*
X-55246Y74870D01*
X-55208Y74832D02*
G03*
X-55246Y74870I-19J19D01*
G01*
X-56092Y73948D02*
X-55208Y74832D01*
X-56130Y73986D02*
G03*
X-56092Y73948I19J-19D01*
G01*
X-55776Y73632D02*
X-54892Y74516D01*
X-54855Y74479D02*
G03*
X-54892Y74516I-19J19D01*
G01*
X-55739Y73595D02*
X-54855Y74479D01*
X-55776Y73632D02*
G03*
X-55739Y73595I19J-19D01*
G01*
X-55423Y73279D02*
X-54539Y74163D01*
X-54501Y74125D02*
G03*
X-54539Y74163I-19J19D01*
G01*
X-55385Y73241D02*
X-54501Y74125D01*
X-55423Y73279D02*
G03*
X-55385Y73241I19J-19D01*
G01*
X-55069Y72925D02*
X-54185Y73809D01*
X-54148Y73771D02*
G03*
X-54185Y73809I-19J19D01*
G01*
X-55031Y72888D02*
X-54148Y73771D01*
X-55069Y72925D02*
G03*
X-55031Y72888I19J-19D01*
G01*
X-54715Y72572D02*
X-53832Y73456D01*
X-53794Y73418D02*
G03*
X-53832Y73456I-19J19D01*
G01*
X-54678Y72534D02*
X-53794Y73418D01*
X-54715Y72572D02*
G03*
X-54678Y72534I19J-19D01*
G01*
X-54362Y72218D02*
X-53478Y73102D01*
X-53440Y73064D02*
G03*
X-53478Y73102I-19J19D01*
G01*
X-54324Y72180D02*
X-53440Y73064D01*
X-54362Y72218D02*
G03*
X-54324Y72180I19J-19D01*
G01*
X-54008Y71865D02*
X-53125Y72748D01*
X-53087Y72711D02*
G03*
X-53125Y72748I-19J19D01*
G01*
X-53971Y71827D02*
X-53087Y72711D01*
X-54008Y71865D02*
G03*
X-53971Y71827I19J-19D01*
G01*
X-53655Y71511D02*
X-52771Y72395D01*
X-52733Y72357D02*
G03*
X-52771Y72395I-19J19D01*
G01*
X-53617Y71473D02*
X-52733Y72357D01*
X-53655Y71511D02*
G03*
X-53617Y71473I19J-19D01*
G01*
X-53301Y71157D02*
X-52417Y72041D01*
X-52380Y72004D02*
G03*
X-52417Y72041I-19J19D01*
G01*
X-53264Y71120D02*
X-52380Y72004D01*
X-53301Y71157D02*
G03*
X-53264Y71120I19J-19D01*
G01*
X-52948Y70804D02*
X-52064Y71688D01*
X-52026Y71650D02*
G03*
X-52064Y71688I-19J19D01*
G01*
X-52910Y70766D02*
X-52026Y71650D01*
X-52948Y70804D02*
G03*
X-52910Y70766I19J-19D01*
G01*
X-52594Y70450D02*
X-51710Y71334D01*
X-51673Y71297D02*
G03*
X-51710Y71334I-19J19D01*
G01*
X-52557Y70413D02*
X-51673Y71297D01*
X-52594Y70450D02*
G03*
X-52557Y70413I19J-19D01*
G01*
X-52241Y70097D02*
X-51357Y70981D01*
X-51319Y70943D02*
G03*
X-51357Y70981I-19J19D01*
G01*
X-52203Y70059D02*
X-51319Y70943D01*
X-52241Y70097D02*
G03*
X-52203Y70059I19J-19D01*
G01*
X-51887Y69743D02*
X-51003Y70627D01*
X-50966Y70590D02*
G03*
X-51003Y70627I-19J19D01*
G01*
X-51849Y69706D02*
X-50966Y70590D01*
X-51887Y69743D02*
G03*
X-51849Y69706I19J-19D01*
G01*
X-51534Y69390D02*
X-50650Y70274D01*
X-50612Y70236D02*
G03*
X-50650Y70274I-19J19D01*
G01*
X-51496Y69352D02*
X-50612Y70236D01*
X-51534Y69390D02*
G03*
X-51496Y69352I19J-19D01*
G01*
X-51180Y69036D02*
X-50296Y69920D01*
X-50258Y69882D02*
G03*
X-50296Y69920I-19J19D01*
G01*
X-51142Y68999D02*
X-50258Y69882D01*
X-51180Y69036D02*
G03*
X-51142Y68999I19J-19D01*
G01*
X-50826Y68683D02*
X-49943Y69566D01*
X-49905Y69529D02*
G03*
X-49943Y69566I-19J19D01*
G01*
X-50789Y68645D02*
X-49905Y69529D01*
X-50826Y68683D02*
G03*
X-50789Y68645I19J-19D01*
G01*
X-50473Y68329D02*
X-49589Y69213D01*
X-49551Y69175D02*
G03*
X-49589Y69213I-19J19D01*
G01*
X-50435Y68291D02*
X-49551Y69175D01*
X-50473Y68329D02*
G03*
X-50435Y68291I19J-19D01*
G01*
X-49412Y67268D02*
X-48528Y68152D01*
X-48491Y68115D02*
G03*
X-48528Y68152I-19J19D01*
G01*
X-49375Y67231D02*
X-48491Y68115D01*
X-49412Y67268D02*
G03*
X-49375Y67231I19J-19D01*
G01*
X-49059Y66915D02*
X-48175Y67799D01*
X-48137Y67761D02*
G03*
X-48175Y67799I-19J19D01*
G01*
X-49021Y66877D02*
X-48137Y67761D01*
X-49059Y66915D02*
G03*
X-49021Y66877I19J-19D01*
G01*
X-48705Y66561D02*
X-47821Y67445D01*
X-47784Y67408D02*
G03*
X-47821Y67445I-19J19D01*
G01*
X-48668Y66524D02*
X-47784Y67408D01*
X-48705Y66561D02*
G03*
X-48668Y66524I19J-19D01*
G01*
X-48352Y66208D02*
X-47468Y67092D01*
X-47430Y67054D02*
G03*
X-47468Y67092I-19J19D01*
G01*
X-48314Y66170D02*
X-47430Y67054D01*
X-48352Y66208D02*
G03*
X-48314Y66170I19J-19D01*
G01*
X-47998Y65854D02*
X-47114Y66738D01*
X-47076Y66700D02*
G03*
X-47114Y66738I-19J19D01*
G01*
X-47960Y65817D02*
X-47076Y66700D01*
X-47998Y65854D02*
G03*
X-47960Y65817I19J-19D01*
G01*
X-47960Y86183D02*
X-47076Y85300D01*
X-47114Y85262D02*
G03*
X-47076Y85300I19J19D01*
G01*
X-47998Y86146D02*
X-47114Y85262D01*
X-47960Y86183D02*
G03*
X-47998Y86146I-19J-19D01*
G01*
X-48314Y85830D02*
X-47430Y84946D01*
X-47468Y84908D02*
G03*
X-47430Y84946I19J19D01*
G01*
X-48352Y85792D02*
X-47468Y84908D01*
X-48314Y85830D02*
G03*
X-48352Y85792I-19J-19D01*
G01*
X-48667Y85476D02*
X-47784Y84592D01*
X-47821Y84555D02*
G03*
X-47784Y84592I19J19D01*
G01*
X-48705Y85439D02*
X-47821Y84555D01*
X-48667Y85476D02*
G03*
X-48705Y85439I-19J-19D01*
G01*
X-49021Y85123D02*
X-48137Y84239D01*
X-48175Y84201D02*
G03*
X-48137Y84239I19J19D01*
G01*
X-49059Y85085D02*
X-48175Y84201D01*
X-49021Y85123D02*
G03*
X-49059Y85085I-19J-19D01*
G01*
X-49375Y84769D02*
X-48491Y83885D01*
X-48528Y83848D02*
G03*
X-48491Y83885I19J19D01*
G01*
X-49412Y84732D02*
X-48528Y83848D01*
X-49375Y84769D02*
G03*
X-49412Y84732I-19J-19D01*
G01*
X-49728Y84416D02*
X-48844Y83532D01*
X-48882Y83494D02*
G03*
X-48844Y83532I19J19D01*
G01*
X-49766Y84378D02*
X-48882Y83494D01*
X-49728Y84416D02*
G03*
X-49766Y84378I-19J-19D01*
G01*
X-50082Y84062D02*
X-49198Y83178D01*
X-49235Y83141D02*
G03*
X-49198Y83178I19J19D01*
G01*
X-50119Y84025D02*
X-49235Y83141D01*
X-50082Y84062D02*
G03*
X-50119Y84025I-19J-19D01*
G01*
X-50435Y83709D02*
X-49551Y82825D01*
X-49589Y82787D02*
G03*
X-49551Y82825I19J19D01*
G01*
X-50473Y83671D02*
X-49589Y82787D01*
X-50435Y83709D02*
G03*
X-50473Y83671I-19J-19D01*
G01*
X-50789Y83355D02*
X-49905Y82471D01*
X-49943Y82434D02*
G03*
X-49905Y82471I19J19D01*
G01*
X-50826Y83317D02*
X-49943Y82434D01*
X-50789Y83355D02*
G03*
X-50826Y83317I-19J-19D01*
G01*
X-51142Y83001D02*
X-50258Y82118D01*
X-50296Y82080D02*
G03*
X-50258Y82118I19J19D01*
G01*
X-51180Y82964D02*
X-50296Y82080D01*
X-51142Y83001D02*
G03*
X-51180Y82964I-19J-19D01*
G01*
X-51496Y82648D02*
X-50612Y81764D01*
X-50650Y81726D02*
G03*
X-50612Y81764I19J19D01*
G01*
X-51534Y82610D02*
X-50650Y81726D01*
X-51496Y82648D02*
G03*
X-51534Y82610I-19J-19D01*
G01*
X-51849Y82294D02*
X-50966Y81410D01*
X-51003Y81373D02*
G03*
X-50966Y81410I19J19D01*
G01*
X-51887Y82257D02*
X-51003Y81373D01*
X-51849Y82294D02*
G03*
X-51887Y82257I-19J-19D01*
G01*
X-52203Y81941D02*
X-51319Y81057D01*
X-51357Y81019D02*
G03*
X-51319Y81057I19J19D01*
G01*
X-52241Y81903D02*
X-51357Y81019D01*
X-52203Y81941D02*
G03*
X-52241Y81903I-19J-19D01*
G01*
X-52557Y81587D02*
X-51673Y80703D01*
X-51710Y80666D02*
G03*
X-51673Y80703I19J19D01*
G01*
X-52594Y81550D02*
X-51710Y80666D01*
X-52557Y81587D02*
G03*
X-52594Y81550I-19J-19D01*
G01*
X-52910Y81234D02*
X-52026Y80350D01*
X-52064Y80312D02*
G03*
X-52026Y80350I19J19D01*
G01*
X-52948Y81196D02*
X-52064Y80312D01*
X-52910Y81234D02*
G03*
X-52948Y81196I-19J-19D01*
G01*
X-53264Y80880D02*
X-52380Y79996D01*
X-52417Y79959D02*
G03*
X-52380Y79996I19J19D01*
G01*
X-53301Y80843D02*
X-52417Y79959D01*
X-53264Y80880D02*
G03*
X-53301Y80843I-19J-19D01*
G01*
X-53617Y80527D02*
X-52733Y79643D01*
X-52771Y79605D02*
G03*
X-52733Y79643I19J19D01*
G01*
X-53655Y80489D02*
X-52771Y79605D01*
X-53617Y80527D02*
G03*
X-53655Y80489I-19J-19D01*
G01*
X-53971Y80173D02*
X-53087Y79289D01*
X-53125Y79252D02*
G03*
X-53087Y79289I19J19D01*
G01*
X-54008Y80135D02*
X-53125Y79252D01*
X-53971Y80173D02*
G03*
X-54008Y80135I-19J-19D01*
G01*
X-54324Y79820D02*
X-53440Y78936D01*
X-53478Y78898D02*
G03*
X-53440Y78936I19J19D01*
G01*
X-54362Y79782D02*
X-53478Y78898D01*
X-54324Y79820D02*
G03*
X-54362Y79782I-19J-19D01*
G01*
X-54678Y79466D02*
X-53794Y78582D01*
X-53832Y78544D02*
G03*
X-53794Y78582I19J19D01*
G01*
X-54716Y79428D02*
X-53832Y78544D01*
X-54678Y79466D02*
G03*
X-54716Y79428I-19J-19D01*
G01*
X-55385Y78759D02*
X-54501Y77875D01*
X-54539Y77837D02*
G03*
X-54501Y77875I19J19D01*
G01*
X-55423Y78721D02*
X-54539Y77837D01*
X-55385Y78759D02*
G03*
X-55423Y78721I-19J-19D01*
G01*
X-55739Y78405D02*
X-54855Y77521D01*
X-54892Y77484D02*
G03*
X-54855Y77521I19J19D01*
G01*
X-55776Y78368D02*
X-54892Y77484D01*
X-55739Y78405D02*
G03*
X-55776Y78368I-19J-19D01*
G01*
X-56092Y78052D02*
X-55208Y77168D01*
X-55246Y77130D02*
G03*
X-55208Y77168I19J19D01*
G01*
X-56130Y78014D02*
X-55246Y77130D01*
X-56092Y78052D02*
G03*
X-56130Y78014I-19J-19D01*
G01*
X-56446Y77698D02*
X-55562Y76814D01*
X-55599Y76777D02*
G03*
X-55562Y76814I19J19D01*
G01*
X-56483Y77661D02*
X-55599Y76777D01*
X-56446Y77698D02*
G03*
X-56483Y77661I-19J-19D01*
G01*
X-37391Y77168D02*
X-36507Y78052D01*
X-36470Y78014D02*
G03*
X-36507Y78052I-19J19D01*
G01*
X-37354Y77130D02*
X-36470Y78014D01*
X-37391Y77168D02*
G03*
X-37354Y77130I19J-19D01*
G01*
X-37745Y77521D02*
X-36861Y78405D01*
X-36823Y78368D02*
G03*
X-36861Y78405I-19J19D01*
G01*
X-37707Y77484D02*
X-36823Y78368D01*
X-37745Y77521D02*
G03*
X-37707Y77484I19J-19D01*
G01*
X-38452Y78229D02*
X-37568Y79112D01*
X-37531Y79075D02*
G03*
X-37568Y79112I-19J19D01*
G01*
X-38414Y78191D02*
X-37531Y79075D01*
X-38452Y78229D02*
G03*
X-38414Y78191I19J-19D01*
G01*
X-39159Y78936D02*
X-38275Y79820D01*
X-38238Y79782D02*
G03*
X-38275Y79820I-19J19D01*
G01*
X-39122Y78898D02*
X-38238Y79782D01*
X-39159Y78936D02*
G03*
X-39122Y78898I19J-19D01*
G01*
X-39513Y79289D02*
X-38629Y80173D01*
X-38591Y80135D02*
G03*
X-38629Y80173I-19J19D01*
G01*
X-39475Y79252D02*
X-38591Y80135D01*
X-39513Y79289D02*
G03*
X-39475Y79252I19J-19D01*
G01*
X-39866Y79643D02*
X-38982Y80527D01*
X-38945Y80489D02*
G03*
X-38982Y80527I-19J19D01*
G01*
X-39829Y79605D02*
X-38945Y80489D01*
X-39866Y79643D02*
G03*
X-39829Y79605I19J-19D01*
G01*
X-40573Y80350D02*
X-39689Y81234D01*
X-39652Y81196D02*
G03*
X-39689Y81234I-19J19D01*
G01*
X-40536Y80312D02*
X-39652Y81196D01*
X-40573Y80350D02*
G03*
X-40536Y80312I19J-19D01*
G01*
X-40927Y80703D02*
X-40043Y81587D01*
X-40005Y81550D02*
G03*
X-40043Y81587I-19J19D01*
G01*
X-40889Y80666D02*
X-40005Y81550D01*
X-40927Y80703D02*
G03*
X-40889Y80666I19J-19D01*
G01*
X-41280Y81057D02*
X-40397Y81941D01*
X-40359Y81903D02*
G03*
X-40397Y81941I-19J19D01*
G01*
X-41243Y81019D02*
X-40359Y81903D01*
X-41280Y81057D02*
G03*
X-41243Y81019I19J-19D01*
G01*
X-41634Y81410D02*
X-40750Y82294D01*
X-40713Y82257D02*
G03*
X-40750Y82294I-19J19D01*
G01*
X-41596Y81373D02*
X-40713Y82257D01*
X-41634Y81410D02*
G03*
X-41596Y81373I19J-19D01*
G01*
X-41988Y81764D02*
X-41104Y82648D01*
X-41066Y82610D02*
G03*
X-41104Y82648I-19J19D01*
G01*
X-41950Y81726D02*
X-41066Y82610D01*
X-41988Y81764D02*
G03*
X-41950Y81726I19J-19D01*
G01*
X-42341Y82118D02*
X-41457Y83001D01*
X-41420Y82964D02*
G03*
X-41457Y83001I-19J19D01*
G01*
X-42304Y82080D02*
X-41420Y82964D01*
X-42341Y82118D02*
G03*
X-42304Y82080I19J-19D01*
G01*
X-43048Y82825D02*
X-42164Y83709D01*
X-42127Y83671D02*
G03*
X-42164Y83709I-19J19D01*
G01*
X-43011Y82787D02*
X-42127Y83671D01*
X-43048Y82825D02*
G03*
X-43011Y82787I19J-19D01*
G01*
X-43402Y83178D02*
X-42518Y84062D01*
X-42480Y84025D02*
G03*
X-42518Y84062I-19J19D01*
G01*
X-43364Y83141D02*
X-42480Y84025D01*
X-43402Y83178D02*
G03*
X-43364Y83141I19J-19D01*
G01*
X-43755Y83532D02*
X-42871Y84416D01*
X-42834Y84378D02*
G03*
X-42871Y84416I-19J19D01*
G01*
X-43718Y83494D02*
X-42834Y84378D01*
X-43755Y83532D02*
G03*
X-43718Y83494I19J-19D01*
G01*
X-44109Y83885D02*
X-43225Y84769D01*
X-43187Y84732D02*
G03*
X-43225Y84769I-19J19D01*
G01*
X-44071Y83848D02*
X-43187Y84732D01*
X-44109Y83885D02*
G03*
X-44071Y83848I19J-19D01*
G01*
X-44462Y84239D02*
X-43579Y85123D01*
X-43541Y85085D02*
G03*
X-43579Y85123I-19J19D01*
G01*
X-44425Y84201D02*
X-43541Y85085D01*
X-44462Y84239D02*
G03*
X-44425Y84201I19J-19D01*
G01*
X-44816Y84592D02*
X-43932Y85476D01*
X-43895Y85439D02*
G03*
X-43932Y85476I-19J19D01*
G01*
X-44778Y84555D02*
X-43895Y85439D01*
X-44816Y84592D02*
G03*
X-44778Y84555I19J-19D01*
G01*
X-45523Y85300D02*
X-44639Y86183D01*
X-44602Y86146D02*
G03*
X-44639Y86183I-19J19D01*
G01*
X-45486Y85262D02*
X-44602Y86146D01*
X-45523Y85300D02*
G03*
X-45486Y85262I19J-19D01*
G01*
X-49766Y67622D02*
X-48882Y68506D01*
X-48844Y68468D02*
G03*
X-48882Y68506I-19J19D01*
G01*
X-49728Y67584D02*
X-48844Y68468D01*
X-49766Y67622D02*
G03*
X-49728Y67584I19J-19D01*
G01*
X-50119Y67975D02*
X-49235Y68859D01*
X-49198Y68822D02*
G03*
X-49235Y68859I-19J19D01*
G01*
X-50082Y67938D02*
X-49198Y68822D01*
X-50119Y67975D02*
G03*
X-50082Y67938I19J-19D01*
G01*
X-45170Y84946D02*
X-44286Y85830D01*
X-44248Y85792D02*
G03*
X-44286Y85830I-19J19D01*
G01*
X-45132Y84908D02*
X-44248Y85792D01*
X-45170Y84946D02*
G03*
X-45132Y84908I19J-19D01*
G01*
D73*
X94808Y37407D02*
D03*
X97608Y37407D02*
D03*
X94808Y40207D02*
D03*
X97608Y40207D02*
D03*
X-58400Y31600D02*
D03*
X65359Y60207D02*
D03*
X68159Y60207D02*
D03*
X12917Y95401D02*
D03*
X15717Y95401D02*
D03*
X12917Y92093D02*
D03*
X15717Y92093D02*
D03*
X12917Y88785D02*
D03*
X15717D02*
D03*
X12917Y85477D02*
D03*
X15717D02*
D03*
X12917Y82169D02*
D03*
X15717D02*
D03*
X12917Y78861D02*
D03*
X15717Y78861D02*
D03*
X12917Y75553D02*
D03*
X15717D02*
D03*
X50192Y73543D02*
D03*
X47392D02*
D03*
X50142Y70293D02*
D03*
X47342Y70293D02*
D03*
X52467Y57907D02*
D03*
X55267Y57907D02*
D03*
X66492Y73843D02*
D03*
X63692D02*
D03*
X55692Y81243D02*
D03*
X52892D02*
D03*
X52467Y60957D02*
D03*
X55267Y60957D02*
D03*
X55342Y54793D02*
D03*
X52542D02*
D03*
X67723Y78099D02*
D03*
X70523D02*
D03*
X70055Y63351D02*
D03*
X67255D02*
D03*
X67249Y66199D02*
D03*
X70049Y66199D02*
D03*
X64792Y68993D02*
D03*
X61992D02*
D03*
X55292Y64043D02*
D03*
X52492D02*
D03*
X62547Y60242D02*
D03*
X59747Y60242D02*
D03*
X-38591Y52004D02*
D03*
X-41391Y52004D02*
D03*
X-35091D02*
D03*
X-32291Y52004D02*
D03*
X589Y50498D02*
D03*
X3389Y50498D02*
D03*
X-79800Y102600D02*
D03*
X-77000D02*
D03*
X-77900Y78000D02*
D03*
X-80700Y78000D02*
D03*
X-77897Y72003D02*
D03*
X-80697D02*
D03*
X-80705Y69388D02*
D03*
X-77905D02*
D03*
X-80700Y66700D02*
D03*
X-77900Y66700D02*
D03*
X-80700Y59900D02*
D03*
X-77900D02*
D03*
X-64103Y34297D02*
D03*
X-66903Y34297D02*
D03*
X-64097Y31503D02*
D03*
X-66897D02*
D03*
X-64103Y28897D02*
D03*
X-66903Y28897D02*
D03*
X-64097Y26203D02*
D03*
X-66897D02*
D03*
X-64103Y23597D02*
D03*
X-66903D02*
D03*
X-64103Y18297D02*
D03*
X-66903D02*
D03*
X-64103Y15697D02*
D03*
X-66903Y15697D02*
D03*
X-64103Y10497D02*
D03*
X-66903Y10497D02*
D03*
X-58397Y36903D02*
D03*
X-61197D02*
D03*
Y34303D02*
D03*
X-58397D02*
D03*
X-61200Y31600D02*
D03*
X-58397Y28903D02*
D03*
X-61197D02*
D03*
X-61200Y26200D02*
D03*
X-58400D02*
D03*
X-58403Y23597D02*
D03*
X-61203D02*
D03*
X-61200Y20900D02*
D03*
X-58400D02*
D03*
X-58403Y18297D02*
D03*
X-61203D02*
D03*
X-61197Y15703D02*
D03*
X-58397D02*
D03*
X-61200Y13100D02*
D03*
X-58400D02*
D03*
X-61197Y10503D02*
D03*
X-58397D02*
D03*
X-61200Y7900D02*
D03*
X-58400D02*
D03*
X3391Y45496D02*
D03*
X591Y45496D02*
D03*
X589Y42798D02*
D03*
X3389Y42798D02*
D03*
X-46809Y45996D02*
D03*
X-44009Y45996D02*
D03*
X-38387Y46007D02*
D03*
X-41187Y46007D02*
D03*
X-42959Y34396D02*
D03*
X-40159Y34396D02*
D03*
X-40141Y31604D02*
D03*
X-42941Y31604D02*
D03*
X-32791Y46004D02*
D03*
X-35591Y46004D02*
D03*
X-34941Y34404D02*
D03*
X-37741Y34404D02*
D03*
X-34941Y31604D02*
D03*
X-37741Y31604D02*
D03*
X-46609Y19996D02*
D03*
X-43809Y19996D02*
D03*
X-37700Y20004D02*
D03*
X-40500Y20004D02*
D03*
X-48287Y16207D02*
D03*
X-51087Y16207D02*
D03*
X-32491Y20004D02*
D03*
X-35291Y20004D02*
D03*
X-21791Y44604D02*
D03*
X-18991D02*
D03*
X-19009Y42296D02*
D03*
X-21809Y42296D02*
D03*
X-21500Y13200D02*
D03*
X-24300D02*
D03*
X-9300Y3000D02*
D03*
X-6500D02*
D03*
X-22400Y-700D02*
D03*
X-25200D02*
D03*
X-8200Y-100D02*
D03*
X-11000D02*
D03*
X-14600Y5500D02*
D03*
X-17400Y5500D02*
D03*
X-47291Y52004D02*
D03*
X-44491Y52004D02*
D03*
X3391Y48196D02*
D03*
X591Y48196D02*
D03*
X109650Y85250D02*
D03*
X106850D02*
D03*
X103950Y95650D02*
D03*
X101150D02*
D03*
X106650D02*
D03*
X109450D02*
D03*
X103950Y85250D02*
D03*
X101150D02*
D03*
X97379Y6294D02*
D03*
X94579D02*
D03*
X95000Y32600D02*
D03*
X92200D02*
D03*
X100600Y32200D02*
D03*
X97800D02*
D03*
X92100Y12500D02*
D03*
X94900D02*
D03*
X93850Y-750D02*
D03*
X96650D02*
D03*
X104550Y-550D02*
D03*
X107350D02*
D03*
X-15603Y92597D02*
D03*
X-18403D02*
D03*
X-77905Y62688D02*
D03*
X-80705D02*
D03*
D74*
X101950Y36225D02*
D03*
X100050D02*
D03*
X101000Y38375D02*
D03*
X101950D02*
D03*
X-20350Y85675D02*
D03*
X-18450D02*
D03*
Y83525D02*
D03*
X-19400D02*
D03*
X-20350D02*
D03*
D75*
X100050Y38375D02*
D03*
D76*
X-78500Y98100D02*
D03*
X-79450Y100300D02*
D03*
X-77550D02*
D03*
X-24050Y100900D02*
D03*
X-22150D02*
D03*
X-23100Y103100D02*
D03*
X-26304Y31496D02*
D03*
X-27254Y33696D02*
D03*
X-25354Y33696D02*
D03*
D77*
X26943Y95654D02*
D03*
D78*
X77055Y14150D02*
D03*
D79*
X74755Y20350D02*
D03*
D80*
X77055Y20350D02*
D03*
X79355D02*
D03*
D81*
X54452Y76139D02*
D03*
X56992D02*
D03*
X58262Y70939D02*
D03*
X54452Y70939D02*
D03*
X44352Y20639D02*
D03*
Y25839D02*
D03*
X-41315Y42580D02*
D03*
Y37380D02*
D03*
X-28805Y89050D02*
D03*
X-26265D02*
D03*
X-27535D02*
D03*
X-24995Y89050D02*
D03*
X-15875Y8200D02*
D03*
X-10795D02*
D03*
X-8255Y13400D02*
D03*
X-9525D02*
D03*
X-17145D02*
D03*
D82*
X55722Y76139D02*
D03*
X58262D02*
D03*
X56992Y70939D02*
D03*
X55722D02*
D03*
X45622Y25839D02*
D03*
X46892D02*
D03*
X48162D02*
D03*
X46892Y20639D02*
D03*
X45622D02*
D03*
X48162D02*
D03*
X-38775Y37380D02*
D03*
X-40045D02*
D03*
X-37505D02*
D03*
X-40045Y42580D02*
D03*
X-38775D02*
D03*
X-37505D02*
D03*
X-24995Y83850D02*
D03*
X-26265D02*
D03*
X-27535D02*
D03*
X-28805D02*
D03*
X-10795Y13400D02*
D03*
X-12065Y13400D02*
D03*
X-13335Y13400D02*
D03*
X-14605D02*
D03*
X-17145Y8200D02*
D03*
X-14605D02*
D03*
X-13335D02*
D03*
X-12065Y8200D02*
D03*
X-15875Y13400D02*
D03*
X-9525Y8200D02*
D03*
X-8255Y8200D02*
D03*
D83*
X24192Y33643D02*
D03*
Y34913D02*
D03*
Y36183D02*
D03*
X29392Y37453D02*
D03*
Y36183D02*
D03*
Y34913D02*
D03*
X-28000Y12565D02*
D03*
Y13835D02*
D03*
X-28000Y195D02*
D03*
X-28000Y1465D02*
D03*
X-33200Y195D02*
D03*
Y1465D02*
D03*
X-28000Y8235D02*
D03*
X-28000Y9505D02*
D03*
X-28000Y6965D02*
D03*
D84*
X24192Y37453D02*
D03*
X29392Y33643D02*
D03*
X-33200Y13835D02*
D03*
X-28000Y11295D02*
D03*
X-28000Y15105D02*
D03*
X-33200Y11295D02*
D03*
Y15105D02*
D03*
Y12565D02*
D03*
X-28000Y2735D02*
D03*
X-28000Y4005D02*
D03*
X-33200Y2735D02*
D03*
Y4005D02*
D03*
Y8235D02*
D03*
X-33200Y9505D02*
D03*
X-33200Y5695D02*
D03*
X-28000D02*
D03*
X-33200Y6965D02*
D03*
D85*
X61048Y79612D02*
D03*
X61048Y82412D02*
D03*
X11864Y12795D02*
D03*
X11864Y15595D02*
D03*
X-29600Y103300D02*
D03*
Y100500D02*
D03*
X-26800D02*
D03*
Y103300D02*
D03*
X-19093Y103688D02*
D03*
X-11793Y101088D02*
D03*
X-11793Y103888D02*
D03*
X-29103Y80003D02*
D03*
Y77203D02*
D03*
X-26303Y80003D02*
D03*
X-26303Y77203D02*
D03*
X-15496Y67291D02*
D03*
X-15496Y64491D02*
D03*
X-12597Y64488D02*
D03*
Y67288D02*
D03*
X-4Y72709D02*
D03*
X-4Y75509D02*
D03*
X104Y69691D02*
D03*
X104Y66891D02*
D03*
X-3196Y92891D02*
D03*
Y90091D02*
D03*
X-2696Y69691D02*
D03*
X-2696Y66891D02*
D03*
X-3204Y52309D02*
D03*
X-3204Y55109D02*
D03*
X-74100Y102700D02*
D03*
Y99900D02*
D03*
X-58700Y102600D02*
D03*
Y99800D02*
D03*
X-46700Y101700D02*
D03*
Y104500D02*
D03*
X-75203Y70603D02*
D03*
X-75203Y73403D02*
D03*
X-69797Y44097D02*
D03*
Y46897D02*
D03*
X-67197Y44097D02*
D03*
Y46897D02*
D03*
X-46646Y38491D02*
D03*
X-46646Y41291D02*
D03*
X-44003Y41309D02*
D03*
X-44003Y38509D02*
D03*
X-35197Y38491D02*
D03*
X-35197Y41291D02*
D03*
X-32554Y41309D02*
D03*
X-32554Y38509D02*
D03*
X-31900Y34900D02*
D03*
Y32100D02*
D03*
X-26904Y44209D02*
D03*
X-26904Y41409D02*
D03*
X-26896Y36191D02*
D03*
X-26896Y38991D02*
D03*
X-16104Y42209D02*
D03*
X-16104Y45009D02*
D03*
X-19200Y10400D02*
D03*
Y13200D02*
D03*
X-5050Y12300D02*
D03*
Y15100D02*
D03*
X-38600Y6200D02*
D03*
X-38600Y3400D02*
D03*
X-22400Y6900D02*
D03*
X-22400Y4100D02*
D03*
X-2900Y9300D02*
D03*
Y6500D02*
D03*
X-46093Y31888D02*
D03*
Y34688D02*
D03*
X107044Y99462D02*
D03*
X107044Y102262D02*
D03*
X103944D02*
D03*
X103944Y99462D02*
D03*
X92200Y1800D02*
D03*
Y4600D02*
D03*
Y6400D02*
D03*
Y9200D02*
D03*
X-16103Y85803D02*
D03*
Y88603D02*
D03*
X-36997Y101697D02*
D03*
Y104497D02*
D03*
X-34697Y101697D02*
D03*
Y104497D02*
D03*
X-19093Y100888D02*
D03*
X-42406Y104498D02*
D03*
X-42406Y101698D02*
D03*
D86*
X60454Y64352D02*
D03*
X62654Y65302D02*
D03*
Y63402D02*
D03*
X-14302Y102098D02*
D03*
X-16502Y103048D02*
D03*
X-16502Y101148D02*
D03*
X-6998Y104152D02*
D03*
X-6998Y102252D02*
D03*
X-9198Y103202D02*
D03*
X96700Y2700D02*
D03*
X94500Y1750D02*
D03*
Y3650D02*
D03*
X-11195Y43596D02*
D03*
X-13395Y42646D02*
D03*
X-13395Y44546D02*
D03*
D87*
X29483Y85154D02*
D03*
X24403Y85154D02*
D03*
D88*
X54798Y20532D02*
D03*
X56830Y13928D02*
D03*
D89*
X79958Y60001D02*
D03*
X79958Y50001D02*
D03*
D90*
X63055Y24200D02*
D03*
X63055Y31700D02*
D03*
X36606Y103709D02*
D03*
X36606Y97359D02*
D03*
D91*
X55664Y30894D02*
D03*
X49314Y30894D02*
D03*
X59064Y50994D02*
D03*
X52714Y50994D02*
D03*
X19864Y34094D02*
D03*
X13514D02*
D03*
X3140Y61306D02*
D03*
X-3210D02*
D03*
D92*
X128300Y3650D02*
D03*
Y4925D02*
D03*
Y6200D02*
D03*
Y7450D02*
D03*
Y8725D02*
D03*
Y10000D02*
D03*
D93*
X-66205Y52175D02*
D03*
X-67475D02*
D03*
X-63665Y58025D02*
D03*
X-59855Y52175D02*
D03*
X-61125Y58025D02*
D03*
X-62395D02*
D03*
X-68745D02*
D03*
X-67475D02*
D03*
X-66205D02*
D03*
X-59855D02*
D03*
D94*
X-68745Y52175D02*
D03*
X-64935D02*
D03*
X-63665Y52175D02*
D03*
X-64935Y58025D02*
D03*
X-62395Y52175D02*
D03*
X-61125Y52175D02*
D03*
D95*
X-55950Y104255D02*
D03*
Y102985D02*
D03*
X-50250Y100445D02*
D03*
Y101715D02*
D03*
X-50250Y104255D02*
D03*
X-55950Y100445D02*
D03*
D96*
X-50250Y102985D02*
D03*
X-55950Y101715D02*
D03*
D97*
X-2600Y87100D02*
D03*
X2400D02*
D03*
Y83100D02*
D03*
X-2600D02*
D03*
D98*
X36555Y92350D02*
D03*
X51000Y95050D02*
D03*
X58951Y95900D02*
D03*
X61455Y36000D02*
D03*
X53911Y40961D02*
D03*
X48955Y36000D02*
D03*
X53955Y46050D02*
D03*
X13955Y38500D02*
D03*
X36455Y87150D02*
D03*
X43955Y36000D02*
D03*
X18955Y38500D02*
D03*
X56455Y36000D02*
D03*
X71300Y39286D02*
D03*
X71400Y28886D02*
D03*
X66897Y16051D02*
D03*
D99*
X92000Y40280D02*
D03*
Y37740D02*
D03*
X131791Y40299D02*
D03*
Y45299D02*
D03*
X125791Y40299D02*
D03*
X102375Y90450D02*
D03*
X103645Y93000D02*
D03*
X104915Y90450D02*
D03*
X106185Y93000D02*
D03*
X107455Y90450D02*
D03*
X108725Y93000D02*
D03*
X109995Y90450D02*
D03*
X99240Y104250D02*
D03*
X101780Y102730D02*
D03*
X109350Y104250D02*
D03*
X111860Y102730D02*
D03*
X53895Y-1490D02*
D03*
X53895Y1050D02*
D03*
X56435Y-1490D02*
D03*
X56435Y1050D02*
D03*
X58975Y-1490D02*
D03*
X58975Y1050D02*
D03*
X61515D02*
D03*
X64055Y-1490D02*
D03*
X61515D02*
D03*
X-55920Y5000D02*
D03*
X-14529Y-711D02*
D03*
X-17069D02*
D03*
X-64400Y46520D02*
D03*
Y49060D02*
D03*
Y43980D02*
D03*
Y41440D02*
D03*
X-47260Y-2040D02*
D03*
X-39640D02*
D03*
Y500D02*
D03*
X-42180Y-2040D02*
D03*
Y500D02*
D03*
X-44720D02*
D03*
X-47260D02*
D03*
X-49800Y-2040D02*
D03*
X-77425Y30000D02*
D03*
X-74880Y27465D02*
D03*
Y24925D02*
D03*
Y30005D02*
D03*
Y17305D02*
D03*
Y14765D02*
D03*
X-77420Y35085D02*
D03*
X-77420Y12225D02*
D03*
X-74880Y37625D02*
D03*
X-77420Y32545D02*
D03*
X-74880D02*
D03*
X-77420Y17305D02*
D03*
X-74880Y19845D02*
D03*
X-77420Y9685D02*
D03*
Y14765D02*
D03*
X-77420Y24925D02*
D03*
X-74880Y12225D02*
D03*
Y22385D02*
D03*
X-77420D02*
D03*
X-77425Y40150D02*
D03*
X-77420Y37625D02*
D03*
X-74880Y40165D02*
D03*
Y35085D02*
D03*
X-77420Y19845D02*
D03*
X-33300Y102100D02*
D03*
X-38300D02*
D03*
X123650Y35840D02*
D03*
Y38380D02*
D03*
Y40920D02*
D03*
Y43460D02*
D03*
X117710Y-550D02*
D03*
X115170D02*
D03*
X-77420Y27465D02*
D03*
X-44720Y-2040D02*
D03*
X-58460Y5000D02*
D03*
X7350Y8850D02*
D03*
Y7500D02*
D03*
Y92550D02*
D03*
Y93850D02*
D03*
X88500Y8850D02*
D03*
Y7500D02*
D03*
Y29800D02*
D03*
Y31100D02*
D03*
Y93550D02*
D03*
Y92250D02*
D03*
X88450Y62800D02*
D03*
Y61450D02*
D03*
D100*
X92000Y35200D02*
D03*
X125791Y45299D02*
D03*
X101105Y93000D02*
D03*
X-32500Y49100D02*
D03*
X64055Y1050D02*
D03*
X-61000Y5000D02*
D03*
X-400Y26800D02*
D03*
Y20050D02*
D03*
X500Y16000D02*
D03*
X2100Y20050D02*
D03*
X-26200Y26800D02*
D03*
X-23700D02*
D03*
X-24500Y16000D02*
D03*
X-22000D02*
D03*
X-19609Y-711D02*
D03*
X-14500Y3000D02*
D03*
X-12000D02*
D03*
X-2000Y16000D02*
D03*
X-45000Y49100D02*
D03*
X-47500D02*
D03*
X-64400Y38900D02*
D03*
X-41800Y16000D02*
D03*
X-41800Y13500D02*
D03*
Y11000D02*
D03*
Y8500D02*
D03*
Y6000D02*
D03*
X-41800Y3500D02*
D03*
X-42500Y49100D02*
D03*
X-40000D02*
D03*
X-37500D02*
D03*
X-35000D02*
D03*
X106750Y43450D02*
D03*
X101050Y2900D02*
D03*
X101050Y400D02*
D03*
X101050Y10400D02*
D03*
Y7900D02*
D03*
Y5400D02*
D03*
X91750Y43450D02*
D03*
X94250Y43450D02*
D03*
X96750Y43450D02*
D03*
X99250Y43450D02*
D03*
X101750Y43450D02*
D03*
X104250Y43450D02*
D03*
X101050Y-2100D02*
D03*
X93950Y96800D02*
D03*
X93950Y99600D02*
D03*
X91450Y99600D02*
D03*
X117250D02*
D03*
X119650D02*
D03*
X91450Y96800D02*
D03*
X117250D02*
D03*
X118350Y55600D02*
D03*
X115850D02*
D03*
X105850Y68600D02*
D03*
X103350D02*
D03*
X95850Y55600D02*
D03*
X93350D02*
D03*
X2100Y26800D02*
D03*
X-23700Y20050D02*
D03*
X-26200D02*
D03*
X-74880Y9685D02*
D03*
X119650Y96800D02*
D03*
X123650Y33300D02*
D03*
X120250Y-550D02*
D03*
X-49800Y500D02*
D03*
D101*
X30245Y22795D02*
D03*
X82700Y102000D02*
D03*
X14700D02*
D03*
X14700Y0D02*
D03*
X0Y102000D02*
D03*
X0Y0D02*
D03*
X82700D02*
D03*
X-68000D02*
D03*
Y102000D02*
D03*
D102*
X46500Y88900D02*
D03*
X46500Y103900D02*
D03*
D103*
X30246Y1795D02*
D03*
D104*
X27555Y58350D02*
D03*
X70716Y5142D02*
D03*
X46093Y15558D02*
D03*
X44816Y30792D02*
D03*
X47293Y78358D02*
D03*
X67766Y50992D02*
D03*
X33974Y35204D02*
D03*
X15343Y28658D02*
D03*
X79949Y68704D02*
D03*
Y73704D02*
D03*
X-70700Y95400D02*
D03*
Y80400D02*
D03*
X-80800Y75000D02*
D03*
X41708Y104093D02*
D03*
Y86313D02*
D03*
X29455Y82400D02*
D03*
X26955Y86400D02*
D03*
X1200Y53100D02*
D03*
X-78300Y57300D02*
D03*
X1200Y57250D02*
D03*
X-78300Y53150D02*
D03*
D105*
X68216Y5142D02*
D03*
X48593Y15558D02*
D03*
X42316Y30792D02*
D03*
X49793Y78358D02*
D03*
X65266Y50992D02*
D03*
X33974Y32704D02*
D03*
X17843Y28658D02*
D03*
X-78300Y75000D02*
D03*
X24455Y82400D02*
D03*
D106*
X-19700Y90500D02*
D03*
X-17200D02*
D03*
D107*
X-46644Y29590D02*
D03*
X-31644Y29590D02*
D03*
X-34144Y22090D02*
D03*
X-44144D02*
D03*
D108*
X92996Y61136D02*
D03*
X117986D02*
D03*
D109*
X51000Y102550D02*
D03*
X51050Y100000D02*
D03*
X58951Y101000D02*
D03*
X76300Y39286D02*
D03*
X76400Y28886D02*
D03*
X66897Y11051D02*
D03*
D110*
X104400Y24050D02*
D03*
Y19050D02*
D03*
X116900Y24130D02*
D03*
X104350Y33400D02*
D03*
X116850Y38480D02*
D03*
X104350Y38400D02*
D03*
X104350Y4900D02*
D03*
X116850Y9980D02*
D03*
X104350Y9900D02*
D03*
X127300Y15450D02*
D03*
X122220Y27950D02*
D03*
X127220D02*
D03*
X93950Y27850D02*
D03*
X99030Y15350D02*
D03*
X98950Y27850D02*
D03*
D111*
X116900Y19050D02*
D03*
X116850Y33400D02*
D03*
X116850Y4900D02*
D03*
X122220Y15450D02*
D03*
X93950Y15350D02*
D03*
D112*
X99850Y99350D02*
D03*
X111250D02*
D03*
D113*
X113450Y96350D02*
D03*
X97650D02*
D03*
D114*
X99951Y59716D02*
D03*
X109646Y62556D02*
D03*
X108261Y59716D02*
D03*
X106876Y62556D02*
D03*
X105491Y59716D02*
D03*
X104106Y62556D02*
D03*
X102721Y59716D02*
D03*
X101336Y62556D02*
D03*
D115*
X111031Y59716D02*
D03*
D116*
X-26843Y95631D02*
D03*
X-16683D02*
D03*
X-14143D02*
D03*
X-47163D02*
D03*
X-44623D02*
D03*
X-42083D02*
D03*
X-39543D02*
D03*
X-37003D02*
D03*
X-34463D02*
D03*
X-31923D02*
D03*
X-29383D02*
D03*
X-49703D02*
D03*
X-19223D02*
D03*
X-54783D02*
D03*
X-52243D02*
D03*
X-24303D02*
D03*
X-11603D02*
D03*
X-9063D02*
D03*
X-21763D02*
D03*
D117*
X-6523D02*
D03*
D118*
X10800Y92850D02*
D03*
Y88350D02*
D03*
Y83700D02*
D03*
Y79050D02*
D03*
Y74350D02*
D03*
Y97450D02*
D03*
X79368Y25850D02*
D03*
X79352Y22557D02*
D03*
X79355Y24157D02*
D03*
X71405Y57950D02*
D03*
X59105Y54850D02*
D03*
X58255Y80000D02*
D03*
D119*
X109048Y36698D02*
D03*
X120650Y43850D02*
D03*
X110950Y41900D02*
D03*
X115000Y41850D02*
D03*
X96200Y35450D02*
D03*
X106000Y36650D02*
D03*
X97950Y45950D02*
D03*
X93050D02*
D03*
X94350Y24350D02*
D03*
X94250Y18750D02*
D03*
X122700Y12100D02*
D03*
X111400Y1000D02*
D03*
X106050Y6850D02*
D03*
X110950Y22350D02*
D03*
X107050Y27850D02*
D03*
X112250Y28650D02*
D03*
X116700Y28550D02*
D03*
X121800Y31400D02*
D03*
X129700Y37950D02*
D03*
X125350Y37000D02*
D03*
X122450Y18450D02*
D03*
X113500Y18300D02*
D03*
X107600Y18250D02*
D03*
X112600Y5000D02*
D03*
X103800Y30400D02*
D03*
X98600Y34900D02*
D03*
X106850Y32950D02*
D03*
X110300Y34650D02*
D03*
X110700Y39650D02*
D03*
X107000Y39950D02*
D03*
X-25500Y49050D02*
D03*
X-7050Y83850D02*
D03*
X57255Y8700D02*
D03*
X45855Y9350D02*
D03*
X51405Y7300D02*
D03*
X52705D02*
D03*
X54005D02*
D03*
X41755Y-2150D02*
D03*
X62655Y67000D02*
D03*
X65205Y66200D02*
D03*
X70805Y60450D02*
D03*
X65255Y78150D02*
D03*
X68105Y69000D02*
D03*
X50105Y25850D02*
D03*
X59605Y76200D02*
D03*
X64205Y85400D02*
D03*
X49705Y85300D02*
D03*
X34505Y81300D02*
D03*
X60555Y71200D02*
D03*
X61055Y77550D02*
D03*
X109650Y-250D02*
D03*
X111850Y-2100D02*
D03*
X120000Y2450D02*
D03*
X124550D02*
D03*
X120050Y5800D02*
D03*
X124100Y5300D02*
D03*
X110150Y11450D02*
D03*
X110000Y2850D02*
D03*
X118850Y5250D02*
D03*
X121800Y4300D02*
D03*
X116200Y1500D02*
D03*
X123050Y1400D02*
D03*
X123000Y6300D02*
D03*
X124200Y7450D02*
D03*
X108500Y1300D02*
D03*
X108950Y7400D02*
D03*
X117500Y7350D02*
D03*
X119000Y8050D02*
D03*
X101650Y20850D02*
D03*
X106600D02*
D03*
X124550Y20550D02*
D03*
Y11600D02*
D03*
X-72750Y83750D02*
D03*
X-30950Y86150D02*
D03*
X-40300Y100550D02*
D03*
X-48450Y100400D02*
D03*
X-34950Y87200D02*
D03*
X-34150Y90950D02*
D03*
X118450Y103550D02*
D03*
X105400Y104350D02*
D03*
X-51100Y17350D02*
D03*
X-48050Y23750D02*
D03*
Y17400D02*
D03*
X-72000Y43150D02*
D03*
X-80750Y41550D02*
D03*
X-5400Y104400D02*
D03*
X-62950Y104250D02*
D03*
X-42000Y22000D02*
D03*
X-36300D02*
D03*
X-44350Y4200D02*
D03*
X93800Y10400D02*
D03*
X-28200Y16000D02*
D03*
X-7050Y13650D02*
D03*
X-49050Y62950D02*
D03*
X-51400Y62150D02*
D03*
X-52000Y42350D02*
D03*
X-62400Y38850D02*
D03*
X-46900Y60050D02*
D03*
X-70900Y58300D02*
D03*
X-68400Y42200D02*
D03*
X-71900Y51750D02*
D03*
X-47000Y58700D02*
D03*
X-74400Y57250D02*
D03*
X-74650Y50600D02*
D03*
X-68350Y50500D02*
D03*
X-45800Y57950D02*
D03*
X-72550Y55900D02*
D03*
X-72450Y48850D02*
D03*
X-61600Y55950D02*
D03*
X-60600Y46500D02*
D03*
X-59250Y63500D02*
D03*
X-68700Y95100D02*
D03*
X-60150Y64650D02*
D03*
X-68000Y96850D02*
D03*
X-50800Y98550D02*
D03*
X-62950Y98450D02*
D03*
X-49300Y99250D02*
D03*
X-46700Y104750D02*
D03*
X-65300Y95600D02*
D03*
X-18300Y52500D02*
D03*
X-7050Y52600D02*
D03*
X-11050Y51279D02*
D03*
X-12750Y55500D02*
D03*
X-15700Y53000D02*
D03*
X-12450Y49850D02*
D03*
X-3250Y12300D02*
D03*
X-20400Y13400D02*
D03*
X-22400Y2600D02*
D03*
X-21700Y88450D02*
D03*
X-31200Y88400D02*
D03*
X-27450Y91500D02*
D03*
X-31750Y91550D02*
D03*
X-44100Y100000D02*
D03*
X-31850Y100000D02*
D03*
X-25150Y99150D02*
D03*
X-45900Y99200D02*
D03*
X-67800Y34600D02*
D03*
X-72350Y34550D02*
D03*
X110600Y95400D02*
D03*
X100000D02*
D03*
X106850Y85900D02*
D03*
X103950D02*
D03*
X98650Y12250D02*
D03*
X97500Y6350D02*
D03*
X94550Y6300D02*
D03*
X91850Y10800D02*
D03*
X91850Y30650D02*
D03*
X98450Y2750D02*
D03*
X95600Y29800D02*
D03*
X96250Y8900D02*
D03*
X127300Y43600D02*
D03*
X118400Y40000D02*
D03*
X102900Y12250D02*
D03*
X117750Y12900D02*
D03*
X119600Y38400D02*
D03*
X-78400Y95400D02*
D03*
X101500Y30300D02*
D03*
X114650Y13550D02*
D03*
X97700Y13450D02*
D03*
X-44000Y8050D02*
D03*
X-37750Y12200D02*
D03*
X-34950Y29550D02*
D03*
X-42950Y29600D02*
D03*
X-73100Y6700D02*
D03*
X-53000Y37250D02*
D03*
X-33050Y36150D02*
D03*
X-68300Y9600D02*
D03*
X-68250Y14850D02*
D03*
X-68200Y17450D02*
D03*
X-62600Y18297D02*
D03*
X-70400Y18550D02*
D03*
X-61050Y48500D02*
D03*
X-63100Y93750D02*
D03*
X-62150Y92600D02*
D03*
X-60800Y91850D02*
D03*
X-59350Y91250D02*
D03*
X-58000Y90600D02*
D03*
X-56750Y89900D02*
D03*
X-55500Y89300D02*
D03*
X-54200Y88800D02*
D03*
X-27800Y61900D02*
D03*
X-29050Y19700D02*
D03*
X-29050Y60650D02*
D03*
X-7300Y8250D02*
D03*
X550D02*
D03*
X-7050Y6450D02*
D03*
X-350Y7150D02*
D03*
X-26050Y3600D02*
D03*
X-5800Y5300D02*
D03*
X-9850Y10450D02*
D03*
X-3000Y10600D02*
D03*
X-23850Y1850D02*
D03*
X-6300Y300D02*
D03*
X-30750Y19750D02*
D03*
X-4700Y43700D02*
D03*
X-6000Y43100D02*
D03*
X-7500Y43000D02*
D03*
X-8850Y41800D02*
D03*
X-34150Y28000D02*
D03*
X-26500Y30250D02*
D03*
X-46450Y35800D02*
D03*
X-55800Y36150D02*
D03*
X-54350Y17600D02*
D03*
X-45200Y23700D02*
D03*
X-32850Y23650D02*
D03*
X-7950Y59000D02*
D03*
X-6900Y60700D02*
D03*
X-5550Y62050D02*
D03*
X-5050Y63500D02*
D03*
X2000Y40150D02*
D03*
X-19800Y47450D02*
D03*
X-24300Y47700D02*
D03*
X-30400Y69300D02*
D03*
X-31300Y70300D02*
D03*
X-23350Y49100D02*
D03*
X-19750Y49000D02*
D03*
X-31300Y68300D02*
D03*
X-22350Y50400D02*
D03*
X-19650Y50450D02*
D03*
X-32400Y67350D02*
D03*
X-31350Y66250D02*
D03*
X-32400Y65250D02*
D03*
X-31300Y64200D02*
D03*
X-4900Y73350D02*
D03*
X-6150Y74400D02*
D03*
X-62550Y34297D02*
D03*
X-53000Y38750D02*
D03*
X-69300Y61200D02*
D03*
X-69350Y88350D02*
D03*
X-39350Y88000D02*
D03*
X-62350Y62200D02*
D03*
X-70450Y62350D02*
D03*
X-70300Y87250D02*
D03*
X-40350Y86700D02*
D03*
X-11600Y98550D02*
D03*
X-51000Y97100D02*
D03*
X-48350Y98100D02*
D03*
X-22100Y99350D02*
D03*
X-34955Y4000D02*
D03*
X-52400Y5950D02*
D03*
X-54350Y21000D02*
D03*
X-68100Y23550D02*
D03*
X-62547Y23700D02*
D03*
X-71000Y25600D02*
D03*
X-75350Y49400D02*
D03*
X-66150Y49450D02*
D03*
X-74550Y47850D02*
D03*
X-63100Y26200D02*
D03*
X-54400D02*
D03*
X-68150Y28850D02*
D03*
Y26250D02*
D03*
X-76650Y46700D02*
D03*
X-64950Y59900D02*
D03*
X-66150Y31550D02*
D03*
X-63300Y31500D02*
D03*
X-54300D02*
D03*
X-75400Y60150D02*
D03*
X-77650Y50300D02*
D03*
X-63650Y64300D02*
D03*
X-78100D02*
D03*
X-36000Y52000D02*
D03*
X-55850Y50700D02*
D03*
X-59850D02*
D03*
X-62200Y36900D02*
D03*
X-58400Y38400D02*
D03*
X-54350Y39950D02*
D03*
X-64850Y36750D02*
D03*
X-72750Y65800D02*
D03*
X-77300Y65900D02*
D03*
X-62650Y28897D02*
D03*
X-52000Y30200D02*
D03*
X-51950Y40700D02*
D03*
X-47950Y32600D02*
D03*
X-48950Y53900D02*
D03*
X-49000Y33950D02*
D03*
X-30300Y93100D02*
D03*
X-29450Y74000D02*
D03*
X-28350Y73250D02*
D03*
X-52050Y27900D02*
D03*
X-51000Y60600D02*
D03*
X-32150Y61950D02*
D03*
X-50050Y39550D02*
D03*
X-49600Y60300D02*
D03*
X-31200Y60850D02*
D03*
X-78150Y80400D02*
D03*
X-53700Y104800D02*
D03*
X-34850Y5950D02*
D03*
X-35600Y12100D02*
D03*
X-35100Y14300D02*
D03*
X-37650Y54350D02*
D03*
X-68750Y53400D02*
D03*
X-35300Y54450D02*
D03*
X-32700Y55800D02*
D03*
X-60300Y86450D02*
D03*
X-73800Y86050D02*
D03*
X-60250Y83400D02*
D03*
X-64300D02*
D03*
X-58600Y66950D02*
D03*
X-56300Y69350D02*
D03*
X-55400Y68250D02*
D03*
X-54300Y67150D02*
D03*
X-52950Y63000D02*
D03*
X-42500Y62950D02*
D03*
X-39600Y57000D02*
D03*
X-34050Y56800D02*
D03*
X-34100Y43400D02*
D03*
X-60250Y82000D02*
D03*
X-63450Y81850D02*
D03*
X-43550Y63900D02*
D03*
X-45400Y43900D02*
D03*
X-21900Y44550D02*
D03*
X-36900Y36850D02*
D03*
X-24850Y38500D02*
D03*
X-7800Y100100D02*
D03*
X-24700Y102900D02*
D03*
X-29600Y104800D02*
D03*
X-42600Y46007D02*
D03*
X-59050Y46400D02*
D03*
X-60100Y60100D02*
D03*
X-76150Y61350D02*
D03*
X-57250Y47000D02*
D03*
X-63900Y65800D02*
D03*
X-59950Y62300D02*
D03*
X-68050Y63150D02*
D03*
X-68200Y67700D02*
D03*
X-59750Y72600D02*
D03*
X-32300Y53250D02*
D03*
X-29600Y53250D02*
D03*
X-3600Y88750D02*
D03*
X1850Y74400D02*
D03*
X-30900Y73200D02*
D03*
X-12750Y63200D02*
D03*
X-22450Y72600D02*
D03*
X-23650Y69300D02*
D03*
X-22550Y70250D02*
D03*
X-21500Y69100D02*
D03*
X-55800Y51950D02*
D03*
X-25750Y52500D02*
D03*
X-24850Y71650D02*
D03*
X-32200Y72050D02*
D03*
X-75450Y84500D02*
D03*
X-22150Y86100D02*
D03*
X-27550Y82150D02*
D03*
X-21400D02*
D03*
X-3600Y75600D02*
D03*
X-23800Y75400D02*
D03*
X-33350Y88700D02*
D03*
X-33150Y91950D02*
D03*
X-24750Y91400D02*
D03*
X-26450Y50650D02*
D03*
X-20400Y79450D02*
D03*
X-9900Y80150D02*
D03*
X-20200Y57100D02*
D03*
X-19350Y72500D02*
D03*
X-8500Y72350D02*
D03*
X-12350Y92900D02*
D03*
X-17550Y67650D02*
D03*
X-17900Y66250D02*
D03*
X-18850Y65150D02*
D03*
X-43850Y42950D02*
D03*
X-54350Y43900D02*
D03*
X-53000Y60150D02*
D03*
X-57400Y61450D02*
D03*
X-48600Y70200D02*
D03*
X-14450Y54100D02*
D03*
X-24200Y40400D02*
D03*
X-24100Y42200D02*
D03*
X-11600Y45300D02*
D03*
X3350Y46850D02*
D03*
X-9950Y52900D02*
D03*
X-35500Y76000D02*
D03*
X-2250Y76600D02*
D03*
X-19200Y76500D02*
D03*
X-12700Y52750D02*
D03*
X-48800Y79550D02*
D03*
X-43750Y73350D02*
D03*
X-48900Y73450D02*
D03*
X-35700Y71750D02*
D03*
X-39800Y83250D02*
D03*
X-37800Y82950D02*
D03*
X-47700Y82400D02*
D03*
X-56350Y71600D02*
D03*
X-49950Y66300D02*
D03*
X-44500Y70050D02*
D03*
X-3150Y57600D02*
D03*
X-5350Y54700D02*
D03*
X-12250Y58900D02*
D03*
X-18850Y56000D02*
D03*
X-14350Y69500D02*
D03*
X-10750Y69100D02*
D03*
X-7950D02*
D03*
X-10300Y65550D02*
D03*
X-10750Y84150D02*
D03*
X-10800Y86950D02*
D03*
X-10400Y92400D02*
D03*
X-16450Y83950D02*
D03*
X-22550Y79150D02*
D03*
Y84150D02*
D03*
X-23100Y94100D02*
D03*
X-14250Y100200D02*
D03*
X-6200Y98400D02*
D03*
X-2950Y96550D02*
D03*
X1600D02*
D03*
X-850Y94100D02*
D03*
X3950Y94200D02*
D03*
X1650Y91800D02*
D03*
X3950Y89550D02*
D03*
X-2200Y79100D02*
D03*
X-4800Y80650D02*
D03*
X3600Y79300D02*
D03*
X3700Y74150D02*
D03*
X3750Y68950D02*
D03*
X3700Y64600D02*
D03*
X350Y63100D02*
D03*
X3600Y57750D02*
D03*
X3650Y53000D02*
D03*
X-26150Y46700D02*
D03*
X-15800Y47000D02*
D03*
X-3150Y49300D02*
D03*
X800Y36200D02*
D03*
X850Y31300D02*
D03*
X-26450Y28650D02*
D03*
X-35900Y8150D02*
D03*
X-38900Y10350D02*
D03*
X-36950Y27950D02*
D03*
X-39450Y25450D02*
D03*
X-42050Y28000D02*
D03*
X-45800Y15450D02*
D03*
X-39500Y14700D02*
D03*
X-46950Y10450D02*
D03*
X-51350Y11900D02*
D03*
X-54500Y-2000D02*
D03*
X-59500D02*
D03*
X-74450Y-2050D02*
D03*
X-79499D02*
D03*
X-74500Y3000D02*
D03*
X-79500Y3000D02*
D03*
X-80699Y12400D02*
D03*
X-70550Y11450D02*
D03*
X-63050Y6500D02*
D03*
X-63099Y12350D02*
D03*
X-49450Y23000D02*
D03*
Y28000D02*
D03*
X-57500Y17050D02*
D03*
Y22400D02*
D03*
X-57400Y25000D02*
D03*
X-78950Y28750D02*
D03*
Y36350D02*
D03*
X-73450Y38900D02*
D03*
X-60299Y42450D02*
D03*
X-57700Y44600D02*
D03*
X-62050Y80500D02*
D03*
X-61950Y75500D02*
D03*
X-59450Y77950D02*
D03*
X-71700Y53800D02*
D03*
X-20950Y102050D02*
D03*
X-31950Y82950D02*
D03*
Y78050D02*
D03*
X-34500Y80500D02*
D03*
X-33500Y74500D02*
D03*
X-32850Y25950D02*
D03*
X-33150Y30800D02*
D03*
X-31250Y46050D02*
D03*
X-33850Y41350D02*
D03*
X-47050Y44000D02*
D03*
X-31650Y103150D02*
D03*
X-40250Y103100D02*
D03*
X-44600D02*
D03*
X-52150Y103200D02*
D03*
X-71550Y97500D02*
D03*
X-79750Y104600D02*
D03*
X-75600Y104550D02*
D03*
X-76099Y97600D02*
D03*
X-79500Y93050D02*
D03*
X-71950Y93000D02*
D03*
X-72600Y87900D02*
D03*
X-69700Y90550D02*
D03*
X-12950Y97250D02*
D03*
X-71500Y71750D02*
D03*
X-59000Y97200D02*
D03*
X-60300Y96150D02*
D03*
X-51250Y78350D02*
D03*
X-63699Y55150D02*
D03*
X-65700Y55100D02*
D03*
X-67800Y54850D02*
D03*
X-71550Y63200D02*
D03*
X-42400Y104700D02*
D03*
X-17950Y63150D02*
D03*
X91900Y-600D02*
D03*
X98800Y-2050D02*
D03*
X96050Y4200D02*
D03*
X3700Y39450D02*
D03*
X3650Y34450D02*
D03*
X3750Y28900D02*
D03*
X-15550Y90800D02*
D03*
X-27250Y56400D02*
D03*
X-30450Y56350D02*
D03*
X-30300Y57950D02*
D03*
X-36400Y53550D02*
D03*
X-44550Y57200D02*
D03*
X-53950Y64000D02*
D03*
X-43500Y59400D02*
D03*
X-42600Y57550D02*
D03*
X-41850Y53250D02*
D03*
X-62700Y89550D02*
D03*
X-76100Y41600D02*
D03*
X-77450Y55200D02*
D03*
X-72300Y58300D02*
D03*
X-71400Y89550D02*
D03*
X-79500Y83050D02*
D03*
X-71650Y76800D02*
D03*
X-71550Y67450D02*
D03*
X-80750Y49400D02*
D03*
X-57800Y96000D02*
D03*
X-51300Y25500D02*
D03*
X-19093Y100888D02*
D03*
X-31600Y101600D02*
D03*
X-28100Y86000D02*
D03*
X-25600D02*
D03*
X-43500Y79500D02*
D03*
X-71800Y21000D02*
D03*
M02*
