%FSLAX43Y43*%
%MOMM*%
G71*
G01*
G75*
%ADD10C,0.300*%
%ADD11C,0.200*%
%ADD12R,1.600X1.800*%
%ADD13R,0.550X1.450*%
%ADD14R,0.550X1.450*%
%ADD15R,0.850X1.300*%
%ADD16C,0.063*%
%ADD17R,10.200X7.300*%
%ADD18R,3.500X2.150*%
%ADD19R,1.100X2.150*%
%ADD20R,1.100X2.150*%
%ADD21R,0.600X2.200*%
%ADD22R,0.600X2.200*%
%ADD23R,2.200X0.600*%
%ADD24R,2.200X0.600*%
%ADD25R,1.800X1.600*%
%ADD26R,1.300X0.850*%
%ADD27R,1.000X2.600*%
%ADD28R,8.000X3.500*%
%ADD29R,6.000X6.000*%
%ADD30R,4.000X3.000*%
%ADD31R,3.000X4.000*%
%ADD32O,5.000X0.600*%
%ADD33R,0.600X1.550*%
%ADD34R,0.600X1.550*%
%ADD35R,1.700X0.600*%
%ADD36R,1.700X0.600*%
%ADD37R,2.700X2.500*%
%ADD38C,1.000*%
%ADD39C,0.400*%
%ADD40C,0.250*%
%ADD41C,0.500*%
%ADD42C,0.800*%
%ADD43C,0.700*%
%ADD44C,1.500*%
%ADD45C,0.600*%
%ADD46C,2.000*%
%ADD47C,0.254*%
%ADD48R,3.000X3.000*%
%ADD49C,1.500*%
%ADD50R,1.500X1.500*%
%ADD51C,5.000*%
%ADD52C,2.400*%
%ADD53C,4.000*%
%ADD54C,2.000*%
%ADD55R,2.000X2.000*%
%ADD56C,1.300*%
%ADD57C,1.400*%
%ADD58C,5.500*%
%ADD59C,3.000*%
%ADD60C,1.800*%
%ADD61R,1.800X1.800*%
%ADD62C,3.500*%
%ADD63C,2.500*%
%ADD64C,1.690*%
%ADD65R,1.690X1.690*%
%ADD66O,1.500X2.000*%
%ADD67R,1.500X2.000*%
%ADD68C,1.200*%
%ADD69C,1.100*%
%ADD70C,0.180*%
%ADD71C,0.150*%
%ADD72C,0.480*%
%ADD73R,1.803X2.003*%
%ADD74R,0.753X1.653*%
%ADD75R,0.753X1.653*%
%ADD76R,1.053X1.503*%
%ADD77R,10.403X7.503*%
%ADD78R,3.703X2.353*%
%ADD79R,1.303X2.353*%
%ADD80R,1.303X2.353*%
%ADD81R,0.803X2.403*%
%ADD82R,0.803X2.403*%
%ADD83R,2.403X0.803*%
%ADD84R,2.403X0.803*%
%ADD85R,2.003X1.803*%
%ADD86R,1.503X1.053*%
%ADD87R,1.203X2.803*%
%ADD88R,8.203X3.703*%
%ADD89R,6.203X6.203*%
%ADD90R,4.203X3.203*%
%ADD91R,3.203X4.203*%
%ADD92O,5.203X0.803*%
%ADD93R,0.803X1.753*%
%ADD94R,0.803X1.753*%
%ADD95R,1.903X0.803*%
%ADD96R,1.903X0.803*%
%ADD97R,2.903X2.703*%
%ADD98R,3.203X3.203*%
%ADD99C,1.703*%
%ADD100R,1.703X1.703*%
%ADD101C,5.203*%
%ADD102C,2.603*%
%ADD103C,4.203*%
%ADD104C,2.203*%
%ADD105R,2.203X2.203*%
%ADD106C,1.503*%
%ADD107C,1.603*%
%ADD108C,5.703*%
%ADD109C,3.203*%
%ADD110C,2.003*%
%ADD111R,2.003X2.003*%
%ADD112C,3.703*%
%ADD113C,2.703*%
%ADD114C,1.893*%
%ADD115R,1.893X1.893*%
%ADD116O,1.703X2.203*%
%ADD117R,1.703X2.203*%
%ADD118C,1.403*%
%ADD119C,1.303*%
D10*
X122550Y-3800D02*
G03*
X122550Y-3800I0J0D01*
G01*
X123820Y-350D02*
G03*
X122550Y-1620I0J-1270D01*
G01*
X133850Y36050D02*
Y47600D01*
X129500Y36050D02*
X133850D01*
X118900Y55550D02*
X118950Y55600D01*
X8900Y-4000D02*
X86950D01*
X8950Y106500D02*
X86950D01*
X-82800D02*
X5800D01*
X-82800Y-4000D02*
Y106500D01*
Y-4000D02*
X5800D01*
X90100Y106500D02*
X121050D01*
X121050Y80950D02*
Y106500D01*
X90050Y80950D02*
X121050D01*
X121012Y64850D02*
X121050Y64812D01*
Y53450D02*
Y64812D01*
X-2000Y24950D02*
Y40500D01*
X-12050D02*
X-2000D01*
X-22000Y25000D02*
Y40500D01*
X-12000D01*
X-2000Y20000D02*
Y21950D01*
X-22000Y20000D02*
X-2000D01*
X-21950D02*
Y21950D01*
X-27700D02*
X-21950D01*
X-2000D02*
X3700D01*
X-1950Y24950D02*
X3700D01*
X-27700D02*
X-22000D01*
X117600Y64850D02*
X121012D01*
X90050Y70450D02*
X112000D01*
X90050Y-4000D02*
X120350D01*
X90150Y47550D02*
X133850D01*
X120100Y-4000D02*
X122550D01*
X122550Y-3800D02*
Y-1620D01*
X8900Y11150D02*
Y90250D01*
X5800Y11000D02*
Y90450D01*
X8950Y96150D02*
Y106500D01*
X5800Y86000D02*
Y106500D01*
X86950Y5200D02*
X86950Y5200D01*
X90050Y11000D02*
Y27500D01*
X86950Y11000D02*
Y27550D01*
X90100Y33500D02*
Y47550D01*
X86950Y33500D02*
Y59150D01*
X90050Y53450D02*
X121050D01*
X86950Y65300D02*
Y90000D01*
X90050Y80950D02*
Y89950D01*
Y96000D02*
Y106500D01*
X86950Y96000D02*
Y106500D01*
Y98450D02*
X86950Y98450D01*
X5800Y-4000D02*
Y5650D01*
X8850Y-3957D02*
Y5200D01*
X8857Y-3957D02*
X8900Y-4000D01*
X90050Y53450D02*
Y59100D01*
Y65300D02*
Y70450D01*
X90050Y12543D02*
Y13300D01*
X90007Y-3957D02*
Y5200D01*
X90007Y-3957D02*
X90050Y-4000D01*
X86950D02*
Y5200D01*
Y-4000D02*
X86950Y-4000D01*
D40*
X129500Y12900D02*
Y36000D01*
X126300Y-350D02*
Y2700D01*
X126350D02*
X131500D01*
Y10800D01*
X126100D02*
X131500D01*
X126100D02*
Y12850D01*
X129500D01*
X123950Y-350D02*
X126250D01*
X8855Y-4000D02*
X86305D01*
X8855D02*
Y250D01*
X8855Y-4000D02*
X86305D01*
D47*
X8857Y5200D02*
G03*
X5850Y5200I-1503J0D01*
G01*
Y11200D02*
G03*
X8857Y11200I1503J0D01*
G01*
X111937Y70399D02*
G03*
X117550Y64824I5613J38D01*
G01*
X5844Y96150D02*
G03*
X8850Y96150I1503J0D01*
G01*
X8857Y90200D02*
G03*
X5850Y90200I-1503J0D01*
G01*
X90007Y5200D02*
G03*
X87000Y5200I-1503J0D01*
G01*
X87000Y11150D02*
G03*
X90000Y11150I1500J0D01*
G01*
X86994Y33500D02*
G03*
X90000Y33500I1503J0D01*
G01*
X90007Y27450D02*
G03*
X87000Y27450I-1503J0D01*
G01*
X86994Y95900D02*
G03*
X90000Y95900I1503J0D01*
G01*
Y89950D02*
G03*
X86994Y89950I-1503J0D01*
G01*
X86950Y65150D02*
G03*
X89957Y65150I1503J0D01*
G01*
X90000Y59150D02*
G03*
X86994Y59150I-1503J0D01*
G01*
X-27750Y21950D02*
Y24950D01*
X3750Y21950D02*
Y24950D01*
M02*
