%FSLAX43Y43*%
%MOMM*%
G71*
G01*
G75*
%ADD10C,0.300*%
%ADD11R,1.300X0.850*%
%ADD12R,3.000X1.500*%
%ADD13R,9.300X12.200*%
%ADD14C,0.250*%
%ADD15C,0.063*%
%ADD16R,1.800X1.600*%
%ADD17O,10.000X1.200*%
%ADD18R,1.600X1.800*%
%ADD19R,0.550X1.450*%
%ADD20R,0.550X1.450*%
%ADD21R,1.550X0.600*%
%ADD22R,2.200X0.600*%
%ADD23R,2.200X0.600*%
%ADD24R,4.000X3.000*%
%ADD25R,7.100X5.500*%
%ADD26R,1.600X1.000*%
%ADD27R,5.500X7.100*%
%ADD28R,1.000X1.600*%
%ADD29R,1.550X0.600*%
%ADD30R,1.700X0.600*%
%ADD31R,1.700X0.600*%
%ADD32R,0.600X2.200*%
%ADD33R,0.600X2.200*%
%ADD34R,3.000X4.000*%
%ADD35R,3.500X8.000*%
%ADD36R,0.850X1.300*%
%ADD37R,6.000X6.000*%
%ADD38R,2.700X2.500*%
%ADD39R,1.450X0.550*%
%ADD40R,1.450X0.550*%
%ADD41R,5.400X5.500*%
%ADD42C,0.500*%
%ADD43C,1.000*%
%ADD44C,0.400*%
%ADD45C,0.700*%
%ADD46C,0.600*%
%ADD47C,0.800*%
%ADD48R,1.500X1.500*%
%ADD49C,1.500*%
%ADD50C,6.000*%
%ADD51C,4.000*%
%ADD52R,1.600X1.600*%
%ADD53C,1.600*%
%ADD54R,1.400X1.400*%
%ADD55C,1.400*%
%ADD56C,2.000*%
%ADD57C,5.000*%
%ADD58C,2.500*%
%ADD59C,1.300*%
%ADD60C,1.100*%
%ADD61C,3.000*%
%ADD62R,17.250X16.100*%
%ADD63R,1.503X1.053*%
%ADD64R,3.203X1.703*%
%ADD65R,9.503X12.403*%
%ADD66R,2.003X1.803*%
%ADD67O,10.203X1.403*%
%ADD68R,1.803X2.003*%
%ADD69R,0.753X1.653*%
%ADD70R,0.753X1.653*%
%ADD71R,1.753X0.803*%
%ADD72R,2.403X0.803*%
%ADD73R,2.403X0.803*%
%ADD74R,4.203X3.203*%
%ADD75R,7.303X5.703*%
%ADD76R,1.803X1.203*%
%ADD77R,5.703X7.303*%
%ADD78R,1.203X1.803*%
%ADD79R,1.753X0.803*%
%ADD80R,1.903X0.803*%
%ADD81R,1.903X0.803*%
%ADD82R,0.803X2.403*%
%ADD83R,0.803X2.403*%
%ADD84R,3.203X4.203*%
%ADD85R,3.703X8.203*%
%ADD86R,1.053X1.503*%
%ADD87R,6.203X6.203*%
%ADD88R,2.903X2.703*%
%ADD89R,1.653X0.753*%
%ADD90R,1.653X0.753*%
%ADD91R,5.603X5.703*%
%ADD92R,1.703X1.703*%
%ADD93C,1.703*%
%ADD94C,6.203*%
%ADD95C,4.203*%
%ADD96R,1.803X1.803*%
%ADD97C,1.803*%
%ADD98R,1.603X1.603*%
%ADD99C,1.603*%
%ADD100C,2.203*%
%ADD101C,5.203*%
%ADD102C,2.703*%
%ADD103C,1.503*%
%ADD104C,1.303*%
%ADD105C,3.203*%
D10*
X-8950Y0D02*
X30500D01*
Y104000D01*
X-8950Y125000D02*
X30500D01*
X-8950Y110000D02*
Y125000D01*
X-11500Y110000D02*
X-8950D01*
X-11500Y15000D02*
Y110000D01*
Y15000D02*
X-8950D01*
Y0D02*
Y15000D01*
X227550Y93000D02*
X239950D01*
X227500D02*
Y125000D01*
Y13000D02*
X239950D01*
X227500Y0D02*
Y13000D01*
X41000Y0D02*
X227500D01*
X41000Y125000D02*
X227400D01*
X240000Y13000D02*
Y93000D01*
X18600Y103000D02*
Y122000D01*
X-6500Y103000D02*
Y122000D01*
Y103000D02*
X18600D01*
X-6500Y122000D02*
X18600D01*
X41000Y121000D02*
Y125000D01*
X30500Y121000D02*
X41000D01*
X30500D02*
Y125000D01*
Y104000D02*
X41000D01*
Y0D02*
Y104000D01*
M02*
