%FSLAX43Y43*%
%MOMM*%
G71*
G01*
G75*
%ADD10C,0.300*%
%ADD11R,1.600X1.800*%
%ADD12R,1.800X1.600*%
%ADD13R,1.550X0.600*%
%ADD14C,0.250*%
%ADD15R,1.600X1.000*%
%ADD16R,4.000X3.000*%
%ADD17R,3.000X1.500*%
%ADD18R,9.300X12.200*%
%ADD19O,10.000X1.200*%
%ADD20R,7.100X5.500*%
%ADD21R,5.400X5.500*%
%ADD22R,1.450X0.550*%
%ADD23R,1.450X0.550*%
%ADD24R,2.700X2.500*%
%ADD25C,0.075*%
%ADD26C,0.063*%
%ADD27R,3.500X8.000*%
%ADD28R,6.000X6.000*%
%ADD29R,3.000X4.000*%
%ADD30R,2.200X0.600*%
%ADD31R,2.200X0.600*%
%ADD32R,0.850X1.300*%
%ADD33R,1.300X0.850*%
%ADD34R,0.600X2.200*%
%ADD35R,0.600X2.200*%
%ADD36R,1.700X0.600*%
%ADD37R,1.700X0.600*%
%ADD38R,1.550X0.600*%
%ADD39R,1.000X1.600*%
%ADD40R,5.500X7.100*%
%ADD41R,0.550X1.450*%
%ADD42R,0.550X1.450*%
%ADD43C,0.500*%
%ADD44C,0.600*%
%ADD45C,0.400*%
%ADD46C,1.000*%
%ADD47C,0.700*%
%ADD48C,0.800*%
%ADD49C,2.500*%
%ADD50C,1.500*%
%ADD51R,1.500X1.500*%
%ADD52C,2.000*%
%ADD53R,1.400X1.400*%
%ADD54C,1.400*%
%ADD55C,1.300*%
%ADD56C,5.000*%
%ADD57C,6.000*%
%ADD58C,4.000*%
%ADD59R,1.600X1.600*%
%ADD60C,1.600*%
%ADD61O,2.000X1.000*%
%ADD62R,2.000X1.000*%
%ADD63C,1.690*%
%ADD64R,1.690X1.690*%
%ADD65C,5.500*%
%ADD66C,3.000*%
%ADD67C,1.100*%
%ADD68R,17.250X16.100*%
%ADD69R,1.803X2.003*%
%ADD70R,2.003X1.803*%
%ADD71R,1.753X0.803*%
%ADD72R,1.803X1.203*%
%ADD73R,4.203X3.203*%
%ADD74R,3.203X1.703*%
%ADD75R,10.300X13.200*%
%ADD76O,10.203X1.403*%
%ADD77R,7.303X5.703*%
%ADD78R,5.603X5.703*%
%ADD79R,1.653X0.753*%
%ADD80R,1.653X0.753*%
%ADD81R,2.903X2.703*%
%ADD82R,3.703X8.203*%
%ADD83R,6.203X6.203*%
%ADD84R,3.203X4.203*%
%ADD85R,2.403X0.803*%
%ADD86R,2.403X0.803*%
%ADD87R,1.053X1.503*%
%ADD88R,1.503X1.053*%
%ADD89R,0.803X2.403*%
%ADD90R,0.803X2.403*%
%ADD91R,1.903X0.803*%
%ADD92R,1.903X0.803*%
%ADD93R,1.753X0.803*%
%ADD94R,1.203X1.803*%
%ADD95R,5.703X7.303*%
%ADD96R,0.753X1.653*%
%ADD97R,0.753X1.653*%
%ADD98C,2.703*%
%ADD99C,1.703*%
%ADD100R,1.703X1.703*%
%ADD101C,2.203*%
%ADD102R,1.603X1.603*%
%ADD103C,1.603*%
%ADD104C,1.503*%
%ADD105C,5.203*%
%ADD106C,6.203*%
%ADD107C,4.203*%
%ADD108R,1.803X1.803*%
%ADD109C,1.803*%
%ADD110O,2.203X1.203*%
%ADD111R,2.203X1.203*%
%ADD112C,1.893*%
%ADD113R,1.893X1.893*%
%ADD114C,5.703*%
%ADD115C,3.203*%
%ADD116C,1.303*%
D10*
X7500Y106850D02*
X24600D01*
X24600Y106850D02*
Y116900D01*
X7500Y126850D02*
X24600D01*
X24600Y116850D02*
Y126850D01*
D43*
X239950Y105000D02*
X240000Y105050D01*
X227550Y105000D02*
X239950D01*
X227500Y105050D02*
X227550Y105000D01*
X227500Y105050D02*
Y135000D01*
Y24900D02*
X239950D01*
X227500Y-50D02*
Y24800D01*
X55000Y50D02*
X55100Y-50D01*
X227500D01*
X55000Y135000D02*
X227400D01*
X240000Y25000D02*
Y105000D01*
X7500Y106850D02*
X24600D01*
X24600Y106850D01*
Y126700D01*
X24500Y126800D02*
X24600Y126700D01*
X7450Y126800D02*
X24500D01*
X7450D02*
X7500Y126750D01*
Y106800D02*
Y126750D01*
X2500Y0D02*
Y135000D01*
X44500D01*
Y0D02*
Y108000D01*
X2500Y0D02*
X44500D01*
X55000Y128650D02*
Y135000D01*
X51000Y124650D02*
X55000Y128650D01*
X44500Y124750D02*
X51000D01*
X44500Y124650D02*
Y135000D01*
X47000Y108150D02*
Y108300D01*
X44500Y108050D02*
X50900D01*
X51050Y108100D02*
X55000Y104200D01*
Y0D02*
Y104200D01*
M02*
