%FSLAX43Y43*%
%MOMM*%
G71*
G01*
G75*
G04 Layer_Color=16711935*
%ADD10C,0.300*%
%ADD11R,1.600X1.800*%
%ADD12R,1.800X1.600*%
%ADD13R,1.000X1.600*%
%ADD14R,5.500X5.400*%
%ADD15R,2.200X0.600*%
%ADD16R,2.200X0.600*%
%ADD17R,0.900X0.950*%
%ADD18R,0.900X0.950*%
%ADD19R,2.400X1.000*%
%ADD20R,2.400X3.300*%
%ADD21R,1.300X0.850*%
G04:AMPARAMS|DCode=22|XSize=1.5mm|YSize=0.25mm|CornerRadius=0mm|HoleSize=0mm|Usage=FLASHONLY|Rotation=315.000|XOffset=0mm|YOffset=0mm|HoleType=Round|Shape=Round|*
%AMOVALD22*
21,1,1.250,0.250,0.000,0.000,315.0*
1,1,0.250,-0.442,0.442*
1,1,0.250,0.442,-0.442*
%
%ADD22OVALD22*%

G04:AMPARAMS|DCode=23|XSize=1.5mm|YSize=0.25mm|CornerRadius=0mm|HoleSize=0mm|Usage=FLASHONLY|Rotation=315.000|XOffset=0mm|YOffset=0mm|HoleType=Round|Shape=Rectangle|*
%AMROTATEDRECTD23*
4,1,4,-0.619,0.442,-0.442,0.619,0.619,-0.442,0.442,-0.619,-0.619,0.442,0.0*
%
%ADD23ROTATEDRECTD23*%

G04:AMPARAMS|DCode=24|XSize=1.5mm|YSize=0.25mm|CornerRadius=0mm|HoleSize=0mm|Usage=FLASHONLY|Rotation=45.000|XOffset=0mm|YOffset=0mm|HoleType=Round|Shape=Round|*
%AMOVALD24*
21,1,1.250,0.250,0.000,0.000,45.0*
1,1,0.250,-0.442,-0.442*
1,1,0.250,0.442,0.442*
%
%ADD24OVALD24*%

%ADD25O,10.000X1.200*%
%ADD26R,0.550X1.450*%
%ADD27R,0.550X1.450*%
%ADD28R,1.550X0.600*%
%ADD29R,7.100X5.500*%
%ADD30R,1.600X1.000*%
%ADD31R,5.500X7.100*%
%ADD32R,1.550X0.600*%
%ADD33R,1.700X0.600*%
%ADD34R,1.700X0.600*%
%ADD35R,0.600X2.200*%
%ADD36R,0.600X2.200*%
%ADD37R,0.850X1.300*%
%ADD38R,4.000X3.000*%
G04:AMPARAMS|DCode=39|XSize=1.55mm|YSize=0.3mm|CornerRadius=0mm|HoleSize=0mm|Usage=FLASHONLY|Rotation=315.000|XOffset=0mm|YOffset=0mm|HoleType=Round|Shape=Rectangle|*
%AMROTATEDRECTD39*
4,1,4,-0.654,0.442,-0.442,0.654,0.654,-0.442,0.442,-0.654,-0.654,0.442,0.0*
%
%ADD39ROTATEDRECTD39*%

G04:AMPARAMS|DCode=40|XSize=1.55mm|YSize=0.3mm|CornerRadius=0mm|HoleSize=0mm|Usage=FLASHONLY|Rotation=45.000|XOffset=0mm|YOffset=0mm|HoleType=Round|Shape=Rectangle|*
%AMROTATEDRECTD40*
4,1,4,-0.442,-0.654,-0.654,-0.442,0.442,0.654,0.654,0.442,-0.442,-0.654,0.0*
%
%ADD40ROTATEDRECTD40*%

G04:AMPARAMS|DCode=41|XSize=1.55mm|YSize=0.3mm|CornerRadius=0mm|HoleSize=0mm|Usage=FLASHONLY|Rotation=315.000|XOffset=0mm|YOffset=0mm|HoleType=Round|Shape=Rectangle|*
%AMROTATEDRECTD41*
4,1,4,-0.654,0.442,-0.442,0.654,0.654,-0.442,0.442,-0.654,-0.654,0.442,0.0*
%
%ADD41ROTATEDRECTD41*%

%ADD42R,2.700X2.500*%
%ADD43R,1.450X0.550*%
%ADD44R,1.450X0.550*%
%ADD45R,1.500X1.500*%
%ADD46R,2.300X2.300*%
%ADD47R,2.400X3.300*%
%ADD48R,2.300X2.300*%
%ADD49C,2.000*%
%ADD50C,1.500*%
%ADD51C,0.600*%
%ADD52C,0.800*%
%ADD53C,1.000*%
%ADD54C,0.400*%
%ADD55C,0.500*%
%ADD56C,0.700*%
%ADD57C,0.250*%
%ADD58C,2.500*%
%ADD59C,2.000*%
G04:AMPARAMS|DCode=60|XSize=2.5mm|YSize=2.5mm|CornerRadius=0.625mm|HoleSize=0mm|Usage=FLASHONLY|Rotation=180.000|XOffset=0mm|YOffset=0mm|HoleType=Round|Shape=RoundedRectangle|*
%AMROUNDEDRECTD60*
21,1,2.500,1.250,0,0,180.0*
21,1,1.250,2.500,0,0,180.0*
1,1,1.250,-0.625,0.625*
1,1,1.250,0.625,0.625*
1,1,1.250,0.625,-0.625*
1,1,1.250,-0.625,-0.625*
%
%ADD60ROUNDEDRECTD60*%
%ADD61C,1.400*%
%ADD62R,1.400X1.400*%
%ADD63R,1.800X1.800*%
%ADD64C,1.800*%
%ADD65R,1.800X1.800*%
%ADD66C,2.600*%
%ADD67R,1.500X1.500*%
%ADD68C,1.500*%
%ADD69C,6.000*%
%ADD70C,4.000*%
%ADD71R,1.600X1.600*%
%ADD72C,1.600*%
%ADD73R,1.600X1.600*%
%ADD74C,5.000*%
%ADD75C,1.300*%
G04:AMPARAMS|DCode=76|XSize=4mm|YSize=3mm|CornerRadius=0.75mm|HoleSize=0mm|Usage=FLASHONLY|Rotation=180.000|XOffset=0mm|YOffset=0mm|HoleType=Round|Shape=RoundedRectangle|*
%AMROUNDEDRECTD76*
21,1,4.000,1.500,0,0,180.0*
21,1,2.500,3.000,0,0,180.0*
1,1,1.500,-1.250,0.750*
1,1,1.500,1.250,0.750*
1,1,1.500,1.250,-0.750*
1,1,1.500,-1.250,-0.750*
%
%ADD76ROUNDEDRECTD76*%
G04:AMPARAMS|DCode=77|XSize=8mm|YSize=7mm|CornerRadius=1.75mm|HoleSize=0mm|Usage=FLASHONLY|Rotation=180.000|XOffset=0mm|YOffset=0mm|HoleType=Round|Shape=RoundedRectangle|*
%AMROUNDEDRECTD77*
21,1,8.000,3.500,0,0,180.0*
21,1,4.500,7.000,0,0,180.0*
1,1,3.500,-2.250,1.750*
1,1,3.500,2.250,1.750*
1,1,3.500,2.250,-1.750*
1,1,3.500,-2.250,-1.750*
%
%ADD77ROUNDEDRECTD77*%
%ADD78R,2.000X2.000*%
%ADD79C,3.000*%
%ADD80C,1.000*%
%ADD81C,1.100*%
%ADD82R,1.803X2.003*%
%ADD83R,2.003X1.803*%
%ADD84R,1.203X1.803*%
%ADD85R,5.703X5.603*%
%ADD86R,2.403X0.803*%
%ADD87R,2.403X0.803*%
%ADD88R,1.103X1.153*%
%ADD89R,1.103X1.153*%
%ADD90R,2.603X1.203*%
%ADD91R,2.603X3.503*%
%ADD92R,1.503X1.053*%
G04:AMPARAMS|DCode=93|XSize=1.703mm|YSize=0.453mm|CornerRadius=0mm|HoleSize=0mm|Usage=FLASHONLY|Rotation=315.000|XOffset=0mm|YOffset=0mm|HoleType=Round|Shape=Round|*
%AMOVALD93*
21,1,1.250,0.453,0.000,0.000,315.0*
1,1,0.453,-0.442,0.442*
1,1,0.453,0.442,-0.442*
%
%ADD93OVALD93*%

G04:AMPARAMS|DCode=94|XSize=1.703mm|YSize=0.453mm|CornerRadius=0mm|HoleSize=0mm|Usage=FLASHONLY|Rotation=315.000|XOffset=0mm|YOffset=0mm|HoleType=Round|Shape=Rectangle|*
%AMROTATEDRECTD94*
4,1,4,-0.762,0.442,-0.442,0.762,0.762,-0.442,0.442,-0.762,-0.762,0.442,0.0*
%
%ADD94ROTATEDRECTD94*%

G04:AMPARAMS|DCode=95|XSize=1.703mm|YSize=0.453mm|CornerRadius=0mm|HoleSize=0mm|Usage=FLASHONLY|Rotation=45.000|XOffset=0mm|YOffset=0mm|HoleType=Round|Shape=Round|*
%AMOVALD95*
21,1,1.250,0.453,0.000,0.000,45.0*
1,1,0.453,-0.442,-0.442*
1,1,0.453,0.442,0.442*
%
%ADD95OVALD95*%

%ADD96O,10.203X1.403*%
%ADD97R,0.753X1.653*%
%ADD98R,0.753X1.653*%
%ADD99R,1.753X0.803*%
%ADD100R,7.303X5.703*%
%ADD101R,1.803X1.203*%
%ADD102R,5.703X7.303*%
%ADD103R,1.753X0.803*%
%ADD104R,1.903X0.803*%
%ADD105R,1.903X0.803*%
%ADD106R,0.803X2.403*%
%ADD107R,0.803X2.403*%
%ADD108R,1.053X1.503*%
%ADD109R,4.203X3.203*%
G04:AMPARAMS|DCode=110|XSize=1.753mm|YSize=0.503mm|CornerRadius=0mm|HoleSize=0mm|Usage=FLASHONLY|Rotation=315.000|XOffset=0mm|YOffset=0mm|HoleType=Round|Shape=Rectangle|*
%AMROTATEDRECTD110*
4,1,4,-0.798,0.442,-0.442,0.798,0.798,-0.442,0.442,-0.798,-0.798,0.442,0.0*
%
%ADD110ROTATEDRECTD110*%

G04:AMPARAMS|DCode=111|XSize=1.753mm|YSize=0.503mm|CornerRadius=0mm|HoleSize=0mm|Usage=FLASHONLY|Rotation=45.000|XOffset=0mm|YOffset=0mm|HoleType=Round|Shape=Rectangle|*
%AMROTATEDRECTD111*
4,1,4,-0.442,-0.798,-0.798,-0.442,0.442,0.798,0.798,0.442,-0.442,-0.798,0.0*
%
%ADD111ROTATEDRECTD111*%

G04:AMPARAMS|DCode=112|XSize=1.753mm|YSize=0.503mm|CornerRadius=0mm|HoleSize=0mm|Usage=FLASHONLY|Rotation=315.000|XOffset=0mm|YOffset=0mm|HoleType=Round|Shape=Rectangle|*
%AMROTATEDRECTD112*
4,1,4,-0.798,0.442,-0.442,0.798,0.798,-0.442,0.442,-0.798,-0.798,0.442,0.0*
%
%ADD112ROTATEDRECTD112*%

%ADD113R,2.903X2.703*%
%ADD114R,1.653X0.753*%
%ADD115R,1.653X0.753*%
%ADD116R,1.703X1.703*%
%ADD117R,2.503X2.503*%
%ADD118R,2.603X3.503*%
%ADD119R,2.503X2.503*%
%ADD120C,2.703*%
%ADD121C,2.203*%
G04:AMPARAMS|DCode=122|XSize=2.703mm|YSize=2.703mm|CornerRadius=0.727mm|HoleSize=0mm|Usage=FLASHONLY|Rotation=180.000|XOffset=0mm|YOffset=0mm|HoleType=Round|Shape=RoundedRectangle|*
%AMROUNDEDRECTD122*
21,1,2.703,1.250,0,0,180.0*
21,1,1.250,2.703,0,0,180.0*
1,1,1.453,-0.625,0.625*
1,1,1.453,0.625,0.625*
1,1,1.453,0.625,-0.625*
1,1,1.453,-0.625,-0.625*
%
%ADD122ROUNDEDRECTD122*%
%ADD123C,1.603*%
%ADD124R,1.603X1.603*%
%ADD125R,2.003X2.003*%
%ADD126C,2.003*%
%ADD127R,2.003X2.003*%
%ADD128C,2.803*%
%ADD129R,1.703X1.703*%
%ADD130C,1.703*%
%ADD131C,6.203*%
%ADD132C,4.203*%
%ADD133R,1.803X1.803*%
%ADD134C,1.803*%
%ADD135R,1.803X1.803*%
%ADD136C,5.203*%
%ADD137C,1.503*%
G04:AMPARAMS|DCode=138|XSize=4.203mm|YSize=3.203mm|CornerRadius=0.852mm|HoleSize=0mm|Usage=FLASHONLY|Rotation=180.000|XOffset=0mm|YOffset=0mm|HoleType=Round|Shape=RoundedRectangle|*
%AMROUNDEDRECTD138*
21,1,4.203,1.500,0,0,180.0*
21,1,2.500,3.203,0,0,180.0*
1,1,1.703,-1.250,0.750*
1,1,1.703,1.250,0.750*
1,1,1.703,1.250,-0.750*
1,1,1.703,-1.250,-0.750*
%
%ADD138ROUNDEDRECTD138*%
G04:AMPARAMS|DCode=139|XSize=8.203mm|YSize=7.203mm|CornerRadius=1.852mm|HoleSize=0mm|Usage=FLASHONLY|Rotation=180.000|XOffset=0mm|YOffset=0mm|HoleType=Round|Shape=RoundedRectangle|*
%AMROUNDEDRECTD139*
21,1,8.203,3.500,0,0,180.0*
21,1,4.500,7.203,0,0,180.0*
1,1,3.703,-2.250,1.750*
1,1,3.703,2.250,1.750*
1,1,3.703,2.250,-1.750*
1,1,3.703,-2.250,-1.750*
%
%ADD139ROUNDEDRECTD139*%
%ADD140R,2.203X2.203*%
%ADD141C,3.203*%
%ADD142C,1.203*%
%ADD143C,1.303*%
D82*
X210812Y84193D02*
D03*
X208012D02*
D03*
X210812Y81393D02*
D03*
X208012D02*
D03*
X210812Y78693D02*
D03*
X208012D02*
D03*
X210812Y75993D02*
D03*
X208012D02*
D03*
D83*
X-3443Y88312D02*
D03*
X-6057Y43388D02*
D03*
Y40588D02*
D03*
X-2657Y43388D02*
D03*
Y40588D02*
D03*
X11509Y43388D02*
D03*
Y40588D02*
D03*
X18125Y43388D02*
D03*
Y40588D02*
D03*
X14817Y43388D02*
D03*
Y40588D02*
D03*
X-6857Y91088D02*
D03*
X-6857Y88288D02*
D03*
X-3443Y91112D02*
D03*
D96*
X233589Y37650D02*
D03*
Y32575D02*
D03*
Y91000D02*
D03*
X233589Y88450D02*
D03*
Y85925D02*
D03*
Y83375D02*
D03*
Y80850D02*
D03*
Y73200D02*
D03*
X233589Y40175D02*
D03*
Y35100D02*
D03*
Y30050D02*
D03*
Y27475D02*
D03*
Y24925D02*
D03*
Y22400D02*
D03*
Y19850D02*
D03*
Y17300D02*
D03*
Y14800D02*
D03*
Y45275D02*
D03*
Y42725D02*
D03*
Y52875D02*
D03*
X233589Y47825D02*
D03*
X233589Y50325D02*
D03*
X233589Y55425D02*
D03*
X233589Y68125D02*
D03*
Y65600D02*
D03*
X233589Y63075D02*
D03*
Y60500D02*
D03*
Y57950D02*
D03*
Y70675D02*
D03*
X233589Y78300D02*
D03*
X233589Y75750D02*
D03*
D116*
X104300Y70808D02*
D03*
X27450Y101700D02*
D03*
X45850Y116945D02*
D03*
D120*
X191800Y121600D02*
D03*
X184300D02*
D03*
X158100Y88100D02*
D03*
X160600Y84100D02*
D03*
X42500Y104600D02*
D03*
Y120400D02*
D03*
X197400Y106900D02*
D03*
Y99400D02*
D03*
D121*
X137800Y81100D02*
D03*
X143700D02*
D03*
X206897Y50112D02*
D03*
X191897D02*
D03*
X172900Y80700D02*
D03*
D122*
X163100Y88100D02*
D03*
D123*
X115688Y80909D02*
D03*
X54190Y30394D02*
D03*
Y20394D02*
D03*
X61690Y17894D02*
D03*
Y32894D02*
D03*
X207799Y88900D02*
D03*
D124*
X118188Y80909D02*
D03*
X210299Y88900D02*
D03*
D125*
X110100Y117300D02*
D03*
X128800Y88200D02*
D03*
D126*
X110100Y119900D02*
D03*
X113500Y103400D02*
D03*
X173600Y117100D02*
D03*
X173600Y110100D02*
D03*
X128800Y85600D02*
D03*
D127*
X118500Y103400D02*
D03*
X176200Y117100D02*
D03*
X176200Y110100D02*
D03*
D129*
X6039Y4991D02*
D03*
X45000Y42500D02*
D03*
Y5000D02*
D03*
X6050Y42500D02*
D03*
X48800Y10000D02*
D03*
X989Y4991D02*
D03*
X22851Y31091D02*
D03*
X1000Y42500D02*
D03*
D130*
X6039Y7531D02*
D03*
Y10071D02*
D03*
X101760Y70808D02*
D03*
X96680D02*
D03*
X94140D02*
D03*
X91600D02*
D03*
X89060D02*
D03*
X45000Y83140D02*
D03*
Y80600D02*
D03*
Y85680D02*
D03*
Y72980D02*
D03*
Y75520D02*
D03*
Y65360D02*
D03*
Y45040D02*
D03*
Y47580D02*
D03*
Y50120D02*
D03*
Y52660D02*
D03*
Y55200D02*
D03*
Y57740D02*
D03*
Y60280D02*
D03*
Y62820D02*
D03*
Y67900D02*
D03*
Y70440D02*
D03*
Y78060D02*
D03*
Y90760D02*
D03*
Y88220D02*
D03*
Y7540D02*
D03*
Y10080D02*
D03*
X6050Y90760D02*
D03*
Y88220D02*
D03*
Y85680D02*
D03*
Y83140D02*
D03*
Y80600D02*
D03*
Y78060D02*
D03*
Y75520D02*
D03*
Y72980D02*
D03*
Y70440D02*
D03*
Y67900D02*
D03*
Y65360D02*
D03*
Y62820D02*
D03*
Y60280D02*
D03*
Y57740D02*
D03*
Y55200D02*
D03*
Y52660D02*
D03*
Y50120D02*
D03*
Y47580D02*
D03*
Y45040D02*
D03*
X27450Y53440D02*
D03*
Y55980D02*
D03*
Y58520D02*
D03*
Y61060D02*
D03*
Y63600D02*
D03*
Y66140D02*
D03*
Y68680D02*
D03*
Y71220D02*
D03*
Y73760D02*
D03*
Y76300D02*
D03*
Y78840D02*
D03*
Y81380D02*
D03*
Y83920D02*
D03*
Y86460D02*
D03*
Y89000D02*
D03*
Y91540D02*
D03*
Y94080D02*
D03*
Y96620D02*
D03*
Y99160D02*
D03*
X48800Y4920D02*
D03*
Y7460D02*
D03*
X1000Y80600D02*
D03*
X989Y10071D02*
D03*
Y7531D02*
D03*
X48400Y115675D02*
D03*
X45850Y114405D02*
D03*
X48400Y113135D02*
D03*
X45850Y111865D02*
D03*
X48400Y110595D02*
D03*
X45850Y109325D02*
D03*
X48400Y108055D02*
D03*
X34600Y118810D02*
D03*
X36120Y116270D02*
D03*
X34600Y108700D02*
D03*
X36120Y106190D02*
D03*
X39500Y106800D02*
D03*
Y118200D02*
D03*
X57300Y70942D02*
D03*
X57300Y75942D02*
D03*
X27851Y31091D02*
D03*
X22851Y37091D02*
D03*
X27851D02*
D03*
X1000Y45040D02*
D03*
Y47580D02*
D03*
Y50120D02*
D03*
Y52660D02*
D03*
Y55200D02*
D03*
Y57740D02*
D03*
Y60280D02*
D03*
Y62820D02*
D03*
Y65360D02*
D03*
Y67900D02*
D03*
Y70440D02*
D03*
Y72980D02*
D03*
X1000Y75520D02*
D03*
X1000Y78060D02*
D03*
Y83140D02*
D03*
Y85680D02*
D03*
Y88220D02*
D03*
Y90760D02*
D03*
D131*
X25550Y120000D02*
D03*
Y5000D02*
D03*
X222500Y120000D02*
D03*
Y5050D02*
D03*
X70000Y120000D02*
D03*
Y5000D02*
D03*
X142200Y120000D02*
D03*
X145000Y5000D02*
D03*
D132*
X223960Y108300D02*
D03*
X218880D02*
D03*
X208720D02*
D03*
X203640D02*
D03*
X222540Y97800D02*
D03*
X217460D02*
D03*
X207300D02*
D03*
X202220D02*
D03*
D133*
X15809Y31103D02*
D03*
Y6303D02*
D03*
D134*
X15809Y36183D02*
D03*
X3309Y31103D02*
D03*
Y36103D02*
D03*
X15809Y11383D02*
D03*
X3309Y6303D02*
D03*
Y11303D02*
D03*
X12083Y14891D02*
D03*
X7003Y27391D02*
D03*
X12003D02*
D03*
X24703D02*
D03*
X19703D02*
D03*
X24783Y14891D02*
D03*
X-397Y27391D02*
D03*
X-5397D02*
D03*
X-317Y14891D02*
D03*
D135*
X7003D02*
D03*
X19703Y14891D02*
D03*
X-5397D02*
D03*
D136*
X137305Y54291D02*
D03*
D137*
X60505Y80849D02*
D03*
Y78349D02*
D03*
D138*
X205400Y116500D02*
D03*
Y122500D02*
D03*
D139*
X221420Y108300D02*
D03*
X206180D02*
D03*
X220000Y97800D02*
D03*
X204760D02*
D03*
D140*
X172900Y75700D02*
D03*
D141*
X137200Y111100D02*
D03*
X149800D02*
D03*
Y106000D02*
D03*
X137200Y100900D02*
D03*
X149800D02*
D03*
X137200Y95800D02*
D03*
X149800D02*
D03*
X137200Y90700D02*
D03*
X149800D02*
D03*
X137200Y106000D02*
D03*
X157800Y75600D02*
D03*
X137800D02*
D03*
D142*
X55000Y11700D02*
D03*
D143*
X221400Y106000D02*
D03*
X221300Y110500D02*
D03*
X220100Y95700D02*
D03*
X219900Y100100D02*
D03*
X204800Y95700D02*
D03*
X204700Y100000D02*
D03*
X206000Y106000D02*
D03*
X206100Y110600D02*
D03*
X189900Y75700D02*
D03*
X206800Y116600D02*
D03*
X204000Y122500D02*
D03*
X206800D02*
D03*
X204000Y116600D02*
D03*
X179400Y88700D02*
D03*
X182100Y98600D02*
D03*
X173800Y94800D02*
D03*
X147200Y100900D02*
D03*
Y106000D02*
D03*
X129700Y111000D02*
D03*
X131400D02*
D03*
X144900Y79800D02*
D03*
X149700Y88100D02*
D03*
X110599Y115000D02*
D03*
X227400Y85925D02*
D03*
X225700Y91000D02*
D03*
X59700Y13150D02*
D03*
X61100Y46650D02*
D03*
X52550Y90500D02*
D03*
X43300Y28550D02*
D03*
X48250Y27500D02*
D03*
X43400Y24950D02*
D03*
X47850Y22900D02*
D03*
X53300Y22850D02*
D03*
X48350Y17000D02*
D03*
X43400Y20000D02*
D03*
Y15000D02*
D03*
X96600Y31950D02*
D03*
X86900Y47350D02*
D03*
X83800Y46800D02*
D03*
X104100Y54250D02*
D03*
X89400Y88850D02*
D03*
X96600Y89750D02*
D03*
X98350Y115600D02*
D03*
X98300Y123150D02*
D03*
X109050Y48100D02*
D03*
X132850Y38800D02*
D03*
X158750Y31000D02*
D03*
X158799Y34250D02*
D03*
X153600Y53650D02*
D03*
X137501Y69500D02*
D03*
X142501D02*
D03*
X147500Y69550D02*
D03*
X152500Y69500D02*
D03*
X157551Y69500D02*
D03*
X162501D02*
D03*
X167501D02*
D03*
X170000Y67500D02*
D03*
X175000D02*
D03*
X179999Y67500D02*
D03*
X182551Y69500D02*
D03*
X184999Y67500D02*
D03*
X187500Y69500D02*
D03*
X189999Y67550D02*
D03*
X192500Y69550D02*
D03*
X195050Y67500D02*
D03*
X210000D02*
D03*
X207500Y70000D02*
D03*
X205000Y67500D02*
D03*
X202551Y69500D02*
D03*
X200050Y67500D02*
D03*
X197551Y69500D02*
D03*
X210050Y72500D02*
D03*
X209200Y60950D02*
D03*
X205050Y60850D02*
D03*
X200000Y60900D02*
D03*
X195000D02*
D03*
X190050D02*
D03*
X204950Y53750D02*
D03*
X200000D02*
D03*
X195050D02*
D03*
X202500Y49950D02*
D03*
X197450D02*
D03*
X171900Y33500D02*
D03*
X193950Y29000D02*
D03*
X189999Y26000D02*
D03*
X190000Y22500D02*
D03*
X184999Y22500D02*
D03*
X224999Y10050D02*
D03*
X219999Y10000D02*
D03*
X226599Y14800D02*
D03*
X226699Y17450D02*
D03*
X222550Y43950D02*
D03*
X217500Y43900D02*
D03*
X222550Y41400D02*
D03*
X217500D02*
D03*
X222450Y38900D02*
D03*
X217450D02*
D03*
X221700Y50050D02*
D03*
X221100Y54150D02*
D03*
X226800Y53200D02*
D03*
X118100Y13600D02*
D03*
X129750Y33000D02*
D03*
X129800Y30350D02*
D03*
X118200Y38900D02*
D03*
X114000Y42850D02*
D03*
X120550Y48200D02*
D03*
X117500D02*
D03*
X113800Y48200D02*
D03*
X118500Y54950D02*
D03*
X127600Y57650D02*
D03*
X113750Y65500D02*
D03*
X113350Y68100D02*
D03*
X120450Y83400D02*
D03*
X125000Y82550D02*
D03*
X122500Y80000D02*
D03*
X125000Y77450D02*
D03*
X120000Y77500D02*
D03*
Y72500D02*
D03*
X125000Y72500D02*
D03*
X130050Y72500D02*
D03*
X127500Y75050D02*
D03*
X122450Y75000D02*
D03*
X117500D02*
D03*
X112500Y119050D02*
D03*
X107450Y119200D02*
D03*
X110000Y122400D02*
D03*
X115050Y97500D02*
D03*
X115000Y107500D02*
D03*
X112500Y110000D02*
D03*
Y100000D02*
D03*
X112500Y95000D02*
D03*
Y90000D02*
D03*
Y85000D02*
D03*
Y75000D02*
D03*
X112500Y80000D02*
D03*
X103850Y73450D02*
D03*
X95250Y73500D02*
D03*
X99950Y73300D02*
D03*
X89950Y73000D02*
D03*
X82500Y69650D02*
D03*
X84950Y72000D02*
D03*
X85000Y67200D02*
D03*
X89950Y67200D02*
D03*
X95000Y67150D02*
D03*
X100000D02*
D03*
X105000Y67050D02*
D03*
X113450Y59500D02*
D03*
X108550Y60000D02*
D03*
X104850Y60000D02*
D03*
X100000D02*
D03*
X92500Y60050D02*
D03*
X87500D02*
D03*
X82500Y60000D02*
D03*
X91300Y48950D02*
D03*
X78300Y46400D02*
D03*
X74050Y49300D02*
D03*
X78300Y51550D02*
D03*
X70000Y44950D02*
D03*
X70050Y50000D02*
D03*
X67550Y47500D02*
D03*
X65000Y44950D02*
D03*
X62500Y50000D02*
D03*
X65000Y52450D02*
D03*
X67550Y55000D02*
D03*
X32500Y107500D02*
D03*
X32500Y117500D02*
D03*
Y112500D02*
D03*
X71200Y100350D02*
D03*
X67600Y100400D02*
D03*
X63700Y100350D02*
D03*
X60000Y100450D02*
D03*
X57300Y101450D02*
D03*
X52800Y103500D02*
D03*
X63800Y92150D02*
D03*
X63950Y95700D02*
D03*
X58900Y96000D02*
D03*
X55050Y97500D02*
D03*
X45050Y105000D02*
D03*
X47550Y97500D02*
D03*
X45000Y100000D02*
D03*
X45000Y95000D02*
D03*
X48700Y90450D02*
D03*
X51750Y68200D02*
D03*
X52800Y16200D02*
D03*
X54000Y9150D02*
D03*
X45050Y2500D02*
D03*
X50050D02*
D03*
X55000D02*
D03*
X57500Y4950D02*
D03*
X60000Y2500D02*
D03*
Y7500D02*
D03*
X62500Y10000D02*
D03*
Y5000D02*
D03*
X64950Y2500D02*
D03*
X65000Y7550D02*
D03*
X67500Y10000D02*
D03*
X72550Y10000D02*
D03*
X75050Y7500D02*
D03*
X77500Y5000D02*
D03*
X75000Y2500D02*
D03*
X66800Y15350D02*
D03*
X61600Y15550D02*
D03*
X43900Y33400D02*
D03*
X46600Y32150D02*
D03*
X55950Y43400D02*
D03*
X52850Y42300D02*
D03*
X51800Y38800D02*
D03*
X50650Y43800D02*
D03*
X50750Y46300D02*
D03*
X52900Y48800D02*
D03*
X50800Y51350D02*
D03*
X52950Y53900D02*
D03*
X50900Y56450D02*
D03*
X52900Y59000D02*
D03*
X50850Y61500D02*
D03*
X61450Y59100D02*
D03*
X59900Y66450D02*
D03*
X64200Y73750D02*
D03*
X52600Y85450D02*
D03*
X59700Y87150D02*
D03*
X62150Y84000D02*
D03*
X58850Y84300D02*
D03*
X49650Y78000D02*
D03*
X49700Y81000D02*
D03*
X48550Y102300D02*
D03*
X48400Y104950D02*
D03*
X48550Y117900D02*
D03*
X65000Y117500D02*
D03*
X67450Y115000D02*
D03*
X85050Y117500D02*
D03*
X87500Y120000D02*
D03*
X85000Y122500D02*
D03*
X75000Y122550D02*
D03*
X80000Y122500D02*
D03*
X77500Y120000D02*
D03*
X75000Y117500D02*
D03*
X72500Y115000D02*
D03*
X67500Y110000D02*
D03*
X70050Y112500D02*
D03*
X75000D02*
D03*
X72500Y110000D02*
D03*
X70000Y107500D02*
D03*
X73700Y104500D02*
D03*
X75050Y91200D02*
D03*
X69950Y87500D02*
D03*
X67450D02*
D03*
X63750Y88600D02*
D03*
X60000Y92500D02*
D03*
X64200Y106650D02*
D03*
X57500Y122500D02*
D03*
X62500D02*
D03*
X45000D02*
D03*
X42150Y108100D02*
D03*
X38800Y110750D02*
D03*
X38000Y113400D02*
D03*
X41400D02*
D03*
X43500Y115200D02*
D03*
X55250Y92400D02*
D03*
X55550Y16400D02*
D03*
X55700Y28050D02*
D03*
X66150D02*
D03*
Y38600D02*
D03*
X71350D02*
D03*
X83550Y65000D02*
D03*
X108500D02*
D03*
X75450Y106300D02*
D03*
X81700Y105900D02*
D03*
X93150Y105450D02*
D03*
X227450Y68100D02*
D03*
X59550Y69100D02*
D03*
X53950Y68000D02*
D03*
X54800Y39500D02*
D03*
X63400Y39700D02*
D03*
X63150Y11450D02*
D03*
X65450Y93950D02*
D03*
X62850Y76050D02*
D03*
X46500Y102250D02*
D03*
X77750Y48900D02*
D03*
X82200Y51250D02*
D03*
X108950Y57350D02*
D03*
X110650Y75450D02*
D03*
X85650Y75050D02*
D03*
X77900Y81450D02*
D03*
X64250Y81600D02*
D03*
X61150Y73250D02*
D03*
X80100Y50750D02*
D03*
Y44100D02*
D03*
X26650Y13050D02*
D03*
X46200Y76800D02*
D03*
X46300Y38300D02*
D03*
X62800Y37500D02*
D03*
X63250Y33700D02*
D03*
X81950Y33900D02*
D03*
X43350Y30450D02*
D03*
X92050Y15000D02*
D03*
X49450Y75600D02*
D03*
X48450Y31800D02*
D03*
X64750Y29500D02*
D03*
X55000Y62550D02*
D03*
X55550Y45550D02*
D03*
X56450Y46650D02*
D03*
Y62500D02*
D03*
X56750Y25007D02*
D03*
X56900Y67250D02*
D03*
X55650Y6900D02*
D03*
X60000Y42150D02*
D03*
X60021Y62779D02*
D03*
X58950Y40800D02*
D03*
Y65050D02*
D03*
X56850Y90400D02*
D03*
X93200Y86350D02*
D03*
X97900Y93650D02*
D03*
X95650Y76950D02*
D03*
X86850Y76150D02*
D03*
X79700Y81800D02*
D03*
X93800Y77550D02*
D03*
X88000Y77300D02*
D03*
X81300Y81050D02*
D03*
X107700Y68450D02*
D03*
X96900Y58500D02*
D03*
X85100Y56800D02*
D03*
X81050Y52150D02*
D03*
X98700Y58550D02*
D03*
X86850Y56050D02*
D03*
X87300Y50750D02*
D03*
X108700Y69900D02*
D03*
X107500Y117300D02*
D03*
X109500Y71600D02*
D03*
X71850Y86700D02*
D03*
X8400Y99250D02*
D03*
X6050Y100950D02*
D03*
X50200Y101350D02*
D03*
Y122800D02*
D03*
X36300Y111850D02*
D03*
X51400Y116450D02*
D03*
X46550Y107600D02*
D03*
X61450Y98450D02*
D03*
Y119250D02*
D03*
X82750Y39100D02*
D03*
X97600Y39250D02*
D03*
X61950Y44100D02*
D03*
Y39000D02*
D03*
X84900Y38300D02*
D03*
X81300Y82800D02*
D03*
X89200Y78350D02*
D03*
X106050Y77200D02*
D03*
X106050Y58750D02*
D03*
X88350Y55950D02*
D03*
X73900Y46200D02*
D03*
X73600Y43550D02*
D03*
X86050Y43900D02*
D03*
X72550Y46200D02*
D03*
Y42600D02*
D03*
X91000Y43300D02*
D03*
X89450Y47800D02*
D03*
X95300Y48750D02*
D03*
X56800Y79450D02*
D03*
X57550Y14250D02*
D03*
X57500Y8100D02*
D03*
X43550Y84350D02*
D03*
X44350Y35600D02*
D03*
X76750Y45050D02*
D03*
X76650Y36750D02*
D03*
X50000Y25150D02*
D03*
X101450Y52500D02*
D03*
X102300Y54500D02*
D03*
X104600Y56600D02*
D03*
X99600Y56100D02*
D03*
X51450Y104950D02*
D03*
X51400Y119400D02*
D03*
X62650Y103500D02*
D03*
Y117700D02*
D03*
X44200Y107350D02*
D03*
X95400Y53800D02*
D03*
X95700Y61050D02*
D03*
X46850Y35300D02*
D03*
X49250Y84850D02*
D03*
X48800Y83150D02*
D03*
X48750Y35000D02*
D03*
X83050Y87900D02*
D03*
X83000Y82650D02*
D03*
X84550Y88700D02*
D03*
Y82650D02*
D03*
X86100Y89700D02*
D03*
Y82650D02*
D03*
X104650Y78500D02*
D03*
X103250Y78600D02*
D03*
X103300Y80150D02*
D03*
X101900Y80450D02*
D03*
X100500Y80700D02*
D03*
X99200Y81250D02*
D03*
X99150Y82600D02*
D03*
X61700Y30650D02*
D03*
X218450Y69500D02*
D03*
X217400Y70700D02*
D03*
X227150D02*
D03*
X227500Y65550D02*
D03*
X111750Y66350D02*
D03*
X111900Y64100D02*
D03*
X121400Y58800D02*
D03*
X131000Y57150D02*
D03*
X129650Y69250D02*
D03*
X226800Y56300D02*
D03*
X191750Y53800D02*
D03*
X219550Y49750D02*
D03*
X217950Y49800D02*
D03*
X216400D02*
D03*
X182500Y52700D02*
D03*
X178200Y52550D02*
D03*
X181200Y51800D02*
D03*
X194350Y48750D02*
D03*
X226950Y50300D02*
D03*
X164150Y50550D02*
D03*
X165750Y50050D02*
D03*
X226900Y47800D02*
D03*
X162950Y49150D02*
D03*
X226900Y45300D02*
D03*
Y42700D02*
D03*
Y37650D02*
D03*
X112900Y41400D02*
D03*
X119650Y42250D02*
D03*
X226900Y35150D02*
D03*
X166900Y39750D02*
D03*
X168550Y41450D02*
D03*
X125500Y8200D02*
D03*
Y42100D02*
D03*
X155500Y35600D02*
D03*
X172550D02*
D03*
Y41000D02*
D03*
X226900Y32500D02*
D03*
X206000Y36300D02*
D03*
X177850Y40350D02*
D03*
X204450Y36000D02*
D03*
X201050Y34550D02*
D03*
X198800Y33400D02*
D03*
X194350Y30850D02*
D03*
X183250Y24250D02*
D03*
X195000Y27450D02*
D03*
X217300Y30000D02*
D03*
X215750Y26600D02*
D03*
X216750Y24900D02*
D03*
X217900Y22850D02*
D03*
X220000Y19850D02*
D03*
X-3200Y96750D02*
D03*
X23600Y94100D02*
D03*
X23550Y70000D02*
D03*
X21550Y91600D02*
D03*
Y67400D02*
D03*
X18000Y89250D02*
D03*
X9750Y65450D02*
D03*
X15450Y81600D02*
D03*
X8800Y62850D02*
D03*
X15500Y79050D02*
D03*
X10350Y60300D02*
D03*
X15500Y76500D02*
D03*
X11850Y57750D02*
D03*
X15450Y73900D02*
D03*
X13450Y55200D02*
D03*
X16790Y52660D02*
D03*
X16800Y71050D02*
D03*
X-350Y24400D02*
D03*
X-2650Y25700D02*
D03*
X-6050Y36200D02*
D03*
X-2400Y44950D02*
D03*
X-5650Y49800D02*
D03*
X18500Y68650D02*
D03*
X18250Y50100D02*
D03*
X11500Y47550D02*
D03*
X20100Y65850D02*
D03*
X19900Y47600D02*
D03*
X22850Y63450D02*
D03*
Y45050D02*
D03*
X14850Y60850D02*
D03*
X21400Y60900D02*
D03*
Y42500D02*
D03*
X87450Y92750D02*
D03*
X154299Y30900D02*
D03*
X154350Y27000D02*
D03*
X175099Y34850D02*
D03*
X160899Y31050D02*
D03*
X160950Y26600D02*
D03*
X107400Y104250D02*
D03*
X75200Y98300D02*
D03*
X87527Y99077D02*
D03*
X87650Y111750D02*
D03*
X87250Y102950D02*
D03*
X89709Y104300D02*
D03*
X87200Y108250D02*
D03*
X72500Y53900D02*
D03*
X73400Y78100D02*
D03*
X18200Y24000D02*
D03*
X109050Y115000D02*
D03*
X81200Y104550D02*
D03*
X81500Y96000D02*
D03*
X81150Y98550D02*
D03*
X82800Y94750D02*
D03*
X91900Y95100D02*
D03*
X93250Y114100D02*
D03*
X94900Y106319D02*
D03*
X133950Y25100D02*
D03*
X100550Y24000D02*
D03*
X103700Y50150D02*
D03*
X104700Y28550D02*
D03*
X79900Y5350D02*
D03*
X81800Y116050D02*
D03*
X80700Y94300D02*
D03*
X107393Y99693D02*
D03*
X96150Y99750D02*
D03*
Y93450D02*
D03*
X64750Y13400D02*
D03*
X84950Y8050D02*
D03*
X87800Y13500D02*
D03*
X104000Y95950D02*
D03*
X103300Y97350D02*
D03*
X102550Y102850D02*
D03*
X101750Y109400D02*
D03*
X102500Y113900D02*
D03*
X101450Y112600D02*
D03*
X99200Y112500D02*
D03*
X79600Y90300D02*
D03*
X79400Y116150D02*
D03*
X78600Y89250D02*
D03*
X78800Y113900D02*
D03*
X170050Y40050D02*
D03*
X164450Y32900D02*
D03*
X165550Y24900D02*
D03*
X163400Y16850D02*
D03*
X226500Y59050D02*
D03*
X97300Y19000D02*
D03*
X98750Y18700D02*
D03*
X132400Y26500D02*
D03*
Y18500D02*
D03*
X96600Y34600D02*
D03*
X182900Y30300D02*
D03*
X95850Y114850D02*
D03*
X95000Y102850D02*
D03*
X121500Y71000D02*
D03*
X121562Y65462D02*
D03*
X125900Y69400D02*
D03*
X127050Y31650D02*
D03*
X105450Y94300D02*
D03*
X107100Y32550D02*
D03*
X107400Y91950D02*
D03*
Y86600D02*
D03*
Y89200D02*
D03*
X123850Y49700D02*
D03*
X123650Y23650D02*
D03*
X115450Y31350D02*
D03*
Y16250D02*
D03*
X99350Y17350D02*
D03*
X99400Y8200D02*
D03*
X109550Y26200D02*
D03*
Y16400D02*
D03*
X90700Y16150D02*
D03*
Y8200D02*
D03*
X91000Y34000D02*
D03*
X122500Y33850D02*
D03*
X122450Y22400D02*
D03*
X122500Y50800D02*
D03*
X176400Y62350D02*
D03*
Y31250D02*
D03*
X179000Y22000D02*
D03*
X206700Y22450D02*
D03*
X207600Y62350D02*
D03*
X207650Y31050D02*
D03*
X180600Y23600D02*
D03*
X181350Y39800D02*
D03*
X204450Y23650D02*
D03*
X179700Y39000D02*
D03*
Y24900D02*
D03*
X121100Y32550D02*
D03*
Y24850D02*
D03*
X121050Y38000D02*
D03*
X201050Y24950D02*
D03*
X70000Y42200D02*
D03*
X68500Y29200D02*
D03*
X85750Y27650D02*
D03*
X87300Y33800D02*
D03*
X87550Y42250D02*
D03*
X93500Y13200D02*
D03*
Y42100D02*
D03*
X102050Y13700D02*
D03*
X102450Y42150D02*
D03*
X225700Y85900D02*
D03*
X110200Y43000D02*
D03*
X227589Y61875D02*
D03*
X131150Y31600D02*
D03*
Y23550D02*
D03*
Y15000D02*
D03*
X183850Y63950D02*
D03*
Y34250D02*
D03*
X127250Y30050D02*
D03*
X127350Y20900D02*
D03*
X154250D02*
D03*
X158550Y28950D02*
D03*
X77700Y115100D02*
D03*
X76650Y88000D02*
D03*
X111350Y41550D02*
D03*
X227350Y90950D02*
D03*
X111050Y13700D02*
D03*
X108100Y8250D02*
D03*
X109950Y40750D02*
D03*
X167350Y31250D02*
D03*
X170050Y30000D02*
D03*
X116900Y41700D02*
D03*
X116800Y8200D02*
D03*
X119650Y13750D02*
D03*
X168550Y27500D02*
D03*
X164450Y26200D02*
D03*
X170050Y14250D02*
D03*
X174750Y14300D02*
D03*
X174800Y30000D02*
D03*
X176150Y28700D02*
D03*
X159550Y11850D02*
D03*
X160800Y20650D02*
D03*
X165400Y11800D02*
D03*
X166700Y19300D02*
D03*
X171200Y11650D02*
D03*
X172600Y18550D02*
D03*
X181900Y27400D02*
D03*
X199300Y26300D02*
D03*
X210100Y33250D02*
D03*
X205550Y32200D02*
D03*
X210800Y26300D02*
D03*
X211850Y30000D02*
D03*
X212600Y28700D02*
D03*
X213500Y27450D02*
D03*
X170300Y8300D02*
D03*
X176050D02*
D03*
X181900Y8250D02*
D03*
X187700Y8300D02*
D03*
X221100Y21650D02*
D03*
X213750Y20700D02*
D03*
X221500Y18300D02*
D03*
X214900Y18700D02*
D03*
X222450Y17150D02*
D03*
X216650Y17050D02*
D03*
X193500Y8300D02*
D03*
X199323Y8250D02*
D03*
X205000Y8350D02*
D03*
X210900Y8300D02*
D03*
X223000Y15150D02*
D03*
X217900Y14550D02*
D03*
X224650Y13200D02*
D03*
X220000Y12250D02*
D03*
X15650Y27300D02*
D03*
X4550Y25700D02*
D03*
X227000Y83000D02*
D03*
X227150Y81200D02*
D03*
X223250D02*
D03*
X223100Y76050D02*
D03*
X155800Y13400D02*
D03*
X137100Y13700D02*
D03*
Y42600D02*
D03*
X212050Y84200D02*
D03*
Y81400D02*
D03*
Y78700D02*
D03*
Y76000D02*
D03*
X164500Y8200D02*
D03*
X158700Y8250D02*
D03*
X152950D02*
D03*
X134100Y8150D02*
D03*
X128450Y42750D02*
D03*
X128400Y13750D02*
D03*
X72400Y95500D02*
D03*
X93100Y93550D02*
D03*
X73200Y98400D02*
D03*
X73750Y87800D02*
D03*
X94750Y87300D02*
D03*
X94800Y93500D02*
D03*
X109000Y84900D02*
D03*
X198800Y28700D02*
D03*
X173800D02*
D03*
X173750Y37950D02*
D03*
X114300Y28700D02*
D03*
X114250Y38800D02*
D03*
X106000Y31300D02*
D03*
X103150Y26800D02*
D03*
X101250Y30700D02*
D03*
X86750Y23650D02*
D03*
X94350Y26900D02*
D03*
Y20600D02*
D03*
X91700Y24450D02*
D03*
X91500Y20000D02*
D03*
X95150Y13850D02*
D03*
X115850Y89200D02*
D03*
X115700Y54650D02*
D03*
X74700Y26100D02*
D03*
X86600Y21350D02*
D03*
X87050Y25650D02*
D03*
X72700Y57750D02*
D03*
X78600Y63850D02*
D03*
X77450Y66900D02*
D03*
X73350Y71300D02*
D03*
X69000Y68500D02*
D03*
X65279Y64650D02*
D03*
X70500Y59950D02*
D03*
X226350Y76700D02*
D03*
X226399Y73050D02*
D03*
X222499D02*
D03*
X217550Y73000D02*
D03*
X151400Y56200D02*
D03*
X148850Y53550D02*
D03*
X146400Y56200D02*
D03*
X143750Y53650D02*
D03*
X141250Y56250D02*
D03*
X133900Y52100D02*
D03*
X144800Y27200D02*
D03*
X144700Y22400D02*
D03*
X142750Y24900D02*
D03*
X144800Y35000D02*
D03*
X145000Y30350D02*
D03*
X142600Y32750D02*
D03*
X150600Y2100D02*
D03*
X157299Y1850D02*
D03*
X162999D02*
D03*
X168899D02*
D03*
X174650Y1800D02*
D03*
X180450D02*
D03*
X186250D02*
D03*
X192050D02*
D03*
X197850D02*
D03*
X203650D02*
D03*
X209450D02*
D03*
X215199Y1850D02*
D03*
X216050Y7500D02*
D03*
X212499Y25950D02*
D03*
X211499Y22250D02*
D03*
X207950Y24300D02*
D03*
X200850Y22700D02*
D03*
X202499Y14150D02*
D03*
X197499Y14950D02*
D03*
X192150Y15700D02*
D03*
X188799Y13400D02*
D03*
X187499Y16550D02*
D03*
X183600Y14000D02*
D03*
X183100Y17700D02*
D03*
X177750Y16300D02*
D03*
X177399Y13500D02*
D03*
X173299Y16850D02*
D03*
X170399Y18200D02*
D03*
X167499Y15000D02*
D03*
X161499Y13750D02*
D03*
X162100Y18800D02*
D03*
X195250Y22050D02*
D03*
X183750Y28000D02*
D03*
X202800Y34550D02*
D03*
X196050Y33500D02*
D03*
X169999Y24650D02*
D03*
X166700Y22300D02*
D03*
X160950Y23000D02*
D03*
X157199Y26900D02*
D03*
X157150Y21400D02*
D03*
X157299Y14250D02*
D03*
X150000Y10000D02*
D03*
X140000D02*
D03*
X139850Y2200D02*
D03*
X145000Y12500D02*
D03*
X139300Y13450D02*
D03*
X151650Y13100D02*
D03*
X144800Y19200D02*
D03*
X144650Y14300D02*
D03*
X142850Y16800D02*
D03*
X133600Y33050D02*
D03*
X133650Y30200D02*
D03*
X133900Y27650D02*
D03*
X129750Y24600D02*
D03*
Y19600D02*
D03*
X126800Y13550D02*
D03*
X124150Y13500D02*
D03*
X115500Y13600D02*
D03*
X109400Y13350D02*
D03*
X106800Y13450D02*
D03*
X98100Y13500D02*
D03*
X113350Y20400D02*
D03*
X118200Y20300D02*
D03*
X122500Y20300D02*
D03*
X106600Y27450D02*
D03*
X109550Y29500D02*
D03*
X90900Y31050D02*
D03*
X96550Y17500D02*
D03*
X84400Y14500D02*
D03*
X132700Y1850D02*
D03*
X126900Y1900D02*
D03*
X121100Y1850D02*
D03*
X115300D02*
D03*
X109500D02*
D03*
X103700D02*
D03*
X97900D02*
D03*
X92100D02*
D03*
X86300D02*
D03*
X80750Y1800D02*
D03*
X80000Y13650D02*
D03*
X71200Y18450D02*
D03*
X66100Y25950D02*
D03*
X70600Y27450D02*
D03*
X79900Y27200D02*
D03*
X87150Y27300D02*
D03*
X76900Y79200D02*
D03*
X66550Y78700D02*
D03*
X68700Y75850D02*
D03*
X91300Y92200D02*
D03*
X82450Y92300D02*
D03*
X85350Y94500D02*
D03*
X174700Y40200D02*
D03*
X81550Y111300D02*
D03*
X91000Y112000D02*
D03*
X90000Y98000D02*
D03*
X85550Y97900D02*
D03*
X97450Y101300D02*
D03*
X105550Y96950D02*
D03*
X105350Y102150D02*
D03*
X102750Y105950D02*
D03*
X97550Y111200D02*
D03*
X81650Y108700D02*
D03*
X85000Y113400D02*
D03*
X83350Y115850D02*
D03*
X78447Y12353D02*
D03*
X104750Y121450D02*
D03*
X129700Y122300D02*
D03*
Y121000D02*
D03*
X134500Y106000D02*
D03*
Y101000D02*
D03*
X182000Y116200D02*
D03*
X183300D02*
D03*
X182000Y88700D02*
D03*
X167100Y86700D02*
D03*
X162600Y93800D02*
D03*
X174650Y105450D02*
D03*
X166700Y116800D02*
D03*
X168150Y95850D02*
D03*
X165200Y95900D02*
D03*
X176100Y114100D02*
D03*
Y112100D02*
D03*
X189400Y104300D02*
D03*
X187100Y98100D02*
D03*
X195100Y75700D02*
D03*
M02*
