%FSLAX43Y43*%
%MOMM*%
G71*
G01*
G75*
G04 Layer_Color=16711935*
%ADD10C,0.300*%
%ADD11R,1.600X1.800*%
%ADD12R,1.800X1.600*%
%ADD13R,1.000X1.600*%
%ADD14R,5.500X5.400*%
%ADD15R,2.200X0.600*%
%ADD16R,2.200X0.600*%
%ADD17R,0.900X0.950*%
%ADD18R,0.900X0.950*%
%ADD19R,2.400X1.000*%
%ADD20R,2.400X3.300*%
%ADD21R,1.300X0.850*%
G04:AMPARAMS|DCode=22|XSize=1.5mm|YSize=0.25mm|CornerRadius=0mm|HoleSize=0mm|Usage=FLASHONLY|Rotation=315.000|XOffset=0mm|YOffset=0mm|HoleType=Round|Shape=Round|*
%AMOVALD22*
21,1,1.250,0.250,0.000,0.000,315.0*
1,1,0.250,-0.442,0.442*
1,1,0.250,0.442,-0.442*
%
%ADD22OVALD22*%

G04:AMPARAMS|DCode=23|XSize=1.5mm|YSize=0.25mm|CornerRadius=0mm|HoleSize=0mm|Usage=FLASHONLY|Rotation=315.000|XOffset=0mm|YOffset=0mm|HoleType=Round|Shape=Rectangle|*
%AMROTATEDRECTD23*
4,1,4,-0.619,0.442,-0.442,0.619,0.619,-0.442,0.442,-0.619,-0.619,0.442,0.0*
%
%ADD23ROTATEDRECTD23*%

G04:AMPARAMS|DCode=24|XSize=1.5mm|YSize=0.25mm|CornerRadius=0mm|HoleSize=0mm|Usage=FLASHONLY|Rotation=45.000|XOffset=0mm|YOffset=0mm|HoleType=Round|Shape=Round|*
%AMOVALD24*
21,1,1.250,0.250,0.000,0.000,45.0*
1,1,0.250,-0.442,-0.442*
1,1,0.250,0.442,0.442*
%
%ADD24OVALD24*%

%ADD25O,10.000X1.200*%
%ADD26R,0.550X1.450*%
%ADD27R,0.550X1.450*%
%ADD28R,1.550X0.600*%
%ADD29R,7.100X5.500*%
%ADD30R,1.600X1.000*%
%ADD31R,5.500X7.100*%
%ADD32R,1.550X0.600*%
%ADD33R,1.700X0.600*%
%ADD34R,1.700X0.600*%
%ADD35R,0.600X2.200*%
%ADD36R,0.600X2.200*%
%ADD37R,0.850X1.300*%
%ADD38R,4.000X3.000*%
G04:AMPARAMS|DCode=39|XSize=1.55mm|YSize=0.3mm|CornerRadius=0mm|HoleSize=0mm|Usage=FLASHONLY|Rotation=315.000|XOffset=0mm|YOffset=0mm|HoleType=Round|Shape=Rectangle|*
%AMROTATEDRECTD39*
4,1,4,-0.654,0.442,-0.442,0.654,0.654,-0.442,0.442,-0.654,-0.654,0.442,0.0*
%
%ADD39ROTATEDRECTD39*%

G04:AMPARAMS|DCode=40|XSize=1.55mm|YSize=0.3mm|CornerRadius=0mm|HoleSize=0mm|Usage=FLASHONLY|Rotation=45.000|XOffset=0mm|YOffset=0mm|HoleType=Round|Shape=Rectangle|*
%AMROTATEDRECTD40*
4,1,4,-0.442,-0.654,-0.654,-0.442,0.442,0.654,0.654,0.442,-0.442,-0.654,0.0*
%
%ADD40ROTATEDRECTD40*%

G04:AMPARAMS|DCode=41|XSize=1.55mm|YSize=0.3mm|CornerRadius=0mm|HoleSize=0mm|Usage=FLASHONLY|Rotation=315.000|XOffset=0mm|YOffset=0mm|HoleType=Round|Shape=Rectangle|*
%AMROTATEDRECTD41*
4,1,4,-0.654,0.442,-0.442,0.654,0.654,-0.442,0.442,-0.654,-0.654,0.442,0.0*
%
%ADD41ROTATEDRECTD41*%

%ADD42R,2.700X2.500*%
%ADD43R,1.450X0.550*%
%ADD44R,1.450X0.550*%
%ADD45R,1.500X1.500*%
%ADD46R,2.300X2.300*%
%ADD47R,2.400X3.300*%
%ADD48R,2.300X2.300*%
%ADD49C,2.000*%
%ADD50C,1.500*%
%ADD51C,0.600*%
%ADD52C,0.800*%
%ADD53C,1.000*%
%ADD54C,0.400*%
%ADD55C,0.500*%
%ADD56C,0.700*%
%ADD57C,0.250*%
%ADD58C,2.500*%
%ADD59C,2.000*%
G04:AMPARAMS|DCode=60|XSize=2.5mm|YSize=2.5mm|CornerRadius=0.625mm|HoleSize=0mm|Usage=FLASHONLY|Rotation=180.000|XOffset=0mm|YOffset=0mm|HoleType=Round|Shape=RoundedRectangle|*
%AMROUNDEDRECTD60*
21,1,2.500,1.250,0,0,180.0*
21,1,1.250,2.500,0,0,180.0*
1,1,1.250,-0.625,0.625*
1,1,1.250,0.625,0.625*
1,1,1.250,0.625,-0.625*
1,1,1.250,-0.625,-0.625*
%
%ADD60ROUNDEDRECTD60*%
%ADD61C,1.400*%
%ADD62R,1.400X1.400*%
%ADD63R,1.800X1.800*%
%ADD64C,1.800*%
%ADD65R,1.800X1.800*%
%ADD66C,2.600*%
%ADD67R,1.500X1.500*%
%ADD68C,1.500*%
%ADD69C,6.000*%
%ADD70C,4.000*%
%ADD71R,1.600X1.600*%
%ADD72C,1.600*%
%ADD73R,1.600X1.600*%
%ADD74C,5.000*%
%ADD75C,1.300*%
G04:AMPARAMS|DCode=76|XSize=4mm|YSize=3mm|CornerRadius=0.75mm|HoleSize=0mm|Usage=FLASHONLY|Rotation=180.000|XOffset=0mm|YOffset=0mm|HoleType=Round|Shape=RoundedRectangle|*
%AMROUNDEDRECTD76*
21,1,4.000,1.500,0,0,180.0*
21,1,2.500,3.000,0,0,180.0*
1,1,1.500,-1.250,0.750*
1,1,1.500,1.250,0.750*
1,1,1.500,1.250,-0.750*
1,1,1.500,-1.250,-0.750*
%
%ADD76ROUNDEDRECTD76*%
G04:AMPARAMS|DCode=77|XSize=8mm|YSize=7mm|CornerRadius=1.75mm|HoleSize=0mm|Usage=FLASHONLY|Rotation=180.000|XOffset=0mm|YOffset=0mm|HoleType=Round|Shape=RoundedRectangle|*
%AMROUNDEDRECTD77*
21,1,8.000,3.500,0,0,180.0*
21,1,4.500,7.000,0,0,180.0*
1,1,3.500,-2.250,1.750*
1,1,3.500,2.250,1.750*
1,1,3.500,2.250,-1.750*
1,1,3.500,-2.250,-1.750*
%
%ADD77ROUNDEDRECTD77*%
%ADD78R,2.000X2.000*%
%ADD79C,3.000*%
%ADD80C,1.000*%
%ADD81C,1.100*%
%ADD82R,1.803X2.003*%
%ADD83R,2.003X1.803*%
%ADD84R,1.203X1.803*%
%ADD85R,5.703X5.603*%
%ADD86R,2.403X0.803*%
%ADD87R,2.403X0.803*%
%ADD88R,1.103X1.153*%
%ADD89R,1.103X1.153*%
%ADD90R,2.603X1.203*%
%ADD91R,2.603X3.503*%
%ADD92R,1.503X1.053*%
G04:AMPARAMS|DCode=93|XSize=1.703mm|YSize=0.453mm|CornerRadius=0mm|HoleSize=0mm|Usage=FLASHONLY|Rotation=315.000|XOffset=0mm|YOffset=0mm|HoleType=Round|Shape=Round|*
%AMOVALD93*
21,1,1.250,0.453,0.000,0.000,315.0*
1,1,0.453,-0.442,0.442*
1,1,0.453,0.442,-0.442*
%
%ADD93OVALD93*%

G04:AMPARAMS|DCode=94|XSize=1.703mm|YSize=0.453mm|CornerRadius=0mm|HoleSize=0mm|Usage=FLASHONLY|Rotation=315.000|XOffset=0mm|YOffset=0mm|HoleType=Round|Shape=Rectangle|*
%AMROTATEDRECTD94*
4,1,4,-0.762,0.442,-0.442,0.762,0.762,-0.442,0.442,-0.762,-0.762,0.442,0.0*
%
%ADD94ROTATEDRECTD94*%

G04:AMPARAMS|DCode=95|XSize=1.703mm|YSize=0.453mm|CornerRadius=0mm|HoleSize=0mm|Usage=FLASHONLY|Rotation=45.000|XOffset=0mm|YOffset=0mm|HoleType=Round|Shape=Round|*
%AMOVALD95*
21,1,1.250,0.453,0.000,0.000,45.0*
1,1,0.453,-0.442,-0.442*
1,1,0.453,0.442,0.442*
%
%ADD95OVALD95*%

%ADD96O,10.203X1.403*%
%ADD97R,0.753X1.653*%
%ADD98R,0.753X1.653*%
%ADD99R,1.753X0.803*%
%ADD100R,7.303X5.703*%
%ADD101R,1.803X1.203*%
%ADD102R,5.703X7.303*%
%ADD103R,1.753X0.803*%
%ADD104R,1.903X0.803*%
%ADD105R,1.903X0.803*%
%ADD106R,0.803X2.403*%
%ADD107R,0.803X2.403*%
%ADD108R,1.053X1.503*%
%ADD109R,4.203X3.203*%
G04:AMPARAMS|DCode=110|XSize=1.753mm|YSize=0.503mm|CornerRadius=0mm|HoleSize=0mm|Usage=FLASHONLY|Rotation=315.000|XOffset=0mm|YOffset=0mm|HoleType=Round|Shape=Rectangle|*
%AMROTATEDRECTD110*
4,1,4,-0.798,0.442,-0.442,0.798,0.798,-0.442,0.442,-0.798,-0.798,0.442,0.0*
%
%ADD110ROTATEDRECTD110*%

G04:AMPARAMS|DCode=111|XSize=1.753mm|YSize=0.503mm|CornerRadius=0mm|HoleSize=0mm|Usage=FLASHONLY|Rotation=45.000|XOffset=0mm|YOffset=0mm|HoleType=Round|Shape=Rectangle|*
%AMROTATEDRECTD111*
4,1,4,-0.442,-0.798,-0.798,-0.442,0.442,0.798,0.798,0.442,-0.442,-0.798,0.0*
%
%ADD111ROTATEDRECTD111*%

G04:AMPARAMS|DCode=112|XSize=1.753mm|YSize=0.503mm|CornerRadius=0mm|HoleSize=0mm|Usage=FLASHONLY|Rotation=315.000|XOffset=0mm|YOffset=0mm|HoleType=Round|Shape=Rectangle|*
%AMROTATEDRECTD112*
4,1,4,-0.798,0.442,-0.442,0.798,0.798,-0.442,0.442,-0.798,-0.798,0.442,0.0*
%
%ADD112ROTATEDRECTD112*%

%ADD113R,2.903X2.703*%
%ADD114R,1.653X0.753*%
%ADD115R,1.653X0.753*%
%ADD116R,1.703X1.703*%
%ADD117R,2.503X2.503*%
%ADD118R,2.603X3.503*%
%ADD119R,2.503X2.503*%
%ADD120C,2.703*%
%ADD121C,2.203*%
G04:AMPARAMS|DCode=122|XSize=2.703mm|YSize=2.703mm|CornerRadius=0.727mm|HoleSize=0mm|Usage=FLASHONLY|Rotation=180.000|XOffset=0mm|YOffset=0mm|HoleType=Round|Shape=RoundedRectangle|*
%AMROUNDEDRECTD122*
21,1,2.703,1.250,0,0,180.0*
21,1,1.250,2.703,0,0,180.0*
1,1,1.453,-0.625,0.625*
1,1,1.453,0.625,0.625*
1,1,1.453,0.625,-0.625*
1,1,1.453,-0.625,-0.625*
%
%ADD122ROUNDEDRECTD122*%
%ADD123C,1.603*%
%ADD124R,1.603X1.603*%
%ADD125R,2.003X2.003*%
%ADD126C,2.003*%
%ADD127R,2.003X2.003*%
%ADD128C,2.803*%
%ADD129R,1.703X1.703*%
%ADD130C,1.703*%
%ADD131C,6.203*%
%ADD132C,4.203*%
%ADD133R,1.803X1.803*%
%ADD134C,1.803*%
%ADD135R,1.803X1.803*%
%ADD136C,5.203*%
%ADD137C,1.503*%
G04:AMPARAMS|DCode=138|XSize=4.203mm|YSize=3.203mm|CornerRadius=0.852mm|HoleSize=0mm|Usage=FLASHONLY|Rotation=180.000|XOffset=0mm|YOffset=0mm|HoleType=Round|Shape=RoundedRectangle|*
%AMROUNDEDRECTD138*
21,1,4.203,1.500,0,0,180.0*
21,1,2.500,3.203,0,0,180.0*
1,1,1.703,-1.250,0.750*
1,1,1.703,1.250,0.750*
1,1,1.703,1.250,-0.750*
1,1,1.703,-1.250,-0.750*
%
%ADD138ROUNDEDRECTD138*%
G04:AMPARAMS|DCode=139|XSize=8.203mm|YSize=7.203mm|CornerRadius=1.852mm|HoleSize=0mm|Usage=FLASHONLY|Rotation=180.000|XOffset=0mm|YOffset=0mm|HoleType=Round|Shape=RoundedRectangle|*
%AMROUNDEDRECTD139*
21,1,8.203,3.500,0,0,180.0*
21,1,4.500,7.203,0,0,180.0*
1,1,3.703,-2.250,1.750*
1,1,3.703,2.250,1.750*
1,1,3.703,2.250,-1.750*
1,1,3.703,-2.250,-1.750*
%
%ADD139ROUNDEDRECTD139*%
%ADD140R,2.203X2.203*%
%ADD141C,3.203*%
%ADD142C,1.203*%
%ADD143C,1.303*%
D10*
X-8950Y0D02*
X30500D01*
Y104000D01*
X-8950Y125000D02*
X30500D01*
X-8950Y110000D02*
Y125000D01*
X-11500Y110000D02*
X-8950D01*
X-11500Y15000D02*
Y110000D01*
Y15000D02*
X-8950D01*
Y0D02*
Y15000D01*
X227550Y93000D02*
X239950D01*
X227500D02*
Y125000D01*
Y13000D02*
X239950D01*
X227500Y0D02*
Y13000D01*
X41000Y0D02*
X227500D01*
X41000Y125000D02*
X227400D01*
X240000Y13000D02*
Y93000D01*
X18600Y103000D02*
Y122000D01*
X-6500Y103000D02*
Y122000D01*
Y103000D02*
X18600D01*
X-6500Y122000D02*
X18600D01*
X41000Y121000D02*
Y125000D01*
X30500Y121000D02*
X41000D01*
X30500D02*
Y125000D01*
Y104000D02*
X41000D01*
Y0D02*
Y104000D01*
M02*
