M48
;Layer_Color=9474304
;FILE_FORMAT=4:3
METRIC,LZ
;TYPE=PLATED
T1F00S00C0.600
T2F00S00C0.850
T3F00S00C0.900
T4F00S00C0.950
T5F00S00C1.000
T6F00S00C1.100
T7F00S00C1.200
T8F00S00C1.300
T9F00S00C1.500
T10F00S00C1.800
T11F00S00C2.000
T12F00S00C3.000
T13F00S00C3.500
%
T01
X004505Y00025
X005005
X0055
X00575Y000495
X006Y00025
X006495
X00625Y0005
X0075Y00025
X00775Y0005
X00799Y000535
X008075Y00018
X00863Y000185
X00921
X00979
X01037
X01095
X01153
X01211
X01269Y00019
X01327Y000185
X013985Y00022
X01506Y00021
X0157299Y000185
X0162999
X0168899
X017465Y00018
X018045
X018625
X019205
X019785
X020365
X020945
X0215199Y000185
X021605Y00075
X0219999Y001
X022Y001225
X02179Y001455
X021665Y001705
X02149Y00187
X021375Y00207
X02179Y002285
X021675Y00249
X021575Y00266
X02135Y002745
X02173Y003
X021745Y00389
X02175Y00414
Y00439
X022255Y004395
Y00414
X022245Y00389
X02269Y003765
Y003515
Y00325
Y00427
Y00453
X0226699Y001745
X0226599Y00148
X022465Y00132
X0224999Y001005
X0223Y001515
X022245Y001715
X02215Y00183
X022Y001985
X02211Y002165
X0211499Y002225
X0212499Y002595
X02108Y00263
X02126Y00287
X021185Y003
X02101Y003325
X020765Y003105
X020555Y00322
X0206Y00363
X020445Y0036
X02028Y003455
X020105
X01988Y00334
X019605Y00335
X019435Y003085
X019395Y0029
X0195Y002745
X01988Y00287
X01993Y00263
X020105Y002495
X020085Y00227
X020445Y002365
X02067Y002245
X020795Y00243
X019525Y002205
X019Y00225
X0189999Y0026
X018375Y0028
X01819Y00274
X01829Y00303
X018385Y003425
X018135Y00398
X01797Y0039
X017785Y004035
X01747Y00402
X017375Y003795
X0175099Y003485
X01764Y003125
X017615Y00287
X01738
X01748Y003
X01797Y00249
X01806Y00236
X0179Y0022
X0184999Y00225
X018325Y002425
X01831Y00177
X01836Y0014
X0188799Y00134
X0187499Y001655
X019215Y00157
X0197499Y001495
X0202499Y001415
X0205Y000835
X0199323Y000825
X01935Y00083
X01877
X01819Y000825
X017605Y00083
X0177399Y00135
X017775Y00163
X017475Y00143
X0173299Y001685
X02109Y00083
X01703
X01712Y001165
X017005Y001425
X0167499Y0015
X01667Y00193
Y00223
X016555Y00249
X016445Y00262
X016095Y00266
Y0023
X01608Y002065
X01621Y00188
X01634Y001685
X0161499Y001375
X015955Y001185
X01587Y000825
X015295
X015Y001
X015165Y00131
X01558Y00134
X0157299Y001425
X015715Y00214
X015425Y00209
X015435Y0027
X0157199Y00269
X015855Y002895
X015875Y0031
X0160899Y003105
X0158799Y003425
X01555Y00356
X0154299Y00309
X0145Y003035
X01448Y00272
X014275Y00249
X01447Y00224
X01448Y00192
X014285Y00168
X014465Y00143
X0145Y00125
X01393Y001345
X01371Y00137
X014Y001
X01341Y000815
X013395Y00251
X01339Y002765
X013365Y00302
X01336Y003305
X01426Y003275
X01448Y0035
X01371Y00426
X016855Y004145
X017005Y004005
X017255Y0041
Y00356
X01719Y00335
X017005Y003
X016735Y003125
X016445Y00329
X01669Y003975
X016855Y00275
X0169999Y002465
X0170399Y00182
X01726Y001855
X01654Y00118
X01645Y00082
X01255
X01268Y001355
X01284Y001375
X013115Y0015
X01324Y00185
X012975Y00196
X012735Y00209
X01225Y00203
X012245Y00224
X012365Y002365
X01211Y002485
X01182Y00203
X011335Y00204
X011545Y001625
X01155Y00136
X01181Y00136
X011965Y001375
X012415Y00135
X01168Y00082
X01081Y000825
X01094Y001335
X011105Y00137
X010955Y00164
X01068Y001345
X010205Y00137
X00981Y00135
X009515Y001385
X009655Y00175
X00973Y0019
X009875Y00187
X009935Y001735
X010055Y0024
X010315Y00268
X01047Y002855
X01066Y002745
X010955Y00262
Y00295
X0106Y00313
X01071Y003255
X010125Y00307
X00966Y003195
X00966Y00346
X00976Y003925
X010245Y004215
X01102Y0043
X010995Y004075
X011135Y004155
X01129Y00414
X0114Y004285
X01169Y00417
X011965Y004225
X01182Y00389
X012105Y0038
X01211Y003255
X01225Y003385
X012705Y003165
X012725Y003005
X01298Y003035
X013115Y00316
X012975Y0033
Y00246
X013115Y002355
X01324Y00265
X013285Y00388
X012845Y004275
X01255Y00421
X011425Y00388
X011545Y003135
X01143Y00287
X009435Y00269
Y00206
X00994Y00082
X00907
X008495Y000805
X00844Y00145
X00878Y00135
X00907Y001615
X009205Y0015
X00935Y00132
X00915Y002
X00917Y002445
X008675Y002365
X008705Y002565
X008715Y00273
X008575Y002765
X00799Y00272
X00747Y00261
X00706Y002745
X00685Y00292
X006615Y002805
X00661Y002595
X006475Y00295
X00617Y003065
X006325Y00337
X00628Y00375
X006195Y0039
X00634Y00397
X006615Y00386
X007135
X007Y00422
X007Y004495
X007255Y00426
X00736Y004355
X007675Y004505
X00801Y00441
X008605Y00439
X008755Y004225
X0091Y00433
X00935Y00421
X0091Y0034
X00909Y003105
X00873Y00338
X008195Y00339
X008275Y00391
X00849Y00383
X007665Y003675
X0065Y004495
X006195Y00441
X006Y004215
X005895Y00408
X00548Y00395
X005595Y00434
X00557Y002805
X005675Y0025007
X005555Y00164
X005755Y001425
X00597Y001315
X00616Y001555
X006475Y00134
X006315Y001145
X00625Y001
X0065Y000755
X00675Y001
X007255Y001
X007505Y00075
X0078447Y0012353
X008Y001365
X00712Y001845
X00668Y001535
X006Y00075
X00575Y00081
X005565Y00069
X0055Y00117
X00866Y002135
X00533Y002285
X004785Y00229
X005Y002515
X004825Y00275
X004845Y00318
X00466Y003215
X004685Y00353
X004875Y0035
X004435Y00356
X00439Y00334
X004335Y003045
X00433Y002855
X00434Y002495
X00434Y002
Y0015
X004835Y0017
X00528Y00162
X0054Y000915
X002665Y001305
X00182Y0024
X001565Y00273
X00214Y00425
X002285Y004505
X005065Y00438
X005285Y00423
X00518Y00388
X00463Y00383
X000455Y00257
X-000035Y00244
X-000265Y00257
X-000605Y00362
X-00024Y004495
X-000565Y00498
X00115Y004755
X001345Y00552
X001185Y005775
X001035Y00603
X00088Y006285
X000975Y006545
X001485Y006085
X00214Y00609
X002285Y006345
X00201Y006585
X002155Y00674
X00185Y006865
X00168Y007105
X001545Y00739
X00155Y00765
Y007905
X001545Y00816
X002355Y007
X001679Y005266
X001825Y00501
X00199Y00476
X005075Y00463
X00529Y00488
X00508Y005135
X005295Y00539
X00509Y005645
X00529Y0059
X005085Y00615
X005175Y00682
X005395Y0068
X004945Y00756
X004965Y0078
X00497Y0081
X00488Y008315
X004925Y008485
X004355Y008435
X00462Y00768
X00568Y007945
X005885Y00843
X006215Y0084
X006425Y00816
X006655Y00787
X00687Y007585
X006285Y007605
X00642Y007375
X006115Y007325
X005955Y00691
X00599Y006645
X005895Y006505
X0060021Y0062779
X005645Y00625
X0055Y006255
X00569Y006725
X0065279Y006465
X0069Y00685
X007335Y00713
X00734Y00781
X00769Y00792
X00779Y008145
X00797Y00818
X00813Y008105
Y00828
X0083Y008265
X008455
X00861
X008685Y007615
X008565Y007505
X008495Y0072
X00825Y006965
X0085Y00672
X008355Y0065
X00825Y006
X00875Y006005
X008685Y005605
X008835Y005595
X00851Y00568
X00873Y005075
X00869Y004735
X008945Y00478
X00913Y004895
X00838Y00468
X00783Y00464
X007775Y00489
X00783Y005155
X00801Y005075
X008105Y005215
X00822Y005125
X007405Y00493
X00739Y00462
X007255
X007005Y005
X006755Y00475
X00611Y004665
X005645
X005555Y004555
X00625Y005
X0065Y005245
X006755Y0055
X00725Y00539
X00727Y005775
X00705Y005995
X006145Y00591
X00786Y006385
X007745Y00669
X008995Y00672
Y0073
X00892Y007835
X0088Y00773
X00938Y007755
X00925Y006005
X00957Y006105
X00969Y00585
X00987Y005855
X01Y006
X00996Y00561
X01023Y00545
X01041Y005425
X01046Y00566
X010605Y005875
X010485Y006
X010855Y006
X010895Y005735
X011345Y00595
X01119Y00641
X011175Y006635
X011375Y00655
X011335Y00681
X01077Y006845
X01087Y00699
X01095Y00716
X011065Y007545
X01125Y0075
X01175
X012245
X01215Y0071
X012Y00725
X0125Y00725
X01259Y00694
X012965Y006925
X013005Y00725
X01275Y007505
X0125Y007745
X012Y00775
X01225Y008
X0125Y008255
X012045Y00834
X01125Y0085
X0109Y00849
X01125Y008
X010605Y00772
X010465Y00785
X010325Y00786
X01033Y008015
X01019Y008045
X01005Y00807
X00992Y008125
X009915Y00826
X009565Y007695
X009525Y00735
X009995Y00733
X010385Y007345
X0105Y006705
X01Y006715
X0095
X00954Y00538
X00953Y004875
X01037Y005015
X010145Y00525
X010905Y00481
X01138Y00482
X01175Y00482
X012055
X01225Y00508
X012385Y00497
X01185Y005495
X01157Y005465
X01214Y00588
X0121562Y0065462
X01085Y0065
X01276Y005765
X0131Y005715
X01339Y00521
X014375Y005365
X014125Y005625
X01464Y00562
X01514
X01536Y005365
X014885Y005355
X01475Y006955
X0142501Y00695
X0137501
X01525Y00695
X0157551Y00695
X0162501
X0167501
X017Y00675
X016575Y005005
X016415Y005055
X016295Y004915
X01449Y00798
X0175Y00675
X0179999Y00675
X0182551Y00695
X0184999Y00675
X01875Y00695
X0189999Y006755
X01925Y006955
X019505Y00675
X0197551Y00695
X020005Y00675
X0202551Y00695
X0205Y00675
X02075Y007
X021Y00675
X021005Y00725
X021205Y0076
Y00787
Y00814
Y00842
X01951Y00757
X01899Y00757
X019005Y00609
X0195
X02
X020505Y006085
X02076Y006235
X02092Y006095
X020495Y005375
X02
X019505
X019175Y00538
X019435Y004875
X019745Y004995
X02025
X01825Y00527
X01812Y00518
X01782Y005255
X01764Y006235
X018385Y006395
X021845Y00695
X02174Y00707
X021755Y0073
X0222499Y007305
X02231Y007605
X022635Y00767
X0226399Y007305
X022715Y00707
X022745Y00681
X02275Y006555
X0227589Y0061875
X02265Y005905
X02268Y00563
Y00532
X022695Y00503
X02269Y00478
X02217Y005005
X021955Y004975
X021795Y00498
X02164
X02211Y005415
X022325Y00812
X022715
X0227Y0083
X02274Y0085925
X02257Y00859
Y0091
X022735Y009095
X02201Y00957
X02199Y01001
X02214Y0106
X02213Y01105
X02061Y01106
X0206Y0106
X02047Y01
X02048Y00957
X01871Y00981
X01821Y00986
X0182Y00887
X01794
X01738Y00948
X017465Y010545
X01761Y01121
Y01141
X0182Y01162
X01833
X01894Y01043
X0204Y01166
X02068
Y01225
X0204
X01667Y01168
X01652Y00959
X016815Y009585
X01626Y00938
X01671Y00867
X01497Y00881
X01472Y01009
Y0106
X01345
Y0101
X01314Y0111
X01297
Y0121
Y01223
X011Y01224
X010745Y01192
X01075Y01173
X010905Y0115
X0110599Y0115
X01125Y011905
Y011
X0115Y01075
X01125Y01
X01125Y0095
Y009
X011585Y00892
X01074
Y00866
Y009195
X010545Y00943
X010555Y009695
X0104Y009595
X01033Y009735
X010255Y010285
X010275Y010595
X010175Y01094
X010145Y01126
X01025Y01139
X00992Y01125
X009755Y01112
X009835Y01156
X009585Y011485
X00949Y0106319
X0095Y010285
X009745Y01013
X009615Y009975
Y009345
X00948Y00935
X00979Y009365
X00966Y008975
X009475Y00873
X0107393Y0099693
X010535Y010215
X01074Y010425
X011505Y00975
X010475Y012145
X00983Y012315
X00875Y012
X008505Y01175
X008335Y011585
X00818Y011605
X00794Y011615
X00777Y01151
X00788Y01139
X0075Y01125
X007005
X00725Y011
X00675Y011
X007Y01075
X00642Y010665
X006265Y01035
X00637Y010035
X006Y010045
X006145Y009845
X00589Y0096
X006Y00925
X00638Y009215
X006545Y009395
X006395Y00957
X006375Y00886
X006745Y00875
X006995
X007185Y00867
X007375Y00878
X007665Y0088
X00786Y008925
X00796Y00903
X008245Y00923
X00828Y009475
X00807Y00943
X00815Y0096
X008115Y009855
X008555Y00979
X0087527Y0099077
X009Y0098
X00919Y00951
X00931Y009355
X00913Y00922
X008745Y009275
X008535Y00945
X00861Y00897
X008455Y00887
X008305Y00879
X00894Y008885
X00932Y008635
X009315Y010545
X0089709Y01043
X008725Y010295
X00872Y010825
X008765Y011175
X0091Y0112
X009325Y01141
X0085Y01134
X008155Y01113
X008165Y01087
X00817Y01059
X00812Y010455
X007545Y01063
X00737Y01045
X00732Y00984
X00752Y00983
X00724Y00955
X00712Y010035
X00676Y01004
X00573Y010145
X005505Y00975
X005525Y00924
X005685Y00904
X00597Y008715
X007505Y00912
X0075Y01175
X00775Y012
X008Y01225
X0085
X0075Y012255
X00725Y0115
X006745
X0065Y01175
X006265Y01177
X006145Y011925
X00625Y01225
X00575
X00502Y01228
X00514Y01194
Y011645
X004855Y01179
X00435Y01152
X00414Y01134
X0038
X00363Y011185
X00388Y011075
X004215Y01081
X00442Y010735
X004655Y01076
X004505Y0105
X00484Y010495
X004855Y01023
X00465Y010225
X0045Y01
X0045Y0095
X004755Y00975
X00502Y010135
X00528Y01035
X005145Y010495
X005255Y00905
X00487Y009045
X00526Y008545
X002155Y00916
X00236Y00941
X0018Y008925
X00325Y01075
X00325Y01125
Y01175
X0045Y01225
X00084Y009925
X000605Y010095
X-00032Y009675
T02
X005419Y0020394
X006169Y0017894
Y0032894
X005419Y0030394
X0060505Y0078349
Y0080849
X0115688Y0080909
X0118188
X0207799Y00889
X0210299
T03
X0000989Y0004991
X0006039
X0045Y0005
X00488Y000492
Y000746
Y001
X0045Y001008
Y000754
Y00425
Y004504
X000605
Y00425
X0001
Y004504
X0000989Y0010071
Y0007531
X0006039
Y0010071
X000605Y004758
Y005012
Y005266
Y00552
Y005774
Y006028
Y006282
Y006536
Y00679
Y007044
Y007298
Y007552
Y007806
Y00806
Y008314
X0001
Y00806
Y007806
X0001Y007552
X0001Y007298
Y007044
Y00679
Y006536
Y006282
Y006028
Y005774
Y00552
Y005266
Y005012
Y004758
X0045
Y005012
Y005266
Y00552
Y005774
Y006028
Y006282
Y006536
Y00679
Y007044
Y007298
Y007552
Y007806
Y00806
Y008314
Y008568
Y008822
Y009076
X000605
Y008822
Y008568
X0001
Y008822
Y009076
T04
X0022851Y0031091
X0027851
Y0037091
X0022851
X008906Y0070808
X00916
X009414
X009668
X010176
X01043
X00484Y0108055
X00484Y0110595
X00484Y0113135
Y0115675
X004585Y0116945
Y0114405
Y0111865
Y0109325
X00346Y01087
X003612Y010619
Y011627
X00346Y011881
T05
X002745Y005344
Y005598
Y005852
Y006106
Y00636
Y006614
Y006868
Y007122
Y007376
Y00763
Y007884
Y008138
Y008392
X00573Y0075942
X00573Y0070942
X01729Y00757
Y00807
X01736Y01101
X01762
X01762Y01171
X01736
X01101Y01173
Y01199
X01135Y01034
X01185
X01288Y00882
Y00856
X002745Y008646
Y0089
Y009154
Y009408
Y009662
Y009916
Y01017
T06
X0015809Y0006303
X0015809Y0011383
X0019703Y0014891
X0024783Y0014891
X0024703Y0027391
X0019703
X0015809Y0031103
X0015809Y0036183
X0003309Y0036103
Y0031103
X0007003Y0027391
X0012003
X-0000397
X-0005397
Y0014891
X-0000317Y0014891
X0003309Y0011303
Y0006303
X0007003Y0014891
X0012083
T07
X01378Y00756
X01578
X01606Y00841
X01843Y01216
X01918
X01631Y00881
X01581
T08
X01378Y00811
X01437
X0191897Y0050112
X0206897
X01974Y00994
Y01069
X02054Y01165
Y01225
X01695Y01063
X01622Y01064
X01551
X01552Y01121
T09
X01372Y00907
Y00958
X01372Y01009
X01372Y0106
Y01111
X01498
Y0106
X01498Y01009
X01498Y00958
Y00907
T10
X00425Y01046
Y01204
T11
X0158305Y0054291
X021746Y00978
X022254
X022396Y01083
X021888
X020872
X020364
X020222Y00978
X02073
T12
X002555Y0005
X007
X0145
X02225Y000505
X0137305Y0054291
X02225Y012
X01422
X007
X002555
T13
X00395Y01068
Y01182
M30
